# Blender 4.5.3 LTS
# www.blender.org
o polyp_10
v -1.000000 0.000000 1.000000
v -0.671875 0.000000 1.000000
v 0.109375 0.000000 1.000000
v 0.421875 0.000000 1.000000
v 0.734375 0.000000 1.000000
v 1.000000 0.000000 1.000000
v -0.265625 0.000000 1.000000
v -0.468750 0.002772 0.796875
v -0.093750 0.002772 0.796875
v -1.000000 0.000000 0.765625
v -0.593750 0.002772 0.671875
v 0.062500 0.002772 0.640625
v 1.000000 0.000000 0.640625
v -0.281250 0.002772 0.609375
v -0.312500 0.002772 0.578125
v -0.250000 0.002772 0.578125
v -0.343750 0.002772 0.546875
v -0.281250 0.002772 0.546875
v -0.218750 0.002772 0.546875
v -0.750000 0.002772 0.515625
v -0.375000 0.002772 0.515625
v -0.312500 0.002772 0.515625
v -0.250000 0.002772 0.515625
v -0.187500 0.002772 0.515625
v -0.406237 0.003234 0.484376
v -0.343750 0.002772 0.484375
v -0.281250 0.002772 0.484375
v -0.218750 0.002772 0.484375
v -0.156250 0.002772 0.484375
v 0.218750 0.002772 0.484375
v -1.000000 0.000000 0.453125
v -0.436799 0.010961 0.453209
v -0.375000 0.002772 0.453125
v -0.312500 0.002772 0.453125
v -0.250000 0.002772 0.453125
v -0.187500 0.002772 0.453125
v -0.125000 0.002772 0.453125
v -0.470211 0.014451 0.422104
v -0.405758 0.007326 0.422041
v -0.343750 0.002772 0.421875
v -0.281250 0.002772 0.421875
v -0.218750 0.002772 0.421875
v -0.156250 0.002772 0.421875
v -0.093750 0.002772 0.421875
v -0.500379 0.005751 0.390654
v -0.438202 0.022250 0.392302
v -0.374823 0.004715 0.390704
v -0.312500 0.002772 0.390625
v -0.250000 0.002772 0.390625
v -0.187500 0.002772 0.390625
v -0.125000 0.002772 0.390625
v -0.062500 0.002772 0.390625
v -0.906250 0.002772 0.359375
v -0.531250 0.002772 0.359375
v -0.471130 0.014835 0.358380
v -0.403497 0.023849 0.361567
v -0.343746 0.002949 0.359377
v -0.281250 0.002772 0.359375
v -0.218750 0.002772 0.359375
v -0.156250 0.002772 0.359375
v -0.093750 0.002772 0.359375
v -0.031250 0.002772 0.359375
v -0.562500 0.002772 0.328125
v -0.499436 0.004466 0.328026
v -0.441468 0.023421 0.327715
v -0.371353 0.017999 0.330262
v -0.312500 0.002772 0.328125
v -0.250000 0.002772 0.328125
v -0.187500 0.002772 0.328125
v -0.125000 0.002831 0.328126
v -0.062499 0.003082 0.328138
v 0.000000 0.002825 0.328127
v 0.375000 0.002772 0.328125
v 1.000000 0.000000 0.328125
v -0.593750 0.002772 0.296875
v -0.531250 0.002772 0.296875
v -0.469271 0.010474 0.296630
v -0.409456 0.033833 0.299299
v -0.341512 0.011542 0.298036
v -0.281250 0.002772 0.296875
v -0.218750 0.002772 0.296875
v -0.156259 0.003241 0.296897
v -0.093807 0.005669 0.297299
v -0.031199 0.005480 0.297388
v 0.031266 0.003263 0.296925
v -1.000000 0.000000 0.265625
v -0.625000 0.002772 0.265625
v -0.562500 0.002772 0.265625
v -0.499399 0.003614 0.265725
v -0.442658 0.020569 0.265350
v -0.370486 0.042273 0.270175
v -0.312104 0.005242 0.265808
v -0.250000 0.002772 0.265625
v -0.187528 0.003618 0.265668
v -0.125628 0.010236 0.267357
v -0.062860 0.015057 0.270294
v 0.000641 0.011106 0.268363
v 0.062610 0.004387 0.265831
v -0.656250 0.002772 0.234375
v -0.593750 0.002772 0.234375
v -0.531249 0.002774 0.234375
v -0.469059 0.009447 0.234540
v -0.417970 0.034998 0.232817
v -0.334494 0.032628 0.239178
v -0.281238 0.003074 0.234383
v -0.218772 0.003535 0.234399
v -0.157803 0.013364 0.236794
v -0.097158 0.027015 0.245361
v -0.030263 0.029363 0.247732
v 0.033684 0.017450 0.239401
v 0.093959 0.005219 0.234627
v -0.687500 0.002772 0.203125
v -0.625000 0.002772 0.203125
v -0.562500 0.002772 0.203125
v -0.499674 0.003885 0.203192
v -0.443760 0.019848 0.202977
v -0.387066 0.051144 0.202639
v -0.305731 0.021796 0.207024
v -0.249977 0.003896 0.203170
v -0.189130 0.012871 0.204785
v -0.132815 0.034443 0.215503
v -0.066757 0.049475 0.227602
v 0.006463 0.042527 0.221606
v 0.066601 0.020345 0.207798
v 0.125140 0.004832 0.203240
v -0.718750 0.002772 0.171875
v -0.656250 0.002772 0.171875
v -0.593750 0.002772 0.171875
v -0.531249 0.002791 0.171875
v -0.468571 0.010485 0.172489
v -0.423503 0.033805 0.172375
v -0.344497 0.058348 0.179083
v -0.276583 0.016462 0.174999
v -0.219156 0.011268 0.173171
v -0.164900 0.034065 0.180483
v -0.107292 0.061995 0.196623
v -0.028213 0.070153 0.201333
v 0.044092 0.048148 0.187081
v 0.097148 0.017676 0.174164
v 0.156289 0.003756 0.171896
v 0.531250 0.002772 0.171875
v -1.000000 0.000000 0.140625
v -0.750000 0.002772 0.140625
v -0.687500 0.002772 0.140625
v -0.625000 0.002772 0.140625
v -0.562500 0.002773 0.140625
v -0.499754 0.004498 0.140722
v -0.443370 0.023259 0.143309
v -0.401595 0.053146 0.144004
v -0.301636 0.055212 0.153012
v -0.244289 0.019657 0.146072
v -0.191527 0.030060 0.147404
v -0.141839 0.061751 0.157378
v -0.071358 0.087957 0.167917
v 0.014910 0.079382 0.162272
v 0.075762 0.042673 0.147994
v 0.126320 0.011579 0.141146
v 0.187502 0.002918 0.140626
v -0.781250 0.002772 0.109375
v -0.718750 0.002772 0.109375
v -0.656250 0.002772 0.109375
v -0.593750 0.002772 0.109375
v -0.531254 0.003088 0.109379
v -0.469113 0.013600 0.110476
v -0.426125 0.041382 0.115286
v -0.369341 0.075522 0.117652
v -0.262827 0.050802 0.125588
v -0.210833 0.033664 0.122602
v -0.165381 0.054996 0.122656
v -0.110150 0.088025 0.126904
v -0.026860 0.100322 0.127143
v 0.051499 0.071707 0.118844
v 0.101088 0.029228 0.111332
v 0.156503 0.006222 0.109417
v 0.218750 0.002773 0.109375
v -0.812500 0.002772 0.078125
v -0.750000 0.002772 0.078125
v -0.687500 0.002772 0.078125
v -0.625000 0.002772 0.078125
v -0.562500 0.002785 0.078125
v -0.500164 0.006716 0.078269
v -0.445777 0.030801 0.081667
v -0.410855 0.063558 0.086205
v -0.325341 0.094451 0.092886
v -0.224378 0.054686 0.103121
v -0.179045 0.053189 0.099064
v -0.134684 0.078017 0.092436
v -0.069478 0.101879 0.089026
v 0.014257 0.093607 0.085678
v 0.077203 0.051928 0.081806
v 0.127018 0.015185 0.078538
v 0.187510 0.003315 0.078125
v 0.250000 0.002772 0.078125
v -0.843750 0.002772 0.046875
v -0.781250 0.002772 0.046875
v -0.718750 0.002772 0.046875
v -0.656250 0.002772 0.046875
v -0.593750 0.002772 0.046875
v -0.531298 0.003441 0.046876
v -0.471321 0.018220 0.047490
v -0.431070 0.052057 0.052961
v -0.391036 0.089981 0.054613
v -0.271369 0.100819 0.068539
v -0.188601 0.064529 0.079796
v -0.146944 0.070831 0.069348
v -0.098914 0.091076 0.058307
v -0.029240 0.099588 0.054474
v 0.045305 0.074160 0.054812
v 0.099762 0.030395 0.050826
v 0.156347 0.005548 0.047040
v 0.218750 0.002760 0.046875
v 0.281250 0.002772 0.046875
v -0.875000 0.002772 0.015625
v -0.812500 0.002772 0.015625
v -0.750000 0.002772 0.015625
v -0.687500 0.002772 0.015625
v -0.625000 0.002772 0.015625
v -0.562500 0.002784 0.015625
v -0.500731 0.008032 0.015513
v -0.450394 0.036534 0.016392
v -0.419711 0.076244 0.021140
v -0.358740 0.117227 0.020717
v -0.221346 0.098235 0.045772
v -0.155090 0.074200 0.049603
v -0.114261 0.081309 0.036172
v -0.064053 0.093280 0.028698
v 0.004417 0.087955 0.031129
v 0.070967 0.052808 0.030486
v 0.126393 0.016236 0.018938
v 0.187456 0.002694 0.015603
v 0.250000 0.002772 0.015625
v 0.312500 0.002772 0.015625
v 0.687500 0.002772 0.015625
v -0.843750 0.002772 -0.015625
v -0.781250 0.002772 -0.015625
v -0.718750 0.002772 -0.015625
v -0.656250 0.002772 -0.015625
v -0.593750 0.002772 -0.015625
v -0.531303 0.003362 -0.015645
v -0.473373 0.020644 -0.016690
v -0.438837 0.056796 -0.015973
v -0.403224 0.101276 -0.016924
v -0.307625 0.133715 -0.011891
v -0.179564 0.096741 0.017931
v -0.123715 0.080228 0.015412
v -0.084676 0.085118 0.006208
v -0.033691 0.089981 0.007614
v 0.034068 0.074332 0.013092
v 0.099065 0.039538 0.001449
v 0.158069 0.014912 -0.013049
v 0.218765 0.003219 -0.015614
v 0.281250 0.002772 -0.015625
v 0.343750 0.002772 -0.015625
v -0.812500 0.002772 -0.046875
v -0.750000 0.002772 -0.046875
v -0.687500 0.002772 -0.046875
v -0.625000 0.002772 -0.046875
v -0.562500 0.002781 -0.046875
v -0.500668 0.008544 -0.047193
v -0.455951 0.036853 -0.049447
v -0.426797 0.079736 -0.053118
v -0.377074 0.121987 -0.059224
v -0.245622 0.133623 -0.038498
v -0.144271 0.094860 -0.015726
v -0.096534 0.082847 -0.017824
v -0.059388 0.086368 -0.018724
v -0.005508 0.085401 -0.010370
v 0.066091 0.065331 -0.010828
v 0.134732 0.040758 -0.029212
v 0.190918 0.016714 -0.043868
v 0.250000 0.002868 -0.046875
v 0.312500 0.002772 -0.046875
v 0.375000 0.002772 -0.046875
v 1.000000 0.000000 -0.046875
v -0.781250 0.002772 -0.078125
v -0.718750 0.002772 -0.078125
v -0.656250 0.002772 -0.078125
v -0.593750 0.002772 -0.078125
v -0.531245 0.003516 -0.078119
v -0.475573 0.020975 -0.078547
v -0.446308 0.054775 -0.085885
v -0.408660 0.102051 -0.094952
v -0.338799 0.141241 -0.101285
v -0.196013 0.124188 -0.067520
v -0.114659 0.092512 -0.051862
v -0.074018 0.084603 -0.050503
v -0.035966 0.088314 -0.042700
v 0.025808 0.084373 -0.033493
v 0.107151 0.069114 -0.039722
v 0.173242 0.043307 -0.060399
v 0.221715 0.013856 -0.076411
v 0.281250 0.002776 -0.078125
v 0.343750 0.002772 -0.078125
v 0.406250 0.002772 -0.078125
v -1.000000 0.000000 -0.109375
v -0.750000 0.002772 -0.109375
v -0.687500 0.002772 -0.109375
v -0.625000 0.002772 -0.109375
v -0.562500 0.002774 -0.109375
v -0.501106 0.009090 -0.109168
v -0.460122 0.037121 -0.112952
v -0.433359 0.074986 -0.127469
v -0.383773 0.121270 -0.140619
v -0.285791 0.149404 -0.138685
v -0.156779 0.113325 -0.103456
v -0.088978 0.089659 -0.091219
v -0.057249 0.089601 -0.082390
v -0.010593 0.095626 -0.070961
v 0.066866 0.096533 -0.061915
v 0.154029 0.076117 -0.072565
v 0.207889 0.039309 -0.096454
v 0.251128 0.008365 -0.108915
v 0.312500 0.002772 -0.109375
v 0.375000 0.002772 -0.109375
v 0.437500 0.002772 -0.109375
v -0.718750 0.002772 -0.140625
v -0.656250 0.002772 -0.140625
v -0.593750 0.002772 -0.140625
v -0.531275 0.003170 -0.140627
v -0.476256 0.021635 -0.141106
v -0.446241 0.053143 -0.152344
v -0.409409 0.095424 -0.171843
v -0.343930 0.133548 -0.188110
v -0.225508 0.133687 -0.169992
v -0.123775 0.103848 -0.141820
v -0.077110 0.091315 -0.128079
v -0.038666 0.101531 -0.116812
v 0.021572 0.116003 -0.103695
v 0.121183 0.116585 -0.094874
v 0.196528 0.072689 -0.114654
v 0.235277 0.029997 -0.134342
v 0.281377 0.004021 -0.140587
v 0.343750 0.002772 -0.140625
v 0.406250 0.002772 -0.140625
v 0.468750 0.002772 -0.140625
v -0.687500 0.002772 -0.171875
v -0.625000 0.002772 -0.171875
v -0.562500 0.002772 -0.171875
v -0.500742 0.007159 -0.171999
v -0.455503 0.037000 -0.175490
v -0.426323 0.066943 -0.195396
v -0.369370 0.110295 -0.218433
v -0.290283 0.129952 -0.230263
v -0.175017 0.113450 -0.201638
v -0.099705 0.094576 -0.180173
v -0.065835 0.101910 -0.165550
v -0.017966 0.122594 -0.155036
v 0.066310 0.146971 -0.141254
v 0.174436 0.116118 -0.142896
v 0.227467 0.059152 -0.159439
v 0.257803 0.018494 -0.170047
v 0.312501 0.002800 -0.171875
v 0.375000 0.002772 -0.171875
v 0.437500 0.002772 -0.171875
v 0.500000 0.002772 -0.171875
v 0.875000 0.002772 -0.171875
v -0.656250 0.002772 -0.203125
v -0.593750 0.002772 -0.203125
v -0.531250 0.002778 -0.203125
v -0.473006 0.016233 -0.204242
v -0.432969 0.049872 -0.213959
v -0.393351 0.077916 -0.240580
v -0.322821 0.106870 -0.262393
v -0.228942 0.109459 -0.257403
v -0.136237 0.098615 -0.232781
v -0.093879 0.095792 -0.214381
v -0.051766 0.118462 -0.206564
v 0.012609 0.150259 -0.199614
v 0.128374 0.160533 -0.190348
v 0.213237 0.096011 -0.194317
v 0.247689 0.041738 -0.199455
v 0.282720 0.007914 -0.202917
v 0.343750 0.002772 -0.203125
v 0.406250 0.002772 -0.203125
v 0.468750 0.002772 -0.203125
v 0.531250 0.002772 -0.203125
v -1.000000 0.000000 -0.234375
v -0.625000 0.002772 -0.234375
v -0.562500 0.002772 -0.234375
v -0.500035 0.003491 -0.234387
v -0.446587 0.026458 -0.238133
v -0.403654 0.057181 -0.254784
v -0.348723 0.079766 -0.281152
v -0.269126 0.092384 -0.292575
v -0.180526 0.093254 -0.278482
v -0.118915 0.087595 -0.260303
v -0.082972 0.106548 -0.252901
v -0.032099 0.138114 -0.253703
v 0.060139 0.172429 -0.253861
v 0.183067 0.135436 -0.244812
v 0.237000 0.069623 -0.236618
v 0.263238 0.024961 -0.233898
v 0.312528 0.003050 -0.234373
v 0.375000 0.002772 -0.234375
v 0.437500 0.002772 -0.234375
v 0.500000 0.002772 -0.234375
v 0.562500 0.002772 -0.234375
v -0.593750 0.002772 -0.265625
v -0.531250 0.002772 -0.265625
v -0.469300 0.006675 -0.265876
v -0.417092 0.034058 -0.272962
v -0.365007 0.058781 -0.292084
v -0.299223 0.072213 -0.310703
v -0.219691 0.080492 -0.311911
v -0.145377 0.076850 -0.301900
v -0.112896 0.089663 -0.289449
v -0.068750 0.117564 -0.297326
v 0.001955 0.154246 -0.309289
v 0.128014 0.161937 -0.309447
v 0.216465 0.099100 -0.285698
v 0.250605 0.045773 -0.269804
v 0.283518 0.009718 -0.265656
v 0.343750 0.002772 -0.265625
v 0.406250 0.002772 -0.265625
v 0.468750 0.002772 -0.265625
v 0.531250 0.002772 -0.265625
v 0.593750 0.002772 -0.265625
v -0.562500 0.002772 -0.296875
v -0.500000 0.002772 -0.296875
v -0.438994 0.010702 -0.297818
v -0.383471 0.035969 -0.306417
v -0.323762 0.052609 -0.322199
v -0.254917 0.065211 -0.333658
v -0.176834 0.068598 -0.333022
v -0.137120 0.073596 -0.317551
v -0.096612 0.096009 -0.328667
v -0.042622 0.126328 -0.348012
v 0.057372 0.152278 -0.365562
v 0.178045 0.121612 -0.345322
v 0.233786 0.066581 -0.314223
v 0.262056 0.025618 -0.298705
v 0.312513 0.002979 -0.296875
v 0.375000 0.002772 -0.296875
v 0.437500 0.002772 -0.296875
v 0.500000 0.002772 -0.296875
v 0.562500 0.002772 -0.296875
v 0.625000 0.002772 -0.296875
v 1.000000 0.000000 -0.296875
v -0.906250 0.002772 -0.328125
v -0.531250 0.002772 -0.328125
v -0.468750 0.002793 -0.328125
v -0.407878 0.012730 -0.329637
v -0.348222 0.032096 -0.336985
v -0.286129 0.048415 -0.349750
v -0.213557 0.063449 -0.355575
v -0.160717 0.066508 -0.338395
v -0.116702 0.079568 -0.349488
v -0.074998 0.100827 -0.371784
v 0.001925 0.125722 -0.398377
v 0.118733 0.123845 -0.399607
v 0.204476 0.083353 -0.365366
v 0.243042 0.042287 -0.336866
v 0.282319 0.007960 -0.328269
v 0.343750 0.002772 -0.328125
v 0.406250 0.002772 -0.328125
v 0.468750 0.002772 -0.328125
v 0.531250 0.002772 -0.328125
v 0.593750 0.002772 -0.328125
v 0.656250 0.002772 -0.328125
v -0.500000 0.002772 -0.359375
v -0.437501 0.002906 -0.359376
v -0.375972 0.011757 -0.360747
v -0.315371 0.030177 -0.367536
v -0.251700 0.053410 -0.374409
v -0.188827 0.065504 -0.362056
v -0.135004 0.077337 -0.365113
v -0.096915 0.085977 -0.384625
v -0.038709 0.104824 -0.416428
v 0.058717 0.114001 -0.435787
v 0.159892 0.090815 -0.414593
v 0.217692 0.055223 -0.379587
v 0.255933 0.020092 -0.361205
v 0.312500 0.002784 -0.359375
v 0.375000 0.002772 -0.359375
v 0.437500 0.002772 -0.359375
v 0.500000 0.002772 -0.359375
v 0.562500 0.002772 -0.359375
v 0.625000 0.002772 -0.359375
v 0.687500 0.002772 -0.359375
v -0.468750 0.002772 -0.390625
v -0.406253 0.002958 -0.390628
v -0.344786 0.012345 -0.392134
v -0.285870 0.037154 -0.397126
v -0.224278 0.062772 -0.392496
v -0.161855 0.083567 -0.385508
v -0.112381 0.086599 -0.396241
v -0.066157 0.096195 -0.426305
v 0.009675 0.106875 -0.455529
v 0.110723 0.096856 -0.455348
v 0.183288 0.063757 -0.422014
v 0.229394 0.031629 -0.396627
v 0.281405 0.004893 -0.390661
v 0.343750 0.002772 -0.390625
v 0.406250 0.002772 -0.390625
v 0.468750 0.002772 -0.390625
v 0.531250 0.002772 -0.390625
v 0.593750 0.002772 -0.390625
v 0.656250 0.002772 -0.390625
v -1.000000 0.000000 -0.421875
v -0.437500 0.002772 -0.421875
v -0.375037 0.003710 -0.421896
v -0.315518 0.020069 -0.423763
v -0.258388 0.053298 -0.424581
v -0.200930 0.090926 -0.415832
v -0.133770 0.098702 -0.415983
v -0.083722 0.098404 -0.436843
v -0.025557 0.103970 -0.466062
v 0.062018 0.107400 -0.480250
v 0.147690 0.075443 -0.461764
v 0.200386 0.040767 -0.433289
v 0.251140 0.010707 -0.422387
v 0.312500 0.002772 -0.421875
v 0.375000 0.002772 -0.421875
v 0.437500 0.002772 -0.421875
v 0.500000 0.002772 -0.421875
v 0.562500 0.002772 -0.421875
v 0.625000 0.002772 -0.421875
v -0.406250 0.002773 -0.453125
v -0.344283 0.007893 -0.453278
v -0.287907 0.032322 -0.455662
v -0.240838 0.077269 -0.457817
v -0.171254 0.113299 -0.452364
v -0.099824 0.107302 -0.458578
v -0.048857 0.104753 -0.477903
v 0.019636 0.111206 -0.493405
v 0.110438 0.097131 -0.490190
v 0.174045 0.055133 -0.469539
v 0.222500 0.019349 -0.455231
v 0.281255 0.003130 -0.453127
v 0.343750 0.002772 -0.453125
v 0.406250 0.002772 -0.453125
v 0.468750 0.002772 -0.453125
v 0.531250 0.002772 -0.453125
v 0.593750 0.002772 -0.453125
v -0.750000 0.002772 -0.484375
v -0.375007 0.003264 -0.484378
v -0.314418 0.014648 -0.485257
v -0.262180 0.045827 -0.491002
v -0.212995 0.095750 -0.501321
v -0.128748 0.110971 -0.498357
v -0.068583 0.103980 -0.501085
v -0.011625 0.111617 -0.508674
v 0.067477 0.112648 -0.509661
v 0.148618 0.079215 -0.498355
v 0.199556 0.036966 -0.487220
v 0.250684 0.007783 -0.484346
v 0.312500 0.002772 -0.484375
v 0.375000 0.002772 -0.484375
v 0.437500 0.002772 -0.484375
v 0.500000 0.002772 -0.484375
v 0.562500 0.002772 -0.484375
v -0.343849 0.004676 -0.515679
v -0.284550 0.020329 -0.518028
v -0.233417 0.053936 -0.529570
v -0.167285 0.087983 -0.539696
v -0.094053 0.092326 -0.535058
v -0.038952 0.105681 -0.535142
v 0.027092 0.117321 -0.532651
v 0.113542 0.103788 -0.524857
v 0.179615 0.061891 -0.515399
v 0.225339 0.024690 -0.513778
v 0.281328 0.004421 -0.515572
v 0.343750 0.002772 -0.515625
v 0.406250 0.002772 -0.515625
v 0.468750 0.002772 -0.515625
v 0.531250 0.002772 -0.515625
v 0.843750 0.002772 -0.515625
v -0.312773 0.006223 -0.547092
v -0.253706 0.022842 -0.550962
v -0.195938 0.050474 -0.563345
v -0.127417 0.068007 -0.566837
v -0.067839 0.085970 -0.567187
v -0.009366 0.109219 -0.565139
v 0.069884 0.117037 -0.555590
v 0.151722 0.088882 -0.544779
v 0.204791 0.048240 -0.541645
v 0.252563 0.016181 -0.545654
v 0.312504 0.003138 -0.546873
v 0.375000 0.002772 -0.546875
v 0.437500 0.002772 -0.546875
v 0.500000 0.002772 -0.546875
v -0.281558 0.006512 -0.578470
v -0.221225 0.020876 -0.582732
v -0.159454 0.039658 -0.589895
v -0.097916 0.057073 -0.594661
v -0.042161 0.085210 -0.599010
v 0.024248 0.110447 -0.594664
v 0.111586 0.108048 -0.583317
v 0.180623 0.073020 -0.573515
v 0.228617 0.035317 -0.575329
v 0.281808 0.008638 -0.577953
v 0.343750 0.002779 -0.578125
v 0.406250 0.002772 -0.578125
v 0.468750 0.002772 -0.578125
v -0.250171 0.005334 -0.609642
v -0.188643 0.015761 -0.612509
v -0.127635 0.029606 -0.617535
v -0.070202 0.052036 -0.624620
v -0.013731 0.083710 -0.630396
v 0.062866 0.104248 -0.627125
v 0.145676 0.090048 -0.616263
v 0.204167 0.054261 -0.609346
v 0.253478 0.020641 -0.609110
v 0.312534 0.004136 -0.609370
v 0.375000 0.002772 -0.609375
v 0.437500 0.002772 -0.609375
v -0.593750 0.002772 -0.640625
v -0.218796 0.003737 -0.640727
v -0.156909 0.010102 -0.642326
v -0.096482 0.022349 -0.645747
v -0.041276 0.049231 -0.654942
v 0.021441 0.077122 -0.663054
v 0.100647 0.085669 -0.660223
v 0.172169 0.064944 -0.649513
v 0.225936 0.032848 -0.642273
v 0.281728 0.008961 -0.640664
v 0.343750 0.002872 -0.640625
v 0.406250 0.002772 -0.640625
v -0.187507 0.002949 -0.671891
v -0.125308 0.006230 -0.672342
v -0.064993 0.018540 -0.675197
v -0.008403 0.044847 -0.686116
v 0.059325 0.062807 -0.692383
v 0.132688 0.060453 -0.687581
v 0.195138 0.038878 -0.677502
v 0.251402 0.014689 -0.672414
v 0.312511 0.003758 -0.671877
v 0.375000 0.002772 -0.671875
v 0.687500 0.002772 -0.671875
v 1.000000 0.000000 -0.671875
v -0.156250 0.002790 -0.703125
v -0.093825 0.004180 -0.703175
v -0.033290 0.016607 -0.706293
v 0.026986 0.035593 -0.714346
v 0.094347 0.043649 -0.716566
v 0.160414 0.035405 -0.710629
v 0.220394 0.017566 -0.704521
v 0.281330 0.005359 -0.703165
v 0.343750 0.002774 -0.703125
v -1.000000 0.000000 -0.734375
v -0.125000 0.002773 -0.734375
v -0.062517 0.003456 -0.734405
v -0.001016 0.012214 -0.736454
v 0.061396 0.022636 -0.739980
v 0.125817 0.023993 -0.739333
v 0.188391 0.015280 -0.735880
v 0.250102 0.006131 -0.734468
v 0.312500 0.002912 -0.734375
v -0.093750 0.002772 -0.765625
v -0.031254 0.002949 -0.765634
v 0.031101 0.006171 -0.766054
v 0.093657 0.010421 -0.766753
v 0.156400 0.009337 -0.766242
v 0.218796 0.005287 -0.765700
v 0.281250 0.002977 -0.765625
v -0.437500 0.002772 -0.796875
v -0.062500 0.002772 -0.796875
v -0.000000 0.002776 -0.796875
v 0.062498 0.003207 -0.796886
v 0.125001 0.004068 -0.796921
v 0.187505 0.003612 -0.796891
v 0.250000 0.002842 -0.796875
v -0.031250 0.002772 -0.828125
v 0.031250 0.002772 -0.828125
v 0.093750 0.002773 -0.828125
v 0.156250 0.002773 -0.828125
v 0.218750 0.002772 -0.828125
v 0.531250 0.002772 -0.828125
v 0.000000 0.002772 -0.859375
v 0.062500 0.002772 -0.859375
v 0.125000 0.002772 -0.859375
v 0.187500 0.002772 -0.859375
v 0.031250 0.002772 -0.890625
v 0.093750 0.002772 -0.890625
v 0.156250 0.002772 -0.890625
v 0.062500 0.002772 -0.921875
v 0.125000 0.002772 -0.921875
v -0.234375 0.000000 -1.000000
v 0.093750 0.002772 -0.953125
v -1.000000 0.000000 -1.000000
v -0.640625 0.000000 -1.000000
v -0.078125 0.000000 -1.000000
v 0.046875 0.000000 -1.000000
v 0.140625 0.000000 -1.000000
v 0.359375 0.000000 -1.000000
v 0.703125 0.000000 -1.000000
v 1.000000 0.000000 -1.000000
vn -0.0039 1.0000 0.0037
vn -0.0012 1.0000 0.0095
vn 0.0014 1.0000 0.0090
vn 0.0005 1.0000 0.0058
vn 0.0003 1.0000 0.0043
vn 0.0021 1.0000 0.0022
vn -0.0000 0.9999 0.0136
vn -0.0017 1.0000 0.0068
vn 0.0017 1.0000 0.0068
vn -0.0077 1.0000 0.0010
vn -0.0026 1.0000 0.0034
vn 0.0020 1.0000 0.0028
vn 0.0047 1.0000 0.0003
vn -0.0000 1.0000 -0.0000
vn -0.0079 1.0000 0.0038
vn 0.0032 1.0000 0.0038
vn 0.0324 0.9977 0.0600
vn 0.0018 1.0000 -0.0000
vn 0.0016 1.0000 0.0023
vn -0.0169 0.9998 0.0048
vn -0.2721 0.8376 0.4737
vn 0.0531 0.9980 0.0330
vn -0.0000 1.0000 0.0001
vn -0.0904 0.9927 0.0794
vn 0.1889 0.9745 0.1215
vn 0.0261 0.9995 0.0156
vn 0.0013 1.0000 -0.0000
vn 0.3312 0.8151 -0.4752
vn -0.0179 0.9926 0.1201
vn 0.1968 0.9731 0.1202
vn 0.0085 1.0000 0.0014
vn -0.0000 1.0000 0.0002
vn -0.4941 0.7165 -0.4924
vn -0.0148 0.9999 -0.0000
vn -0.0703 0.9966 -0.0427
vn -0.2536 0.9673 -0.0054
vn 0.1801 0.9691 0.1683
vn 0.1426 0.9834 0.1121
vn 0.0007 1.0000 -0.0000
vn -0.0005 1.0000 0.0021
vn -0.0020 0.9999 0.0131
vn -0.4948 0.7239 -0.4809
vn -0.1729 0.9831 -0.0596
vn -0.2490 0.9683 0.0178
vn 0.2994 0.9288 0.2184
vn 0.1014 0.9923 0.0714
vn -0.0038 1.0000 0.0053
vn -0.0195 0.9988 0.0442
vn 0.0015 0.9972 0.0751
vn 0.0180 0.9987 0.0474
vn 0.0026 1.0000 0.0018
vn 0.0064 1.0000 0.0007
vn -0.0199 0.9998 -0.0034
vn -0.3003 0.9535 -0.0252
vn -0.1317 0.9822 0.1342
vn 0.3704 0.9086 0.1928
vn 0.0463 0.9987 0.0198
vn -0.0068 1.0000 0.0068
vn -0.0550 0.9954 0.0780
vn -0.0448 0.9803 0.1925
vn 0.0364 0.9770 0.2102
vn 0.0577 0.9930 0.1033
vn -0.0177 0.9998 -0.0034
vn -0.1372 0.9905 -0.0064
vn -0.3812 0.9243 0.0187
vn 0.1833 0.9568 0.2257
vn 0.3135 0.9320 0.1818
vn 0.0047 1.0000 0.0088
vn -0.0856 0.9925 0.0870
vn -0.1487 0.9476 0.2826
vn -0.0231 0.9064 0.4218
vn 0.1303 0.9266 0.3526
vn 0.1049 0.9836 0.1468
vn -0.0039 1.0000 -0.0000
vn -0.0154 0.9999 0.0012
vn -0.3026 0.9531 -0.0006
vn -0.3915 0.9179 0.0649
vn 0.4297 0.8635 0.2641
vn 0.2152 0.9641 0.1555
vn -0.0812 0.9930 0.0856
vn -0.2567 0.9240 0.2833
vn -0.1891 0.8363 0.5146
vn 0.0983 0.8153 0.5707
vn 0.2640 0.8752 0.4053
vn 0.1334 0.9809 0.1412
vn -0.0002 1.0000 0.0001
vn -0.1350 0.9908 0.0073
vn -0.4287 0.9033 0.0187
vn -0.1958 0.9686 0.1535
vn 0.4713 0.8335 0.2884
vn 0.0658 0.9820 0.1772
vn -0.2779 0.9280 0.2480
vn -0.3795 0.8037 0.4582
vn -0.0875 0.7882 0.6091
vn 0.2867 0.7723 0.5668
vn 0.3680 0.8562 0.3627
vn 0.5863 0.5905 0.5546
vn -0.0024 1.0000 0.0002
vn -0.0225 0.9997 0.0037
vn -0.3177 0.9477 0.0315
vn -0.5116 0.8554 0.0805
vn 0.1385 0.9406 0.3099
vn 0.3882 0.8406 0.3778
vn -0.1603 0.9483 0.2738
vn -0.4593 0.8128 0.3582
vn -0.3343 0.8089 0.4836
vn 0.1215 0.8358 0.5354
vn 0.4650 0.7680 0.4403
vn 0.3969 0.8843 0.2459
vn 0.1012 0.9936 0.0507
vn 0.0020 1.0000 0.0015
vn -0.0222 0.9998 -0.0000
vn -0.0037 1.0000 0.0037
vn -0.0027 1.0000 0.0024
vn -0.1645 0.9861 0.0250
vn -0.4793 0.8727 0.0928
vn -0.4523 0.8678 0.2058
vn 0.3602 0.8102 0.4625
vn 0.1679 0.8470 0.5044
vn -0.3846 0.8644 0.3238
vn -0.4894 0.8141 0.3127
vn -0.1375 0.9202 0.3665
vn 0.3532 0.8651 0.3561
vn 0.5671 0.7827 0.2563
vn 0.3291 0.9371 0.1162
vn 0.0527 0.9984 0.0188
vn -0.0013 1.0000 -0.0000
vn -0.0439 0.9988 0.0235
vn -0.3886 0.9176 0.0834
vn -0.6067 0.7754 0.1752
vn -0.2425 0.9053 0.3488
vn 0.3402 0.7299 0.5929
vn -0.0614 0.8496 0.5238
vn -0.4845 0.8483 0.2135
vn -0.3586 0.9194 0.1618
vn 0.1069 0.9779 0.1797
vn 0.5422 0.8277 0.1450
vn 0.5459 0.8357 0.0597
vn 0.1957 0.9801 0.0324
vn 0.0163 0.9999 0.0024
vn -0.0198 0.9998 0.0028
vn -0.2213 0.9731 0.0644
vn -0.5793 0.8038 0.1355
vn -0.6030 0.7632 0.2322
vn -0.0061 0.8967 0.4425
vn 0.2154 0.7589 0.6146
vn -0.2169 0.9065 0.3622
vn -0.4386 0.8983 0.0253
vn -0.1480 0.9890 -0.0003
vn 0.3410 0.9400 -0.0066
vn 0.6396 0.7686 -0.0110
vn 0.3671 0.9300 -0.0209
vn 0.0755 0.9971 -0.0056
vn 0.0021 1.0000 -0.0001
vn -0.0028 1.0000 -0.0000
vn -0.1001 0.9949 0.0108
vn -0.4576 0.8865 0.0695
vn -0.6948 0.6979 0.1735
vn -0.4933 0.8255 0.2743
vn 0.1729 0.8656 0.4700
vn 0.1127 0.8490 0.5163
vn -0.2741 0.9561 0.1040
vn -0.3056 0.9445 -0.1209
vn 0.0856 0.9883 -0.1261
vn 0.5108 0.8550 -0.0899
vn 0.5692 0.8216 0.0312
vn 0.1964 0.9805 0.0113
vn 0.0129 0.9999 -0.0029
vn -0.0109 0.9999 -0.0013
vn -0.0263 0.9997 -0.0006
vn -0.2799 0.9598 0.0224
vn -0.6728 0.7340 0.0932
vn -0.6994 0.6915 0.1810
vn -0.2875 0.9185 0.2716
vn 0.2393 0.8664 0.4382
vn 0.0817 0.9441 0.3194
vn -0.2362 0.9700 -0.0583
vn -0.1299 0.9777 -0.1649
vn 0.2782 0.9496 -0.1446
vn 0.5596 0.8273 0.0497
vn 0.4095 0.8878 0.2100
vn 0.1195 0.9888 0.0893
vn 0.0035 1.0000 0.0036
vn 0.0035 1.0000 0.0021
vn -0.0055 1.0000 -0.0055
vn -0.0024 1.0000 -0.0001
vn -0.1193 0.9929 0.0040
vn -0.5237 0.8513 0.0317
vn -0.7736 0.6276 0.0874
vn -0.6172 0.7753 0.1341
vn -0.0364 0.9724 0.2304
vn 0.2802 0.9044 0.3218
vn 0.0629 0.9855 0.1574
vn -0.1715 0.9814 -0.0863
vn 0.0531 0.9910 -0.1232
vn 0.3767 0.9261 0.0209
vn 0.4864 0.7934 0.3660
vn 0.3413 0.8655 0.3667
vn 0.1162 0.9861 0.1184
vn 0.0022 1.0000 0.0008
vn -0.0286 0.9996 -0.0017
vn -0.3102 0.9506 0.0101
vn -0.7120 0.7007 0.0457
vn -0.7562 0.6514 0.0612
vn -0.4560 0.8866 0.0769
vn 0.1721 0.9649 0.1984
vn 0.2820 0.9324 0.2259
vn 0.0551 0.9953 0.0801
vn -0.0978 0.9937 -0.0553
vn 0.1425 0.9892 0.0333
vn 0.3600 0.8587 0.3648
vn 0.4396 0.6889 0.5763
vn 0.3848 0.8428 0.3762
vn 0.1079 0.9901 0.0897
vn 0.0004 1.0000 -0.0000
vn 0.0129 0.9999 0.0035
vn -0.0001 1.0000 -0.0000
vn -0.1307 0.9914 0.0048
vn -0.5518 0.8335 0.0271
vn -0.7862 0.6167 0.0397
vn -0.6537 0.7562 0.0293
vn -0.2509 0.9662 0.0592
vn 0.2879 0.9503 0.1184
vn 0.2632 0.9550 0.1367
vn 0.0069 0.9973 0.0730
vn -0.0846 0.9938 0.0717
vn 0.1203 0.9453 0.3032
vn 0.3315 0.7140 0.6166
vn 0.5414 0.6191 0.5689
vn 0.4154 0.8596 0.2975
vn 0.0698 0.9966 0.0448
vn -0.0162 0.9999 0.0002
vn -0.0031 1.0000 -0.0002
vn -0.0302 0.9995 0.0001
vn -0.3302 0.9439 0.0045
vn -0.7185 0.6955 -0.0022
vn -0.7697 0.6372 -0.0390
vn -0.5288 0.8464 -0.0633
vn 0.0299 0.9989 -0.0369
vn 0.3045 0.9519 0.0348
vn 0.1516 0.9847 0.0864
vn -0.1298 0.9818 0.1385
vn -0.1445 0.9547 0.2603
vn 0.0736 0.8427 0.5333
vn 0.4902 0.6221 0.6105
vn 0.6504 0.6062 0.4577
vn 0.3647 0.9121 0.1871
vn 0.0278 0.9996 0.0100
vn 0.0078 1.0000 -0.0000
vn -0.0016 1.0000 -0.0000
vn -0.1263 0.9919 -0.0156
vn -0.5542 0.8315 -0.0383
vn -0.7721 0.6260 -0.1093
vn -0.6716 0.7164 -0.1888
vn -0.3120 0.9236 -0.2229
vn 0.2393 0.9623 -0.1295
vn 0.2659 0.9639 -0.0157
vn -0.0558 0.9917 0.1156
vn -0.2989 0.9228 0.2432
vn -0.2041 0.8911 0.4053
vn 0.2601 0.7938 0.5498
vn 0.6800 0.5725 0.4581
vn 0.6777 0.6680 0.3075
vn 0.2319 0.9681 0.0949
vn 0.0051 1.0000 0.0002
vn -0.0193 0.9998 -0.0031
vn -0.3016 0.9520 -0.0530
vn -0.6824 0.7162 -0.1461
vn -0.7310 0.6297 -0.2629
vn -0.4882 0.7935 -0.3633
vn -0.0207 0.9331 -0.3590
vn 0.2424 0.9556 -0.1677
vn 0.0369 0.9993 -0.0084
vn -0.3637 0.9144 0.1776
vn -0.3738 0.8827 0.2849
vn -0.0891 0.9179 0.3868
vn 0.5730 0.7303 0.3720
vn 0.7866 0.5445 0.2910
vn 0.5936 0.7871 0.1680
vn 0.0969 0.9948 0.0319
vn 0.0001 1.0000 -0.0000
vn 0.0111 0.9999 -0.0000
vn -0.0778 0.9965 -0.0296
vn -0.4699 0.8716 -0.1401
vn -0.6871 0.6640 -0.2949
vn -0.5993 0.6710 -0.4366
vn -0.2518 0.8115 -0.5273
vn 0.1347 0.9176 -0.3741
vn 0.1831 0.9616 -0.2047
vn -0.2422 0.9691 0.0475
vn -0.4730 0.8640 0.1724
vn -0.3285 0.9206 0.2110
vn 0.2789 0.9352 0.2181
vn 0.7542 0.6304 0.1839
vn 0.7972 0.5835 0.1549
vn 0.3890 0.9187 0.0691
vn 0.0223 0.9998 0.0020
vn -0.0296 0.9996 -0.0000
vn -0.0029 1.0000 -0.0000
vn -0.1790 0.9804 -0.0819
vn -0.5461 0.7952 -0.2636
vn -0.5998 0.6634 -0.4474
vn -0.3998 0.7031 -0.5881
vn -0.0542 0.8347 -0.5480
vn 0.1448 0.9237 -0.3546
vn -0.1487 0.9780 -0.1464
vn -0.5038 0.8607 0.0728
vn -0.4474 0.8911 0.0758
vn -0.0968 0.9949 0.0280
vn 0.6103 0.7917 0.0287
vn 0.8299 0.5551 0.0557
vn 0.6899 0.7220 0.0515
vn 0.1571 0.9875 0.0154
vn 0.0011 1.0000 -0.0000
vn -0.0186 0.9998 -0.0057
vn -0.2743 0.9499 -0.1502
vn -0.5204 0.7598 -0.3897
vn -0.4487 0.6920 -0.5655
vn -0.2271 0.7635 -0.6045
vn 0.0127 0.8984 -0.4390
vn -0.0231 0.9503 -0.3106
vn -0.4530 0.8900 -0.0519
vn -0.5112 0.8585 -0.0415
vn -0.3170 0.9404 -0.1229
vn 0.2957 0.9366 -0.1880
vn 0.7617 0.6412 -0.0931
vn 0.8185 0.5734 -0.0353
vn 0.4412 0.8974 -0.0004
vn 0.0307 0.9995 -0.0006
vn -0.0484 0.9983 -0.0314
vn -0.3091 0.9235 -0.2272
vn -0.4257 0.7739 -0.4689
vn -0.3170 0.7619 -0.5649
vn -0.1596 0.8815 -0.4443
vn 0.0609 0.9598 -0.2741
vn -0.2836 0.9444 -0.1664
vn -0.5209 0.8436 -0.1303
vn -0.4294 0.8782 -0.2106
vn -0.0364 0.9375 -0.3460
vn 0.5778 0.7547 -0.3107
vn 0.8118 0.5555 -0.1802
vn 0.6786 0.7301 -0.0808
vn 0.1576 0.9874 -0.0151
vn 0.0008 1.0000 -0.0000
vn 0.0143 0.9999 -0.0017
vn -0.0147 0.9999 -0.0024
vn -0.0743 0.9952 -0.0641
vn -0.2866 0.9171 -0.2772
vn -0.3293 0.8275 -0.4546
vn -0.2938 0.8721 -0.3912
vn -0.0996 0.9809 -0.1673
vn -0.1033 0.9946 -0.0120
vn -0.3799 0.9240 -0.0430
vn -0.4773 0.8588 -0.1861
vn -0.2352 0.9091 -0.3439
vn 0.3004 0.8451 -0.4423
vn 0.7097 0.6066 -0.3583
vn 0.7568 0.6167 -0.2166
vn 0.3811 0.9223 -0.0646
vn 0.0219 0.9998 -0.0016
vn -0.0006 1.0000 -0.0001
vn -0.0830 0.9933 -0.0809
vn -0.2424 0.9327 -0.2670
vn -0.3469 0.8872 -0.3042
vn -0.2959 0.9486 -0.1126
vn -0.1964 0.9637 0.1811
vn -0.1172 0.9681 0.2215
vn -0.3097 0.9504 0.0300
vn -0.2887 0.9369 -0.1971
vn 0.0527 0.9435 -0.3272
vn 0.5391 0.7237 -0.4310
vn 0.7231 0.5894 -0.3602
vn 0.5520 0.8162 -0.1705
vn 0.1045 0.9942 -0.0249
vn 0.0022 1.0000 0.0001
vn -0.0039 1.0000 -0.0011
vn -0.0796 0.9943 -0.0715
vn -0.2842 0.9418 -0.1796
vn -0.4268 0.8983 -0.1045
vn -0.3951 0.8919 0.2201
vn -0.1114 0.9176 0.3817
vn -0.0131 0.9533 0.3018
vn -0.1513 0.9874 0.0473
vn -0.0852 0.9916 -0.0971
vn 0.3414 0.9128 -0.2242
vn 0.6460 0.6679 -0.3696
vn 0.6100 0.7388 -0.2863
vn 0.2363 0.9680 -0.0845
vn 0.0085 1.0000 -0.0000
vn -0.0169 0.9998 -0.0048
vn -0.0045 1.0000 -0.0015
vn -0.1146 0.9926 -0.0391
vn -0.3946 0.9160 -0.0720
vn -0.5379 0.8337 0.1252
vn -0.3758 0.8588 0.3481
vn 0.0494 0.9221 0.3839
vn 0.0706 0.9647 0.2535
vn -0.0825 0.9935 0.0785
vn 0.1224 0.9912 0.0505
vn 0.5373 0.8315 -0.1409
vn 0.6326 0.7359 -0.2412
vn 0.3567 0.9243 -0.1358
vn 0.0421 0.9990 -0.0141
vn -0.0271 0.9996 -0.0040
vn -0.2354 0.9713 -0.0330
vn -0.5319 0.8446 -0.0606
vn -0.6165 0.7854 0.0556
vn -0.1706 0.9756 0.1382
vn 0.1125 0.9813 0.1562
vn -0.0303 0.9941 0.1045
vn -0.0157 0.9899 0.1408
vn 0.3510 0.9286 0.1205
vn 0.6056 0.7954 -0.0258
vn 0.4943 0.8665 -0.0697
vn 0.1215 0.9923 -0.0238
vn 0.0014 1.0000 -0.0000
vn 0.0020 1.0000 -0.0000
vn -0.0045 1.0000 -0.0027
vn 0.4075 0.7874 0.4626
vn -0.3449 0.9305 -0.1235
vn -0.6259 0.7408 -0.2439
vn -0.4665 0.8311 -0.3029
vn 0.0008 0.9738 -0.2274
vn -0.0502 0.9931 -0.1060
vn -0.1097 0.9924 0.0549
vn 0.1427 0.9769 0.1589
vn 0.5135 0.8418 0.1663
vn 0.5954 0.7970 0.1018
vn 0.2923 0.9545 0.0586
vn 0.0283 0.9995 0.0104
vn 0.3109 0.8738 0.3739
vn -0.4124 0.8735 -0.2589
vn -0.5417 0.6857 -0.4862
vn -0.2070 0.8007 -0.5621
vn -0.1145 0.9108 -0.3967
vn -0.2245 0.9616 -0.1580
vn -0.0545 0.9982 0.0237
vn 0.3390 0.9299 0.1430
vn 0.5983 0.7784 0.1901
vn 0.4955 0.8499 0.1793
vn 0.1675 0.9832 0.0726
vn 0.0081 1.0000 0.0029
vn 0.0088 1.0000 -0.0006
vn -0.5943 0.5762 -0.5611
vn -0.4008 0.8278 -0.3925
vn -0.3695 0.7124 -0.5966
vn -0.1650 0.7851 -0.5970
vn -0.3199 0.8714 -0.3719
vn -0.2458 0.9505 -0.1899
vn 0.1001 0.9945 -0.0294
vn 0.4908 0.8648 0.1064
vn 0.5953 0.7847 0.1727
vn 0.3963 0.9100 0.1217
vn 0.0854 0.9958 0.0339
vn 0.0015 1.0000 -0.0000
vn -0.1419 0.9786 -0.1488
vn -0.3230 0.8423 -0.4315
vn -0.2259 0.7742 -0.5912
vn -0.3290 0.7788 -0.5341
vn -0.3924 0.8356 -0.3844
vn -0.1576 0.9526 -0.2602
vn 0.2708 0.9566 -0.1076
vn 0.5565 0.8303 0.0315
vn 0.5493 0.8328 0.0686
vn 0.2603 0.9645 0.0437
vn 0.0306 0.9995 0.0080
vn -0.1146 0.9814 -0.1540
vn -0.2091 0.8930 -0.3986
vn -0.2335 0.8319 -0.5034
vn -0.4379 0.7398 -0.5109
vn -0.3549 0.8198 -0.4494
vn -0.0094 0.9325 -0.3610
vn 0.3835 0.8971 -0.2193
vn 0.5585 0.8234 -0.1001
vn 0.4231 0.9057 -0.0245
vn 0.1215 0.9926 0.0032
vn 0.0059 1.0000 0.0004
vn -0.0024 1.0000 -0.0028
vn 0.4015 0.8479 0.3463
vn -0.1445 0.9407 -0.3070
vn -0.2831 0.8494 -0.4453
vn -0.4494 0.7224 -0.5255
vn -0.2374 0.8096 -0.5369
vn 0.1342 0.8736 -0.4678
vn 0.4315 0.8365 -0.3378
vn 0.4710 0.8635 -0.1802
vn 0.2366 0.9702 -0.0530
vn 0.0347 0.9994 -0.0030
vn 0.4336 0.8116 0.3916
vn -0.1154 0.9683 -0.2214
vn -0.3302 0.8499 -0.4106
vn -0.3589 0.7443 -0.5633
vn -0.0915 0.7927 -0.6028
vn 0.2348 0.8207 -0.5210
vn 0.3948 0.8441 -0.3629
vn 0.2947 0.9425 -0.1578
vn 0.0830 0.9961 -0.0297
vn 0.0043 1.0000 -0.0025
vn 0.0033 1.0000 -0.0031
vn 0.0111 0.9999 -0.0022
vn 0.4565 0.7774 0.4327
vn -0.1094 0.9810 -0.1602
vn -0.3020 0.8669 -0.3966
vn -0.2147 0.7860 -0.5798
vn 0.0279 0.8029 -0.5954
vn 0.2598 0.8455 -0.4666
vn 0.2637 0.9268 -0.2675
vn 0.1171 0.9902 -0.0762
vn 0.0191 0.9997 -0.0120
vn -0.0077 1.0000 -0.0010
vn -0.0088 0.9997 -0.0236
vn -0.1061 0.9860 -0.1289
vn -0.1914 0.9111 -0.3651
vn -0.0923 0.8561 -0.5085
vn 0.0877 0.8749 -0.4763
vn 0.1914 0.9349 -0.2990
vn 0.1090 0.9872 -0.1162
vn 0.5176 0.6860 -0.5114
vn -0.0090 0.9999 -0.0131
vn -0.0725 0.9924 -0.0998
vn -0.0914 0.9602 -0.2640
vn -0.0147 0.9412 -0.3376
vn 0.0785 0.9609 -0.2656
vn 0.0808 0.9901 -0.1145
vn 0.5170 0.6816 -0.5178
vn -0.0037 1.0000 -0.0090
vn 0.0074 1.0000 0.0053
vn -0.0259 0.9982 -0.0534
vn -0.0343 0.9911 -0.1290
vn 0.0091 0.9893 -0.1458
vn 0.0327 0.9957 -0.0872
vn 0.0235 0.9993 -0.0283
vn 0.0175 0.9997 0.0168
vn -0.0035 0.9999 -0.0154
vn -0.0069 0.9993 -0.0379
vn 0.0036 0.9994 -0.0350
vn 0.0105 0.9998 -0.0181
vn -0.0000 1.0000 -0.0081
vn -0.0063 1.0000 -0.0063
vn -0.0000 1.0000 -0.0017
vn -0.0000 1.0000 -0.0052
vn 0.0044 1.0000 -0.0078
vn 0.7071 0.7071 -0.0000
vn -0.0072 0.9999 -0.0121
vn 0.0044 1.0000 -0.0044
vn 0.0006 0.9999 -0.0127
vn -0.0060 0.9996 -0.0292
vn -0.0037 1.0000 -0.0036
vn -0.0014 1.0000 -0.0090
vn -0.0046 0.9999 -0.0159
vn -0.0055 0.9992 -0.0403
vn -0.0000 0.9983 -0.0590
vn 0.0022 0.9999 -0.0133
vn 0.0019 0.9999 -0.0103
vn 0.0043 1.0000 -0.0044
vt 0.367187 0.000000
vt 0.554688 0.000000
vt 0.451841 0.103553
vt 0.263652 0.106818
vt 0.357054 0.199901
vt 0.528777 0.184090
vt 0.710937 0.000000
vt 0.605004 0.266333
vt 0.682672 0.348722
vt 0.867188 0.000000
vt 1.000000 0.000000
vt 0.201418 0.173617
vt 0.000000 0.117187
vt 0.000000 0.000000
vt 1.000000 0.835938
vt 0.842876 0.841141
vt 0.921477 0.761755
vt 0.341251 0.215930
vt 0.372590 0.215225
vt 0.356818 0.231227
vt 0.341020 0.247192
vt 0.325418 0.231862
vt 0.372392 0.246446
vt 0.325266 0.263324
vt 0.309762 0.248268
vt 0.356627 0.262355
vt 0.388128 0.230512
vt 0.387968 0.261701
vt 0.403594 0.245858
vt 0.293926 0.264616
vt 0.309455 0.279532
vt 0.340843 0.278296
vt 0.372241 0.277422
vt 0.403615 0.277027
vt 0.278014 0.281084
vt 0.293870 0.295767
vt 0.325106 0.294374
vt 0.356521 0.293213
vt 0.387959 0.292544
vt 0.434968 0.277130
vt 0.419370 0.292462
vt 0.260631 0.297016
vt 0.121593 0.250039
vt 0.000000 0.273437
vt 0.276490 0.311881
vt 0.309527 0.310524
vt 0.340846 0.309131
vt 0.372304 0.308134
vt 0.403756 0.307771
vt 0.450702 0.292708
vt 0.435148 0.307958
vt 0.043272 0.322765
vt 0.000000 0.367187
vt 0.259007 0.328755
vt 0.244463 0.312761
vt 0.293398 0.326896
vt 0.325207 0.325166
vt 0.356635 0.323756
vt 0.388113 0.323059
vt 0.419544 0.323114
vt 0.450903 0.323605
vt 0.228340 0.328173
vt 0.243383 0.343768
vt 0.273847 0.343921
vt 0.310249 0.341155
vt 0.341063 0.339593
vt 0.372493 0.338379
vt 0.403888 0.338136
vt 0.435280 0.338611
vt 0.466359 0.308376
vt 0.466738 0.339491
vt 0.498241 0.340666
vt 0.226739 0.358899
vt 0.212033 0.343482
vt 0.257886 0.359269
vt 0.289890 0.358132
vt 0.326586 0.355371
vt 0.356993 0.353854
vt 0.388267 0.353145
vt 0.419539 0.353424
vt 0.450999 0.354139
vt 0.482188 0.324555
vt 0.482880 0.355200
vt 0.195748 0.358732
vt 0.210467 0.374045
vt 0.241753 0.374253
vt 0.271208 0.374773
vt 0.308456 0.372876
vt 0.342115 0.369630
vt 0.372779 0.368114
vt 0.403825 0.368098
vt 0.434859 0.368384
vt 0.466884 0.368376
vt 0.499499 0.370331
vt 0.179503 0.373833
vt 0.131876 0.417881
vt 0.194236 0.389059
vt 0.225153 0.389363
vt 0.256207 0.389670
vt 0.284370 0.391161
vt 0.327461 0.386194
vt 0.357593 0.383559
vt 0.388306 0.382771
vt 0.418616 0.382806
vt 0.449685 0.381359
vt 0.483565 0.381965
vt 0.514479 0.356707
vt 0.516557 0.385963
vt 1.000000 0.179687
vt 0.178145 0.403918
vt 0.163430 0.388424
vt 0.208935 0.404348
vt 0.239981 0.404672
vt 0.268757 0.405378
vt 0.300904 0.406550
vt 0.344558 0.398907
vt 0.373178 0.397260
vt 0.402831 0.397425
vt 0.432113 0.396105
vt 0.465456 0.394538
vt 0.501540 0.397777
vt 0.530771 0.372724
vt 0.533435 0.402805
vt 0.147553 0.403111
vt 0.162254 0.418676
vt 0.192854 0.419273
vt 0.223599 0.419647
vt 0.254840 0.419827
vt 0.279979 0.420725
vt 0.322112 0.418186
vt 0.360692 0.411754
vt 0.388012 0.411509
vt 0.415722 0.411913
vt 0.446322 0.410199
vt 0.483634 0.411229
vt 0.519834 0.416182
vt 0.563085 0.405296
vt 0.549728 0.420078
vt 0.146570 0.433509
vt 0.546939 0.388843
vt 0.176953 0.434150
vt 0.207539 0.434588
vt 0.238351 0.434895
vt 0.267763 0.434333
vt 0.293328 0.435392
vt 0.344306 0.429329
vt 0.376543 0.424488
vt 0.401487 0.426269
vt 0.428917 0.427426
vt 0.463552 0.427936
vt 0.503341 0.431315
vt 0.536917 0.435110
vt 0.579299 0.421615
vt 0.565493 0.436858
vt 0.131156 0.448370
vt 0.116385 0.432710
vt 0.161324 0.449051
vt 0.191648 0.449552
vt 0.222162 0.449881
vt 0.253164 0.449761
vt 0.278540 0.448662
vt 0.311652 0.449584
vt 0.365570 0.440032
vt 0.392052 0.437663
vt 0.415276 0.442219
vt 0.444874 0.445584
vt 0.483316 0.448710
vt 0.521650 0.451460
vt 0.552470 0.452542
vt 0.595659 0.437704
vt 0.581553 0.452818
vt 0.101078 0.447573
vt 0.086723 0.462868
vt 1.000000 0.335938
vt 0.765338 0.424122
vt 0.145911 0.464017
vt 0.176018 0.464547
vt 0.206348 0.464899
vt 0.236750 0.465096
vt 0.265938 0.464277
vt 0.289511 0.463930
vt 0.334514 0.462988
vt 0.385406 0.450531
vt 0.407559 0.452652
vt 0.431173 0.460179
vt 0.463494 0.465421
vt 0.502702 0.468141
vt 0.537993 0.468260
vt 0.567896 0.468194
vt 0.612147 0.453597
vt 0.597970 0.468393
vt 0.116076 0.463283
vt 0.101456 0.478624
vt 0.130813 0.479091
vt 0.160651 0.479602
vt 0.190745 0.479979
vt 0.220946 0.480242
vt 0.250878 0.480346
vt 0.276503 0.479094
vt 0.302936 0.480674
vt 0.361438 0.474450
vt 0.403296 0.463344
vt 0.423724 0.470368
vt 0.448656 0.478540
vt 0.482311 0.482611
vt 0.520226 0.482444
vt 0.553818 0.482277
vt 0.583979 0.483259
vt 0.628680 0.469395
vt 0.614325 0.483998
vt 0.057874 0.493518
vt 0.086862 0.493999
vt 0.072230 0.509322
vt 0.145540 0.494787
vt 0.175393 0.495114
vt 0.205456 0.495390
vt 0.235243 0.495703
vt 0.262926 0.496004
vt 0.286837 0.495619
vt 0.321328 0.498126
vt 0.386717 0.484169
vt 0.420061 0.479925
vt 0.440204 0.488568
vt 0.465477 0.494129
vt 0.499468 0.494242
vt 0.536782 0.493410
vt 0.569568 0.496613
vt 0.600004 0.498622
vt 0.630443 0.499644
vt 0.116068 0.494419
vt 0.101292 0.509805
vt 0.130630 0.510126
vt 0.160398 0.510352
vt 0.190267 0.510599
vt 0.220145 0.510847
vt 0.248919 0.511726
vt 0.272496 0.512360
vt 0.299001 0.514627
vt 0.346463 0.513799
vt 0.407848 0.497337
vt 0.435742 0.498242
vt 0.454987 0.504264
vt 0.480574 0.505099
vt 0.515788 0.502846
vt 0.553180 0.506184
vt 0.585591 0.512025
vt 0.615960 0.514274
vt 0.660968 0.500410
vt 0.646494 0.515332
vt 0.072347 0.478205
vt 0.145448 0.525630
vt 0.175327 0.525840
vt 0.205219 0.526113
vt 0.234674 0.526531
vt 0.259510 0.528031
vt 0.283558 0.530728
vt 0.313875 0.534482
vt 0.375969 0.525902
vt 0.425628 0.513941
vt 0.449276 0.515465
vt 0.467582 0.517042
vt 0.494895 0.514149
vt 0.532922 0.514013
vt 0.570597 0.521868
vt 0.602078 0.527893
vt 0.632016 0.530058
vt 0.676967 0.516112
vt 0.662489 0.531116
vt 0.086456 0.525111
vt 0.115715 0.525548
vt 0.100668 0.540875
vt 0.130568 0.540954
vt 0.160499 0.541079
vt 0.190474 0.541361
vt 0.220283 0.541702
vt 0.247784 0.542141
vt 0.268656 0.545979
vt 0.296714 0.550474
vt 0.333626 0.553802
vt 0.400131 0.539474
vt 0.440349 0.531999
vt 0.460178 0.531970
vt 0.479033 0.529159
vt 0.510444 0.525638
vt 0.552509 0.529852
vt 0.589499 0.538548
vt 0.618463 0.544213
vt 0.648060 0.545973
vt 0.678459 0.546964
vt 0.000000 0.554688
vt 0.000000 0.429688
vt 0.145757 0.556341
vt 0.175739 0.556508
vt 0.205756 0.556958
vt 0.235142 0.557238
vt 0.258563 0.559162
vt 0.280417 0.565808
vt 0.311840 0.571231
vt 0.358271 0.571170
vt 0.419190 0.557051
vt 0.452532 0.551674
vt 0.467803 0.547990
vt 0.491014 0.543685
vt 0.529464 0.541999
vt 0.574307 0.548597
vt 0.607884 0.556326
vt 0.634256 0.560639
vt 0.663972 0.561951
vt 0.692945 0.531824
vt 0.694246 0.562668
vt 0.845722 0.499327
vt 0.740108 0.578171
vt 1.000000 0.523438
vt 0.115839 0.556322
vt 0.131131 0.571688
vt 0.161179 0.571731
vt 0.191338 0.572081
vt 0.221361 0.572685
vt 0.249017 0.573196
vt 0.269842 0.578265
vt 0.296589 0.586098
vt 0.331654 0.592559
vt 0.386035 0.587210
vt 0.434598 0.576283
vt 0.457148 0.570107
vt 0.476153 0.565796
vt 0.505894 0.562257
vt 0.553333 0.563055
vt 0.595631 0.568993
vt 0.624333 0.574489
vt 0.649795 0.576976
vt 0.679701 0.577906
vt 0.724615 0.562759
vt 0.709838 0.578209
vt 0.146585 0.586927
vt 0.176822 0.587036
vt 0.207174 0.587770
vt 0.236927 0.588624
vt 0.262769 0.590106
vt 0.283709 0.598604
vt 0.318131 0.607115
vt 0.355753 0.613085
vt 0.409680 0.604413
vt 0.445626 0.595880
vt 0.461937 0.589386
vt 0.486135 0.586388
vt 0.526024 0.584784
vt 0.578061 0.585972
vt 0.614288 0.589382
vt 0.638341 0.592012
vt 0.665302 0.593181
vt 0.695236 0.593718
vt 0.725315 0.593774
vt 0.162352 0.601982
vt 0.192935 0.602692
vt 0.223267 0.603676
vt 0.252121 0.604970
vt 0.277521 0.608666
vt 0.302402 0.619799
vt 0.339496 0.628880
vt 0.383602 0.629948
vt 0.427501 0.621241
vt 0.447402 0.613195
vt 0.469332 0.610671
vt 0.501466 0.610211
vt 0.552833 0.609187
vt 0.599946 0.608357
vt 0.629222 0.608019
vt 0.651838 0.608714
vt 0.680662 0.609181
vt 0.710552 0.609348
vt 0.755541 0.593653
vt 0.740672 0.609292
vt 0.178665 0.617577
vt 0.209143 0.618545
vt 0.239445 0.619796
vt 0.267703 0.621877
vt 0.294260 0.628527
vt 0.324604 0.640126
vt 0.363845 0.647244
vt 0.406071 0.642842
vt 0.435315 0.636156
vt 0.453792 0.632824
vt 0.480529 0.634525
vt 0.523236 0.636523
vt 0.580404 0.632642
vt 0.617727 0.627348
vt 0.641091 0.624879
vt 0.666277 0.624887
vt 0.695876 0.624985
vt 0.725810 0.624921
vt 0.770964 0.609144
vt 0.755985 0.624782
vt 0.194948 0.633399
vt 0.225401 0.634519
vt 0.255648 0.636079
vt 0.284662 0.639224
vt 0.314173 0.647610
vt 0.348020 0.657607
vt 0.387067 0.659615
vt 0.422723 0.656742
vt 0.438707 0.650687
vt 0.462661 0.654923
vt 0.498304 0.661302
vt 0.553933 0.661345
vt 0.602009 0.651028
vt 0.630542 0.643311
vt 0.652882 0.640963
vt 0.681215 0.640729
vt 0.710954 0.640584
vt 0.741003 0.640426
vt 0.771339 0.640216
vt 0.939701 0.588249
vt 0.786427 0.624543
vt 0.211245 0.649313
vt 0.241793 0.650563
vt 0.272051 0.652487
vt 0.302533 0.656535
vt 0.334236 0.664906
vt 0.369365 0.671202
vt 0.407624 0.671672
vt 0.426444 0.664724
vt 0.448159 0.670085
vt 0.477216 0.679767
vt 0.524560 0.687789
vt 0.581286 0.678555
vt 0.617467 0.665042
vt 0.640682 0.657938
vt 0.666574 0.656713
vt 0.696113 0.656331
vt 0.725961 0.656083
vt 0.756110 0.655835
vt 0.801982 0.639795
vt 0.786541 0.655479
vt 0.000000 0.617188
vt 0.043735 0.664068
vt 0.000000 0.710937
vt 0.227584 0.665205
vt 0.258287 0.666603
vt 0.288803 0.668869
vt 0.320371 0.673288
vt 0.352929 0.679946
vt 0.389912 0.682389
vt 0.415349 0.674567
vt 0.437369 0.680241
vt 0.460252 0.691469
vt 0.499234 0.705104
vt 0.555281 0.705580
vt 0.600776 0.689460
vt 0.627969 0.676919
vt 0.652345 0.672946
vt 0.681245 0.672193
vt 0.710941 0.671805
vt 0.740967 0.671525
vt 0.771231 0.671211
vt 0.801650 0.670692
vt 1.000000 0.648438
vt 0.243985 0.681022
vt 0.274869 0.682610
vt 0.305605 0.685180
vt 0.337252 0.689212
vt 0.370967 0.691848
vt 0.402299 0.685522
vt 0.429418 0.687585
vt 0.448801 0.697360
vt 0.479144 0.714222
vt 0.527850 0.724620
vt 0.579535 0.714295
vt 0.613357 0.697833
vt 0.638406 0.689677
vt 0.666332 0.688173
vt 0.695932 0.687588
vt 0.725768 0.687221
vt 0.755890 0.686893
vt 0.786245 0.686489
vt 0.817061 0.654783
vt 0.816694 0.685886
vt 0.260502 0.696720
vt 0.291468 0.698795
vt 0.322046 0.701260
vt 0.353451 0.703536
vt 0.385750 0.700285
vt 0.418120 0.698033
vt 0.442351 0.702742
vt 0.466030 0.718382
vt 0.503923 0.733727
vt 0.555413 0.734520
vt 0.595915 0.719148
vt 0.623855 0.707289
vt 0.651491 0.704144
vt 0.680905 0.703395
vt 0.710561 0.702961
vt 0.740528 0.702592
vt 0.770825 0.702244
vt 0.801262 0.701768
vt 0.847211 0.684945
vt 0.831677 0.701015
vt 0.277338 0.712967
vt 0.308031 0.715035
vt 0.338229 0.716921
vt 0.369958 0.716615
vt 0.402260 0.713559
vt 0.433908 0.713389
vt 0.458409 0.723408
vt 0.487016 0.738457
vt 0.530304 0.745672
vt 0.576740 0.738148
vt 0.608578 0.725362
vt 0.636729 0.720079
vt 0.665776 0.719151
vt 0.695308 0.718720
vt 0.725116 0.718324
vt 0.755235 0.717916
vt 0.785664 0.717485
vt 0.816291 0.717094
vt 0.294073 0.729379
vt 0.324503 0.731329
vt 0.354111 0.732892
vt 0.384022 0.733085
vt 0.419408 0.731300
vt 0.451924 0.734452
vt 0.476296 0.744238
vt 0.509528 0.751782
vt 0.554907 0.750902
vt 0.592900 0.742256
vt 0.622093 0.736034
vt 0.650644 0.734737
vt 0.679991 0.734445
vt 0.709620 0.734064
vt 0.739604 0.733627
vt 0.769929 0.733179
vt 0.800482 0.732732
vt 0.310660 0.745955
vt 0.340583 0.748057
vt 0.369358 0.750867
vt 0.401156 0.752785
vt 0.439710 0.752936
vt 0.467530 0.755696
vt 0.494773 0.759174
vt 0.532636 0.759754
vt 0.575517 0.755496
vt 0.607555 0.750955
vt 0.635456 0.749877
vt 0.664471 0.750018
vt 0.694070 0.749795
vt 0.723952 0.749367
vt 0.754134 0.748871
vt 0.784629 0.748393
vt 0.326933 0.762799
vt 0.356319 0.765677
vt 0.385657 0.770301
vt 0.421143 0.772843
vt 0.455557 0.773167
vt 0.482062 0.772168
vt 0.513411 0.770440
vt 0.554888 0.767536
vt 0.592333 0.764370
vt 0.620433 0.763995
vt 0.648661 0.765287
vt 0.678313 0.765443
vt 0.708229 0.765125
vt 0.738332 0.764618
vt 0.768714 0.764076
vt 0.342844 0.779934
vt 0.372211 0.783516
vt 0.403805 0.788417
vt 0.438323 0.790650
vt 0.467656 0.789443
vt 0.496566 0.786101
vt 0.533293 0.781287
vt 0.573858 0.777824
vt 0.605426 0.777510
vt 0.632826 0.779869
vt 0.662168 0.780881
vt 0.692247 0.780777
vt 0.722474 0.780335
vt 0.752756 0.779767
vt 0.358330 0.796825
vt 0.388584 0.800827
vt 0.420591 0.804740
vt 0.451423 0.806289
vt 0.480469 0.804515
vt 0.512549 0.799688
vt 0.552526 0.794773
vt 0.588572 0.792226
vt 0.617376 0.794316
vt 0.645854 0.796126
vt 0.675975 0.796312
vt 0.706382 0.795974
vt 0.736818 0.795429
vt 0.374094 0.813529
vt 0.404750 0.817184
vt 0.435244 0.820454
vt 0.464614 0.821496
vt 0.494370 0.819342
vt 0.530346 0.815101
vt 0.569076 0.811180
vt 0.601285 0.810283
vt 0.629718 0.811462
vt 0.659488 0.811801
vt 0.690074 0.811554
vt 0.720721 0.811073
vt 0.389958 0.830030
vt 0.420284 0.833269
vt 0.449769 0.835682
vt 0.478875 0.836311
vt 0.510978 0.835347
vt 0.548141 0.832262
vt 0.583404 0.828853
vt 0.613504 0.827582
vt 0.642974 0.827414
vt 0.673585 0.827097
vt 0.704443 0.826632
vt 0.124251 0.738865
vt 0.405763 0.846424
vt 0.435711 0.848892
vt 0.464919 0.850643
vt 0.494989 0.851674
vt 0.528810 0.851021
vt 0.564274 0.847931
vt 0.596584 0.844770
vt 0.626539 0.843326
vt 0.657052 0.842726
vt 0.688015 0.842185
vt 0.421445 0.862753
vt 0.451043 0.864426
vt 0.480886 0.865625
vt 0.512192 0.866338
vt 0.545950 0.865064
vt 0.579045 0.861873
vt 0.610038 0.859521
vt 0.640616 0.858483
vt 0.671543 0.857784
vt 0.436408 0.878521
vt 0.466637 0.879554
vt 0.497274 0.880130
vt 0.529262 0.880012
vt 0.561948 0.878075
vt 0.593620 0.875649
vt 0.624403 0.874297
vt 0.655216 0.873460
vt 0.763668 0.916426
vt 0.451664 0.893750
vt 0.482440 0.894244
vt 0.513711 0.894162
vt 0.545594 0.893239
vt 0.577412 0.891460
vt 0.608602 0.890064
vt 0.639222 0.889164
vt 0.467119 0.908584
vt 0.498405 0.908717
vt 0.529804 0.908153
vt 0.561355 0.906921
vt 0.592743 0.905605
vt 0.623773 0.904738
vt 0.283324 0.898440
vt 0.482998 0.923174
vt 0.514302 0.923082
vt 0.545537 0.922194
vt 0.576815 0.920901
vt 0.608112 0.920008
vt 0.498796 0.937542
vt 0.530008 0.937228
vt 0.561012 0.936083
vt 0.592238 0.934979
vt 0.514484 0.951786
vt 0.545531 0.951393
vt 0.576351 0.949710
vt 0.530458 0.965856
vt 0.561437 0.965146
vt 0.546374 0.979780
vt 0.382812 1.000000
vt 0.679688 1.000000
vt 0.164062 0.000000
vt 0.208243 0.815151
vt 0.179687 1.000000
vt 0.000000 1.000000
vt 0.460938 1.000000
vt 0.523438 1.000000
vt 0.570312 1.000000
vt 0.851563 1.000000
vt 1.000000 1.000000
vt 0.000000 0.867188
vt 1.000000 0.992188
vt 0.419241 0.261540
vt 0.644886 0.484822
vt 0.708955 0.547454
vt 0.832105 0.669853
s 1
f 7/1/7 3/2/3 9/3/9
f 8/4/8 9/3/9 14/5/14
f 3/2/3 12/6/12 9/3/9
f 4/7/4 30/8/19 12/6/12
f 73/9/51 5/10/5 6/11/6
f 11/12/11 10/13/10 1/14/1
f 630/15/500 629/16/499 567/17/443
f 15/18/14 11/12/11 14/5/14
f 15/18/14 16/19/14 18/20/14
f 15/18/14 22/21/14 17/22/14
f 16/19/14 23/23/14 18/20/14
f 17/22/14 26/24/18 21/25/16
f 18/20/14 27/26/14 22/21/14
f 19/27/14 28/28/14 23/23/14
f 12/6/12 24/29/14 16/19/14
f 25/30/17 26/24/18 33/31/22
f 22/21/14 34/32/14 26/24/18
f 23/23/14 35/33/14 27/26/14
f 24/29/14 36/34/14 28/28/14
f 32/35/21 33/31/22 39/36/25
f 33/31/22 34/32/14 40/37/26
f 34/32/14 35/33/14 41/38/14
f 35/33/14 36/34/14 42/39/14
f 36/34/14 37/40/23 43/41/14
f 38/42/24 20/43/15 25/30/17
f 20/43/15 31/44/20 10/13/10
f 32/35/21 46/45/29 38/42/24
f 39/36/25 40/37/26 47/46/30
f 40/37/26 41/38/14 48/47/31
f 41/38/14 42/39/14 49/48/14
f 42/39/14 43/41/14 50/49/14
f 43/41/14 44/50/27 51/51/32
f 31/44/20 53/52/34 86/53/63
f 38/42/24 55/54/36 45/55/28
f 39/36/25 56/56/37 46/45/29
f 47/46/30 48/47/31 57/57/38
f 41/38/14 58/58/39 48/47/31
f 42/39/14 59/59/14 49/48/14
f 50/49/14 51/51/32 60/60/40
f 44/50/27 61/61/41 51/51/32
f 54/62/35 55/54/36 64/63/43
f 46/45/29 65/64/44 55/54/36
f 47/46/30 66/65/45 56/56/37
f 57/57/38 58/58/39 67/66/46
f 49/48/14 68/67/14 58/58/39
f 50/49/14 69/68/47 59/59/14
f 51/51/32 70/69/48 60/60/40
f 52/70/33 71/71/49 61/61/41
f 72/72/50 52/70/33 37/40/23
f 54/62/35 76/73/53 63/74/14
f 64/63/43 65/64/44 77/75/54
f 56/56/37 78/76/55 65/64/44
f 66/65/45 67/66/46 79/77/56
f 58/58/39 80/78/57 67/66/46
f 59/59/14 81/79/58 68/67/14
f 60/60/40 82/80/59 69/68/47
f 61/61/41 83/81/60 70/69/48
f 62/82/42 84/83/61 71/71/49
f 75/84/14 76/73/53 88/85/14
f 64/63/43 89/86/64 76/73/53
f 65/64/44 90/87/65 77/75/54
f 66/65/45 91/88/66 78/76/55
f 79/77/56 80/78/57 92/89/67
f 68/67/14 93/90/68 80/78/57
f 69/68/47 94/91/69 81/79/58
f 70/69/48 95/92/70 82/80/59
f 71/71/49 96/93/71 83/81/60
f 72/72/50 97/94/72 84/83/61
f 87/95/14 126/96/98 20/43/15
f 75/84/14 100/97/14 87/95/14
f 76/73/53 101/98/75 88/85/14
f 89/86/64 90/87/65 102/99/76
f 78/76/55 103/100/77 90/87/65
f 79/77/56 104/101/78 91/88/66
f 92/89/67 93/90/68 105/102/79
f 93/90/68 94/91/69 106/103/80
f 82/80/59 107/104/81 94/91/69
f 83/81/60 108/105/82 95/92/70
f 84/83/61 109/106/83 96/93/71
f 85/107/62 110/108/84 97/94/72
f 13/109/13 73/9/51 6/11/6
f 87/95/14 113/110/14 99/111/74
f 88/85/14 114/112/86 100/97/14
f 89/86/64 115/113/87 101/98/75
f 102/99/76 103/100/77 116/114/88
f 91/88/66 117/115/89 103/100/77
f 104/101/78 105/102/79 118/116/90
f 93/90/68 119/117/91 105/102/79
f 94/91/69 120/118/92 106/103/80
f 95/92/70 121/119/93 107/104/81
f 96/93/71 122/120/94 108/105/82
f 97/94/72 123/121/95 109/106/83
f 98/122/73 124/123/96 110/108/84
f 112/124/14 113/110/14 127/125/14
f 100/97/14 128/126/14 113/110/14
f 101/98/75 129/127/99 114/112/86
f 115/113/87 116/114/88 130/128/100
f 103/100/77 131/129/101 116/114/88
f 104/101/78 132/130/102 117/115/89
f 118/116/90 119/117/91 133/131/103
f 119/117/91 120/118/92 134/132/104
f 107/104/81 135/133/105 120/118/92
f 108/105/82 136/134/106 121/119/93
f 109/106/83 137/135/107 122/120/94
f 110/108/84 138/136/108 123/121/95
f 124/123/96 125/137/97 139/138/109
f 112/124/14 144/139/14 126/96/98
f 73/9/51 111/140/85 98/122/73
f 113/110/14 145/141/14 127/125/14
f 114/112/86 146/142/114 128/126/14
f 115/113/87 147/143/115 129/127/99
f 130/128/100 131/129/101 148/144/116
f 117/115/89 149/145/117 131/129/101
f 118/116/90 150/146/118 132/130/102
f 133/131/103 134/132/104 151/147/119
f 134/132/104 135/133/105 152/148/120
f 121/119/93 153/149/121 135/133/105
f 122/120/94 154/150/122 136/134/106
f 123/121/95 155/151/123 137/135/107
f 138/136/108 139/138/109 156/152/124
f 139/138/109 140/153/110 157/154/125
f 126/96/98 160/155/14 143/156/113
f 144/139/14 145/141/14 161/157/14
f 128/126/14 162/158/127 145/141/14
f 129/127/99 163/159/128 146/142/114
f 147/143/115 148/144/116 164/160/129
f 148/144/116 149/145/117 165/161/130
f 132/130/102 166/162/131 149/145/117
f 133/131/103 167/163/132 150/146/118
f 151/147/119 152/148/120 168/164/133
f 152/148/120 153/149/121 169/165/134
f 136/134/106 170/166/135 153/149/121
f 137/135/107 171/167/136 154/150/122
f 155/151/123 156/152/124 172/168/137
f 156/152/124 157/154/125 173/169/138
f 157/154/125 158/170/126 174/171/139
f 159/172/113 176/173/113 86/53/63
f 74/174/52 141/175/111 13/109/13
f 144/139/14 178/176/14 160/155/14
f 145/141/14 179/177/14 161/157/14
f 162/158/127 163/159/128 180/178/141
f 147/143/115 181/179/142 163/159/128
f 164/160/129 165/161/130 182/180/143
f 149/145/117 183/181/144 165/161/130
f 150/146/118 184/182/145 166/162/131
f 167/163/132 168/164/133 185/183/146
f 168/164/133 169/165/134 186/184/147
f 169/165/134 170/166/135 187/185/148
f 154/150/122 188/186/149 170/166/135
f 155/151/123 189/187/150 171/167/136
f 172/168/137 173/169/138 190/188/151
f 173/169/138 174/171/139 191/189/152
f 174/171/139 175/190/140 192/191/153
f 176/173/113 177/192/14 195/193/14
f 143/156/113 177/192/14 159/172/113
f 160/155/14 196/194/14 177/192/14
f 178/176/14 179/177/14 197/195/14
f 162/158/127 198/196/155 179/177/14
f 180/178/141 181/179/142 199/197/156
f 181/179/142 182/180/143 200/198/157
f 182/180/143 183/181/144 201/199/158
f 166/162/131 202/200/159 183/181/144
f 167/163/132 203/201/160 184/182/145
f 185/183/146 186/184/147 204/202/161
f 186/184/147 187/185/148 205/203/162
f 187/185/148 188/186/149 206/204/163
f 171/167/136 207/205/164 188/186/149
f 172/168/137 208/206/165 189/187/150
f 173/169/138 209/207/166 190/188/151
f 191/189/152 192/191/153 210/208/167
f 192/191/153 193/209/154 211/210/168
f 141/175/111 193/209/154 175/190/140
f 213/211/169 214/212/14 234/213/185
f 196/194/14 197/195/14 216/214/14
f 179/177/14 217/215/14 197/195/14
f 198/196/155 199/197/156 218/216/170
f 199/197/156 200/198/157 219/217/171
f 200/198/157 201/199/158 220/218/172
f 201/199/158 202/200/159 221/219/173
f 184/182/145 222/220/174 202/200/159
f 185/183/146 223/221/175 203/201/160
f 204/202/161 205/203/162 224/222/176
f 205/203/162 206/204/163 225/223/177
f 188/186/149 226/224/178 206/204/163
f 189/187/150 227/225/179 207/205/164
f 190/188/151 228/226/180 208/206/165
f 191/189/152 229/227/181 209/207/166
f 210/208/167 211/210/168 230/228/182
f 193/209/154 231/229/183 211/210/168
f 214/212/14 215/230/14 235/231/14
f 177/192/14 215/230/14 195/193/14
f 196/194/14 236/232/14 215/230/14
f 216/214/14 217/215/14 237/233/14
f 217/215/14 218/216/170 238/234/186
f 218/216/170 219/217/171 239/235/187
f 219/217/171 220/218/172 240/236/188
f 220/218/172 221/219/173 241/237/189
f 221/219/173 222/220/174 242/238/190
f 203/201/160 243/239/191 222/220/174
f 223/221/175 224/222/176 244/240/192
f 224/222/176 225/223/177 245/241/193
f 225/223/177 226/224/178 246/242/194
f 207/205/164 247/243/195 226/224/178
f 208/206/165 248/244/196 227/225/179
f 209/207/166 249/245/197 228/226/180
f 210/208/167 250/246/198 229/227/181
f 211/210/168 251/247/199 230/228/182
f 231/229/183 232/248/14 252/249/200
f 194/250/14 195/193/14 214/212/14
f 216/214/14 256/251/14 236/232/14
f 217/215/14 257/252/14 237/233/14
f 238/234/186 239/235/187 258/253/201
f 239/235/187 240/236/188 259/254/202
f 240/236/188 241/237/189 260/255/203
f 241/237/189 242/238/190 261/256/204
f 222/220/174 262/257/205 242/238/190
f 223/221/175 263/258/206 243/239/191
f 244/240/192 245/241/193 264/259/207
f 245/241/193 246/242/194 265/260/208
f 226/224/178 266/261/209 246/242/194
f 227/225/179 267/262/210 247/243/195
f 228/226/180 268/263/211 248/244/196
f 229/227/181 269/264/212 249/245/197
f 230/228/182 270/265/213 250/246/198
f 251/247/199 252/249/200 271/266/214
f 252/249/200 253/267/14 272/268/215
f 254/269/185 255/270/14 275/271/185
f 215/230/14 255/270/14 235/231/14
f 236/232/14 276/272/14 255/270/14
f 256/251/14 257/252/14 277/273/14
f 238/234/186 278/274/217 257/252/14
f 258/253/201 259/254/202 279/275/218
f 259/254/202 260/255/203 280/276/219
f 260/255/203 261/256/204 281/277/220
f 261/256/204 262/257/205 282/278/221
f 243/239/191 283/279/222 262/257/205
f 244/240/192 284/280/223 263/258/206
f 264/259/207 265/260/208 285/281/224
f 265/260/208 266/261/209 286/282/225
f 247/243/195 287/283/226 266/261/209
f 248/244/196 288/284/227 267/262/210
f 249/245/197 289/285/228 268/263/211
f 250/246/198 290/286/229 269/264/212
f 270/265/213 271/266/214 291/287/230
f 271/266/214 272/268/215 292/288/231
f 253/267/14 293/289/14 272/268/215
f 213/211/169 295/290/232 142/291/112
f 234/213/185 235/231/14 254/269/185
f 256/251/14 297/292/14 276/272/14
f 257/252/14 298/293/14 277/273/14
f 258/253/201 299/294/234 278/274/217
f 279/275/218 280/276/219 300/295/235
f 280/276/219 281/277/220 301/296/236
f 281/277/220 282/278/221 302/297/237
f 282/278/221 283/279/222 303/298/238
f 263/258/206 304/299/239 283/279/222
f 284/280/223 285/281/224 305/300/240
f 285/281/224 286/282/225 306/301/241
f 286/282/225 287/283/226 307/302/242
f 267/262/210 308/303/243 287/283/226
f 268/263/211 309/304/244 288/284/227
f 269/264/212 310/305/245 289/285/228
f 290/286/229 291/287/230 311/306/246
f 291/287/230 292/288/231 312/307/247
f 292/288/231 293/289/14 313/308/248
f 273/309/14 314/310/14 293/289/14
f 233/311/184 335/312/14 273/309/14
f 274/313/216 233/311/184 74/174/52
f 255/270/14 296/314/233 275/271/185
f 276/272/14 316/315/14 296/314/233
f 297/292/14 298/293/14 317/316/14
f 298/293/14 299/294/234 318/317/250
f 299/294/234 300/295/235 319/318/251
f 300/295/235 301/296/236 320/319/252
f 301/296/236 302/297/237 321/320/253
f 302/297/237 303/298/238 322/321/254
f 283/279/222 323/322/255 303/298/238
f 284/280/223 324/323/256 304/299/239
f 305/300/240 306/301/241 325/324/257
f 306/301/241 307/302/242 326/325/258
f 307/302/242 308/303/243 327/326/259
f 288/284/227 328/327/260 308/303/243
f 289/285/228 329/328/261 309/304/244
f 290/286/229 330/329/262 310/305/245
f 311/306/246 312/307/247 331/330/263
f 312/307/247 313/308/248 332/331/264
f 293/289/14 333/332/265 313/308/248
f 314/310/14 315/333/249 334/334/14
f 297/292/14 336/335/14 316/315/14
f 298/293/14 337/336/14 317/316/14
f 318/317/250 319/318/251 338/337/266
f 319/318/251 320/319/252 339/338/267
f 320/319/252 321/320/253 340/339/268
f 321/320/253 322/321/254 341/340/269
f 322/321/254 323/322/255 342/341/270
f 304/299/239 343/342/271 323/322/255
f 305/300/240 344/343/272 324/323/256
f 325/324/257 326/325/258 345/344/273
f 326/325/258 327/326/259 346/345/274
f 327/326/259 328/327/260 347/346/275
f 309/304/244 348/347/276 328/327/260
f 310/305/245 349/348/277 329/328/261
f 330/329/262 331/330/263 350/349/278
f 331/330/263 332/331/264 351/350/279
f 332/331/264 333/332/265 352/351/280
f 314/310/14 353/352/281 333/332/265
f 315/333/249 354/353/14 334/334/14
f 336/335/14 337/336/14 357/354/14
f 337/336/14 338/337/266 358/355/14
f 338/337/266 339/338/267 359/356/283
f 339/338/267 340/339/268 360/357/284
f 340/339/268 341/340/269 361/358/285
f 322/321/254 362/359/286 341/340/269
f 323/322/255 363/360/287 342/341/270
f 324/323/256 364/361/288 343/342/271
f 344/343/272 345/344/273 365/362/289
f 345/344/273 346/345/274 366/363/290
f 346/345/274 347/346/275 367/364/291
f 347/346/275 348/347/276 368/365/292
f 329/328/261 369/366/293 348/347/276
f 349/348/277 350/349/278 370/367/294
f 350/349/278 351/350/279 371/368/295
f 351/350/279 352/351/280 372/369/296
f 352/351/280 353/352/281 373/370/297
f 353/352/281 354/353/14 374/371/14
f 354/353/14 355/372/14 375/373/14
f 337/336/14 378/374/14 357/354/14
f 358/355/14 359/356/283 379/375/299
f 359/356/283 360/357/284 380/376/300
f 360/357/284 361/358/285 381/377/301
f 361/358/285 362/359/286 382/378/302
f 342/341/270 383/379/303 362/359/286
f 343/342/271 384/380/304 363/360/287
f 344/343/272 385/381/305 364/361/288
f 365/362/289 366/363/290 386/382/306
f 366/363/290 367/364/291 387/383/307
f 367/364/291 368/365/292 388/384/308
f 348/347/276 389/385/309 368/365/292
f 349/348/277 390/386/310 369/366/293
f 370/367/294 371/368/295 391/387/311
f 371/368/295 372/369/296 392/388/312
f 372/369/296 373/370/297 393/389/313
f 353/352/281 394/390/314 373/370/297
f 374/371/14 375/373/14 395/391/14
f 375/373/14 376/392/14 396/393/14
f 358/355/14 398/394/14 378/374/14
f 379/375/299 380/376/300 399/395/315
f 380/376/300 381/377/301 400/396/316
f 381/377/301 382/378/302 401/397/317
f 362/359/286 402/398/318 382/378/302
f 363/360/287 403/399/319 383/379/303
f 364/361/288 404/400/320 384/380/304
f 385/381/305 386/382/306 405/401/321
f 386/382/306 387/383/307 406/402/322
f 387/383/307 388/384/308 407/403/323
f 388/384/308 389/385/309 408/404/324
f 369/366/293 409/405/325 389/385/309
f 390/386/310 391/387/311 410/406/326
f 391/387/311 392/388/312 411/407/327
f 392/388/312 393/389/313 412/408/328
f 393/389/313 394/390/314 413/409/329
f 394/390/314 395/391/14 414/410/14
f 395/391/14 396/393/14 415/411/14
f 376/392/14 416/412/14 396/393/14
f 275/271/185 296/314/233 295/290/232
f 356/413/282 397/414/14 376/392/14
f 398/394/14 399/395/315 418/415/14
f 399/395/315 400/396/316 419/416/330
f 400/396/316 401/397/317 420/417/331
f 382/378/302 421/418/332 401/397/317
f 383/379/303 422/419/333 402/398/318
f 384/380/304 423/420/334 403/399/319
f 385/381/305 424/421/335 404/400/320
f 405/401/321 406/402/322 425/422/336
f 406/402/322 407/403/323 426/423/337
f 407/403/323 408/404/324 427/424/338
f 389/385/309 428/425/339 408/404/324
f 390/386/310 429/426/340 409/405/325
f 410/406/326 411/407/327 430/427/341
f 411/407/327 412/408/328 431/428/342
f 412/408/328 413/409/329 432/429/343
f 413/409/329 414/410/14 433/430/344
f 414/410/14 415/411/14 434/431/14
f 415/411/14 416/412/14 435/432/14
f 416/412/14 417/433/14 436/434/14
f 377/435/298 439/436/346 499/437/390
f 399/395/315 440/438/14 418/415/14
f 419/416/330 420/417/331 441/439/347
f 401/397/317 442/440/348 420/417/331
f 402/398/318 443/441/349 421/418/332
f 403/399/319 444/442/350 422/419/333
f 404/400/320 445/443/351 423/420/334
f 405/401/321 446/444/352 424/421/335
f 425/422/336 426/423/337 447/445/353
f 426/423/337 427/424/338 448/446/354
f 408/404/324 449/447/355 427/424/338
f 409/405/325 450/448/356 428/425/339
f 410/406/326 451/449/357 429/426/340
f 430/427/341 431/428/342 452/450/358
f 431/428/342 432/429/343 453/451/359
f 432/429/343 433/430/344 454/452/360
f 433/430/344 434/431/14 455/453/14
f 415/411/14 456/454/14 434/431/14
f 416/412/14 457/455/14 435/432/14
f 417/433/14 458/456/14 436/434/14
f 274/313/216 438/457/345 356/413/282
f 419/416/330 460/458/361 440/438/14
f 441/439/347 442/440/348 461/459/362
f 421/418/332 462/460/363 442/440/348
f 422/419/333 463/461/364 443/441/349
f 423/420/334 464/462/365 444/442/350
f 424/421/335 465/463/366 445/443/351
f 446/444/352 447/445/353 466/464/367
f 447/445/353 448/446/354 467/465/368
f 427/424/338 468/466/369 448/446/354
f 428/425/339 469/467/370 449/447/355
f 429/426/340 470/468/371 450/448/356
f 451/449/357 452/450/358 471/469/372
f 452/450/358 453/451/359 472/470/373
f 453/451/359 454/452/360 473/471/374
f 433/430/344 474/472/14 454/452/360
f 455/453/14 456/454/14 475/473/14
f 456/454/14 457/455/14 476/474/14
f 436/434/14 477/475/14 457/455/14
f 437/476/14 478/477/14 458/456/14
f 460/458/361 461/459/362 480/478/376
f 442/440/348 481/479/377 461/459/362
f 443/441/349 482/480/378 462/460/363
f 444/442/350 483/481/379 463/461/364
f 445/443/351 484/482/380 464/462/365
f 446/444/352 485/483/381 465/463/366
f 466/464/367 467/465/368 486/484/382
f 448/446/354 487/485/383 467/465/368
f 449/447/355 488/486/384 468/466/369
f 450/448/356 489/487/385 469/467/370
f 451/449/357 490/488/386 470/468/371
f 471/469/372 472/470/373 491/489/387
f 472/470/373 473/471/374 492/490/388
f 454/452/360 493/491/389 473/471/374
f 474/472/14 475/473/14 494/492/14
f 475/473/14 476/474/14 495/493/14
f 457/455/14 496/494/14 476/474/14
f 458/456/14 497/495/14 477/475/14
f 478/477/14 479/496/375 498/497/14
f 357/354/14 418/415/14 439/436/346
f 480/478/376 481/479/377 500/498/391
f 462/460/363 501/499/392 481/479/377
f 463/461/364 502/500/393 482/480/378
f 464/462/365 503/501/394 483/481/379
f 465/463/366 504/502/395 484/482/380
f 485/483/381 486/484/382 505/503/396
f 467/465/368 506/504/397 486/484/382
f 468/466/369 507/505/398 487/485/383
f 469/467/370 508/506/399 488/486/384
f 470/468/371 509/507/400 489/487/385
f 471/469/372 510/508/401 490/488/386
f 491/489/387 492/490/388 511/509/402
f 492/490/388 493/491/389 512/510/403
f 493/491/389 494/492/14 513/511/14
f 494/492/14 495/493/14 514/512/14
f 495/493/14 496/494/14 515/513/14
f 496/494/14 497/495/14 516/514/14
f 478/477/14 517/515/14 497/495/14
f 500/498/391 501/499/392 518/516/404
f 482/480/378 519/517/405 501/499/392
f 483/481/379 520/518/406 502/500/393
f 484/482/380 521/519/407 503/501/394
f 504/502/395 505/503/396 522/520/408
f 505/503/396 506/504/397 523/521/409
f 487/485/383 524/522/410 506/504/397
f 488/486/384 525/523/411 507/505/398
f 489/487/385 526/524/412 508/506/399
f 490/488/386 527/525/413 509/507/400
f 510/508/401 511/509/402 528/526/414
f 511/509/402 512/510/403 529/527/415
f 493/491/389 530/528/416 512/510/403
f 513/511/14 514/512/14 531/529/14
f 514/512/14 515/513/14 532/530/14
f 496/494/14 533/531/14 515/513/14
f 516/514/14 517/515/14 534/532/417
f 518/516/404 519/517/405 536/533/419
f 519/517/405 520/518/406 537/534/420
f 520/518/406 521/519/407 538/535/421
f 521/519/407 522/520/408 539/536/422
f 522/520/408 523/521/409 540/537/423
f 523/521/409 524/522/410 541/538/424
f 507/505/398 542/539/425 524/522/410
f 508/506/399 543/540/426 525/523/411
f 509/507/400 544/541/427 526/524/412
f 510/508/401 545/542/428 527/525/413
f 528/526/414 529/527/415 546/543/429
f 529/527/415 530/528/416 547/544/430
f 513/511/14 548/545/14 530/528/416
f 514/512/14 549/546/14 531/529/14
f 515/513/14 550/547/14 532/530/14
f 516/514/14 551/548/14 533/531/14
f 438/457/345 479/496/375 356/413/282
f 536/533/419 537/534/420 552/549/431
f 537/534/420 538/535/421 553/550/432
f 538/535/421 539/536/422 554/551/433
f 539/536/422 540/537/423 555/552/434
f 540/537/423 541/538/424 556/553/435
f 541/538/424 542/539/425 557/554/436
f 525/523/411 558/555/437 542/539/425
f 526/524/412 559/556/438 543/540/426
f 527/525/413 560/557/439 544/541/427
f 528/526/414 561/558/440 545/542/428
f 546/543/429 547/544/430 562/559/441
f 530/528/416 563/560/442 547/544/430
f 531/529/14 564/561/14 548/545/14
f 532/530/14 565/562/14 549/546/14
f 533/531/14 566/563/14 550/547/14
f 552/549/431 553/550/432 568/564/444
f 553/550/432 554/551/433 569/565/445
f 554/551/433 555/552/434 570/566/446
f 555/552/434 556/553/435 571/567/447
f 556/553/435 557/554/436 572/568/448
f 542/539/425 573/569/449 557/554/436
f 543/540/426 574/570/450 558/555/437
f 544/541/427 575/571/451 559/556/438
f 545/542/428 576/572/452 560/557/439
f 561/558/440 562/559/441 577/573/453
f 562/559/441 563/560/442 578/574/454
f 563/560/442 564/561/14 579/575/455
f 564/561/14 565/562/14 580/576/14
f 565/562/14 566/563/14 581/577/14
f 568/564/444 569/565/445 582/578/456
f 554/551/433 583/579/457 569/565/445
f 555/552/434 584/580/458 570/566/446
f 571/567/447 572/568/448 585/581/459
f 572/568/448 573/569/449 586/582/460
f 558/555/437 587/583/461 573/569/449
f 559/556/438 588/584/462 574/570/450
f 560/557/439 589/585/463 575/571/451
f 576/572/452 577/573/453 590/586/464
f 577/573/453 578/574/454 591/587/465
f 578/574/454 579/575/455 592/588/466
f 579/575/455 580/576/14 593/589/14
f 580/576/14 581/577/14 594/590/14
f 629/16/499 517/515/14 479/496/375
f 569/565/445 595/591/467 582/578/456
f 570/566/446 596/592/468 583/579/457
f 571/567/447 597/593/469 584/580/458
f 585/581/459 586/582/460 598/594/470
f 573/569/449 599/595/471 586/582/460
f 574/570/450 600/596/472 587/583/461
f 575/571/451 601/597/473 588/584/462
f 589/585/463 590/586/464 602/598/474
f 590/586/464 591/587/465 603/599/475
f 591/587/465 592/588/466 604/600/476
f 579/575/455 605/601/477 592/588/466
f 580/576/14 606/602/14 593/589/14
f 583/579/457 608/603/479 595/591/467
f 584/580/458 609/604/480 596/592/468
f 585/581/459 610/605/481 597/593/469
f 598/594/470 599/595/471 611/606/482
f 587/583/461 612/607/483 599/595/471
f 588/584/462 613/608/484 600/596/472
f 601/597/473 602/598/474 614/609/485
f 602/598/474 603/599/475 615/610/486
f 603/599/475 604/600/476 616/611/487
f 604/600/476 605/601/477 617/612/488
f 605/601/477 606/602/14 618/613/14
f 440/438/14 500/498/391 535/614/418
f 596/592/468 619/615/489 608/603/479
f 597/593/469 620/616/490 609/604/480
f 598/594/470 621/617/491 610/605/481
f 599/595/471 622/618/492 611/606/482
f 600/596/472 623/619/493 612/607/483
f 613/608/484 614/609/485 624/620/494
f 614/609/485 615/610/486 625/621/495
f 615/610/486 616/611/487 626/622/496
f 616/611/487 617/612/488 627/623/497
f 605/601/477 628/624/498 617/612/488
f 438/457/345 630/15/500 567/17/443
f 535/614/418 499/437/390 439/436/346
f 609/604/480 631/625/501 619/615/489
f 610/605/481 632/626/502 620/616/490
f 611/606/482 633/627/503 621/617/491
f 612/607/483 634/628/504 622/618/492
f 613/608/484 635/629/505 623/619/493
f 624/620/494 625/621/495 636/630/506
f 625/621/495 626/622/496 637/631/507
f 626/622/496 627/623/497 638/632/508
f 627/623/497 628/624/498 639/633/509
f 620/616/490 641/634/511 631/625/501
f 621/617/491 642/635/512 632/626/502
f 622/618/492 643/636/513 633/627/503
f 623/619/493 644/637/514 634/628/504
f 624/620/494 645/638/515 635/629/505
f 636/630/506 637/631/507 646/639/516
f 637/631/507 638/632/508 647/640/517
f 638/632/508 639/633/509 648/641/518
f 668/642/538 594/590/14 566/563/14
f 632/626/502 649/643/519 641/634/511
f 633/627/503 650/644/520 642/635/512
f 634/628/504 651/645/521 643/636/513
f 635/629/505 652/646/522 644/637/514
f 636/630/506 653/647/523 645/638/515
f 646/639/516 647/640/517 654/648/524
f 647/640/517 648/641/518 655/649/525
f 642/635/512 657/650/527 649/643/519
f 643/636/513 658/651/528 650/644/520
f 644/637/514 659/652/529 651/645/521
f 645/638/515 660/653/530 652/646/522
f 646/639/516 661/654/531 653/647/523
f 647/640/517 662/655/532 654/648/524
f 582/578/456 656/656/526 518/516/404
f 650/644/520 663/657/533 657/650/527
f 651/645/521 664/658/534 658/651/528
f 652/646/522 665/659/535 659/652/529
f 653/647/523 666/660/536 660/653/530
f 654/648/524 667/661/537 661/654/531
f 663/657/533 664/658/534 669/662/539
f 659/652/529 670/663/540 664/658/534
f 660/653/530 671/664/541 665/659/535
f 661/654/531 672/665/542 666/660/536
f 664/658/534 673/666/539 669/662/539
f 665/659/535 674/667/14 670/663/540
f 671/664/541 672/665/542 675/668/543
f 673/666/539 674/667/14 676/669/544
f 674/667/14 675/668/543 677/670/545
f 674/667/14 679/671/547 676/669/544
f 641/634/511 678/672/546 595/591/467
f 685/673/553 662/655/532 639/633/509
f 11/12/11 2/674/2 8/4/8
f 607/675/478 681/676/549 680/677/548
f 656/656/526 678/672/546 681/676/549
f 669/662/539 682/678/550 649/643/519
f 676/669/544 683/679/551 682/678/550
f 683/679/551 679/671/547 684/680/552
f 677/670/545 672/665/542 685/673/553
f 685/673/553 668/642/538 686/681/554
f 686/681/554 629/16/499 687/682/555
f 607/675/478 640/683/510 535/614/418
f 2/674/2 7/1/7 8/4/8
f 8/4/8 7/1/7 9/3/9
f 3/2/3 4/7/4 12/6/12
f 4/7/4 5/10/5 30/8/19
f 73/9/51 30/8/19 5/10/5
f 11/12/11 20/43/15 10/13/10
f 630/15/500 687/684/555 629/16/499
f 15/18/14 17/22/14 21/25/16
f 21/25/16 25/30/17 11/12/11
f 11/12/11 8/4/8 14/5/14
f 15/18/14 21/25/16 11/12/11
f 15/18/14 14/5/14 16/19/14
f 15/18/14 18/20/14 22/21/14
f 16/19/14 19/27/14 23/23/14
f 17/22/14 22/21/14 26/24/18
f 18/20/14 23/23/14 27/26/14
f 19/27/14 24/29/14 28/28/14
f 14/5/14 9/3/9 12/6/12
f 12/6/12 37/40/23 29/685/14
f 24/29/14 19/27/14 16/19/14
f 12/6/12 29/685/14 24/29/14
f 16/19/14 14/5/14 12/6/12
f 25/30/17 21/25/16 26/24/18
f 22/21/14 27/26/14 34/32/14
f 23/23/14 28/28/14 35/33/14
f 24/29/14 29/685/14 36/34/14
f 32/35/21 25/30/17 33/31/22
f 33/31/22 26/24/18 34/32/14
f 34/32/14 27/26/14 35/33/14
f 35/33/14 28/28/14 36/34/14
f 36/34/14 29/685/14 37/40/23
f 25/30/17 32/35/21 38/42/24
f 38/42/24 45/55/28 54/62/35
f 54/62/35 63/74/14 20/43/15
f 20/43/15 11/12/11 25/30/17
f 38/42/24 54/62/35 20/43/15
f 20/43/15 53/52/34 31/44/20
f 32/35/21 39/36/25 46/45/29
f 39/36/25 33/31/22 40/37/26
f 40/37/26 34/32/14 41/38/14
f 41/38/14 35/33/14 42/39/14
f 42/39/14 36/34/14 43/41/14
f 43/41/14 37/40/23 44/50/27
f 38/42/24 46/45/29 55/54/36
f 39/36/25 47/46/30 56/56/37
f 47/46/30 40/37/26 48/47/31
f 41/38/14 49/48/14 58/58/39
f 42/39/14 50/49/14 59/59/14
f 50/49/14 43/41/14 51/51/32
f 44/50/27 52/70/33 61/61/41
f 54/62/35 45/55/28 55/54/36
f 46/45/29 56/56/37 65/64/44
f 47/46/30 57/57/38 66/65/45
f 57/57/38 48/47/31 58/58/39
f 49/48/14 59/59/14 68/67/14
f 50/49/14 60/60/40 69/68/47
f 51/51/32 61/61/41 70/69/48
f 52/70/33 62/82/42 71/71/49
f 37/40/23 12/6/12 30/8/19
f 30/8/19 85/107/62 72/72/50
f 72/72/50 62/82/42 52/70/33
f 52/70/33 44/50/27 37/40/23
f 37/40/23 30/8/19 72/72/50
f 54/62/35 64/63/43 76/73/53
f 64/63/43 55/54/36 65/64/44
f 56/56/37 66/65/45 78/76/55
f 66/65/45 57/57/38 67/66/46
f 58/58/39 68/67/14 80/78/57
f 59/59/14 69/68/47 81/79/58
f 60/60/40 70/69/48 82/80/59
f 61/61/41 71/71/49 83/81/60
f 62/82/42 72/72/50 84/83/61
f 75/84/14 63/74/14 76/73/53
f 64/63/43 77/75/54 89/86/64
f 65/64/44 78/76/55 90/87/65
f 66/65/45 79/77/56 91/88/66
f 79/77/56 67/66/46 80/78/57
f 68/67/14 81/79/58 93/90/68
f 69/68/47 82/80/59 94/91/69
f 70/69/48 83/81/60 95/92/70
f 71/71/49 84/83/61 96/93/71
f 72/72/50 85/107/62 97/94/72
f 63/74/14 75/84/14 87/95/14
f 99/111/74 112/124/14 126/96/98
f 20/43/15 63/74/14 87/95/14
f 87/95/14 99/111/74 126/96/98
f 126/96/98 53/52/34 20/43/15
f 75/84/14 88/85/14 100/97/14
f 76/73/53 89/86/64 101/98/75
f 89/86/64 77/75/54 90/87/65
f 78/76/55 91/88/66 103/100/77
f 79/77/56 92/89/67 104/101/78
f 92/89/67 80/78/57 93/90/68
f 93/90/68 81/79/58 94/91/69
f 82/80/59 95/92/70 107/104/81
f 83/81/60 96/93/71 108/105/82
f 84/83/61 97/94/72 109/106/83
f 85/107/62 98/122/73 110/108/84
f 13/109/13 141/175/111 73/9/51
f 87/95/14 100/97/14 113/110/14
f 88/85/14 101/98/75 114/112/86
f 89/86/64 102/99/76 115/113/87
f 102/99/76 90/87/65 103/100/77
f 91/88/66 104/101/78 117/115/89
f 104/101/78 92/89/67 105/102/79
f 93/90/68 106/103/80 119/117/91
f 94/91/69 107/104/81 120/118/92
f 95/92/70 108/105/82 121/119/93
f 96/93/71 109/106/83 122/120/94
f 97/94/72 110/108/84 123/121/95
f 98/122/73 111/140/85 124/123/96
f 112/124/14 99/111/74 113/110/14
f 100/97/14 114/112/86 128/126/14
f 101/98/75 115/113/87 129/127/99
f 115/113/87 102/99/76 116/114/88
f 103/100/77 117/115/89 131/129/101
f 104/101/78 118/116/90 132/130/102
f 118/116/90 105/102/79 119/117/91
f 119/117/91 106/103/80 120/118/92
f 107/104/81 121/119/93 135/133/105
f 108/105/82 122/120/94 136/134/106
f 109/106/83 123/121/95 137/135/107
f 110/108/84 124/123/96 138/136/108
f 124/123/96 111/140/85 125/137/97
f 112/124/14 127/125/14 144/139/14
f 85/107/62 30/8/19 73/9/51
f 73/9/51 158/170/126 140/153/110
f 140/153/110 125/137/97 111/140/85
f 98/122/73 85/107/62 73/9/51
f 73/9/51 140/153/110 111/140/85
f 113/110/14 128/126/14 145/141/14
f 114/112/86 129/127/99 146/142/114
f 115/113/87 130/128/100 147/143/115
f 130/128/100 116/114/88 131/129/101
f 117/115/89 132/130/102 149/145/117
f 118/116/90 133/131/103 150/146/118
f 133/131/103 119/117/91 134/132/104
f 134/132/104 120/118/92 135/133/105
f 121/119/93 136/134/106 153/149/121
f 122/120/94 137/135/107 154/150/122
f 123/121/95 138/136/108 155/151/123
f 138/136/108 124/123/96 139/138/109
f 139/138/109 125/137/97 140/153/110
f 126/96/98 144/139/14 160/155/14
f 144/139/14 127/125/14 145/141/14
f 128/126/14 146/142/114 162/158/127
f 129/127/99 147/143/115 163/159/128
f 147/143/115 130/128/100 148/144/116
f 148/144/116 131/129/101 149/145/117
f 132/130/102 150/146/118 166/162/131
f 133/131/103 151/147/119 167/163/132
f 151/147/119 134/132/104 152/148/120
f 152/148/120 135/133/105 153/149/121
f 136/134/106 154/150/122 170/166/135
f 137/135/107 155/151/123 171/167/136
f 155/151/123 138/136/108 156/152/124
f 156/152/124 139/138/109 157/154/125
f 157/154/125 140/153/110 158/170/126
f 176/173/113 194/250/14 213/211/169
f 213/211/169 142/291/112 86/53/63
f 86/53/63 53/52/34 126/96/98
f 86/53/63 126/96/98 143/156/113
f 176/173/113 213/211/169 86/53/63
f 86/53/63 143/156/113 159/172/113
f 74/174/52 233/311/184 141/175/111
f 144/139/14 161/157/14 178/176/14
f 145/141/14 162/158/127 179/177/14
f 162/158/127 146/142/114 163/159/128
f 147/143/115 164/160/129 181/179/142
f 164/160/129 148/144/116 165/161/130
f 149/145/117 166/162/131 183/181/144
f 150/146/118 167/163/132 184/182/145
f 167/163/132 151/147/119 168/164/133
f 168/164/133 152/148/120 169/165/134
f 169/165/134 153/149/121 170/166/135
f 154/150/122 171/167/136 188/186/149
f 155/151/123 172/168/137 189/187/150
f 172/168/137 156/152/124 173/169/138
f 173/169/138 157/154/125 174/171/139
f 174/171/139 158/170/126 175/190/140
f 176/173/113 159/172/113 177/192/14
f 143/156/113 160/155/14 177/192/14
f 160/155/14 178/176/14 196/194/14
f 178/176/14 161/157/14 179/177/14
f 162/158/127 180/178/141 198/196/155
f 180/178/141 163/159/128 181/179/142
f 181/179/142 164/160/129 182/180/143
f 182/180/143 165/161/130 183/181/144
f 166/162/131 184/182/145 202/200/159
f 167/163/132 185/183/146 203/201/160
f 185/183/146 168/164/133 186/184/147
f 186/184/147 169/165/134 187/185/148
f 187/185/148 170/166/135 188/186/149
f 171/167/136 189/187/150 207/205/164
f 172/168/137 190/188/151 208/206/165
f 173/169/138 191/189/152 209/207/166
f 191/189/152 174/171/139 192/191/153
f 192/191/153 175/190/140 193/209/154
f 158/170/126 73/9/51 141/175/111
f 141/175/111 253/267/14 232/248/14
f 141/175/111 232/248/14 212/686/14
f 175/190/140 158/170/126 141/175/111
f 141/175/111 212/686/14 193/209/154
f 213/211/169 194/250/14 214/212/14
f 196/194/14 178/176/14 197/195/14
f 179/177/14 198/196/155 217/215/14
f 198/196/155 180/178/141 199/197/156
f 199/197/156 181/179/142 200/198/157
f 200/198/157 182/180/143 201/199/158
f 201/199/158 183/181/144 202/200/159
f 184/182/145 203/201/160 222/220/174
f 185/183/146 204/202/161 223/221/175
f 204/202/161 186/184/147 205/203/162
f 205/203/162 187/185/148 206/204/163
f 188/186/149 207/205/164 226/224/178
f 189/187/150 208/206/165 227/225/179
f 190/188/151 209/207/166 228/226/180
f 191/189/152 210/208/167 229/227/181
f 210/208/167 192/191/153 211/210/168
f 193/209/154 212/686/14 231/229/183
f 214/212/14 195/193/14 215/230/14
f 177/192/14 196/194/14 215/230/14
f 196/194/14 216/214/14 236/232/14
f 216/214/14 197/195/14 217/215/14
f 217/215/14 198/196/155 218/216/170
f 218/216/170 199/197/156 219/217/171
f 219/217/171 200/198/157 220/218/172
f 220/218/172 201/199/158 221/219/173
f 221/219/173 202/200/159 222/220/174
f 203/201/160 223/221/175 243/239/191
f 223/221/175 204/202/161 224/222/176
f 224/222/176 205/203/162 225/223/177
f 225/223/177 206/204/163 226/224/178
f 207/205/164 227/225/179 247/243/195
f 208/206/165 228/226/180 248/244/196
f 209/207/166 229/227/181 249/245/197
f 210/208/167 230/228/182 250/246/198
f 211/210/168 231/229/183 251/247/199
f 231/229/183 212/686/14 232/248/14
f 194/250/14 176/173/113 195/193/14
f 216/214/14 237/233/14 256/251/14
f 217/215/14 238/234/186 257/252/14
f 238/234/186 218/216/170 239/235/187
f 239/235/187 219/217/171 240/236/188
f 240/236/188 220/218/172 241/237/189
f 241/237/189 221/219/173 242/238/190
f 222/220/174 243/239/191 262/257/205
f 223/221/175 244/240/192 263/258/206
f 244/240/192 224/222/176 245/241/193
f 245/241/193 225/223/177 246/242/194
f 226/224/178 247/243/195 266/261/209
f 227/225/179 248/244/196 267/262/210
f 228/226/180 249/245/197 268/263/211
f 229/227/181 250/246/198 269/264/212
f 230/228/182 251/247/199 270/265/213
f 251/247/199 231/229/183 252/249/200
f 252/249/200 232/248/14 253/267/14
f 254/269/185 235/231/14 255/270/14
f 215/230/14 236/232/14 255/270/14
f 236/232/14 256/251/14 276/272/14
f 256/251/14 237/233/14 257/252/14
f 238/234/186 258/253/201 278/274/217
f 258/253/201 239/235/187 259/254/202
f 259/254/202 240/236/188 260/255/203
f 260/255/203 241/237/189 261/256/204
f 261/256/204 242/238/190 262/257/205
f 243/239/191 263/258/206 283/279/222
f 244/240/192 264/259/207 284/280/223
f 264/259/207 245/241/193 265/260/208
f 265/260/208 246/242/194 266/261/209
f 247/243/195 267/262/210 287/283/226
f 248/244/196 268/263/211 288/284/227
f 249/245/197 269/264/212 289/285/228
f 250/246/198 270/265/213 290/286/229
f 270/265/213 251/247/199 271/266/214
f 271/266/214 252/249/200 272/268/215
f 253/267/14 273/309/14 293/289/14
f 234/213/185 214/212/14 235/231/14
f 256/251/14 277/273/14 297/292/14
f 257/252/14 278/274/217 298/293/14
f 258/253/201 279/275/218 299/294/234
f 279/275/218 259/254/202 280/276/219
f 280/276/219 260/255/203 281/277/220
f 281/277/220 261/256/204 282/278/221
f 282/278/221 262/257/205 283/279/222
f 263/258/206 284/280/223 304/299/239
f 284/280/223 264/259/207 285/281/224
f 285/281/224 265/260/208 286/282/225
f 286/282/225 266/261/209 287/283/226
f 267/262/210 288/284/227 308/303/243
f 268/263/211 289/285/228 309/304/244
f 269/264/212 290/286/229 310/305/245
f 290/286/229 270/265/213 291/287/230
f 291/287/230 271/266/214 292/288/231
f 292/288/231 272/268/215 293/289/14
f 273/309/14 294/687/74 314/310/14
f 253/267/14 141/175/111 233/311/184
f 233/311/184 355/372/14 335/312/14
f 335/312/14 315/333/249 294/687/74
f 273/309/14 253/267/14 233/311/184
f 335/312/14 294/687/74 273/309/14
f 274/313/216 356/413/282 233/311/184
f 255/270/14 276/272/14 296/314/233
f 276/272/14 297/292/14 316/315/14
f 297/292/14 277/273/14 298/293/14
f 298/293/14 278/274/217 299/294/234
f 299/294/234 279/275/218 300/295/235
f 300/295/235 280/276/219 301/296/236
f 301/296/236 281/277/220 302/297/237
f 302/297/237 282/278/221 303/298/238
f 283/279/222 304/299/239 323/322/255
f 284/280/223 305/300/240 324/323/256
f 305/300/240 285/281/224 306/301/241
f 306/301/241 286/282/225 307/302/242
f 307/302/242 287/283/226 308/303/243
f 288/284/227 309/304/244 328/327/260
f 289/285/228 310/305/245 329/328/261
f 290/286/229 311/306/246 330/329/262
f 311/306/246 291/287/230 312/307/247
f 312/307/247 292/288/231 313/308/248
f 293/289/14 314/310/14 333/332/265
f 314/310/14 294/687/74 315/333/249
f 297/292/14 317/316/14 336/335/14
f 298/293/14 318/317/250 337/336/14
f 318/317/250 299/294/234 319/318/251
f 319/318/251 300/295/235 320/319/252
f 320/319/252 301/296/236 321/320/253
f 321/320/253 302/297/237 322/321/254
f 322/321/254 303/298/238 323/322/255
f 304/299/239 324/323/256 343/342/271
f 305/300/240 325/324/257 344/343/272
f 325/324/257 306/301/241 326/325/258
f 326/325/258 307/302/242 327/326/259
f 327/326/259 308/303/243 328/327/260
f 309/304/244 329/328/261 348/347/276
f 310/305/245 330/329/262 349/348/277
f 330/329/262 311/306/246 331/330/263
f 331/330/263 312/307/247 332/331/264
f 332/331/264 313/308/248 333/332/265
f 314/310/14 334/334/14 353/352/281
f 315/333/249 335/312/14 354/353/14
f 336/335/14 317/316/14 337/336/14
f 337/336/14 318/317/250 338/337/266
f 338/337/266 319/318/251 339/338/267
f 339/338/267 320/319/252 340/339/268
f 340/339/268 321/320/253 341/340/269
f 322/321/254 342/341/270 362/359/286
f 323/322/255 343/342/271 363/360/287
f 324/323/256 344/343/272 364/361/288
f 344/343/272 325/324/257 345/344/273
f 345/344/273 326/325/258 346/345/274
f 346/345/274 327/326/259 347/346/275
f 347/346/275 328/327/260 348/347/276
f 329/328/261 349/348/277 369/366/293
f 349/348/277 330/329/262 350/349/278
f 350/349/278 331/330/263 351/350/279
f 351/350/279 332/331/264 352/351/280
f 352/351/280 333/332/265 353/352/281
f 353/352/281 334/334/14 354/353/14
f 354/353/14 335/312/14 355/372/14
f 337/336/14 358/355/14 378/374/14
f 358/355/14 338/337/266 359/356/283
f 359/356/283 339/338/267 360/357/284
f 360/357/284 340/339/268 361/358/285
f 361/358/285 341/340/269 362/359/286
f 342/341/270 363/360/287 383/379/303
f 343/342/271 364/361/288 384/380/304
f 344/343/272 365/362/289 385/381/305
f 365/362/289 345/344/273 366/363/290
f 366/363/290 346/345/274 367/364/291
f 367/364/291 347/346/275 368/365/292
f 348/347/276 369/366/293 389/385/309
f 349/348/277 370/367/294 390/386/310
f 370/367/294 350/349/278 371/368/295
f 371/368/295 351/350/279 372/369/296
f 372/369/296 352/351/280 373/370/297
f 353/352/281 374/371/14 394/390/314
f 374/371/14 354/353/14 375/373/14
f 375/373/14 355/372/14 376/392/14
f 358/355/14 379/375/299 398/394/14
f 379/375/299 359/356/283 380/376/300
f 380/376/300 360/357/284 381/377/301
f 381/377/301 361/358/285 382/378/302
f 362/359/286 383/379/303 402/398/318
f 363/360/287 384/380/304 403/399/319
f 364/361/288 385/381/305 404/400/320
f 385/381/305 365/362/289 386/382/306
f 386/382/306 366/363/290 387/383/307
f 387/383/307 367/364/291 388/384/308
f 388/384/308 368/365/292 389/385/309
f 369/366/293 390/386/310 409/405/325
f 390/386/310 370/367/294 391/387/311
f 391/387/311 371/368/295 392/388/312
f 392/388/312 372/369/296 393/389/313
f 393/389/313 373/370/297 394/390/314
f 394/390/314 374/371/14 395/391/14
f 395/391/14 375/373/14 396/393/14
f 376/392/14 397/414/14 416/412/14
f 296/314/233 316/315/14 439/436/346
f 439/436/346 377/435/298 295/290/232
f 295/290/232 213/211/169 234/213/185
f 295/290/232 234/213/185 254/269/185
f 296/314/233 439/436/346 295/290/232
f 295/290/232 254/269/185 275/271/185
f 355/372/14 233/311/184 356/413/282
f 356/413/282 479/496/375 459/688/14
f 437/476/14 417/433/14 397/414/14
f 356/413/282 459/688/14 437/476/14
f 376/392/14 355/372/14 356/413/282
f 356/413/282 437/476/14 397/414/14
f 398/394/14 379/375/299 399/395/315
f 399/395/315 380/376/300 400/396/316
f 400/396/316 381/377/301 401/397/317
f 382/378/302 402/398/318 421/418/332
f 383/379/303 403/399/319 422/419/333
f 384/380/304 404/400/320 423/420/334
f 385/381/305 405/401/321 424/421/335
f 405/401/321 386/382/306 406/402/322
f 406/402/322 387/383/307 407/403/323
f 407/403/323 388/384/308 408/404/324
f 389/385/309 409/405/325 428/425/339
f 390/386/310 410/406/326 429/426/340
f 410/406/326 391/387/311 411/407/327
f 411/407/327 392/388/312 412/408/328
f 412/408/328 393/389/313 413/409/329
f 413/409/329 394/390/314 414/410/14
f 414/410/14 395/391/14 415/411/14
f 415/411/14 396/393/14 416/412/14
f 416/412/14 397/414/14 417/433/14
f 399/395/315 419/416/330 440/438/14
f 419/416/330 400/396/316 420/417/331
f 401/397/317 421/418/332 442/440/348
f 402/398/318 422/419/333 443/441/349
f 403/399/319 423/420/334 444/442/350
f 404/400/320 424/421/335 445/443/351
f 405/401/321 425/422/336 446/444/352
f 425/422/336 406/402/322 426/423/337
f 426/423/337 407/403/323 427/424/338
f 408/404/324 428/425/339 449/447/355
f 409/405/325 429/426/340 450/448/356
f 410/406/326 430/427/341 451/449/357
f 430/427/341 411/407/327 431/428/342
f 431/428/342 412/408/328 432/429/343
f 432/429/343 413/409/329 433/430/344
f 433/430/344 414/410/14 434/431/14
f 415/411/14 435/432/14 456/454/14
f 416/412/14 436/434/14 457/455/14
f 417/433/14 437/476/14 458/456/14
f 419/416/330 441/439/347 460/458/361
f 441/439/347 420/417/331 442/440/348
f 421/418/332 443/441/349 462/460/363
f 422/419/333 444/442/350 463/461/364
f 423/420/334 445/443/351 464/462/365
f 424/421/335 446/444/352 465/463/366
f 446/444/352 425/422/336 447/445/353
f 447/445/353 426/423/337 448/446/354
f 427/424/338 449/447/355 468/466/369
f 428/425/339 450/448/356 469/467/370
f 429/426/340 451/449/357 470/468/371
f 451/449/357 430/427/341 452/450/358
f 452/450/358 431/428/342 453/451/359
f 453/451/359 432/429/343 454/452/360
f 433/430/344 455/453/14 474/472/14
f 455/453/14 434/431/14 456/454/14
f 456/454/14 435/432/14 457/455/14
f 436/434/14 458/456/14 477/475/14
f 437/476/14 459/688/14 478/477/14
f 460/458/361 441/439/347 461/459/362
f 442/440/348 462/460/363 481/479/377
f 443/441/349 463/461/364 482/480/378
f 444/442/350 464/462/365 483/481/379
f 445/443/351 465/463/366 484/482/380
f 446/444/352 466/464/367 485/483/381
f 466/464/367 447/445/353 467/465/368
f 448/446/354 468/466/369 487/485/383
f 449/447/355 469/467/370 488/486/384
f 450/448/356 470/468/371 489/487/385
f 451/449/357 471/469/372 490/488/386
f 471/469/372 452/450/358 472/470/373
f 472/470/373 453/451/359 473/471/374
f 454/452/360 474/472/14 493/491/389
f 474/472/14 455/453/14 475/473/14
f 475/473/14 456/454/14 476/474/14
f 457/455/14 477/475/14 496/494/14
f 458/456/14 478/477/14 497/495/14
f 478/477/14 459/688/14 479/496/375
f 316/315/14 336/335/14 357/354/14
f 378/374/14 398/394/14 418/415/14
f 439/436/346 316/315/14 357/354/14
f 357/354/14 378/374/14 418/415/14
f 418/415/14 535/614/418 439/436/346
f 480/478/376 461/459/362 481/479/377
f 462/460/363 482/480/378 501/499/392
f 463/461/364 483/481/379 502/500/393
f 464/462/365 484/482/380 503/501/394
f 465/463/366 485/483/381 504/502/395
f 485/483/381 466/464/367 486/484/382
f 467/465/368 487/485/383 506/504/397
f 468/466/369 488/486/384 507/505/398
f 469/467/370 489/487/385 508/506/399
f 470/468/371 490/488/386 509/507/400
f 471/469/372 491/489/387 510/508/401
f 491/489/387 472/470/373 492/490/388
f 492/490/388 473/471/374 493/491/389
f 493/491/389 474/472/14 494/492/14
f 494/492/14 475/473/14 495/493/14
f 495/493/14 476/474/14 496/494/14
f 496/494/14 477/475/14 497/495/14
f 478/477/14 498/497/14 517/515/14
f 500/498/391 481/479/377 501/499/392
f 482/480/378 502/500/393 519/517/405
f 483/481/379 503/501/394 520/518/406
f 484/482/380 504/502/395 521/519/407
f 504/502/395 485/483/381 505/503/396
f 505/503/396 486/484/382 506/504/397
f 487/485/383 507/505/398 524/522/410
f 488/486/384 508/506/399 525/523/411
f 489/487/385 509/507/400 526/524/412
f 490/488/386 510/508/401 527/525/413
f 510/508/401 491/489/387 511/509/402
f 511/509/402 492/490/388 512/510/403
f 493/491/389 513/511/14 530/528/416
f 513/511/14 494/492/14 514/512/14
f 514/512/14 495/493/14 515/513/14
f 496/494/14 516/514/14 533/531/14
f 516/514/14 497/495/14 517/515/14
f 518/516/404 501/499/392 519/517/405
f 519/517/405 502/500/393 520/518/406
f 520/518/406 503/501/394 521/519/407
f 521/519/407 504/502/395 522/520/408
f 522/520/408 505/503/396 523/521/409
f 523/521/409 506/504/397 524/522/410
f 507/505/398 525/523/411 542/539/425
f 508/506/399 526/524/412 543/540/426
f 509/507/400 527/525/413 544/541/427
f 510/508/401 528/526/414 545/542/428
f 528/526/414 511/509/402 529/527/415
f 529/527/415 512/510/403 530/528/416
f 513/511/14 531/529/14 548/545/14
f 514/512/14 532/530/14 549/546/14
f 515/513/14 533/531/14 550/547/14
f 516/514/14 534/532/417 551/548/14
f 438/457/345 567/17/443 479/496/375
f 536/533/419 519/517/405 537/534/420
f 537/534/420 520/518/406 538/535/421
f 538/535/421 521/519/407 539/536/422
f 539/536/422 522/520/408 540/537/423
f 540/537/423 523/521/409 541/538/424
f 541/538/424 524/522/410 542/539/425
f 525/523/411 543/540/426 558/555/437
f 526/524/412 544/541/427 559/556/438
f 527/525/413 545/542/428 560/557/439
f 528/526/414 546/543/429 561/558/440
f 546/543/429 529/527/415 547/544/430
f 530/528/416 548/545/14 563/560/442
f 531/529/14 549/546/14 564/561/14
f 532/530/14 550/547/14 565/562/14
f 533/531/14 551/548/14 566/563/14
f 552/549/431 537/534/420 553/550/432
f 553/550/432 538/535/421 554/551/433
f 554/551/433 539/536/422 555/552/434
f 555/552/434 540/537/423 556/553/435
f 556/553/435 541/538/424 557/554/436
f 542/539/425 558/555/437 573/569/449
f 543/540/426 559/556/438 574/570/450
f 544/541/427 560/557/439 575/571/451
f 545/542/428 561/558/440 576/572/452
f 561/558/440 546/543/429 562/559/441
f 562/559/441 547/544/430 563/560/442
f 563/560/442 548/545/14 564/561/14
f 564/561/14 549/546/14 565/562/14
f 565/562/14 550/547/14 566/563/14
f 568/564/444 553/550/432 569/565/445
f 554/551/433 570/566/446 583/579/457
f 555/552/434 571/567/447 584/580/458
f 571/567/447 556/553/435 572/568/448
f 572/568/448 557/554/436 573/569/449
f 558/555/437 574/570/450 587/583/461
f 559/556/438 575/571/451 588/584/462
f 560/557/439 576/572/452 589/585/463
f 576/572/452 561/558/440 577/573/453
f 577/573/453 562/559/441 578/574/454
f 578/574/454 563/560/442 579/575/455
f 579/575/455 564/561/14 580/576/14
f 580/576/14 565/562/14 581/577/14
f 479/496/375 567/17/443 629/16/499
f 629/16/499 566/563/14 551/548/14
f 551/548/14 534/532/417 517/515/14
f 517/515/14 498/497/14 479/496/375
f 629/16/499 551/548/14 517/515/14
f 569/565/445 583/579/457 595/591/467
f 570/566/446 584/580/458 596/592/468
f 571/567/447 585/581/459 597/593/469
f 585/581/459 572/568/448 586/582/460
f 573/569/449 587/583/461 599/595/471
f 574/570/450 588/584/462 600/596/472
f 575/571/451 589/585/463 601/597/473
f 589/585/463 576/572/452 590/586/464
f 590/586/464 577/573/453 591/587/465
f 591/587/465 578/574/454 592/588/466
f 579/575/455 593/589/14 605/601/477
f 580/576/14 594/590/14 606/602/14
f 583/579/457 596/592/468 608/603/479
f 584/580/458 597/593/469 609/604/480
f 585/581/459 598/594/470 610/605/481
f 598/594/470 586/582/460 599/595/471
f 587/583/461 600/596/472 612/607/483
f 588/584/462 601/597/473 613/608/484
f 601/597/473 589/585/463 602/598/474
f 602/598/474 590/586/464 603/599/475
f 603/599/475 591/587/465 604/600/476
f 604/600/476 592/588/466 605/601/477
f 605/601/477 593/589/14 606/602/14
f 440/438/14 460/458/361 480/478/376
f 500/498/391 518/516/404 607/675/478
f 440/438/14 480/478/376 500/498/391
f 535/614/418 418/415/14 440/438/14
f 500/498/391 607/675/478 535/614/418
f 596/592/468 609/604/480 619/615/489
f 597/593/469 610/605/481 620/616/490
f 598/594/470 611/606/482 621/617/491
f 599/595/471 612/607/483 622/618/492
f 600/596/472 613/608/484 623/619/493
f 613/608/484 601/597/473 614/609/485
f 614/609/485 602/598/474 615/610/486
f 615/610/486 603/599/475 616/611/487
f 616/611/487 604/600/476 617/612/488
f 605/601/477 618/613/14 628/624/498
f 535/614/418 640/683/510 499/437/390
f 609/604/480 620/616/490 631/625/501
f 610/605/481 621/617/491 632/626/502
f 611/606/482 622/618/492 633/627/503
f 612/607/483 623/619/493 634/628/504
f 613/608/484 624/620/494 635/629/505
f 624/620/494 614/609/485 625/621/495
f 625/621/495 615/610/486 626/622/496
f 626/622/496 616/611/487 627/623/497
f 627/623/497 617/612/488 628/624/498
f 620/616/490 632/626/502 641/634/511
f 621/617/491 633/627/503 642/635/512
f 622/618/492 634/628/504 643/636/513
f 623/619/493 635/629/505 644/637/514
f 624/620/494 636/630/506 645/638/515
f 636/630/506 625/621/495 637/631/507
f 637/631/507 626/622/496 638/632/508
f 638/632/508 627/623/497 639/633/509
f 566/563/14 629/16/499 668/642/538
f 668/642/538 628/624/498 618/613/14
f 618/613/14 606/602/14 594/590/14
f 594/590/14 581/577/14 566/563/14
f 668/642/538 618/613/14 594/590/14
f 632/626/502 642/635/512 649/643/519
f 633/627/503 643/636/513 650/644/520
f 634/628/504 644/637/514 651/645/521
f 635/629/505 645/638/515 652/646/522
f 636/630/506 646/639/516 653/647/523
f 646/639/516 637/631/507 647/640/517
f 647/640/517 638/632/508 648/641/518
f 642/635/512 650/644/520 657/650/527
f 643/636/513 651/645/521 658/651/528
f 644/637/514 652/646/522 659/652/529
f 645/638/515 653/647/523 660/653/530
f 646/639/516 654/648/524 661/654/531
f 647/640/517 655/649/525 662/655/532
f 518/516/404 536/533/419 552/549/431
f 518/516/404 552/549/431 568/564/444
f 656/656/526 607/675/478 518/516/404
f 582/578/456 595/591/467 656/656/526
f 518/516/404 568/564/444 582/578/456
f 650/644/520 658/651/528 663/657/533
f 651/645/521 659/652/529 664/658/534
f 652/646/522 660/653/530 665/659/535
f 653/647/523 661/654/531 666/660/536
f 654/648/524 662/655/532 667/661/537
f 663/657/533 658/651/528 664/658/534
f 659/652/529 665/659/535 670/663/540
f 660/653/530 666/660/536 671/664/541
f 661/654/531 667/661/537 672/665/542
f 664/658/534 670/663/540 673/666/539
f 665/659/535 671/664/541 674/667/14
f 671/664/541 666/660/536 672/665/542
f 673/666/539 670/663/540 674/667/14
f 674/667/14 671/664/541 675/668/543
f 674/667/14 677/670/545 679/671/547
f 595/591/467 608/603/479 619/615/489
f 619/615/489 631/625/501 641/634/511
f 641/634/511 649/643/519 678/672/546
f 678/672/546 656/656/526 595/591/467
f 595/591/467 619/615/489 641/634/511
f 628/624/498 668/642/538 685/673/553
f 685/673/553 667/661/537 662/655/532
f 662/655/532 655/649/525 648/641/518
f 639/633/509 628/624/498 685/673/553
f 662/655/532 648/641/518 639/633/509
f 11/12/11 1/14/1 2/674/2
f 607/675/478 656/656/526 681/676/549
f 649/643/519 657/650/527 663/657/533
f 669/662/539 673/666/539 682/678/550
f 649/643/519 663/657/533 669/662/539
f 682/678/550 678/672/546 649/643/519
f 682/678/550 673/666/539 676/669/544
f 676/669/544 679/671/547 683/679/551
f 685/673/553 684/680/552 679/671/547
f 677/670/545 675/668/543 672/665/542
f 685/673/553 679/671/547 677/670/545
f 672/665/542 667/661/537 685/673/553
f 686/681/554 668/642/538 629/16/499
f 607/675/478 680/677/548 640/683/510
