# Blender 4.5.3 LTS
# www.blender.org
o polyp_1
v -1.000000 0.000000 1.000000
v -0.078125 0.000000 1.000000
v 1.000000 0.000000 1.000000
v 0.046875 0.005091 0.819196
v -0.101563 0.005146 0.695313
v 0.046875 0.005091 0.703125
v 0.195313 0.005214 0.695315
v -0.171881 0.005525 0.625022
v 0.011719 0.005238 0.664065
v 0.082032 0.005290 0.664067
v 0.265635 0.005771 0.625036
v -0.218791 0.006222 0.578245
v -0.052742 0.006243 0.599682
v 0.046880 0.006903 0.593871
v 0.146501 0.006702 0.599701
v 0.312571 0.006764 0.578287
v -0.265797 0.007148 0.531653
v -0.099699 0.009057 0.553195
v -0.000026 0.011907 0.547825
v 0.093895 0.012468 0.547860
v 0.193529 0.010485 0.553289
v 0.366133 0.008098 0.525149
v -0.319440 0.008084 0.478660
v -0.146968 0.013701 0.507572
v -0.047282 0.021080 0.503975
v 0.047304 0.024750 0.505029
v 0.141682 0.022842 0.503874
v 0.241019 0.016600 0.507603
v 0.434208 0.013636 0.434156
v -0.194916 0.019395 0.462912
v -0.095805 0.033413 0.463273
v 0.000105 0.042762 0.468272
v 0.096889 0.043734 0.467757
v 0.191388 0.036542 0.462414
v 0.289323 0.023875 0.462579
v -0.243619 0.024829 0.418416
v -0.146524 0.046591 0.424069
v -0.049902 0.063836 0.436176
v 0.051524 0.070696 0.441095
v 0.151025 0.065284 0.434768
v 0.243679 0.050515 0.422017
v 0.342196 0.030366 0.413534
v 0.525675 0.009986 0.366437
v -0.299348 0.028361 0.365978
v -0.199402 0.058070 0.383448
v -0.104525 0.084800 0.403818
v 0.001470 0.100585 0.418046
v 0.110507 0.100450 0.417194
v 0.210238 0.085313 0.400845
v 0.296625 0.061733 0.380924
v -0.396021 0.011333 0.378953
v 0.415530 0.035402 0.343581
v 0.578820 0.008910 0.312790
v -0.254908 0.065290 0.336897
v -0.163805 0.102991 0.366902
v -0.056244 0.130462 0.390114
v 0.063495 0.140449 0.400036
v 0.177587 0.127926 0.387437
v 0.271003 0.100670 0.361820
v -0.504544 0.007409 0.293391
v -0.351502 0.028609 0.314482
v 0.386465 0.070015 0.300033
v 0.466185 0.033452 0.291289
v 0.625357 0.007479 0.265728
v -0.227470 0.115074 0.320428
v -0.121537 0.156945 0.353101
v 0.005130 0.182163 0.371805
v 0.137129 0.179101 0.369953
v 0.247239 0.149224 0.346477
v -0.562907 0.006506 0.234579
v -0.394097 0.025660 0.269733
v -0.318578 0.066062 0.274775
v 0.371624 0.111199 0.275193
v 0.432743 0.066878 0.248935
v 0.511412 0.028150 0.242534
v 0.671982 0.006162 0.218769
v -0.194071 0.175280 0.303838
v -0.063890 0.218849 0.330085
v 0.081198 0.234436 0.336637
v 0.214887 0.209936 0.322735
v -0.609574 0.005711 0.187571
v -0.448344 0.020884 0.212119
v -0.367053 0.060186 0.219864
v -0.299441 0.117160 0.253479
v 0.360914 0.163710 0.248122
v 0.419959 0.106244 0.217770
v 0.475081 0.058069 0.195732
v 0.555932 0.020671 0.194234
v 0.742195 0.005338 0.148438
v -0.143243 0.243796 0.274507
v 0.011164 0.282182 0.288137
v 0.163877 0.276902 0.281237
v -0.656307 0.005237 0.140639
v -0.493497 0.015440 0.163686
v -0.409765 0.050133 0.166666
v -0.351087 0.108595 0.192061
v -0.277852 0.179422 0.230545
v 0.342667 0.232442 0.208650
v 0.412683 0.155560 0.182572
v 0.460093 0.093687 0.157769
v 0.514296 0.044924 0.143857
v 0.600848 0.013225 0.146685
v -0.072498 0.313355 0.224912
v 0.095393 0.333422 0.224527
v -1.000000 0.000000 0.109375
v -0.703130 0.005102 0.093751
v -0.538833 0.010456 0.115835
v -0.450751 0.038007 0.114742
v -0.392270 0.093132 0.132078
v -0.337881 0.167961 0.162781
v -0.238939 0.249945 0.192932
v 0.302242 0.309478 0.150672
v 0.399796 0.220253 0.134763
v 0.452329 0.136098 0.115259
v 0.492399 0.075741 0.100344
v 0.553761 0.030136 0.094443
v 0.646756 0.007907 0.099627
v 0.009892 0.367965 0.154032
v 1.000000 0.000000 0.078125
v -0.757812 0.005090 0.039062
v -0.584641 0.007022 0.068508
v -0.492030 0.025659 0.064642
v -0.427396 0.073856 0.074327
v -0.383445 0.146345 0.096556
v -0.310472 0.235400 0.119700
v -0.178031 0.320694 0.135509
v 0.235242 0.370807 0.078447
v 0.365722 0.294338 0.070049
v 0.441589 0.189956 0.061283
v 0.479849 0.110091 0.052744
v 0.522380 0.054821 0.047705
v 0.595982 0.017046 0.046873
v 0.710955 0.005560 0.035156
v -0.631004 0.005472 0.021502
v -0.534759 0.015155 0.016192
v -0.460724 0.053170 0.020265
v -0.416541 0.118855 0.032762
v -0.366625 0.207352 0.049954
v -0.260397 0.302976 0.058422
v -0.101643 0.374965 0.061350
v 0.148174 0.403158 0.000950
v 0.301354 0.354136 -0.005717
v 0.414684 0.253459 -0.006914
v 0.467094 0.150273 -0.004317
v 0.501006 0.082339 -0.002254
v 0.555980 0.033907 -0.000670
v 0.641010 0.008712 -0.000030
v 0.750000 0.005100 -0.000000
v -0.871094 0.005090 -0.031250
v -0.683605 0.005116 -0.031250
v -0.579254 0.008387 -0.031187
v -0.496316 0.033416 -0.030216
v -0.441569 0.089385 -0.025697
v -0.405781 0.170356 -0.017113
v -0.328960 0.269501 -0.012743
v -0.191718 0.356145 -0.015693
v 0.215941 0.386199 -0.082658
v 0.359609 0.309110 -0.083178
v 0.444489 0.196819 -0.072716
v 0.482319 0.111648 -0.059071
v 0.523497 0.055154 -0.050530
v 0.596020 0.017055 -0.047239
v 0.710955 0.005547 -0.035159
v 0.037632 0.407070 -0.087035
v -0.631058 0.005638 -0.083990
v -0.535872 0.017661 -0.078214
v -0.466909 0.060576 -0.078191
v -0.428377 0.130214 -0.078171
v -0.381207 0.224632 -0.080266
v -0.270754 0.320878 -0.086828
v 1.000000 0.000000 -0.078125
v 0.281850 0.343115 -0.159129
v 0.402252 0.241869 -0.147717
v 0.458303 0.142671 -0.124036
v 0.496082 0.077176 -0.104935
v 0.554400 0.030459 -0.095634
v 0.646751 0.007834 -0.099668
v -0.053304 0.389676 -0.158978
v 0.110308 0.391177 -0.168218
v -0.789062 0.005090 -0.136719
v -0.585123 0.008501 -0.130987
v -0.497577 0.034932 -0.126358
v -0.444988 0.091945 -0.131110
v -0.411109 0.173459 -0.141358
v -0.337467 0.272418 -0.154473
v 0.339559 0.275673 -0.223793
v 0.423159 0.173119 -0.194794
v 0.467472 0.098354 -0.164749
v 0.516980 0.046203 -0.146587
v 0.600923 0.013238 -0.146912
v 0.859375 0.005095 0.000000
v -0.138351 0.357183 -0.229252
v 0.023747 0.374544 -0.239258
v 0.183112 0.353187 -0.244942
v -1.000000 0.000000 -0.171875
v -0.703135 0.005112 -0.156250
v -0.541098 0.016042 -0.178514
v -0.465248 0.057499 -0.177651
v -0.424763 0.124072 -0.192288
v -0.381208 0.213263 -0.214592
v 0.374692 0.199172 -0.269844
v 0.432893 0.117858 -0.228946
v 0.481465 0.061456 -0.200911
v 0.556580 0.021325 -0.195017
v 0.742195 0.005319 -0.148439
v -0.217828 0.309812 -0.297793
v -0.058675 0.342596 -0.308805
v 0.100258 0.338971 -0.316879
v 0.252815 0.292586 -0.312524
v -0.656361 0.005418 -0.203138
v -0.500153 0.028500 -0.227514
v -0.436131 0.080970 -0.234346
v -0.398843 0.152868 -0.261159
v 0.390070 0.134456 -0.298313
v 0.444119 0.074727 -0.258142
v 0.513722 0.030385 -0.244557
v 0.671979 0.006142 -0.218785
v -0.280679 0.247552 -0.354874
v -0.137284 0.296123 -0.374213
v 0.020075 0.307395 -0.383841
v 0.173680 0.283646 -0.385371
v 0.303803 0.216293 -0.359883
v -0.609860 0.006588 -0.250104
v -0.461669 0.043230 -0.279144
v -0.405465 0.101119 -0.295591
v 0.401305 0.085359 -0.319450
v 0.471279 0.038679 -0.295604
v 0.625402 0.007552 -0.265808
v -0.315004 0.178813 -0.389647
v -0.202609 0.236508 -0.424626
v -0.056362 0.261968 -0.440568
v 0.094073 0.255293 -0.446252
v 0.232460 0.212330 -0.430377
v 0.329353 0.145848 -0.381935
v -0.563934 0.008961 -0.297318
v -0.418920 0.056615 -0.337393
v 0.421055 0.045280 -0.354543
v 0.579095 0.009312 -0.313060
v -0.328950 0.119042 -0.406410
v -0.245138 0.172114 -0.451167
v -0.121296 0.207335 -0.479047
v 0.018526 0.214303 -0.489975
v 0.156231 0.191590 -0.483049
v 0.267497 0.143794 -0.445405
v 0.343858 0.092258 -0.392525
v -1.000000 0.000000 -0.359375
v -0.512123 0.012548 -0.351586
v 0.526475 0.011151 -0.367113
v -0.352462 0.068421 -0.422024
v -0.269627 0.115593 -0.460778
v -0.169516 0.151730 -0.497097
v -0.046258 0.168178 -0.515417
v 0.082661 0.160778 -0.516348
v 0.199748 0.130958 -0.491966
v 0.288763 0.090824 -0.448093
v 0.371576 0.049269 -0.411011
v 0.428613 0.018886 -0.446418
v -0.296186 0.066981 -0.476125
v -0.204414 0.102773 -0.504032
v -0.098518 0.123560 -0.527858
v 0.018275 0.126537 -0.535408
v 0.132377 0.111000 -0.523221
v 0.230238 0.082567 -0.492032
v 0.326340 0.048220 -0.455797
v -0.426132 0.025683 -0.424198
v -0.240766 0.059325 -0.519983
v -0.141273 0.083576 -0.536956
v -0.036375 0.092878 -0.548932
v 0.071146 0.087423 -0.545746
v 0.171274 0.069262 -0.527297
v 0.266048 0.042980 -0.509082
v -0.354822 0.019813 -0.515086
v -0.185920 0.047191 -0.558761
v -0.083836 0.061378 -0.565001
v 0.016861 0.062695 -0.567429
v 0.115661 0.052927 -0.558902
v 0.214409 0.034857 -0.550525
v -0.299782 0.017829 -0.567736
v -0.133834 0.033118 -0.596049
v -0.032206 0.039237 -0.594262
v 0.064168 0.035902 -0.592050
v 0.164237 0.025482 -0.591458
v 0.341379 0.012375 -0.553586
v -0.251380 0.014321 -0.612921
v -0.084641 0.020067 -0.635454
v 0.015734 0.021053 -0.629926
v 0.115770 0.016672 -0.633902
v 0.282013 0.010549 -0.611225
v -0.203572 0.010598 -0.657992
v -0.019599 0.010898 -0.696316
v 0.050840 0.010073 -0.696104
v 0.234639 0.008532 -0.657157
v -0.132893 0.007601 -0.727074
v 0.015623 0.006815 -0.734509
v 0.164115 0.006831 -0.726856
v 0.015624 0.005741 -0.846037
v -1.000000 0.000000 -1.000000
v -0.078125 0.000000 -1.000000
v 0.109375 0.000000 -1.000000
v 1.000000 0.000000 -1.000000
v 0.379208 0.034169 0.379091
v 0.342554 0.067969 0.342053
v 0.323153 0.108843 0.321274
v 0.306678 0.160684 0.300885
v 0.281704 0.227303 0.269511
v 0.235954 0.301423 0.219689
v 0.168734 0.362054 0.154481
v 0.082334 0.396083 0.078973
v -0.030453 0.401334 -0.012284
v -0.123050 0.383170 -0.086747
v -0.207366 0.349139 -0.157399
v -0.283184 0.300699 -0.225803
v -0.338768 0.238394 -0.285066
v -0.364195 0.171255 -0.326251
v -0.371874 0.113585 -0.351845
v -0.387873 0.064715 -0.380240
v 1.000000 0.000000 -0.080675
v 0.171875 0.000000 1.000000
v 0.568277 0.000000 0.573859
v 0.537798 0.000000 -0.557772
v -0.628310 0.000000 -0.617668
v -0.556905 0.000000 0.537450
vn -0.0000 1.0000 -0.0000
vn -0.0073 0.9998 0.0162
vn -0.0007 0.9999 0.0152
vn -0.0104 0.9998 0.0164
vn -0.0007 1.0000 0.0010
vn 0.0062 0.9999 0.0144
vn 0.4528 0.7819 -0.4285
vn -0.0006 0.9999 0.0113
vn -0.0012 0.9999 0.0125
vn 0.0026 0.9993 0.0372
vn 0.3568 0.8732 -0.3321
vn -0.0062 0.9978 0.0661
vn -0.0031 0.9959 0.0904
vn 0.0021 0.9972 0.0750
vn -0.2975 0.9177 -0.2634
vn -0.0507 0.9957 0.0774
vn -0.0311 0.9903 0.1353
vn -0.0206 0.9779 0.2082
vn 0.0089 0.9768 0.2139
vn 0.0237 0.9879 0.1532
vn -0.0117 0.9983 0.0565
vn -0.0687 0.9934 0.0919
vn -0.0697 0.9766 0.2036
vn -0.0637 0.9400 0.3351
vn -0.0068 0.9230 0.3847
vn 0.0493 0.9386 0.3414
vn 0.0626 0.9729 0.2226
vn 0.1059 0.9869 0.1216
vn -0.1256 0.9550 0.2686
vn -0.1373 0.8745 0.4652
vn -0.0625 0.8197 0.5693
vn 0.0529 0.8196 0.5705
vn 0.1261 0.8756 0.4662
vn 0.1270 0.9508 0.2826
vn -0.1964 0.9322 0.3040
vn -0.2343 0.7981 0.5551
vn -0.1541 0.7006 0.6967
vn 0.0015 0.6665 0.7455
vn 0.1589 0.6986 0.6976
vn 0.2295 0.8062 0.5453
vn 0.2018 0.9258 0.3198
vn 0.1194 0.9879 0.0988
vn -0.2677 0.9150 0.3018
vn -0.3480 0.7300 0.5882
vn -0.2620 0.6054 0.7516
vn -0.0970 0.5602 0.8227
vn 0.1199 0.5481 0.8278
vn 0.2906 0.6001 0.7453
vn 0.3416 0.7476 0.5695
vn -0.0956 0.9911 0.0924
vn 0.2880 0.9118 0.2925
vn 0.1140 0.9902 0.0803
vn -0.4675 0.6815 0.5630
vn -0.3816 0.5441 0.7472
vn -0.2091 0.5250 0.8250
vn 0.0184 0.5152 0.8569
vn 0.2656 0.4962 0.8266
vn 0.4199 0.5442 0.7263
vn -0.0597 0.9980 0.0223
vn -0.3111 0.9095 0.2758
vn 0.5027 0.7116 0.4908
vn 0.3158 0.9190 0.2359
vn -0.3256 0.8727 -0.3637
vn -0.5211 0.5040 0.6888
vn -0.3231 0.5321 0.7826
vn -0.1059 0.5628 0.8198
vn 0.1742 0.5444 0.8205
vn 0.4104 0.4880 0.7703
vn -0.5015 0.7240 0.4736
vn -0.3095 0.9227 0.2297
vn -0.5538 0.6661 0.4996
vn 0.6277 0.5088 0.5892
vn 0.5575 0.7290 0.3972
vn 0.3101 0.9370 0.1609
vn -0.3953 0.8072 -0.4384
vn -0.4622 0.5480 0.6972
vn -0.2287 0.6249 0.7465
vn 0.0449 0.6512 0.7576
vn 0.3328 0.5833 0.7410
vn 0.3725 0.8411 -0.3922
vn -0.2758 0.9484 0.1564
vn -0.5919 0.6940 0.4099
vn -0.6510 0.4757 0.5916
vn 0.6566 0.4787 0.5829
vn 0.7114 0.5247 0.4676
vn 0.5696 0.7726 0.2804
vn 0.2665 0.9596 0.0902
vn 0.0287 0.9995 0.0154
vn -0.3664 0.6780 0.6372
vn -0.0952 0.7447 0.6605
vn 0.2053 0.7188 0.6642
vn 0.4029 0.8160 -0.4144
vn -0.2237 0.9704 0.0912
vn -0.5788 0.7577 0.3016
vn -0.7340 0.4764 0.4841
vn -0.6151 0.5329 0.5811
vn 0.6184 0.5882 0.5211
vn 0.7680 0.4645 0.4410
vn 0.7550 0.5691 0.3258
vn 0.5222 0.8365 0.1662
vn 0.2031 0.9784 0.0396
vn -0.2449 0.8123 0.5293
vn 0.0503 0.8392 0.5415
vn -0.0193 0.9998 0.0088
vn 0.4080 0.8141 -0.4132
vn -0.1571 0.9865 0.0469
vn -0.5112 0.8357 0.2007
vn -0.7740 0.5115 0.3732
vn -0.7391 0.4926 0.4594
vn -0.5161 0.6921 0.5047
vn 0.5064 0.7619 0.4038
vn 0.7587 0.5446 0.3574
vn 0.8419 0.4595 0.2829
vn 0.7357 0.6508 0.1878
vn 0.4169 0.9057 0.0765
vn 0.1109 0.9938 0.0075
vn -0.1096 0.9152 0.3877
vn 0.0228 0.9997 0.0092
vn -0.0074 1.0000 0.0054
vn -0.0905 0.9957 0.0191
vn -0.3999 0.9097 0.1123
vn -0.7563 0.6001 0.2607
vn -0.8217 0.4520 0.3471
vn -0.6565 0.6504 0.3822
vn -0.3973 0.8333 0.3843
vn 0.3344 0.9135 0.2318
vn 0.6662 0.7133 0.2175
vn 0.8596 0.4765 0.1844
vn 0.8561 0.4988 0.1354
vn 0.6401 0.7645 0.0765
vn 0.2931 0.9558 0.0216
vn 0.0238 0.9997 -0.0008
vn -0.0392 0.9992 0.0054
vn -0.2670 0.9625 0.0485
vn -0.6673 0.7293 0.1511
vn -0.8630 0.4491 0.2314
vn -0.7792 0.5668 0.2674
vn -0.5318 0.8055 0.2615
vn -0.2634 0.9351 0.2370
vn 0.1434 0.9877 0.0622
vn 0.4929 0.8687 0.0494
vn 0.7990 0.6003 0.0349
vn 0.8998 0.4350 0.0332
vn 0.7969 0.6038 0.0189
vn 0.4771 0.8788 0.0049
vn 0.1413 0.9900 -0.0001
vn 0.0027 1.0000 -0.0002
vn -0.0192 0.9998 0.0027
vn -0.0102 0.9999 0.0005
vn -0.1403 0.9900 0.0149
vn -0.5101 0.8577 0.0640
vn -0.8384 0.5316 0.1200
vn -0.8670 0.4743 0.1530
vn -0.6669 0.7277 0.1603
vn -0.3966 0.9102 0.1194
vn 0.2898 0.9514 -0.1042
vn 0.6577 0.7446 -0.1139
vn 0.8738 0.4739 -0.1094
vn 0.8748 0.4775 -0.0819
vn 0.6558 0.7530 -0.0545
vn 0.2977 0.9545 -0.0192
vn 0.0236 0.9997 0.0004
vn -0.0170 0.9973 -0.0720
vn -0.0503 0.9987 0.0026
vn -0.3168 0.9484 0.0164
vn -0.7271 0.6859 0.0311
vn -0.8995 0.4345 0.0448
vn -0.8020 0.5948 0.0555
vn -0.5187 0.8545 0.0292
vn 0.0249 0.9997 -0.0083
vn 0.4596 0.8523 -0.2499
vn 0.7889 0.5660 -0.2394
vn 0.8813 0.4231 -0.2104
vn 0.7735 0.6157 -0.1501
vn 0.4370 0.8969 -0.0680
vn 0.1125 0.9936 -0.0074
vn -0.1342 0.9752 -0.1760
vn 0.1124 0.9689 -0.2206
vn -0.0090 0.9999 -0.0066
vn -0.1387 0.9903 0.0011
vn -0.5236 0.8519 -0.0141
vn -0.8539 0.5186 -0.0433
vn -0.8850 0.4631 -0.0480
vn -0.6733 0.7358 -0.0724
vn 0.6391 0.6808 -0.3578
vn 0.8434 0.4263 -0.3270
vn 0.8218 0.5042 -0.2654
vn 0.5698 0.8085 -0.1471
vn 0.2136 0.9762 -0.0376
vn 0.0208 0.9998 0.0009
vn -0.2340 0.9359 -0.2633
vn -0.0119 0.9494 -0.3139
vn 0.2666 0.8998 -0.3454
vn -0.0272 0.9996 -0.0035
vn -0.0074 1.0000 0.0030
vn -0.2737 0.9617 -0.0176
vn -0.6958 0.7132 -0.0850
vn -0.8951 0.4213 -0.1459
vn -0.8091 0.5633 -0.1675
vn 0.7652 0.4808 -0.4282
vn 0.8198 0.4349 -0.3725
vn 0.6559 0.7135 -0.2464
vn 0.2977 0.9509 -0.0850
vn 0.0177 0.9998 0.0016
vn -0.3519 0.8620 -0.3648
vn -0.1076 0.9077 -0.4056
vn 0.1182 0.8911 -0.4382
vn 0.4555 0.7671 -0.4517
vn -0.0369 0.9992 -0.0126
vn -0.4200 0.9049 -0.0696
vn -0.7946 0.5749 -0.1950
vn -0.8707 0.4062 -0.2775
vn 0.7886 0.3993 -0.4677
vn 0.6975 0.6258 -0.3491
vn 0.3775 0.9132 -0.1535
vn -0.3780 0.8235 0.4231
vn -0.5145 0.6995 -0.4959
vn -0.2064 0.8301 -0.5180
vn 0.0046 0.8410 -0.5410
vn 0.2804 0.7774 -0.5631
vn 0.6328 0.5546 -0.5403
vn 0.3067 0.8805 0.3616
vn -0.5353 0.8264 -0.1747
vn -0.8161 0.4669 -0.3406
vn 0.7039 0.5428 -0.4580
vn 0.4322 0.8695 -0.2392
vn -0.2324 0.9324 0.2769
vn -0.6485 0.4705 -0.5983
vn -0.3374 0.6785 -0.6526
vn -0.0925 0.7450 -0.6606
vn 0.1305 0.7192 -0.6825
vn 0.4607 0.5702 -0.6801
vn 0.7104 0.3791 -0.5929
vn -0.1501 0.9865 -0.0647
vn -0.6069 0.7321 -0.3092
vn 0.4656 0.8193 -0.3346
vn 0.3150 0.9131 -0.2588
vn -0.6686 0.4197 -0.6139
vn -0.4698 0.4737 -0.7450
vn -0.1964 0.5958 -0.7788
vn 0.0128 0.6093 -0.7928
vn 0.2835 0.5202 -0.8056
vn 0.5777 0.3652 -0.7300
vn 0.6623 0.4735 -0.5807
vn -0.0102 0.9999 -0.0062
vn -0.2211 0.9703 -0.0985
vn 0.1613 0.9798 -0.1185
vn -0.5565 0.6646 -0.4985
vn -0.5250 0.4409 -0.7280
vn -0.3039 0.4509 -0.8392
vn -0.0832 0.4908 -0.8673
vn 0.1393 0.4488 -0.8827
vn 0.4110 0.3554 -0.8395
vn 0.5750 0.4508 -0.6828
vn 0.4629 0.7821 -0.4173
vn 0.2032 0.9621 -0.1816
vn -0.4523 0.6857 -0.5703
vn -0.3608 0.4908 -0.7931
vn -0.1693 0.4447 -0.8796
vn 0.0325 0.4267 -0.9038
vn 0.2617 0.3856 -0.8848
vn 0.4353 0.4899 -0.7553
vn 0.4144 0.7816 -0.4663
vn -0.2912 0.9359 -0.1983
vn -0.3145 0.7408 -0.5936
vn -0.2130 0.5737 -0.7909
vn -0.0501 0.5062 -0.8610
vn 0.1421 0.4902 -0.8600
vn 0.2952 0.5832 -0.7568
vn 0.3107 0.8165 -0.4866
vn -0.2188 0.9421 -0.2539
vn -0.1838 0.8146 -0.5501
vn -0.0906 0.6944 -0.7139
vn 0.0482 0.6554 -0.7537
vn 0.1731 0.7160 -0.6763
vn 0.1990 0.8712 -0.4487
vn -0.1772 0.9488 -0.2614
vn -0.0819 0.8783 -0.4710
vn -0.0050 0.8117 -0.5841
vn 0.0784 0.8304 -0.5516
vn 0.1121 0.9196 -0.3765
vn 0.1459 0.9710 -0.1893
vn -0.2995 0.8587 -0.4159
vn -0.0208 0.9539 -0.2995
vn 0.0243 0.9429 -0.3323
vn 0.0458 0.9680 -0.2467
vn 0.1123 0.9794 -0.1679
vn 0.2704 0.9493 0.1601
vn 0.0089 0.9945 -0.1040
vn 0.0095 0.9954 -0.0958
vn -0.2982 0.9259 0.2320
vn -0.0265 0.9970 -0.0732
vn 0.0117 0.9995 -0.0300
vn 0.0399 0.9965 -0.0728
vn 0.0028 0.9995 -0.0306
vn -0.0087 0.9997 -0.0247
vn 0.0099 0.9997 -0.0217
vn 0.2466 0.9131 0.3246
vn 0.4318 0.7194 0.5440
vn 0.5282 0.5182 0.6727
vn 0.5331 0.4864 0.6923
vn 0.4723 0.5984 0.6473
vn 0.3509 0.7552 0.5536
vn 0.1859 0.8958 0.4037
vn 0.0121 0.9724 0.2329
vn -0.1371 0.9871 0.0833
vn -0.2621 0.9646 -0.0283
vn -0.3753 0.9198 -0.1147
vn -0.5190 0.8292 -0.2073
vn -0.6843 0.6541 -0.3223
vn -0.7857 0.4399 -0.4350
vn -0.7710 0.4258 -0.4735
vn -0.6274 0.6734 -0.3910
vn 0.0065 0.9998 0.0184
vn 0.0261 0.9995 0.0201
vn 0.0347 0.9988 -0.0352
vn -0.0226 0.9996 -0.0190
vn -0.0141 0.9997 0.0181
vt 0.097023 0.568479
vt 0.000000 0.585938
vt 0.059617 0.514728
vt 0.523111 0.084215
vt 0.540979 0.155770
vt 0.522781 0.137686
vt 0.504361 0.155589
vt 0.445664 0.141991
vt 0.599862 0.142660
vt 0.470052 0.185122
vt 0.408674 0.175462
vt 0.636499 0.176528
vt 0.574858 0.185693
vt 0.418841 0.228643
vt 0.383746 0.198045
vt 0.625549 0.229996
vt 0.661257 0.199323
vt 0.392553 0.250549
vt 0.358531 0.220688
vt 0.522420 0.187391
vt 0.651691 0.252595
vt 0.689801 0.225487
vt 0.365913 0.272990
vt 0.329579 0.246705
vt 0.471450 0.228598
vt 0.444634 0.206915
vt 0.522267 0.227957
vt 0.497229 0.208289
vt 0.572983 0.229414
vt 0.547281 0.208596
vt 0.680194 0.277909
vt 0.726539 0.270948
vt 0.335667 0.299952
vt 0.287935 0.296427
vt 0.444891 0.248537
vt 0.496595 0.246007
vt 0.548908 0.246690
vt 0.599961 0.207799
vt 0.599875 0.250246
vt 0.700010 0.296206
vt 0.719309 0.315247
vt 0.271791 0.721455
vt 0.273958 0.674907
vt 0.292061 0.697039
vt 0.683067 0.704936
vt 0.728322 0.689625
vt 0.701867 0.719002
vt 0.417392 0.268974
vt 0.469718 0.263911
vt 0.524203 0.262370
vt 0.577771 0.265470
vt 0.627975 0.271754
vt 0.773090 0.307557
vt 0.307649 0.326787
vt 0.285102 0.350459
vt 0.389106 0.290912
vt 0.441233 0.283472
vt 0.497708 0.279087
vt 0.555027 0.279967
vt 0.608588 0.286034
vt 0.656030 0.294282
vt 0.680352 0.315484
vt 0.359571 0.315826
vt 0.411311 0.305731
vt 0.468660 0.298979
vt 0.529804 0.296999
vt 0.588500 0.301015
vt 0.639391 0.309124
vt 0.799654 0.336409
vt 0.746125 0.343431
vt 0.233421 0.342436
vt 0.703732 0.338195
vt 0.665895 0.331343
vt 0.822615 0.361582
vt 0.769762 0.369958
vt 0.379644 0.331779
vt 0.437354 0.322600
vt 0.500845 0.318653
vt 0.565158 0.320043
vt 0.621919 0.325980
vt 0.257082 0.381445
vt 0.204759 0.374038
vt 0.690924 0.355785
vt 0.325575 0.348222
vt 0.845393 0.386464
vt 0.792591 0.396291
vt 0.403579 0.350320
vt 0.468807 0.344404
vt 0.536742 0.344702
vt 0.600408 0.348167
vt 0.234400 0.407830
vt 0.182106 0.399122
vt 0.650343 0.350530
vt 0.676826 0.377172
vt 0.343047 0.366087
vt 0.728737 0.365572
vt 0.837213 0.447564
vt 0.879555 0.423232
vt 0.433466 0.373856
vt 0.504618 0.372828
vt 0.572657 0.376166
vt 0.212283 0.433955
vt 0.159573 0.423899
vt 0.299050 0.376661
vt 0.629935 0.375835
vt 0.657202 0.404983
vt 0.363773 0.386583
vt 0.752069 0.394061
vt 0.717059 0.385319
vt 0.867529 0.481609
vt 0.936027 0.499987
vt 0.468523 0.403773
vt 0.540744 0.406398
vt 0.190534 0.459671
vt 0.137268 0.448679
vt 0.275454 0.404460
vt 0.314799 0.396184
vt 0.602330 0.406711
vt 0.629603 0.437872
vt 0.390566 0.412058
vt 0.740497 0.416004
vt 0.704208 0.408805
vt 0.773663 0.422009
vt 0.814945 0.422133
vt 0.885759 0.499857
vt 0.000000 0.445312
vt 0.504378 0.438463
vt 0.144938 0.513348
vt 0.111696 0.477514
vt 0.253506 0.432225
vt 0.290145 0.425457
vt 0.333230 0.418307
vt 0.356516 0.444657
vt 0.570088 0.439057
vt 0.596516 0.471387
vt 0.533658 0.471213
vt 0.423318 0.443041
vt 0.728604 0.441123
vt 0.685508 0.438264
vt 0.760687 0.445808
vt 0.794455 0.448835
vt 0.559790 0.503518
vt 0.868098 0.518013
vt 0.232522 0.459498
vt 0.268278 0.454548
vt 0.306354 0.448676
vt 0.386442 0.475803
vt 0.458123 0.477218
vt 0.711554 0.471189
vt 0.658283 0.472109
vt 0.748903 0.472142
vt 0.778932 0.473774
vt 0.815208 0.474645
vt 0.836426 0.499690
vt 0.487736 0.508396
vt 0.212018 0.486061
vt 0.169030 0.485047
vt 0.248534 0.482899
vt 0.283105 0.478780
vt 0.326944 0.475637
vt 0.353090 0.506427
vt 0.419802 0.509046
vt 0.449517 0.538945
vt 0.686247 0.504983
vt 0.624781 0.505895
vt 0.733710 0.502375
vt 0.765561 0.500737
vt 0.797088 0.499839
vt 0.191638 0.511940
vt 0.229671 0.510198
vt 0.263443 0.507966
vt 0.301005 0.506071
vt 0.384205 0.539185
vt 0.478167 0.568840
vt 0.413250 0.568882
vt 0.515164 0.539070
vt 0.618112 0.570125
vt 0.587721 0.537547
vt 0.711872 0.535746
vt 0.654093 0.538569
vt 0.750846 0.530610
vt 0.780642 0.526655
vt 0.816256 0.524707
vt 0.839048 0.551967
vt 0.136403 0.578663
vt 0.168538 0.540453
vt 1.000000 0.460938
vt 1.000000 0.539062
vt 0.881450 0.576775
vt 0.210906 0.536420
vt 0.246071 0.535707
vt 0.279820 0.535628
vt 0.323949 0.536786
vt 0.351162 0.569406
vt 0.544824 0.572625
vt 0.442444 0.599051
vt 0.378217 0.599439
vt 0.650380 0.601360
vt 0.731824 0.563032
vt 0.683411 0.569132
vt 0.764601 0.555590
vt 0.797012 0.550841
vt 0.189234 0.564992
vt 0.848311 0.613736
vt 0.817834 0.577426
vt 0.229262 0.561923
vt 0.262525 0.563414
vt 0.299764 0.566337
vt 0.509647 0.602644
vt 0.576313 0.605858
vt 0.407033 0.630117
vt 0.323570 0.598999
vt 0.678703 0.629196
vt 0.746548 0.586504
vt 0.707394 0.595994
vt 0.778361 0.578398
vt 0.209664 0.590126
vt 0.158355 0.603192
vt 0.542069 0.637231
vt 0.796906 0.603547
vt 0.247269 0.589103
vt 0.281005 0.593850
vt 0.475237 0.633795
vt 0.609934 0.638435
vt 0.375023 0.659506
vt 0.348025 0.628973
vt 0.302591 0.625948
vt 0.725063 0.618353
vt 0.759407 0.607424
vt 0.229848 0.616368
vt 0.180529 0.627730
vt 0.575643 0.670529
vt 0.826142 0.638680
vt 0.775904 0.630500
vt 0.266106 0.618469
vt 0.440634 0.664805
vt 0.640905 0.667660
vt 0.324806 0.655085
vt 0.350219 0.684012
vt 0.286870 0.649054
vt 0.738746 0.637389
vt 0.699239 0.651215
vt 0.250343 0.644002
vt 0.202741 0.652820
vt 0.474871 0.698095
vt 0.541820 0.700804
vt 0.508472 0.668372
vt 0.607270 0.699201
vt 0.803961 0.663997
vt 0.754379 0.658117
vt 0.408611 0.692738
vt 0.665033 0.689543
vt 0.307792 0.676525
vt 0.331704 0.703238
vt 0.714807 0.668649
vt 0.228138 0.682060
vt 0.443541 0.723157
vt 0.508549 0.727278
vt 0.573564 0.727005
vt 0.633260 0.719496
vt 0.778517 0.693234
vt 0.382338 0.715015
vt 0.311940 0.718529
vt 0.416562 0.742537
vt 0.477661 0.748706
vt 0.540455 0.750164
vt 0.600937 0.745087
vt 0.653525 0.733142
vt 0.361614 0.731816
vt 0.310478 0.768593
vt 0.342007 0.747339
vt 0.393872 0.757204
vt 0.450117 0.765378
vt 0.509585 0.768759
vt 0.568701 0.766364
vt 0.623289 0.757445
vt 0.677456 0.742393
vt 0.729927 0.736324
vt 0.371461 0.771398
vt 0.425715 0.778673
vt 0.481409 0.783806
vt 0.538155 0.783870
vt 0.592729 0.778229
vt 0.644803 0.770355
vt 0.340624 0.795162
vt 0.682295 0.790068
vt 0.400713 0.792982
vt 0.455693 0.797112
vt 0.509767 0.799156
vt 0.563305 0.796496
vt 0.616686 0.791983
vt 0.367023 0.817643
vt 0.649920 0.818300
vt 0.428747 0.812962
vt 0.483390 0.814014
vt 0.535486 0.813752
vt 0.589231 0.812512
vt 0.392817 0.839786
vt 0.624370 0.840606
vt 0.455329 0.833007
vt 0.509160 0.831961
vt 0.562636 0.833068
vt 0.490099 0.861338
vt 0.430303 0.873272
vt 0.586724 0.873933
vt 0.527369 0.861457
vt 0.508618 0.878799
vt 0.508220 0.929365
vt 0.554687 1.000000
vt 0.460937 1.000000
vt 0.585938 0.000000
vt 0.460937 0.000000
vt 0.212855 0.222752
vt 1.000000 1.000000
vt 0.780253 0.788229
vt 0.000000 1.000000
vt 0.178394 0.814119
vt 0.000000 0.000000
vt 0.790731 0.206007
vt 1.000000 0.000000
vt 1.000000 0.540338
vt 0.000000 0.679688
s 1
f 180/1/179 195/2/194 149/3/148
f 4/4/3 10/5/9 6/6/5
f 4/4/3 6/6/5 9/7/8
f 9/7/8 5/8/4 4/4/3
f 7/9/6 10/5/9 4/4/3
f 13/10/12 8/11/7 5/8/4
f 11/12/10 15/13/14 7/9/6
f 8/11/7 24/14/23 12/15/11
f 10/5/9 9/7/8 6/6/5
f 28/16/27 11/12/10 16/17/15
f 12/15/11 30/18/29 17/19/16
f 14/20/13 13/10/12 9/7/8
f 15/13/14 14/20/13 10/5/9
f 35/21/34 16/17/15 22/22/21
f 17/19/16 36/23/35 23/24/22
f 13/10/12 25/25/24 18/26/17
f 14/20/13 26/27/25 19/28/18
f 15/13/14 27/29/26 20/30/19
f 42/31/41 22/22/21 29/32/28
f 23/24/22 44/33/43 51/34/50
f 18/26/17 31/35/30 24/14/23
f 19/28/18 32/36/31 25/25/24
f 20/30/19 33/37/32 26/27/25
f 21/38/20 34/39/33 27/29/26
f 301/40/298 29/32/28 52/41/51
f 265/42/264 236/43/235 316/44/313
f 245/45/244 237/46/236 256/47/255
f 24/14/23 37/48/36 30/18/29
f 25/25/24 38/49/37 31/35/30
f 26/27/25 39/50/38 32/36/31
f 27/29/26 40/51/39 33/37/32
f 28/16/27 41/52/40 34/39/33
f 43/53/42 52/41/51 29/32/28
f 51/34/50 61/54/60 71/55/70
f 30/18/29 45/56/44 36/23/35
f 31/35/30 46/57/45 37/48/36
f 32/36/31 47/58/46 38/49/37
f 33/37/32 48/59/47 39/50/38
f 34/39/33 49/60/48 40/51/39
f 35/21/34 50/61/49 41/52/40
f 42/31/41 302/62/299 50/61/49
f 36/23/35 54/63/53 44/33/43
f 37/48/36 55/64/54 45/56/44
f 38/49/37 56/65/55 46/57/45
f 39/50/38 57/66/56 47/58/46
f 40/51/39 58/67/57 48/59/47
f 41/52/40 59/68/58 49/60/48
f 53/69/52 63/70/62 43/53/42
f 71/55/70 60/71/59 51/34/50
f 302/62/299 52/41/51 62/72/61
f 50/61/49 303/73/300 59/68/58
f 64/74/63 75/75/74 53/69/52
f 45/56/44 65/76/64 54/63/53
f 46/57/45 66/77/65 55/64/54
f 47/58/46 67/78/66 56/65/55
f 48/59/47 68/79/67 57/66/56
f 49/60/48 69/80/68 58/67/57
f 82/81/81 70/82/69 60/71/59
f 303/73/300 62/72/61 73/83/72
f 303/73/300 69/80/68 59/68/58
f 44/33/43 72/84/71 61/54/60
f 76/85/75 88/86/87 64/74/63
f 55/64/54 77/87/76 65/76/64
f 56/65/55 78/88/77 66/77/65
f 57/66/56 79/89/78 67/78/66
f 58/67/57 80/90/79 68/79/67
f 63/70/62 62/72/61 52/41/51
f 94/91/93 81/92/80 70/82/69
f 72/84/71 71/55/70 61/54/60
f 304/93/301 73/83/72 85/94/84
f 304/93/301 80/90/79 69/80/68
f 54/63/53 84/95/83 72/84/71
f 75/75/74 74/96/73 63/70/62
f 117/97/116 76/85/75 89/98/88
f 66/77/65 90/99/89 77/87/76
f 67/78/66 91/100/90 78/88/77
f 68/79/67 92/101/91 79/89/78
f 74/96/73 73/83/72 62/72/61
f 107/102/106 93/103/92 81/92/80
f 83/104/82 82/81/81 71/55/70
f 84/95/83 83/104/82 72/84/71
f 305/105/302 85/94/84 98/106/97
f 305/105/302 92/101/91 80/90/79
f 65/76/64 97/107/96 84/95/83
f 87/108/86 86/109/85 74/96/73
f 88/86/87 87/108/86 75/75/74
f 133/110/132 89/98/88 191/111/190
f 78/88/77 103/112/102 90/99/89
f 79/89/78 104/113/103 91/100/90
f 86/109/85 85/94/84 73/83/72
f 121/114/120 106/115/105 93/103/92
f 95/116/94 94/91/93 82/81/81
f 96/117/95 95/116/94 83/104/82
f 97/107/96 96/117/95 84/95/83
f 306/118/303 98/106/97 112/119/111
f 306/118/303 104/113/103 92/101/91
f 77/87/76 111/120/110 97/107/96
f 100/121/99 99/122/98 86/109/85
f 101/123/100 100/121/99 87/108/86
f 102/124/101 101/123/100 88/86/87
f 191/111/190 148/125/147 133/110/132
f 105/126/104 149/3/148 195/2/194
f 91/100/90 118/127/117 103/112/102
f 99/122/98 98/106/97 85/94/84
f 106/115/105 150/128/149 120/129/119
f 108/130/107 107/102/106 94/91/93
f 109/131/108 108/130/107 95/116/94
f 110/132/109 109/131/108 96/117/95
f 97/107/96 125/133/124 110/132/109
f 307/134/304 112/119/111 127/135/126
f 104/113/103 308/136/305 118/127/117
f 90/99/89 126/137/125 111/120/110
f 114/138/113 113/139/112 99/122/98
f 115/140/114 114/138/113 100/121/99
f 116/141/115 115/140/114 101/123/100
f 117/97/116 116/141/115 102/124/101
f 113/139/112 112/119/111 98/106/97
f 308/136/305 127/135/126 141/142/140
f 148/125/147 191/111/190 163/143/162
f 122/144/121 121/114/120 107/102/106
f 123/145/122 122/144/121 108/130/107
f 124/146/123 123/145/122 109/131/108
f 125/133/124 124/146/123 110/132/109
f 111/120/110 139/147/138 125/133/124
f 103/112/102 140/148/139 126/137/125
f 129/149/128 128/150/127 113/139/112
f 130/151/129 129/149/128 114/138/113
f 131/152/130 130/151/129 115/140/114
f 132/153/131 131/152/130 116/141/115
f 117/97/116 147/154/146 132/153/131
f 128/150/127 127/135/126 112/119/111
f 118/127/117 309/155/306 140/148/139
f 135/156/134 134/157/133 121/114/120
f 136/158/135 135/156/134 122/144/121
f 137/159/136 136/158/135 123/145/122
f 138/160/137 137/159/136 124/146/123
f 125/133/124 155/161/154 138/160/137
f 126/137/125 156/162/155 139/147/138
f 140/148/139 310/163/307 156/162/155
f 143/164/142 142/165/141 128/150/127
f 144/166/143 143/164/142 129/149/128
f 145/167/144 144/166/143 130/151/129
f 146/168/145 145/167/144 131/152/130
f 147/154/146 146/168/145 132/153/131
f 133/110/132 163/143/162 147/154/146
f 142/165/141 141/142/140 127/135/126
f 151/169/150 150/128/149 134/157/133
f 152/170/151 151/169/150 135/156/134
f 153/171/152 152/170/151 136/158/135
f 154/172/153 153/171/152 137/159/136
f 155/161/154 154/172/153 138/160/137
f 139/147/138 170/173/169 155/161/154
f 309/155/306 178/174/177 310/163/307
f 156/162/155 311/175/308 170/173/169
f 308/136/305 164/176/163 309/155/306
f 142/165/141 172/177/171 157/178/156
f 159/179/158 158/180/157 143/164/142
f 160/181/159 159/179/158 144/166/143
f 161/182/160 160/181/159 145/167/144
f 162/183/161 161/182/160 146/168/145
f 147/154/146 177/184/176 162/183/161
f 196/185/195 150/128/149 165/186/164
f 180/1/179 120/129/119 150/128/149
f 119/187/118 171/188/170 191/111/190
f 163/143/162 205/189/204 177/184/176
f 166/190/165 165/186/164 151/169/150
f 167/191/166 166/190/165 152/170/151
f 168/192/167 167/191/166 153/171/152
f 169/193/168 168/192/167 154/172/153
f 155/161/154 185/194/184 169/193/168
f 141/142/140 179/195/178 164/176/163
f 310/163/307 192/196/191 311/175/308
f 170/173/169 312/197/309 185/194/184
f 158/180/157 186/198/185 172/177/171
f 174/199/173 173/200/172 159/179/158
f 175/201/174 174/199/173 160/181/159
f 176/202/175 175/201/174 161/182/160
f 177/184/176 176/202/175 162/183/161
f 181/203/180 196/185/195 165/186/164
f 177/184/176 217/204/216 190/205/189
f 182/206/181 181/203/180 166/190/165
f 183/207/182 182/206/181 167/191/166
f 184/208/183 183/207/182 168/192/167
f 185/194/184 184/208/183 169/193/168
f 164/176/163 193/209/192 178/174/177
f 157/178/156 194/210/193 179/195/178
f 311/175/308 206/211/205 312/197/309
f 312/197/309 200/212/199 185/194/184
f 173/200/172 201/213/200 186/198/185
f 188/214/187 187/215/186 174/199/173
f 189/216/188 188/214/187 175/201/174
f 190/205/189 189/216/188 176/202/175
f 197/217/196 210/218/209 181/203/180
f 179/195/178 208/219/207 193/209/192
f 217/204/216 204/220/203 190/205/189
f 198/221/197 197/217/196 182/206/181
f 199/222/198 198/221/197 183/207/182
f 200/212/199 199/222/198 184/208/183
f 178/174/177 207/223/206 192/196/191
f 172/177/171 209/224/208 194/210/193
f 312/197/309 218/225/217 313/226/310
f 313/226/310 213/227/212 200/212/199
f 202/228/201 201/213/200 187/215/186
f 203/229/202 202/228/201 188/214/187
f 204/220/203 203/229/202 189/216/188
f 211/230/210 223/231/222 197/217/196
f 208/219/207 207/223/206 193/209/192
f 194/210/193 221/232/220 208/219/207
f 228/233/227 216/234/215 204/220/203
f 212/235/211 211/230/210 198/221/197
f 213/227/212 212/235/211 199/222/198
f 192/196/191 219/236/218 206/211/205
f 186/198/185 222/237/221 209/224/208
f 314/238/311 218/225/217 229/239/228
f 314/238/311 225/240/224 213/227/212
f 215/241/214 214/242/213 202/228/201
f 216/234/215 215/241/214 203/229/202
f 224/243/223 235/244/234 211/230/210
f 207/223/206 231/245/230 219/236/218
f 208/219/207 232/246/231 220/247/219
f 209/224/208 233/248/232 221/232/220
f 238/249/237 227/250/226 216/234/215
f 225/240/224 224/243/223 212/235/211
f 206/211/205 230/251/229 218/225/217
f 201/213/200 234/252/233 222/237/221
f 315/253/312 229/239/228 239/254/238
f 315/253/312 236/43/235 225/240/224
f 227/250/226 226/255/225 215/241/214
f 236/43/235 247/256/246 224/243/223
f 219/236/218 241/257/240 230/251/229
f 220/247/219 242/258/241 231/245/230
f 221/232/220 243/259/242 232/246/231
f 222/237/221 244/260/243 233/248/232
f 248/261/247 237/46/236 227/250/226
f 218/225/217 240/262/239 229/239/228
f 234/252/233 226/255/225 245/45/244
f 316/44/313 239/254/238 249/263/248
f 44/33/43 61/54/60 51/34/50
f 230/251/229 251/264/250 240/262/239
f 231/245/230 252/265/251 241/257/240
f 232/246/231 253/266/252 242/258/241
f 233/248/232 254/267/253 243/259/242
f 234/252/233 255/268/254 244/260/243
f 229/239/228 250/269/249 239/254/238
f 265/42/264 316/44/313 249/263/248
f 272/270/271 249/263/248 258/271/257
f 240/262/239 259/272/258 250/269/249
f 241/257/240 260/273/259 251/264/250
f 242/258/241 261/274/260 252/265/251
f 243/259/242 262/275/261 253/266/252
f 244/260/243 263/276/262 254/267/253
f 245/45/244 264/277/263 255/268/254
f 257/278/256 256/47/255 237/46/236
f 239/254/238 258/271/257 249/263/248
f 250/269/249 266/279/265 258/271/257
f 251/264/250 267/280/266 259/272/258
f 252/265/251 268/281/267 260/273/259
f 253/266/252 269/282/268 261/274/260
f 254/267/253 270/283/269 262/275/261
f 255/268/254 271/284/270 263/276/262
f 278/285/277 258/271/257 266/279/265
f 256/47/255 257/278/256 264/277/263
f 264/277/263 283/286/282 271/284/270
f 259/272/258 273/287/272 266/279/265
f 260/273/259 274/288/273 267/280/266
f 261/274/260 275/289/274 268/281/267
f 262/275/261 276/290/275 269/282/268
f 263/276/262 277/291/276 270/283/269
f 284/292/283 266/279/265 273/287/272
f 271/284/270 288/293/287 277/291/276
f 267/280/266 279/294/278 273/287/272
f 268/281/267 280/295/279 274/288/273
f 269/282/268 281/296/280 275/289/274
f 270/283/269 282/297/281 276/290/275
f 289/298/288 273/287/272 279/294/278
f 277/291/276 292/299/291 282/297/281
f 274/288/273 285/300/284 279/294/278
f 275/289/274 286/301/285 280/295/279
f 276/290/275 287/302/286 281/296/280
f 285/300/284 289/298/288 279/294/278
f 292/299/291 287/302/286 282/297/281
f 286/301/285 285/300/284 280/295/279
f 287/302/286 286/301/285 281/296/280
f 290/303/289 293/304/292 285/300/284
f 295/305/294 291/306/290 287/302/286
f 291/306/290 290/303/289 286/301/285
f 294/307/293 296/308/295 290/303/289
f 291/306/290 296/308/295 294/307/293
f 301/40/298 42/31/41 29/32/28
f 296/308/295 299/309/297 298/310/296
f 318/311/314 22/22/21 11/12/10
f 4/4/3 2/312/2 318/311/314
f 322/313/318 5/8/4 17/19/16
f 300/314/1 299/309/297 320/315/316
f 297/316/1 321/317/317 298/310/296
f 248/261/247 205/189/204 171/188/170
f 321/317/317 278/285/277 293/304/292
f 2/312/2 322/313/318 1/318/1
f 119/187/118 319/319/315 3/320/1
f 319/319/315 89/98/88 53/69/52
f 3/320/1 319/319/315 318/311/314
f 320/315/316 317/321/1 300/314/1
f 320/315/316 295/305/294 288/293/287
f 321/317/317 210/218/209 235/244/234
f 321/317/317 297/316/1 246/322/245
f 1/318/1 322/313/318 105/126/104
f 60/71/59 93/103/92 120/129/119
f 180/1/179 246/322/245 195/2/194
f 9/7/8 13/10/12 5/8/4
f 7/9/6 15/13/14 10/5/9
f 13/10/12 18/26/17 8/11/7
f 11/12/10 21/38/20 15/13/14
f 8/11/7 18/26/17 24/14/23
f 10/5/9 14/20/13 9/7/8
f 28/16/27 21/38/20 11/12/10
f 12/15/11 24/14/23 30/18/29
f 14/20/13 19/28/18 13/10/12
f 15/13/14 20/30/19 14/20/13
f 35/21/34 28/16/27 16/17/15
f 17/19/16 30/18/29 36/23/35
f 13/10/12 19/28/18 25/25/24
f 14/20/13 20/30/19 26/27/25
f 15/13/14 21/38/20 27/29/26
f 42/31/41 35/21/34 22/22/21
f 23/24/22 36/23/35 44/33/43
f 18/26/17 25/25/24 31/35/30
f 19/28/18 26/27/25 32/36/31
f 20/30/19 27/29/26 33/37/32
f 21/38/20 28/16/27 34/39/33
f 245/45/244 226/255/225 237/46/236
f 24/14/23 31/35/30 37/48/36
f 25/25/24 32/36/31 38/49/37
f 26/27/25 33/37/32 39/50/38
f 27/29/26 34/39/33 40/51/39
f 28/16/27 35/21/34 41/52/40
f 43/53/42 63/70/62 52/41/51
f 30/18/29 37/48/36 45/56/44
f 31/35/30 38/49/37 46/57/45
f 32/36/31 39/50/38 47/58/46
f 33/37/32 40/51/39 48/59/47
f 34/39/33 41/52/40 49/60/48
f 35/21/34 42/31/41 50/61/49
f 42/31/41 301/40/298 302/62/299
f 36/23/35 45/56/44 54/63/53
f 37/48/36 46/57/45 55/64/54
f 38/49/37 47/58/46 56/65/55
f 39/50/38 48/59/47 57/66/56
f 40/51/39 49/60/48 58/67/57
f 41/52/40 50/61/49 59/68/58
f 53/69/52 75/75/74 63/70/62
f 71/55/70 82/81/81 60/71/59
f 302/62/299 301/40/298 52/41/51
f 50/61/49 302/62/299 303/73/300
f 64/74/63 88/86/87 75/75/74
f 45/56/44 55/64/54 65/76/64
f 46/57/45 56/65/55 66/77/65
f 47/58/46 57/66/56 67/78/66
f 48/59/47 58/67/57 68/79/67
f 49/60/48 59/68/58 69/80/68
f 82/81/81 94/91/93 70/82/69
f 303/73/300 302/62/299 62/72/61
f 303/73/300 304/93/301 69/80/68
f 44/33/43 54/63/53 72/84/71
f 76/85/75 102/124/101 88/86/87
f 55/64/54 66/77/65 77/87/76
f 56/65/55 67/78/66 78/88/77
f 57/66/56 68/79/67 79/89/78
f 58/67/57 69/80/68 80/90/79
f 63/70/62 74/96/73 62/72/61
f 94/91/93 107/102/106 81/92/80
f 72/84/71 83/104/82 71/55/70
f 304/93/301 303/73/300 73/83/72
f 304/93/301 305/105/302 80/90/79
f 54/63/53 65/76/64 84/95/83
f 75/75/74 87/108/86 74/96/73
f 117/97/116 102/124/101 76/85/75
f 66/77/65 78/88/77 90/99/89
f 67/78/66 79/89/78 91/100/90
f 68/79/67 80/90/79 92/101/91
f 74/96/73 86/109/85 73/83/72
f 107/102/106 121/114/120 93/103/92
f 83/104/82 95/116/94 82/81/81
f 84/95/83 96/117/95 83/104/82
f 305/105/302 304/93/301 85/94/84
f 305/105/302 306/118/303 92/101/91
f 65/76/64 77/87/76 97/107/96
f 87/108/86 100/121/99 86/109/85
f 88/86/87 101/123/100 87/108/86
f 133/110/132 117/97/116 89/98/88
f 78/88/77 91/100/90 103/112/102
f 79/89/78 92/101/91 104/113/103
f 86/109/85 99/122/98 85/94/84
f 121/114/120 134/157/133 106/115/105
f 95/116/94 108/130/107 94/91/93
f 96/117/95 109/131/108 95/116/94
f 97/107/96 110/132/109 96/117/95
f 306/118/303 305/105/302 98/106/97
f 306/118/303 307/134/304 104/113/103
f 77/87/76 90/99/89 111/120/110
f 100/121/99 114/138/113 99/122/98
f 101/123/100 115/140/114 100/121/99
f 102/124/101 116/141/115 101/123/100
f 91/100/90 104/113/103 118/127/117
f 99/122/98 113/139/112 98/106/97
f 106/115/105 134/157/133 150/128/149
f 108/130/107 122/144/121 107/102/106
f 109/131/108 123/145/122 108/130/107
f 110/132/109 124/146/123 109/131/108
f 97/107/96 111/120/110 125/133/124
f 307/134/304 306/118/303 112/119/111
f 104/113/103 307/134/304 308/136/305
f 90/99/89 103/112/102 126/137/125
f 114/138/113 129/149/128 113/139/112
f 115/140/114 130/151/129 114/138/113
f 116/141/115 131/152/130 115/140/114
f 117/97/116 132/153/131 116/141/115
f 113/139/112 128/150/127 112/119/111
f 308/136/305 307/134/304 127/135/126
f 122/144/121 135/156/134 121/114/120
f 123/145/122 136/158/135 122/144/121
f 124/146/123 137/159/136 123/145/122
f 125/133/124 138/160/137 124/146/123
f 111/120/110 126/137/125 139/147/138
f 103/112/102 118/127/117 140/148/139
f 129/149/128 143/164/142 128/150/127
f 130/151/129 144/166/143 129/149/128
f 131/152/130 145/167/144 130/151/129
f 132/153/131 146/168/145 131/152/130
f 117/97/116 133/110/132 147/154/146
f 128/150/127 142/165/141 127/135/126
f 118/127/117 308/136/305 309/155/306
f 135/156/134 151/169/150 134/157/133
f 136/158/135 152/170/151 135/156/134
f 137/159/136 153/171/152 136/158/135
f 138/160/137 154/172/153 137/159/136
f 125/133/124 139/147/138 155/161/154
f 126/137/125 140/148/139 156/162/155
f 140/148/139 309/155/306 310/163/307
f 143/164/142 158/180/157 142/165/141
f 144/166/143 159/179/158 143/164/142
f 145/167/144 160/181/159 144/166/143
f 146/168/145 161/182/160 145/167/144
f 147/154/146 162/183/161 146/168/145
f 133/110/132 148/125/147 163/143/162
f 142/165/141 157/178/156 141/142/140
f 151/169/150 165/186/164 150/128/149
f 152/170/151 166/190/165 151/169/150
f 153/171/152 167/191/166 152/170/151
f 154/172/153 168/192/167 153/171/152
f 155/161/154 169/193/168 154/172/153
f 139/147/138 156/162/155 170/173/169
f 309/155/306 164/176/163 178/174/177
f 156/162/155 310/163/307 311/175/308
f 308/136/305 141/142/140 164/176/163
f 142/165/141 158/180/157 172/177/171
f 159/179/158 173/200/172 158/180/157
f 160/181/159 174/199/173 159/179/158
f 161/182/160 175/201/174 160/181/159
f 162/183/161 176/202/175 161/182/160
f 147/154/146 163/143/162 177/184/176
f 196/185/195 180/1/179 150/128/149
f 180/1/179 149/3/148 120/129/119
f 163/143/162 191/111/190 205/189/204
f 166/190/165 181/203/180 165/186/164
f 167/191/166 182/206/181 166/190/165
f 168/192/167 183/207/182 167/191/166
f 169/193/168 184/208/183 168/192/167
f 155/161/154 170/173/169 185/194/184
f 141/142/140 157/178/156 179/195/178
f 310/163/307 178/174/177 192/196/191
f 170/173/169 311/175/308 312/197/309
f 158/180/157 173/200/172 186/198/185
f 174/199/173 187/215/186 173/200/172
f 175/201/174 188/214/187 174/199/173
f 176/202/175 189/216/188 175/201/174
f 177/184/176 190/205/189 176/202/175
f 181/203/180 210/218/209 196/185/195
f 177/184/176 205/189/204 217/204/216
f 182/206/181 197/217/196 181/203/180
f 183/207/182 198/221/197 182/206/181
f 184/208/183 199/222/198 183/207/182
f 185/194/184 200/212/199 184/208/183
f 164/176/163 179/195/178 193/209/192
f 157/178/156 172/177/171 194/210/193
f 311/175/308 192/196/191 206/211/205
f 312/197/309 313/226/310 200/212/199
f 173/200/172 187/215/186 201/213/200
f 188/214/187 202/228/201 187/215/186
f 189/216/188 203/229/202 188/214/187
f 190/205/189 204/220/203 189/216/188
f 197/217/196 223/231/222 210/218/209
f 179/195/178 194/210/193 208/219/207
f 217/204/216 228/233/227 204/220/203
f 198/221/197 211/230/210 197/217/196
f 199/222/198 212/235/211 198/221/197
f 200/212/199 213/227/212 199/222/198
f 178/174/177 193/209/192 207/223/206
f 172/177/171 186/198/185 209/224/208
f 312/197/309 206/211/205 218/225/217
f 313/226/310 314/238/311 213/227/212
f 202/228/201 214/242/213 201/213/200
f 203/229/202 215/241/214 202/228/201
f 204/220/203 216/234/215 203/229/202
f 211/230/210 235/244/234 223/231/222
f 208/219/207 220/247/219 207/223/206
f 194/210/193 209/224/208 221/232/220
f 228/233/227 238/249/237 216/234/215
f 212/235/211 224/243/223 211/230/210
f 213/227/212 225/240/224 212/235/211
f 192/196/191 207/223/206 219/236/218
f 186/198/185 201/213/200 222/237/221
f 314/238/311 313/226/310 218/225/217
f 314/238/311 315/253/312 225/240/224
f 215/241/214 226/255/225 214/242/213
f 216/234/215 227/250/226 215/241/214
f 224/243/223 247/256/246 235/244/234
f 207/223/206 220/247/219 231/245/230
f 208/219/207 221/232/220 232/246/231
f 209/224/208 222/237/221 233/248/232
f 238/249/237 248/261/247 227/250/226
f 225/240/224 236/43/235 224/243/223
f 206/211/205 219/236/218 230/251/229
f 201/213/200 214/242/213 234/252/233
f 315/253/312 314/238/311 229/239/228
f 315/253/312 316/44/313 236/43/235
f 227/250/226 237/46/236 226/255/225
f 236/43/235 265/42/264 247/256/246
f 219/236/218 231/245/230 241/257/240
f 220/247/219 232/246/231 242/258/241
f 221/232/220 233/248/232 243/259/242
f 222/237/221 234/252/233 244/260/243
f 248/261/247 257/278/256 237/46/236
f 218/225/217 230/251/229 240/262/239
f 234/252/233 214/242/213 226/255/225
f 316/44/313 315/253/312 239/254/238
f 230/251/229 241/257/240 251/264/250
f 231/245/230 242/258/241 252/265/251
f 232/246/231 243/259/242 253/266/252
f 233/248/232 244/260/243 254/267/253
f 234/252/233 245/45/244 255/268/254
f 229/239/228 240/262/239 250/269/249
f 272/270/271 265/42/264 249/263/248
f 240/262/239 251/264/250 259/272/258
f 241/257/240 252/265/251 260/273/259
f 242/258/241 253/266/252 261/274/260
f 243/259/242 254/267/253 262/275/261
f 244/260/243 255/268/254 263/276/262
f 245/45/244 256/47/255 264/277/263
f 239/254/238 250/269/249 258/271/257
f 250/269/249 259/272/258 266/279/265
f 251/264/250 260/273/259 267/280/266
f 252/265/251 261/274/260 268/281/267
f 253/266/252 262/275/261 269/282/268
f 254/267/253 263/276/262 270/283/269
f 255/268/254 264/277/263 271/284/270
f 278/285/277 272/270/271 258/271/257
f 264/277/263 257/278/256 283/286/282
f 259/272/258 267/280/266 273/287/272
f 260/273/259 268/281/267 274/288/273
f 261/274/260 269/282/268 275/289/274
f 262/275/261 270/283/269 276/290/275
f 263/276/262 271/284/270 277/291/276
f 284/292/283 278/285/277 266/279/265
f 271/284/270 283/286/282 288/293/287
f 267/280/266 274/288/273 279/294/278
f 268/281/267 275/289/274 280/295/279
f 269/282/268 276/290/275 281/296/280
f 270/283/269 277/291/276 282/297/281
f 289/298/288 284/292/283 273/287/272
f 277/291/276 288/293/287 292/299/291
f 274/288/273 280/295/279 285/300/284
f 275/289/274 281/296/280 286/301/285
f 276/290/275 282/297/281 287/302/286
f 285/300/284 293/304/292 289/298/288
f 292/299/291 295/305/294 287/302/286
f 286/301/285 290/303/289 285/300/284
f 287/302/286 291/306/290 286/301/285
f 290/303/289 296/308/295 293/304/292
f 295/305/294 296/308/295 291/306/290
f 291/306/290 294/307/293 290/303/289
f 7/9/6 4/4/3 318/311/314
f 318/311/314 319/319/315 29/32/28
f 22/22/21 16/17/15 11/12/10
f 318/311/314 29/32/28 22/22/21
f 11/12/10 7/9/6 318/311/314
f 23/24/22 51/34/50 322/313/318
f 322/313/318 2/312/2 4/4/3
f 5/8/4 8/11/7 12/15/11
f 322/313/318 4/4/3 5/8/4
f 17/19/16 23/24/22 322/313/318
f 5/8/4 12/15/11 17/19/16
f 171/188/170 317/321/1 320/315/316
f 320/315/316 257/278/256 248/261/247
f 248/261/247 238/249/237 228/233/227
f 228/233/227 217/204/216 205/189/204
f 205/189/204 191/111/190 171/188/170
f 171/188/170 320/315/316 248/261/247
f 248/261/247 228/233/227 205/189/204
f 296/308/295 298/310/296 321/317/317
f 321/317/317 265/42/264 272/270/271
f 278/285/277 284/292/283 289/298/288
f 321/317/317 272/270/271 278/285/277
f 293/304/292 296/308/295 321/317/317
f 278/285/277 289/298/288 293/304/292
f 43/53/42 29/32/28 319/319/315
f 319/319/315 119/187/118 191/111/190
f 89/98/88 76/85/75 64/74/63
f 319/319/315 191/111/190 89/98/88
f 53/69/52 43/53/42 319/319/315
f 89/98/88 64/74/63 53/69/52
f 283/286/282 257/278/256 320/315/316
f 320/315/316 299/309/297 296/308/295
f 295/305/294 292/299/291 288/293/287
f 320/315/316 296/308/295 295/305/294
f 288/293/287 283/286/282 320/315/316
f 247/256/246 265/42/264 321/317/317
f 321/317/317 246/322/245 180/1/179
f 180/1/179 196/185/195 210/218/209
f 210/218/209 223/231/222 235/244/234
f 235/244/234 247/256/246 321/317/317
f 321/317/317 180/1/179 210/218/209
f 105/126/104 322/313/318 51/34/50
f 60/71/59 70/82/69 81/92/80
f 105/126/104 51/34/50 60/71/59
f 120/129/119 149/3/148 105/126/104
f 93/103/92 106/115/105 120/129/119
f 60/71/59 81/92/80 93/103/92
f 120/129/119 105/126/104 60/71/59
