# Blender 4.5.3 LTS
# www.blender.org
o polyp_2
v -1.000000 0.000000 1.000000
v -0.859375 0.000000 1.000000
v -0.703125 0.000000 1.000000
v -0.609375 0.000000 1.000000
v -0.359375 0.000000 1.000000
v -0.109375 0.000000 1.000000
v -0.015625 0.000000 1.000000
v 0.234375 0.000000 1.000000
v 0.484375 0.000000 1.000000
v 0.640625 0.000000 1.000000
v 0.796875 0.000000 1.000000
v 1.000000 0.000000 1.000000
v -0.062500 0.002626 0.953125
v -0.781250 0.002626 0.921875
v 0.718750 0.002626 0.921875
v -1.000000 0.000000 0.890625
v 0.375000 0.002626 0.890625
v 1.000000 0.000000 0.890625
v -0.187500 0.002626 0.828125
v 0.062500 0.002626 0.828125
v -0.906250 0.002626 0.796875
v 0.875000 0.002626 0.765625
v 0.531250 0.002626 0.734375
v -1.000000 0.000000 0.703125
v -0.312500 0.002626 0.703125
v -0.062500 0.002626 0.726562
v 0.187500 0.002626 0.703125
v -0.088542 0.002626 0.666667
v -0.036458 0.002626 0.666667
v -1.000000 0.000000 0.640625
v -0.119792 0.002626 0.635417
v -0.062500 0.002626 0.640625
v -0.005208 0.002626 0.635417
v 1.000000 0.000000 0.578125
v -0.151042 0.002626 0.604167
v -0.093750 0.002626 0.609375
v -0.031250 0.002626 0.609375
v 0.026042 0.002626 0.604167
v -0.437500 0.002626 0.578125
v -0.199219 0.002626 0.589844
v -0.125000 0.002626 0.578125
v -0.062500 0.002626 0.578125
v 0.000000 0.002626 0.578125
v 0.074219 0.002626 0.589844
v 0.687500 0.002626 0.578125
v -0.213542 0.002626 0.541667
v -0.156250 0.002626 0.546875
v -0.093750 0.002626 0.546875
v -0.031250 0.002626 0.546875
v 0.031250 0.002626 0.546875
v 0.088542 0.002626 0.541667
v 0.343750 0.002626 0.546875
v -0.244792 0.002626 0.510417
v -0.187500 0.002626 0.515625
v -0.125000 0.002626 0.515625
v -0.062500 0.002626 0.515625
v 0.000000 0.002626 0.515625
v 0.062500 0.002626 0.515625
v 0.119792 0.002626 0.510417
v -0.276042 0.002626 0.479167
v -0.218750 0.002626 0.484375
v -0.156250 0.002626 0.484375
v -0.093750 0.002626 0.484375
v -0.031250 0.002626 0.484375
v 0.031250 0.002626 0.484375
v 0.093750 0.002626 0.484375
v 0.151042 0.002626 0.479167
v -0.562500 0.002626 0.453125
v -0.324219 0.002626 0.464844
v -0.250000 0.002626 0.453125
v -0.187500 0.002626 0.453125
v -0.125000 0.002626 0.453125
v -0.062500 0.002626 0.453125
v 0.000000 0.002626 0.453125
v 0.062500 0.002626 0.453125
v 0.125000 0.002626 0.453125
v 0.182292 0.002626 0.447917
v -0.338542 0.002626 0.416667
v -0.281250 0.002626 0.421875
v -0.218750 0.002626 0.421875
v -0.156250 0.002626 0.421875
v -0.093750 0.002626 0.421875
v -0.031250 0.002626 0.421875
v 0.031250 0.002626 0.421875
v 0.093750 0.002626 0.421875
v 0.156250 0.002626 0.421875
v 0.230469 0.002626 0.433594
v 0.843750 0.002626 0.421875
v -1.000000 0.000000 0.390625
v -0.369792 0.002630 0.385417
v -0.312500 0.002632 0.390625
v -0.250000 0.002641 0.390625
v -0.187500 0.002654 0.390625
v -0.125000 0.002653 0.390625
v -0.062500 0.002636 0.390625
v 0.000000 0.002626 0.390625
v 0.062500 0.002626 0.390625
v 0.125000 0.002626 0.390625
v 0.187500 0.002626 0.390625
v 0.244792 0.002626 0.385417
v 0.500000 0.002626 0.390625
v -0.401043 0.002721 0.354170
v -0.343754 0.002804 0.359385
v -0.281255 0.002917 0.359391
v -0.218754 0.003007 0.359388
v -0.156252 0.003059 0.359385
v -0.093751 0.003007 0.359385
v -0.031250 0.002852 0.359380
v 0.031250 0.002722 0.359376
v 0.093750 0.002645 0.359375
v 0.156250 0.002626 0.359375
v 0.218750 0.002626 0.359375
v 0.276042 0.002626 0.354167
v -0.687500 0.002626 0.328125
v -0.449229 0.002987 0.339864
v -0.375040 0.003555 0.328214
v -0.312569 0.004251 0.328313
v -0.250063 0.004768 0.328338
v -0.187542 0.004878 0.328290
v -0.125023 0.004866 0.328260
v -0.062509 0.004447 0.328220
v -0.000002 0.003783 0.328172
v 0.062501 0.003182 0.328141
v 0.125000 0.002800 0.328128
v 0.187500 0.002654 0.328125
v 0.250000 0.002626 0.328125
v 0.307292 0.002626 0.322917
v -0.463595 0.003914 0.291751
v -0.406420 0.005191 0.297183
v -0.344100 0.007323 0.297654
v -0.281650 0.009246 0.298011
v -0.219060 0.010041 0.297994
v -0.156438 0.010016 0.297824
v -0.093830 0.009341 0.297609
v -0.031274 0.007750 0.297328
v 0.031254 0.005983 0.297094
v 0.093757 0.004365 0.296954
v 0.156253 0.003241 0.296894
v 0.218751 0.002750 0.296878
v 0.281250 0.002630 0.296875
v 0.338542 0.002626 0.291667
v 1.000000 0.000000 0.265625
v -0.494919 0.005195 0.260580
v -0.437942 0.007589 0.266254
v -0.376035 0.011850 0.267406
v -0.313875 0.016211 0.268668
v -0.251266 0.018898 0.269240
v -0.188407 0.020042 0.269261
v -0.125464 0.019496 0.268871
v -0.062644 0.017086 0.268035
v 0.000007 0.013387 0.267039
v 0.062547 0.009696 0.266325
v 0.125036 0.006477 0.265899
v 0.187516 0.004157 0.265700
v 0.250003 0.002950 0.265637
v 0.312500 0.002657 0.265625
v 0.386719 0.002626 0.277344
v -0.526255 0.006523 0.229383
v -0.469555 0.010208 0.235262
v -0.408392 0.016787 0.237127
v -0.346961 0.024087 0.239592
v -0.284601 0.029538 0.241422
v -0.221565 0.033133 0.242514
v -0.158121 0.034687 0.243016
v -0.094544 0.032804 0.242118
v -0.031339 0.027884 0.240076
v 0.031453 0.021508 0.237831
v 0.093964 0.015220 0.236203
v 0.156394 0.009761 0.235141
v 0.218808 0.005691 0.234609
v 0.281262 0.003384 0.234417
v 0.343751 0.002728 0.234378
v 0.401042 0.002627 0.229167
v 0.656250 0.002626 0.234375
v -0.812500 0.002626 0.203125
v -0.574436 0.006625 0.215015
v -0.501091 0.012185 0.204039
v -0.440874 0.020869 0.206297
v -0.380717 0.030985 0.209665
v -0.319084 0.039442 0.212721
v -0.256205 0.046359 0.215469
v -0.192537 0.051614 0.218274
v -0.128062 0.052899 0.219510
v -0.063588 0.048776 0.217627
v 0.000259 0.041180 0.213986
v 0.063196 0.032000 0.210193
v 0.125672 0.022747 0.207093
v 0.187923 0.014540 0.204970
v 0.250175 0.008118 0.203764
v 0.312540 0.004280 0.203259
v 0.375004 0.002914 0.203138
v 0.432292 0.002658 0.197917
v -0.588784 0.007266 0.166807
v -0.532374 0.012847 0.172570
v -0.472920 0.023001 0.174675
v -0.414497 0.035474 0.178273
v -0.354224 0.046678 0.181890
v -0.291964 0.057247 0.185713
v -0.228677 0.067561 0.191177
v -0.164167 0.074368 0.196988
v -0.098028 0.073947 0.198810
v -0.032306 0.066963 0.195395
v 0.032238 0.056307 0.189765
v 0.095401 0.044258 0.184097
v 0.157754 0.032117 0.179340
v 0.219757 0.021053 0.175729
v 0.281709 0.011859 0.173343
v 0.343876 0.005941 0.172217
v 0.406268 0.003381 0.171916
v 0.463543 0.002761 0.166669
v -1.000000 0.000000 0.140625
v -0.619958 0.006423 0.135485
v -0.563389 0.012043 0.141011
v -0.504043 0.022667 0.142475
v -0.447350 0.036907 0.145566
v -0.389170 0.050240 0.148873
v -0.328114 0.064279 0.152661
v -0.265981 0.080476 0.159302
v -0.202632 0.094869 0.169796
v -0.136479 0.101879 0.179719
v -0.067668 0.098231 0.182104
v -0.000360 0.087263 0.176047
v 0.064772 0.072964 0.167425
v 0.127990 0.057833 0.159623
v 0.190295 0.043019 0.152930
v 0.252064 0.029142 0.147433
v 0.313581 0.017002 0.143394
v 0.375341 0.008481 0.141354
v 0.437560 0.004242 0.140734
v 0.494798 0.002956 0.135426
v -0.651123 0.005135 0.104186
v -0.594302 0.010076 0.109528
v -0.534246 0.019970 0.110218
v -0.478320 0.035057 0.112175
v -0.422782 0.050293 0.114595
v -0.363747 0.066342 0.117140
v -0.303508 0.088617 0.122852
v -0.243168 0.111529 0.134786
v -0.179160 0.128994 0.151619
v -0.109965 0.134488 0.166855
v -0.037147 0.126133 0.169105
v 0.033031 0.110362 0.159849
v 0.098131 0.091532 0.147453
v 0.161232 0.072648 0.136415
v 0.223457 0.054946 0.127260
v 0.285031 0.038130 0.119624
v 0.345869 0.022983 0.113887
v 0.406985 0.011637 0.110662
v 0.468892 0.005382 0.109581
v 0.542980 0.003046 0.121107
v 0.781250 0.002626 0.109375
v -0.937500 0.002626 0.078125
v -0.710953 0.003675 0.078127
v -0.625272 0.007533 0.078161
v -0.564157 0.015726 0.078341
v -0.507178 0.029925 0.079002
v -0.453667 0.046922 0.080035
v -0.397563 0.063573 0.080950
v -0.339556 0.088993 0.083561
v -0.284196 0.121133 0.092874
v -0.224644 0.149012 0.109450
v -0.159572 0.168370 0.131454
v -0.084518 0.173020 0.151007
v -0.005025 0.160222 0.153871
v 0.067812 0.137275 0.144134
v 0.133135 0.112437 0.128792
v 0.195495 0.088708 0.113340
v 0.257486 0.067057 0.101193
v 0.318545 0.046984 0.091682
v 0.378536 0.028873 0.084237
v 0.438768 0.014669 0.079912
v 0.500236 0.006322 0.078397
v 0.557314 0.003319 0.072937
v 1.000000 0.000000 0.078125
v -0.651150 0.005462 0.052083
v -0.594448 0.011134 0.046875
v -0.535156 0.022553 0.046791
v -0.481162 0.039597 0.046317
v -0.427960 0.057173 0.045490
v -0.372202 0.080644 0.044737
v -0.320316 0.117181 0.047400
v -0.268998 0.155530 0.057581
v -0.208473 0.186379 0.074748
v -0.140275 0.210329 0.097560
v -0.057019 0.217088 0.118184
v 0.027817 0.199294 0.126451
v 0.103372 0.168533 0.122283
v 0.169989 0.135976 0.107072
v 0.231174 0.105310 0.088228
v 0.292185 0.078413 0.073525
v 0.352365 0.054474 0.062145
v 0.411226 0.033300 0.053755
v 0.470496 0.016600 0.048849
v 0.531542 0.006664 0.047141
v 0.588561 0.003300 0.041680
v -1.000000 0.000000 0.015625
v -0.620074 0.007610 0.020796
v -0.564003 0.015045 0.015411
v -0.506848 0.029185 0.014365
v -0.454145 0.047093 0.011946
v -0.400609 0.067593 0.008851
v -0.348895 0.099557 0.005439
v -0.302310 0.140705 0.004951
v -0.250058 0.180725 0.011275
v -0.188398 0.215555 0.025432
v -0.115855 0.247036 0.045445
v -0.028498 0.254263 0.064198
v 0.058340 0.237485 0.080655
v 0.139462 0.202412 0.087184
v 0.208264 0.159963 0.076506
v 0.268151 0.121178 0.058928
v 0.327195 0.087491 0.042173
v 0.385624 0.058871 0.030356
v 0.443517 0.035334 0.022265
v 0.501965 0.016839 0.017387
v 0.562764 0.006265 0.015813
v 0.619801 0.003122 0.010422
v -0.589061 0.009792 -0.010554
v -0.533809 0.018597 -0.016380
v -0.478002 0.034027 -0.018912
v -0.424979 0.052473 -0.023388
v -0.372409 0.076967 -0.029441
v -0.324227 0.111652 -0.037276
v -0.277075 0.151235 -0.043093
v -0.223826 0.191501 -0.042402
v -0.161582 0.231351 -0.033511
v -0.086278 0.265492 -0.017847
v 0.000501 0.278970 -0.000005
v 0.086797 0.267903 0.020654
v 0.175406 0.231454 0.035992
v 0.246364 0.179886 0.036372
v 0.304687 0.132664 0.022314
v 0.360449 0.091704 0.006791
v 0.417855 0.059563 -0.003188
v 0.475136 0.034699 -0.010140
v 0.533039 0.015245 -0.014398
v 0.593916 0.005301 -0.015539
v 0.667970 0.002829 -0.003906
v 0.906250 0.002626 -0.015625
v -0.812500 0.002626 -0.046875
v -0.574870 0.010195 -0.058864
v -0.503374 0.020937 -0.048397
v -0.447643 0.036382 -0.052285
v -0.393907 0.055547 -0.058692
v -0.342217 0.081116 -0.067948
v -0.294029 0.113800 -0.080182
v -0.245927 0.151194 -0.091904
v -0.192472 0.191139 -0.098003
v -0.129110 0.232592 -0.095353
v -0.052429 0.268968 -0.084373
v 0.031733 0.287166 -0.066127
v 0.118071 0.282666 -0.045843
v 0.210201 0.244620 -0.022956
v 0.281768 0.187725 -0.014116
v 0.337420 0.135634 -0.020595
v 0.391112 0.089003 -0.031320
v 0.449426 0.057079 -0.037489
v 0.505873 0.031239 -0.043158
v 0.563761 0.012162 -0.046253
v 0.625061 0.004185 -0.046853
v 0.682292 0.002722 -0.052083
v -0.527005 0.012166 -0.073451
v -0.472287 0.021511 -0.080286
v -0.415793 0.036491 -0.084985
v -0.361177 0.055299 -0.092719
v -0.309156 0.079761 -0.104573
v -0.260661 0.110413 -0.121723
v -0.212131 0.144899 -0.139619
v -0.157759 0.182586 -0.152422
v -0.092321 0.222030 -0.156356
v -0.016150 0.256276 -0.149438
v 0.066050 0.275571 -0.132304
v 0.153714 0.272214 -0.110731
v 0.244648 0.235485 -0.084858
v 0.311397 0.180973 -0.067993
v 0.364756 0.126741 -0.066316
v 0.421046 0.081401 -0.068877
v 0.480152 0.051652 -0.072031
v 0.535724 0.025131 -0.076199
v 0.594374 0.008511 -0.077931
v 0.656259 0.003316 -0.078123
v 0.713542 0.002638 -0.083333
v -0.495737 0.011813 -0.104830
v -0.440582 0.020432 -0.111801
v -0.382905 0.034393 -0.116636
v -0.327119 0.051829 -0.124931
v -0.274657 0.075270 -0.139795
v -0.225988 0.103207 -0.161439
v -0.176076 0.133101 -0.183648
v -0.119248 0.165596 -0.201773
v -0.052731 0.198847 -0.210671
v 0.021789 0.228210 -0.208083
v 0.102763 0.245435 -0.192582
v 0.190490 0.241561 -0.169465
v 0.273142 0.208829 -0.140962
v 0.336340 0.161185 -0.118796
v 0.390056 0.108932 -0.108333
v 0.451882 0.072314 -0.105242
v 0.509447 0.042602 -0.106503
v 0.565132 0.017526 -0.108792
v 0.625168 0.005431 -0.109351
v 0.687501 0.002828 -0.109375
v 0.744792 0.002626 -0.114583
v 1.000000 0.000000 -0.109375
v -0.464284 0.010527 -0.136066
v -0.408561 0.018027 -0.142936
v -0.349532 0.030044 -0.147304
v -0.292624 0.046375 -0.156190
v -0.239988 0.068610 -0.173604
v -0.189671 0.092385 -0.196713
v -0.136872 0.116324 -0.220829
v -0.077650 0.141596 -0.240721
v -0.010864 0.167252 -0.252386
v 0.060911 0.190969 -0.252962
v 0.140118 0.205923 -0.239448
v 0.224417 0.200403 -0.214954
v 0.298500 0.171934 -0.184720
v 0.358316 0.130471 -0.159191
v 0.419295 0.090211 -0.145988
v 0.481628 0.060512 -0.140806
v 0.537431 0.030304 -0.140280
v 0.594732 0.010350 -0.140594
v 0.656265 0.003641 -0.140624
v 0.718750 0.002648 -0.140625
v 0.804688 0.002626 -0.140625
v -0.687500 0.002626 -0.171875
v -0.432784 0.008680 -0.167204
v -0.376457 0.014485 -0.173714
v -0.316222 0.024471 -0.177372
v -0.258599 0.040164 -0.186695
v -0.204676 0.059863 -0.204012
v -0.151479 0.079003 -0.226329
v -0.095743 0.097360 -0.248929
v -0.034397 0.115769 -0.267538
v 0.030868 0.134123 -0.278814
v 0.100654 0.152380 -0.280427
v 0.178563 0.162655 -0.268134
v 0.255748 0.154401 -0.242241
v 0.321203 0.128964 -0.211394
v 0.384934 0.099462 -0.191877
v 0.449456 0.072474 -0.180839
v 0.509106 0.043264 -0.174575
v 0.565223 0.017885 -0.172305
v 0.625172 0.005583 -0.171890
v 0.687501 0.002865 -0.171875
v 0.744792 0.002626 -0.166667
v 1.000000 0.000000 -0.171875
v -0.418166 0.005871 -0.215114
v -0.344472 0.010527 -0.204272
v -0.283462 0.018954 -0.207285
v -0.224796 0.032947 -0.215652
v -0.168663 0.049429 -0.230785
v -0.112975 0.065112 -0.250034
v -0.054375 0.079113 -0.269214
v 0.007510 0.092158 -0.284356
v 0.071333 0.105014 -0.293521
v 0.140918 0.117104 -0.293845
v 0.214983 0.121131 -0.279543
v 0.283040 0.110499 -0.253012
v 0.348670 0.092606 -0.233327
v 0.414637 0.074025 -0.221248
v 0.477514 0.050684 -0.211646
v 0.535677 0.025485 -0.205319
v 0.594395 0.008837 -0.203313
v 0.656260 0.003471 -0.203126
v 0.713542 0.002649 -0.197917
v -0.369876 0.004588 -0.229311
v -0.312798 0.007152 -0.234987
v -0.251186 0.013707 -0.237101
v -0.191262 0.025047 -0.243286
v -0.133100 0.038817 -0.254841
v -0.074810 0.051576 -0.269896
v -0.014877 0.062660 -0.284399
v 0.046957 0.072220 -0.295995
v 0.111175 0.080767 -0.302015
v 0.179449 0.087096 -0.298544
v 0.247284 0.086132 -0.282696
v 0.313526 0.077267 -0.266216
v 0.379330 0.065821 -0.255829
v 0.443541 0.049667 -0.246816
v 0.504474 0.029568 -0.239061
v 0.563709 0.012346 -0.235094
v 0.625065 0.004515 -0.234397
v 0.682292 0.002790 -0.229167
v -1.000000 0.000000 -0.234375
v -0.338561 0.003340 -0.260461
v -0.281350 0.004791 -0.265883
v -0.219330 0.009421 -0.267058
v -0.158285 0.017896 -0.270829
v -0.098222 0.028446 -0.278223
v -0.038255 0.038737 -0.288198
v 0.022752 0.047699 -0.298308
v 0.085129 0.054504 -0.306143
v 0.149173 0.059417 -0.308307
v 0.214538 0.061582 -0.302826
v 0.279984 0.059002 -0.292533
v 0.345252 0.052798 -0.284407
v 0.409422 0.042667 -0.277649
v 0.471875 0.028670 -0.271294
v 0.532546 0.014363 -0.266970
v 0.593898 0.005714 -0.265719
v 0.667971 0.003004 -0.277345
v 0.906250 0.002626 -0.265625
v -1.000000 0.000000 -0.296875
v -0.307294 0.002805 -0.291674
v -0.250033 0.003612 -0.296958
v -0.187747 0.006503 -0.297474
v -0.125902 0.012032 -0.299208
v -0.064542 0.019198 -0.302868
v -0.003236 0.026729 -0.308319
v 0.058676 0.033244 -0.314223
v 0.121201 0.037463 -0.318096
v 0.184368 0.039690 -0.318200
v 0.248070 0.039871 -0.314476
v 0.312270 0.037755 -0.309729
v 0.376177 0.032628 -0.305565
v 0.439103 0.024177 -0.301597
v 0.500933 0.014090 -0.298363
v 0.562672 0.006487 -0.297047
v 0.619800 0.003480 -0.291672
v -0.531250 0.002626 -0.328125
v -0.292969 0.002675 -0.339844
v -0.218761 0.003076 -0.328144
v -0.156335 0.004672 -0.328297
v -0.094058 0.007777 -0.328852
v -0.031966 0.011993 -0.330201
v 0.030160 0.016412 -0.332398
v 0.092501 0.020007 -0.334761
v 0.154972 0.021908 -0.336157
v 0.217603 0.022757 -0.335875
v 0.280558 0.022811 -0.334477
v 0.343814 0.021657 -0.332828
v 0.406805 0.017833 -0.330967
v 0.469207 0.011918 -0.329239
v 0.531377 0.006475 -0.328313
v 0.588554 0.003746 -0.322928
v -0.875000 0.002626 -0.359375
v -0.244792 0.002648 -0.354167
v -0.187503 0.002812 -0.359379
v -0.125021 0.003531 -0.359405
v -0.062584 0.005112 -0.359534
v -0.000180 0.007234 -0.359862
v 0.062263 0.009051 -0.360407
v 0.124729 0.010138 -0.361003
v 0.187184 0.010655 -0.361251
v 0.249679 0.011284 -0.361199
v 0.312318 0.011982 -0.361005
v 0.375050 0.011345 -0.360567
v 0.437637 0.008808 -0.359940
v 0.500057 0.005699 -0.359503
v 0.557301 0.003736 -0.354179
v 1.000000 0.000000 -0.359375
v -0.213542 0.002626 -0.385417
v -0.156250 0.002683 -0.390626
v -0.093755 0.002945 -0.390632
v -0.031268 0.003629 -0.390655
v 0.031221 0.004455 -0.390705
v 0.093722 0.004874 -0.390770
v 0.156214 0.004809 -0.390822
v 0.218695 0.005002 -0.390849
v 0.281188 0.005810 -0.390890
v 0.343719 0.006337 -0.390896
v 0.406260 0.005807 -0.390797
v 0.468764 0.004519 -0.390682
v 0.526045 0.003448 -0.385425
v 0.781250 0.002626 -0.390625
v -0.182292 0.002626 -0.416667
v -0.125000 0.002634 -0.421875
v -0.062501 0.002709 -0.421876
v -0.000002 0.002885 -0.421880
v 0.062498 0.003097 -0.421884
v 0.124998 0.003097 -0.421885
v 0.187497 0.002979 -0.421886
v 0.249994 0.003168 -0.421891
v 0.312493 0.003592 -0.421901
v 0.374997 0.003725 -0.421898
v 0.437500 0.003425 -0.421885
v 0.511719 0.002960 -0.433596
v -0.406250 0.002626 -0.453125
v -0.151042 0.002626 -0.447917
v -0.093750 0.002626 -0.453125
v -0.031250 0.002628 -0.453125
v 0.031250 0.002650 -0.453125
v 0.093750 0.002674 -0.453125
v 0.156250 0.002657 -0.453125
v 0.218750 0.002646 -0.453125
v 0.281250 0.002709 -0.453126
v 0.343750 0.002788 -0.453127
v 0.406250 0.002796 -0.453126
v 0.463542 0.002739 -0.447917
v -1.000000 0.000000 -0.484375
v -0.136719 0.002626 -0.496094
v -0.062500 0.002626 -0.484375
v 0.000000 0.002626 -0.484375
v 0.062500 0.002626 -0.484375
v 0.125000 0.002626 -0.484375
v 0.187500 0.002626 -0.484375
v 0.250000 0.002626 -0.484375
v 0.312500 0.002627 -0.484375
v 0.375000 0.002630 -0.484375
v 0.432292 0.002630 -0.479167
v 1.000000 0.000000 -0.484375
v -0.718750 0.002626 -0.515625
v -0.088542 0.002626 -0.510417
v -0.031250 0.002626 -0.515625
v 0.031250 0.002626 -0.515625
v 0.093750 0.002626 -0.515625
v 0.156250 0.002626 -0.515625
v 0.218750 0.002626 -0.515625
v 0.281250 0.002626 -0.515625
v 0.343750 0.002626 -0.515625
v 0.401042 0.002626 -0.510417
v -0.057292 0.002626 -0.541667
v 0.000000 0.002626 -0.546875
v 0.062500 0.002626 -0.546875
v 0.125000 0.002626 -0.546875
v 0.187500 0.002626 -0.546875
v 0.250000 0.002626 -0.546875
v 0.312500 0.002626 -0.546875
v 0.369792 0.002626 -0.541667
v 0.625000 0.002626 -0.546875
v 0.937500 0.002626 -0.546875
v -0.026042 0.002626 -0.572917
v 0.031250 0.002626 -0.578125
v 0.093750 0.002626 -0.578125
v 0.156250 0.002626 -0.578125
v 0.218750 0.002626 -0.578125
v 0.281250 0.002626 -0.578125
v 0.338542 0.002626 -0.572917
v -1.000000 0.000000 -0.609375
v -0.250000 0.002626 -0.609375
v -0.011719 0.002626 -0.621094
v 0.062500 0.002626 -0.609375
v 0.125000 0.002626 -0.609375
v 0.187500 0.002626 -0.609375
v 0.250000 0.002626 -0.609375
v 0.324219 0.002626 -0.621094
v 1.000000 0.000000 -0.609375
v -0.593750 0.002626 -0.640625
v 0.036458 0.002626 -0.635417
v 0.093750 0.002626 -0.640625
v 0.156250 0.002626 -0.640625
v 0.218750 0.002626 -0.640625
v 0.276042 0.002626 -0.635417
v 0.067708 0.002626 -0.666667
v 0.125000 0.002626 -0.671875
v 0.187500 0.002626 -0.671875
v 0.244792 0.002626 -0.666667
v -0.906250 0.002626 -0.703125
v 0.098958 0.002626 -0.697917
v 0.156250 0.002626 -0.703125
v 0.213542 0.002626 -0.697917
v 0.781250 0.002626 -0.703125
v -0.125000 0.002626 -0.734375
v 0.130208 0.002626 -0.729167
v 0.182292 0.002626 -0.729167
v 0.437500 0.002626 -0.734375
v 0.156250 0.002626 -0.789063
v -1.000000 0.000000 -0.796875
v -0.437500 0.002626 -0.796875
v -0.781250 0.002626 -0.828125
v 0.031250 0.002626 -0.890625
v 0.281250 0.002626 -0.890625
v 0.593750 0.002626 -0.890625
v 1.000000 0.000000 -0.921875
v -1.000000 0.000000 -1.000000
v -0.953125 0.000000 -1.000000
v -0.640625 0.000000 -1.000000
v -0.390625 0.000000 -1.000000
v -0.234375 0.000000 -1.000000
v -0.078125 0.000000 -1.000000
v 0.140625 0.000000 -1.000000
v 0.390625 0.000000 -1.000000
v 0.484375 0.000000 -1.000000
v 0.703125 0.000000 -1.000000
v 0.859375 0.000000 -1.000000
v 1.000000 0.000000 -1.000000
v -0.313186 0.002626 -0.921189
v -0.392575 0.000000 -1.000000
vn -0.0000 1.0000 -0.0000
vn -0.0081 0.9998 0.0172
vn -0.0000 0.9994 0.0336
vn 0.0046 0.9999 0.0125
vn -0.0015 0.9999 0.0102
vn -0.0108 0.9995 0.0304
vn 0.0108 0.9995 0.0304
vn -0.0020 0.9999 0.0140
vn -0.0016 0.9996 0.0265
vn 0.0070 0.9997 0.0213
vn -0.0000 0.9996 0.0280
vn -0.0022 0.9999 0.0165
vn 0.0026 0.9999 0.0169
vn -0.0126 0.9999 0.0073
vn -0.0027 0.9999 0.0118
vn 0.0097 0.9999 0.0057
vn -0.0035 1.0000 0.0065
vn 0.0035 1.0000 0.0065
vn -0.0142 0.9999 0.0023
vn 0.0104 0.9999 0.0008
vn -0.0190 0.9998 -0.0047
vn -0.0023 1.0000 0.0031
vn 0.0001 1.0000 0.0022
vn -0.0084 1.0000 -0.0000
vn 0.0129 0.9999 -0.0005
vn -0.0001 1.0000 0.0018
vn 0.0021 1.0000 -0.0000
vn -0.0008 1.0000 0.0048
vn -0.0000 1.0000 0.0001
vn 0.0001 1.0000 0.0008
vn -0.0001 1.0000 0.0013
vn -0.0001 1.0000 0.0017
vn 0.0001 1.0000 0.0020
vn 0.0001 1.0000 0.0017
vn -0.0000 1.0000 0.0009
vn -0.0000 1.0000 0.0004
vn 0.0085 1.0000 0.0017
vn -0.0095 1.0000 0.0013
vn 0.0001 1.0000 0.0052
vn -0.0009 1.0000 0.0084
vn -0.0007 0.9999 0.0113
vn -0.0004 0.9999 0.0123
vn 0.0004 0.9999 0.0123
vn 0.0012 1.0000 0.0098
vn 0.0010 1.0000 0.0059
vn 0.0006 1.0000 0.0027
vn 0.0002 1.0000 0.0008
vn -0.0009 0.9999 0.0171
vn -0.0059 0.9995 0.0294
vn -0.0042 0.9991 0.0419
vn -0.0010 0.9989 0.0475
vn 0.0001 0.9989 0.0477
vn 0.0035 0.9991 0.0432
vn 0.0054 0.9995 0.0325
vn 0.0048 0.9998 0.0203
vn 0.0031 0.9999 0.0099
vn 0.0012 1.0000 0.0033
vn 0.0002 1.0000 0.0006
vn -0.0118 0.9999 0.0070
vn 0.0008 0.9998 0.0182
vn -0.0194 0.9976 0.0671
vn -0.0166 0.9948 0.1002
vn -0.0070 0.9926 0.1215
vn -0.0000 0.9917 0.1284
vn 0.0060 0.9924 0.1228
vn 0.0142 0.9945 0.1041
vn 0.0153 0.9970 0.0763
vn 0.0136 0.9987 0.0484
vn 0.0092 0.9997 0.0248
vn 0.0039 1.0000 0.0091
vn 0.0010 1.0000 0.0018
vn -0.0000 1.0000 0.0002
vn -0.0088 0.9985 0.0538
vn -0.0454 0.9930 0.1089
vn -0.0421 0.9841 0.1724
vn -0.0262 0.9753 0.2192
vn -0.0098 0.9690 0.2468
vn 0.0052 0.9670 0.2548
vn 0.0237 0.9715 0.2357
vn 0.0359 0.9804 0.1938
vn 0.0349 0.9893 0.1419
vn 0.0290 0.9953 0.0920
vn 0.0198 0.9986 0.0495
vn 0.0099 0.9998 0.0196
vn 0.0024 1.0000 0.0045
vn 0.0002 1.0000 0.0007
vn 0.0141 0.9999 -0.0013
vn -0.0334 0.9970 0.0695
vn -0.0717 0.9846 0.1594
vn -0.0800 0.9692 0.2330
vn -0.0620 0.9512 0.3023
vn -0.0361 0.9341 0.3553
vn -0.0125 0.9183 0.3957
vn 0.0220 0.9149 0.4030
vn 0.0550 0.9285 0.3673
vn 0.0680 0.9505 0.3032
vn 0.0648 0.9717 0.2272
vn 0.0535 0.9869 0.1523
vn 0.0368 0.9956 0.0865
vn 0.0195 0.9991 0.0370
vn 0.0053 0.9999 0.0101
vn -0.0460 0.9943 0.0958
vn -0.1045 0.9800 0.1693
vn -0.1233 0.9575 0.2608
vn -0.1092 0.9336 0.3414
vn -0.0808 0.9081 0.4109
vn -0.0554 0.8726 0.4853
vn -0.0086 0.8408 0.5413
vn 0.0545 0.8365 0.5452
vn 0.0953 0.8615 0.4987
vn 0.1077 0.9007 0.4209
vn 0.1033 0.9393 0.3271
vn 0.0864 0.9694 0.2297
vn 0.0620 0.9884 0.1387
vn 0.0333 0.9973 0.0649
vn 0.0120 0.9997 0.0209
vn 0.0013 1.0000 0.0045
vn 0.0005 1.0000 0.0009
vn -0.0081 1.0000 0.0056
vn -0.0337 0.9987 0.0386
vn -0.1247 0.9781 0.1668
vn -0.1627 0.9523 0.2580
vn -0.1590 0.9277 0.3378
vn -0.1350 0.9027 0.4086
vn -0.1202 0.8570 0.5011
vn -0.0822 0.7986 0.5963
vn 0.0090 0.7392 0.6734
vn 0.0965 0.7326 0.6737
vn 0.1414 0.7715 0.6203
vn 0.1523 0.8309 0.5351
vn 0.1459 0.8896 0.4328
vn 0.1253 0.9387 0.3213
vn 0.0947 0.9736 0.2077
vn 0.0535 0.9929 0.1065
vn 0.0219 0.9989 0.0408
vn 0.0015 1.0000 0.0082
vn -0.0851 0.9950 0.0519
vn -0.1292 0.9837 0.1251
vn -0.1962 0.9549 0.2228
vn -0.2030 0.9333 0.2963
vn -0.1858 0.9139 0.3609
vn -0.1863 0.8643 0.4672
vn -0.1711 0.7810 0.6007
vn -0.1183 0.6891 0.7150
vn 0.0313 0.6310 0.7752
vn 0.1432 0.6001 0.7870
vn 0.1908 0.6577 0.7287
vn 0.1991 0.7421 0.6401
vn 0.1899 0.8232 0.5350
vn 0.1691 0.8928 0.4175
vn 0.1335 0.9485 0.2873
vn 0.0815 0.9839 0.1592
vn 0.0376 0.9971 0.0665
vn -0.4744 0.7474 -0.4650
vn -0.0235 0.9997 0.0074
vn -0.0650 0.9974 0.0305
vn -0.1381 0.9864 0.0889
vn -0.2153 0.9632 0.1611
vn -0.2405 0.9436 0.2274
vn -0.2291 0.9317 0.2820
vn -0.2576 0.8817 0.3954
vn -0.2774 0.7828 0.5570
vn -0.2349 0.6604 0.7132
vn -0.1092 0.5532 0.8259
vn 0.0319 0.4730 0.8805
vn 0.1817 0.4734 0.8619
vn 0.2386 0.5274 0.8154
vn 0.2479 0.6366 0.7303
vn 0.2361 0.7462 0.6225
vn 0.2170 0.8372 0.5020
vn 0.1777 0.9149 0.3626
vn 0.1161 0.9701 0.2132
vn 0.0585 0.9937 0.0953
vn 0.0181 0.9993 0.0336
vn -0.0431 0.9991 -0.0049
vn -0.1221 0.9915 0.0449
vn -0.2117 0.9731 0.0913
vn -0.2699 0.9515 0.1476
vn -0.2617 0.9454 0.1940
vn -0.3120 0.9032 0.2949
vn -0.3797 0.7971 0.4696
vn -0.3709 0.6817 0.6306
vn -0.2902 0.5717 0.7674
vn -0.1129 0.4486 0.8866
vn 0.0939 0.3699 0.9243
vn 0.1946 0.3477 0.9172
vn 0.2754 0.4161 0.8666
vn 0.3026 0.5496 0.7787
vn 0.2884 0.6726 0.6815
vn 0.2675 0.7845 0.5594
vn 0.2258 0.8811 0.4156
vn 0.1552 0.9549 0.2533
vn 0.0829 0.9897 0.1164
vn 0.0128 0.9998 0.0168
vn 0.0055 1.0000 0.0016
vn -0.0222 0.9998 -0.0000
vn -0.0194 0.9998 0.0082
vn -0.1011 0.9948 0.0117
vn -0.1823 0.9828 0.0300
vn -0.2769 0.9589 0.0611
vn -0.2922 0.9513 0.0977
vn -0.3344 0.9271 0.1693
vn -0.4595 0.8288 0.3191
vn -0.4936 0.7231 0.4833
vn -0.4356 0.6707 0.6004
vn -0.3236 0.6209 0.7140
vn -0.0967 0.5397 0.8363
vn 0.1295 0.4107 0.9025
vn 0.2553 0.3271 0.9098
vn 0.3226 0.3428 0.8823
vn 0.3403 0.4730 0.8127
vn 0.3466 0.6256 0.6989
vn 0.3226 0.7502 0.5771
vn 0.2751 0.8594 0.4310
vn 0.1933 0.9442 0.2667
vn 0.0993 0.9883 0.1158
vn 0.0386 0.9987 0.0336
vn 0.0166 0.9999 0.0041
vn -0.0409 0.9987 0.0309
vn -0.1388 0.9903 -0.0107
vn -0.2439 0.9697 -0.0117
vn -0.3102 0.9507 -0.0039
vn -0.3377 0.9406 0.0356
vn -0.4747 0.8715 0.1228
vn -0.5915 0.7711 0.2356
vn -0.5535 0.7620 0.3361
vn -0.4649 0.7765 0.4253
vn -0.3280 0.7717 0.5448
vn -0.0611 0.7367 0.6735
vn 0.1605 0.6025 0.7818
vn 0.2933 0.4351 0.8512
vn 0.3827 0.3551 0.8529
vn 0.4146 0.4454 0.7936
vn 0.4051 0.6025 0.6877
vn 0.3803 0.7413 0.5531
vn 0.3160 0.8537 0.4139
vn 0.2247 0.9402 0.2559
vn 0.1152 0.9866 0.1155
vn 0.0328 0.9990 0.0291
vn -0.0235 0.9997 -0.0074
vn -0.0764 0.9970 -0.0081
vn -0.1822 0.9819 -0.0523
vn -0.2842 0.9553 -0.0810
vn -0.3349 0.9382 -0.0875
vn -0.4301 0.9007 -0.0614
vn -0.5943 0.8035 -0.0335
vn -0.6355 0.7721 -0.0061
vn -0.5562 0.8292 0.0560
vn -0.4748 0.8657 0.1584
vn -0.3026 0.9076 0.2910
vn -0.0437 0.8938 0.4464
vn 0.1605 0.7821 0.6021
vn 0.3309 0.6103 0.7198
vn 0.4490 0.4676 0.7614
vn 0.4864 0.4767 0.7322
vn 0.4816 0.6202 0.6192
vn 0.4248 0.7630 0.4873
vn 0.3486 0.8640 0.3633
vn 0.2442 0.9439 0.2221
vn 0.1148 0.9892 0.0912
vn 0.0271 0.9995 0.0159
vn -0.1246 0.9915 -0.0376
vn -0.2033 0.9733 -0.1069
vn -0.3017 0.9392 -0.1640
vn -0.3724 0.9076 -0.1937
vn -0.5078 0.8307 -0.2283
vn -0.6180 0.7369 -0.2740
vn -0.6099 0.7443 -0.2720
vn -0.5464 0.8125 -0.2031
vn -0.4638 0.8798 -0.1042
vn -0.2853 0.9579 0.0315
vn -0.0628 0.9748 0.2141
vn 0.1539 0.9067 0.3927
vn 0.3732 0.7610 0.5307
vn 0.5225 0.5993 0.6065
vn 0.5740 0.5663 0.5915
vn 0.5480 0.6762 0.4925
vn 0.4448 0.8082 0.3860
vn 0.3675 0.8821 0.2946
vn 0.2455 0.9547 0.1684
vn 0.1025 0.9929 0.0600
vn 0.0084 1.0000 0.0029
vn 0.0143 0.9999 0.0005
vn -0.0154 0.9999 -0.0038
vn -0.0655 0.9969 -0.0443
vn -0.2371 0.9555 -0.1755
vn -0.3084 0.9178 -0.2499
vn -0.4008 0.8572 -0.3233
vn -0.5232 0.7458 -0.4124
vn -0.5967 0.6567 -0.4612
vn -0.5924 0.6749 -0.4400
vn -0.5381 0.7518 -0.3811
vn -0.4403 0.8438 -0.3068
vn -0.2735 0.9407 -0.2005
vn -0.0623 0.9970 -0.0467
vn 0.1842 0.9755 0.1202
vn 0.4423 0.8522 0.2796
vn 0.6017 0.7020 0.3810
vn 0.6472 0.6550 0.3901
vn 0.5641 0.7531 0.3386
vn 0.4408 0.8504 0.2873
vn 0.3756 0.9006 0.2186
vn 0.2216 0.9691 0.1081
vn 0.0681 0.9971 0.0328
vn 0.0119 0.9999 0.0024
vn -0.1193 0.9858 -0.1185
vn -0.2271 0.9460 -0.2314
vn -0.3047 0.8937 -0.3293
vn -0.4006 0.8024 -0.4423
vn -0.5179 0.6642 -0.5390
vn -0.5904 0.5731 -0.5684
vn -0.5809 0.5957 -0.5547
vn -0.5129 0.6781 -0.5264
vn -0.3956 0.7784 -0.4875
vn -0.2288 0.8776 -0.4213
vn -0.0164 0.9488 -0.3155
vn 0.2491 0.9538 -0.1681
vn 0.5090 0.8607 0.0086
vn 0.6512 0.7456 0.1414
vn 0.6684 0.7206 0.1844
vn 0.5156 0.8309 0.2093
vn 0.4409 0.8753 0.1987
vn 0.3604 0.9227 0.1367
vn 0.1720 0.9836 0.0542
vn 0.0408 0.9991 0.0118
vn -0.4950 0.7116 -0.4986
vn -0.1426 0.9744 -0.1738
vn -0.2132 0.9392 -0.2693
vn -0.2846 0.8761 -0.3892
vn -0.3916 0.7580 -0.5216
vn -0.5213 0.5911 -0.6156
vn -0.5735 0.4903 -0.6563
vn -0.5435 0.4986 -0.6753
vn -0.4560 0.5736 -0.6804
vn -0.3288 0.6710 -0.6646
vn -0.1638 0.7710 -0.6154
vn 0.0465 0.8496 -0.5253
vn 0.3065 0.8683 -0.3899
vn 0.5420 0.8108 -0.2212
vn 0.6646 0.7434 -0.0754
vn 0.6031 0.7970 0.0332
vn 0.4613 0.8804 0.1099
vn 0.4447 0.8895 0.1051
vn 0.3045 0.9508 0.0575
vn 0.1083 0.9940 0.0175
vn 0.0182 0.9998 0.0030
vn 0.0011 1.0000 -0.0003
vn 0.0198 0.9998 -0.0011
vn -0.0921 0.9866 -0.1350
vn -0.1864 0.9401 -0.2853
vn -0.2575 0.8743 -0.4115
vn -0.3899 0.7296 -0.5618
vn -0.5057 0.5355 -0.6764
vn -0.5240 0.4053 -0.7491
vn -0.4752 0.3810 -0.7931
vn -0.3776 0.4344 -0.8178
vn -0.2555 0.5198 -0.8152
vn -0.0982 0.6241 -0.7752
vn 0.1105 0.7166 -0.6887
vn 0.3636 0.7416 -0.5637
vn 0.5641 0.7103 -0.4211
vn 0.6034 0.7569 -0.2511
vn 0.4820 0.8734 -0.0700
vn 0.4534 0.8913 -0.0007
vn 0.4081 0.9129 0.0065
vn 0.2102 0.9777 0.0041
vn 0.0525 0.9986 0.0015
vn 0.0060 1.0000 0.0003
vn 0.0038 1.0000 0.0002
vn -0.0168 0.9997 -0.0168
vn -0.0781 0.9883 -0.1310
vn -0.1440 0.9572 -0.2510
vn -0.2307 0.8839 -0.4067
vn -0.3742 0.7245 -0.5789
vn -0.4556 0.5147 -0.7263
vn -0.4566 0.3489 -0.8184
vn -0.3929 0.2825 -0.8751
vn -0.2946 0.2951 -0.9089
vn -0.1820 0.3543 -0.9172
vn -0.0267 0.4550 -0.8901
vn 0.1926 0.5447 -0.8162
vn 0.4255 0.5695 -0.7033
vn 0.5083 0.6575 -0.5561
vn 0.4511 0.8232 -0.3448
vn 0.4169 0.8904 -0.1829
vn 0.4365 0.8924 -0.1142
vn 0.3058 0.9507 -0.0520
vn 0.1103 0.9938 -0.0137
vn 0.0194 0.9998 -0.0017
vn 0.0013 1.0000 0.0002
vn 0.0280 0.9996 -0.0000
vn -0.0147 0.9971 -0.0746
vn -0.1183 0.9644 -0.2364
vn -0.2097 0.9010 -0.3798
vn -0.3305 0.7495 -0.5736
vn -0.3917 0.5438 -0.7422
vn -0.3800 0.3580 -0.8529
vn -0.3109 0.2525 -0.9163
vn -0.2218 0.2254 -0.9487
vn -0.1194 0.2561 -0.9593
vn 0.0519 0.3321 -0.9418
vn 0.2708 0.4166 -0.8678
vn 0.3906 0.5399 -0.7456
vn 0.3545 0.7365 -0.5761
vn 0.3455 0.8469 -0.4042
vn 0.3911 0.8768 -0.2797
vn 0.3464 0.9251 -0.1559
vn 0.1731 0.9834 -0.0542
vn 0.0437 0.9990 -0.0103
vn -0.4942 0.7119 0.4990
vn -0.0275 0.9945 -0.1014
vn -0.0908 0.9784 -0.1859
vn -0.1741 0.9271 -0.3320
vn -0.2655 0.8048 -0.5308
vn -0.3145 0.6234 -0.7159
vn -0.3026 0.4425 -0.8442
vn -0.2475 0.3198 -0.9146
vn -0.1713 0.2669 -0.9484
vn -0.0547 0.2683 -0.9618
vn 0.1119 0.3411 -0.9333
vn 0.2708 0.4844 -0.8319
vn 0.2661 0.6747 -0.6884
vn 0.2527 0.8014 -0.5422
vn 0.3063 0.8573 -0.4138
vn 0.3161 0.9099 -0.2687
vn 0.2079 0.9710 -0.1179
vn 0.0701 0.9970 -0.0315
vn 0.0151 0.9999 -0.0025
vn -0.0175 0.9998 0.0018
vn -0.0267 0.9977 -0.0622
vn -0.0649 0.9887 -0.1354
vn -0.1289 0.9568 -0.2605
vn -0.1968 0.8748 -0.4427
vn -0.2307 0.7406 -0.6311
vn -0.2244 0.5897 -0.7758
vn -0.1868 0.4680 -0.8638
vn -0.1123 0.4022 -0.9087
vn -0.0028 0.4046 -0.9145
vn 0.1288 0.4992 -0.8568
vn 0.1735 0.6622 -0.7290
vn 0.1669 0.7881 -0.5925
vn 0.2135 0.8551 -0.4725
vn 0.2532 0.9092 -0.3305
vn 0.2009 0.9635 -0.1768
vn 0.0966 0.9935 -0.0597
vn 0.0121 0.9999 -0.0041
vn 0.0138 0.9999 0.0023
vn -0.0210 0.9998 -0.0000
vn -0.0041 0.9996 -0.0278
vn -0.0455 0.9958 -0.0797
vn -0.0872 0.9794 -0.1820
vn -0.1299 0.9355 -0.3286
vn -0.1535 0.8573 -0.4915
vn -0.1514 0.7579 -0.6346
vn -0.1190 0.6657 -0.7367
vn -0.0543 0.6143 -0.7872
vn 0.0229 0.6295 -0.7767
vn 0.0792 0.7159 -0.6937
vn 0.0916 0.8099 -0.5793
vn 0.1284 0.8725 -0.4715
vn 0.1702 0.9220 -0.3479
vn 0.1648 0.9654 -0.2020
vn 0.0947 0.9919 -0.0848
vn 0.0304 0.9994 -0.0180
vn -0.0033 0.9999 -0.0126
vn -0.0026 1.0000 -0.0057
vn -0.0254 0.9986 -0.0472
vn -0.0520 0.9920 -0.1154
vn -0.0769 0.9736 -0.2151
vn -0.0914 0.9393 -0.3307
vn -0.0859 0.8913 -0.4452
vn -0.0564 0.8442 -0.5331
vn -0.0188 0.8205 -0.5713
vn 0.0129 0.8345 -0.5508
vn 0.0301 0.8745 -0.4841
vn 0.0572 0.9125 -0.4050
vn 0.0949 0.9455 -0.3115
vn 0.1100 0.9738 -0.1992
vn 0.0823 0.9922 -0.0939
vn 0.0321 0.9991 -0.0271
vn -0.0106 0.9999 -0.0021
vn -0.0027 1.0000 -0.0079
vn -0.0136 0.9996 -0.0257
vn -0.0273 0.9974 -0.0664
vn -0.0406 0.9913 -0.1252
vn -0.0453 0.9799 -0.1943
vn -0.0369 0.9641 -0.2628
vn -0.0180 0.9498 -0.3123
vn -0.0071 0.9433 -0.3318
vn -0.0026 0.9478 -0.3190
vn 0.0090 0.9582 -0.2858
vn 0.0377 0.9710 -0.2360
vn 0.0595 0.9844 -0.1656
vn 0.0564 0.9940 -0.0937
vn 0.0260 0.9992 -0.0302
vn 0.0317 0.9995 0.0023
vn 0.4973 0.7121 0.4956
vn -0.0059 0.9999 -0.0126
vn -0.0133 0.9993 -0.0340
vn -0.0185 0.9977 -0.0656
vn -0.0166 0.9949 -0.0997
vn -0.0093 0.9917 -0.1281
vn -0.0034 0.9894 -0.1452
vn -0.0064 0.9883 -0.1527
vn -0.0086 0.9882 -0.1532
vn 0.0045 0.9896 -0.1438
vn 0.0232 0.9932 -0.1142
vn 0.0311 0.9972 -0.0686
vn 0.0154 0.9995 -0.0289
vn 0.0008 1.0000 -0.0003
vn -0.0001 1.0000 -0.0008
vn -0.0021 1.0000 -0.0052
vn -0.0055 0.9999 -0.0153
vn -0.0068 0.9995 -0.0298
vn -0.0035 0.9991 -0.0421
vn 0.0007 0.9988 -0.0481
vn -0.0015 0.9987 -0.0510
vn -0.0070 0.9983 -0.0574
vn -0.0048 0.9979 -0.0648
vn 0.0042 0.9981 -0.0616
vn 0.0119 0.9989 -0.0450
vn 0.0019 0.9999 -0.0112
vn -0.0000 1.0000 -0.0001
vn -0.0000 1.0000 -0.0003
vn -0.0006 1.0000 -0.0016
vn -0.0014 1.0000 -0.0054
vn -0.0017 0.9999 -0.0102
vn -0.0000 0.9999 -0.0128
vn 0.0009 0.9999 -0.0121
vn -0.0015 0.9999 -0.0131
vn -0.0034 0.9998 -0.0188
vn -0.0011 0.9997 -0.0231
vn 0.0027 0.9998 -0.0205
vn 0.0014 0.9999 -0.0138
vn -0.0126 0.9999 -0.0030
vn -0.0002 1.0000 -0.0011
vn -0.0002 1.0000 -0.0022
vn 0.0001 1.0000 -0.0022
vn 0.0001 1.0000 -0.0016
vn -0.0005 1.0000 -0.0026
vn -0.0006 1.0000 -0.0048
vn -0.0001 1.0000 -0.0057
vn -0.4994 0.7111 0.4949
vn 0.0420 0.9991 -0.0000
vn -0.0028 1.0000 -0.0001
vn -0.0000 1.0000 -0.0002
vn -0.0000 1.0000 -0.0007
vn -0.4955 0.7142 0.4944
vn -0.0004 1.0000 -0.0000
vn 0.0009 1.0000 -0.0014
vn 0.0210 0.9998 -0.0050
vn -0.0156 0.9999 0.0049
vn 0.0229 0.9997 -0.0080
vn -0.0138 0.9999 0.0023
vn 0.0050 1.0000 -0.0028
vn -0.0001 1.0000 -0.0035
vn -0.0280 0.9996 -0.0000
vn -0.0014 1.0000 -0.0051
vn -0.0014 1.0000 -0.0076
vn 0.0028 0.9999 -0.0120
vn -0.0020 0.9999 -0.0120
vn 0.0011 0.9999 -0.0118
vn 0.0054 1.0000 -0.0033
vn -0.0080 0.9999 -0.0090
vn -0.0000 0.9999 -0.0153
vn 0.0006 0.9999 -0.0142
vn -0.0000 0.9994 -0.0333
vn 0.0015 0.9996 -0.0265
vn 0.0004 0.9998 -0.0178
vn -0.0000 0.9997 -0.0240
vn 0.0041 0.9999 -0.0103
vn -0.0040 0.9999 -0.0167
vn -0.0053 0.9998 -0.0192
vt 0.195312 0.000000
vt 0.279360 0.206642
vt 0.109585 0.039021
vt 0.858986 0.038262
vt 0.688030 0.052900
vt 0.742188 0.000000
vt 1.000000 0.054687
vt 0.898437 0.000000
vt 0.617187 0.000000
vt 0.594560 0.140732
vt 0.530975 0.081542
vt 0.047018 0.101907
vt 0.000000 0.148437
vt 0.000000 0.054687
vt 0.468582 0.021645
vt 0.468342 0.129755
vt 0.405753 0.082632
vt 0.439467 0.173727
vt 0.399289 0.196827
vt 1.000000 0.210938
vt 0.937033 0.115413
vt 0.497504 0.172380
vt 0.455245 0.158513
vt 0.481565 0.157947
vt 0.468442 0.170508
vt 0.452643 0.185647
vt 0.484376 0.184846
vt 0.766882 0.129232
vt 0.375845 0.235790
vt 0.335776 0.259651
vt 0.342786 0.144476
vt 0.423659 0.189098
vt 0.436816 0.200913
vt 0.468566 0.199862
vt 0.513520 0.186897
vt 0.500389 0.199189
vt 0.216672 0.270515
vt 0.420921 0.216297
vt 0.452719 0.215023
vt 0.484589 0.214063
vt 0.516514 0.213510
vt 0.391826 0.220117
vt 0.404985 0.231796
vt 0.436818 0.230269
vt 0.468735 0.229024
vt 0.500724 0.228181
vt 0.545881 0.215824
vt 0.532759 0.227833
vt 0.389051 0.247421
vt 0.420883 0.245676
vt 0.452827 0.244144
vt 0.484871 0.242980
vt 0.516976 0.242316
vt 0.562165 0.230316
vt 0.549081 0.242223
vt 0.373193 0.263205
vt 0.360069 0.251539
vt 0.404943 0.261233
vt 0.436881 0.259401
vt 0.468962 0.257875
vt 0.501133 0.256842
vt 0.533324 0.256431
vt 0.578422 0.245191
vt 0.565429 0.256792
vt 0.845608 0.207869
vt 0.675112 0.216674
vt 0.357343 0.279190
vt 0.389045 0.277013
vt 0.420948 0.274886
vt 0.453033 0.272992
vt 0.485257 0.271553
vt 0.517539 0.270751
vt 0.549771 0.270723
vt 0.594811 0.260053
vt 0.581896 0.271490
vt 0.155584 0.335455
vt 0.328468 0.283601
vt 0.341547 0.295355
vt 0.373167 0.293007
vt 0.405017 0.290596
vt 0.437098 0.288359
vt 0.469359 0.286493
vt 0.501727 0.285247
vt 0.534090 0.284797
vt 0.566344 0.285187
vt 0.598421 0.286295
vt 0.312691 0.299876
vt 0.273167 0.324728
vt 0.325788 0.311702
vt 0.357320 0.309228
vt 0.389095 0.306557
vt 0.421135 0.303935
vt 0.453417 0.301611
vt 0.485857 0.299852
vt 0.518344 0.298907
vt 0.550751 0.298903
vt 0.582983 0.299823
vt 0.627671 0.290266
vt 0.614929 0.301430
vt 0.310141 0.328202
vt 0.297152 0.316241
vt 0.341495 0.325618
vt 0.373169 0.322730
vt 0.405150 0.319764
vt 0.437428 0.316984
vt 0.469935 0.314680
vt 0.502543 0.313169
vt 0.535108 0.312674
vt 0.567496 0.313230
vt 0.599609 0.314691
vt 0.631368 0.316833
vt 1.000000 0.367188
vt 0.922711 0.288328
vt 0.250658 0.366112
vt 0.211365 0.391200
vt 0.294496 0.344829
vt 0.325662 0.342109
vt 0.357167 0.338996
vt 0.389064 0.335724
vt 0.421331 0.332519
vt 0.453913 0.329686
vt 0.486660 0.327572
vt 0.519403 0.326509
vt 0.551977 0.326622
vt 0.584265 0.327836
vt 0.616180 0.329922
vt 0.644027 0.305786
vt 0.647680 0.332631
vt 0.000000 0.304688
vt 0.000000 0.179688
vt 0.266123 0.349432
vt 0.278868 0.361567
vt 0.309737 0.358748
vt 0.340981 0.355393
vt 0.372716 0.351802
vt 0.404949 0.348171
vt 0.437640 0.344770
vt 0.470590 0.342031
vt 0.503575 0.340355
vt 0.536385 0.339959
vt 0.568886 0.340843
vt 0.600982 0.342809
vt 0.632631 0.345566
vt 0.660238 0.321697
vt 0.663864 0.348780
vt 0.754817 0.296102
vt 0.263247 0.378448
vt 0.293720 0.375668
vt 0.324545 0.372175
vt 0.355986 0.368278
vt 0.388084 0.364169
vt 0.420822 0.360104
vt 0.454069 0.356573
vt 0.487431 0.354115
vt 0.520611 0.353121
vt 0.553404 0.353593
vt 0.585743 0.355407
vt 0.617576 0.358212
vt 0.648928 0.361641
vt 0.676300 0.337843
vt 0.679893 0.365279
vt 0.235162 0.382809
vt 0.247657 0.395421
vt 0.277709 0.392933
vt 0.307921 0.389562
vt 0.338889 0.385541
vt 0.370702 0.381011
vt 0.403304 0.376198
vt 0.436713 0.371618
vt 0.470554 0.368075
vt 0.504360 0.366166
vt 0.537637 0.366003
vt 0.570358 0.367524
vt 0.602454 0.370354
vt 0.633985 0.374054
vt 0.665012 0.378146
vt 0.707959 0.371122
vt 0.695622 0.382191
vt 0.188524 0.432560
vt 0.143062 0.461998
vt 0.232141 0.412409
vt 0.261890 0.410376
vt 0.291347 0.407440
vt 0.321598 0.403725
vt 0.352962 0.399203
vt 0.385258 0.393765
vt 0.418406 0.388011
vt 0.452605 0.382955
vt 0.487067 0.379549
vt 0.521201 0.378386
vt 0.554545 0.379256
vt 0.587091 0.381841
vt 0.618939 0.385721
vt 0.650151 0.390351
vt 0.680820 0.395086
vt 0.711150 0.399415
vt 0.893089 0.444505
vt 0.831941 0.378638
vt 0.204076 0.416140
vt 0.216658 0.429207
vt 0.246401 0.427829
vt 0.275152 0.425587
vt 0.304424 0.422612
vt 0.335170 0.418720
vt 0.366968 0.413478
vt 0.399641 0.406873
vt 0.433376 0.399904
vt 0.468345 0.394259
vt 0.503423 0.391380
vt 0.537801 0.390998
vt 0.571077 0.392969
vt 0.603502 0.396688
vt 0.635162 0.401662
vt 0.666061 0.407179
vt 0.696382 0.412409
vt 0.723519 0.388235
vt 0.726483 0.416792
vt 0.201181 0.445755
vt 0.231197 0.445020
vt 0.259662 0.443657
vt 0.287825 0.441706
vt 0.317586 0.439034
vt 0.348831 0.435032
vt 0.380573 0.428858
vt 0.413523 0.421052
vt 0.447715 0.412878
vt 0.483544 0.406534
vt 0.519472 0.404022
vt 0.553866 0.404479
vt 0.587204 0.407474
vt 0.619606 0.412330
vt 0.651151 0.418376
vt 0.681727 0.424527
vt 0.711728 0.430040
vt 0.738874 0.405255
vt 0.741629 0.434318
vt 0.172926 0.448676
vt 0.185610 0.462002
vt 0.216039 0.461806
vt 0.244894 0.461279
vt 0.272332 0.460459
vt 0.300708 0.459218
vt 0.331104 0.457212
vt 0.361742 0.453203
vt 0.393317 0.446420
vt 0.425893 0.437765
vt 0.461195 0.428707
vt 0.498459 0.422313
vt 0.534907 0.418928
vt 0.569540 0.419299
vt 0.602968 0.423119
vt 0.635494 0.429149
vt 0.666897 0.435895
vt 0.697172 0.442466
vt 0.726894 0.447938
vt 0.754034 0.422505
vt 0.756650 0.451953
vt 0.000000 0.429688
vt 0.093333 0.398917
vt 0.030551 0.461238
vt 0.700425 0.346794
vt 0.172587 0.475379
vt 0.200663 0.478171
vt 0.230360 0.478239
vt 0.258046 0.478387
vt 0.285233 0.478546
vt 0.314182 0.478473
vt 0.343929 0.477446
vt 0.373562 0.473825
vt 0.404673 0.467219
vt 0.437612 0.459019
vt 0.474899 0.450291
vt 0.512895 0.442419
vt 0.549528 0.437270
vt 0.584823 0.436931
vt 0.618600 0.440658
vt 0.651176 0.447240
vt 0.682425 0.454462
vt 0.712422 0.460889
vt 0.741913 0.466009
vt 0.784151 0.457307
vt 0.771611 0.469603
vt 1.000000 0.460938
vt 0.000000 0.492188
vt 0.187678 0.491574
vt 0.215455 0.494611
vt 0.244280 0.495293
vt 0.271327 0.496510
vt 0.298850 0.498011
vt 0.327406 0.499492
vt 0.355761 0.499604
vt 0.385073 0.496995
vt 0.416146 0.491489
vt 0.450567 0.484462
vt 0.488206 0.476421
vt 0.525832 0.467120
vt 0.563688 0.459740
vt 0.600125 0.457633
vt 0.634021 0.460519
vt 0.666762 0.467086
vt 0.697767 0.473828
vt 0.727509 0.479622
vt 0.756799 0.484094
vt 0.799202 0.474607
vt 0.786490 0.487121
vt 0.777258 0.431955
vt 0.202648 0.507983
vt 0.230011 0.511451
vt 0.258167 0.513034
vt 0.285218 0.515532
vt 0.312705 0.518701
vt 0.340264 0.521893
vt 0.368100 0.523505
vt 0.397389 0.522244
vt 0.429059 0.517807
vt 0.464156 0.511174
vt 0.501152 0.503847
vt 0.537566 0.494643
vt 0.577671 0.485867
vt 0.615095 0.480737
vt 0.649254 0.482546
vt 0.681745 0.487990
vt 0.712662 0.493491
vt 0.742271 0.498349
vt 0.771524 0.502049
vt 0.814153 0.491548
vt 0.801338 0.504361
vt 0.209160 0.533109
vt 0.244441 0.528707
vt 0.272358 0.531274
vt 0.299569 0.535177
vt 0.326693 0.540069
vt 0.353848 0.544952
vt 0.381716 0.548207
vt 0.411146 0.548405
vt 0.443436 0.544783
vt 0.478973 0.538400
vt 0.514712 0.530382
vt 0.550515 0.522254
vt 0.591808 0.512153
vt 0.630161 0.505555
vt 0.663752 0.505687
vt 0.696313 0.509220
vt 0.727314 0.513111
vt 0.756833 0.516931
vt 0.786179 0.519708
vt 0.816227 0.521386
vt 0.232123 0.541712
vt 0.258917 0.546221
vt 0.286923 0.549774
vt 0.314234 0.554968
vt 0.341315 0.561274
vt 0.368623 0.567766
vt 0.396652 0.572698
vt 0.426519 0.574331
vt 0.459510 0.571909
vt 0.494520 0.565770
vt 0.529576 0.557168
vt 0.566291 0.548316
vt 0.607753 0.538341
vt 0.644472 0.530730
vt 0.677874 0.528999
vt 0.710747 0.529922
vt 0.741797 0.532361
vt 0.771281 0.535121
vt 0.800842 0.536995
vt 0.844224 0.525020
vt 0.831255 0.538052
vt 0.092584 0.524649
vt 0.246715 0.558827
vt 0.273591 0.563962
vt 0.301753 0.568385
vt 0.329279 0.574520
vt 0.356695 0.582048
vt 0.384270 0.589907
vt 0.412680 0.596128
vt 0.443375 0.599244
vt 0.476490 0.598128
vt 0.510866 0.592707
vt 0.546043 0.583806
vt 0.583995 0.573833
vt 0.623196 0.563510
vt 0.658377 0.555258
vt 0.692061 0.550982
vt 0.725359 0.549897
vt 0.756178 0.551085
vt 0.785688 0.552820
vt 0.815649 0.553815
vt 0.859408 0.541470
vt 0.846381 0.554457
vt 0.261576 0.576159
vt 0.288323 0.581948
vt 0.316732 0.586964
vt 0.344739 0.593749
vt 0.372556 0.602104
vt 0.400598 0.610691
vt 0.429865 0.617875
vt 0.461203 0.621913
vt 0.494467 0.621773
vt 0.528175 0.616770
vt 0.563624 0.607578
vt 0.601716 0.596871
vt 0.638646 0.586104
vt 0.672903 0.576903
vt 0.707127 0.571282
vt 0.739938 0.569017
vt 0.770523 0.569246
vt 0.800168 0.569837
vt 0.830675 0.570233
vt 0.874802 0.557433
vt 0.861661 0.570503
vt 0.954097 0.507837
vt 1.000000 0.554688
vt 0.276313 0.593751
vt 0.303093 0.599999
vt 0.331999 0.605287
vt 0.360529 0.612314
vt 0.388912 0.620829
vt 0.417799 0.629723
vt 0.447921 0.636998
vt 0.480033 0.641202
vt 0.512916 0.641195
vt 0.546561 0.635962
vt 0.582800 0.626775
vt 0.619877 0.615697
vt 0.654868 0.604441
vt 0.688855 0.595604
vt 0.722474 0.589895
vt 0.754665 0.587149
vt 0.784785 0.586365
vt 0.814973 0.586250
vt 0.845876 0.586318
vt 0.874401 0.583725
vt 0.282924 0.619157
vt 0.318071 0.617734
vt 0.347390 0.623045
vt 0.376542 0.629911
vt 0.405705 0.638162
vt 0.435470 0.646259
vt 0.466697 0.652848
vt 0.499090 0.656356
vt 0.531774 0.655796
vt 0.566294 0.650461
vt 0.602570 0.641029
vt 0.637807 0.629751
vt 0.671702 0.619630
vt 0.705117 0.611934
vt 0.737957 0.606736
vt 0.769162 0.603760
vt 0.799331 0.602601
vt 0.830125 0.602309
vt 0.858535 0.599570
vt 0.953510 0.633275
vt 0.904433 0.570640
vt 0.305942 0.628877
vt 0.333193 0.635212
vt 0.363020 0.640277
vt 0.392802 0.646538
vt 0.422854 0.653692
vt 0.453683 0.660719
vt 0.485507 0.665892
vt 0.518115 0.668192
vt 0.551446 0.666395
vt 0.586323 0.660346
vt 0.621257 0.650838
vt 0.655311 0.640973
vt 0.688429 0.632799
vt 0.721151 0.626457
vt 0.753015 0.621874
vt 0.783661 0.619385
vt 0.814375 0.618494
vt 0.842859 0.615550
vt 0.060343 0.680509
vt 0.000000 0.617188
vt 0.320957 0.646106
vt 0.348659 0.652393
vt 0.378889 0.656998
vt 0.409382 0.662258
vt 0.440295 0.667953
vt 0.471881 0.673193
vt 0.504339 0.676677
vt 0.537510 0.677494
vt 0.571229 0.674700
vt 0.605380 0.668146
vt 0.639202 0.659565
vt 0.672321 0.651602
vt 0.704786 0.645068
vt 0.736736 0.639909
vt 0.767806 0.636474
vt 0.798660 0.634919
vt 0.835475 0.640135
vt 0.336482 0.663209
vt 0.364360 0.669290
vt 0.395080 0.673318
vt 0.426168 0.677445
vt 0.457780 0.681460
vt 0.490064 0.684776
vt 0.523095 0.686464
vt 0.556471 0.685672
vt 0.589980 0.682002
vt 0.623307 0.675865
vt 0.656262 0.668912
vt 0.688684 0.662623
vt 0.720570 0.657463
vt 0.751894 0.653651
vt 0.782917 0.651492
vt 0.811444 0.647933
vt 0.228177 0.671218
vt 0.344064 0.687446
vt 0.380409 0.685808
vt 0.411485 0.689288
vt 0.443066 0.692388
vt 0.475234 0.694904
vt 0.508017 0.696422
vt 0.541271 0.696363
vt 0.574578 0.694400
vt 0.607646 0.690415
vt 0.640329 0.685126
vt 0.672658 0.679567
vt 0.704559 0.674643
vt 0.736013 0.670798
vt 0.767166 0.668219
vt 0.795745 0.664251
vt 1.000000 0.585938
vt 1.000000 0.679688
vt 0.000000 0.648438
vt 0.368111 0.696556
vt 0.396618 0.701994
vt 0.428044 0.704866
vt 0.460040 0.707118
vt 0.492572 0.708471
vt 0.525571 0.708617
vt 0.558773 0.707361
vt 0.591824 0.704620
vt 0.624490 0.700673
vt 0.656751 0.696111
vt 0.688649 0.691655
vt 0.720192 0.687879
vt 0.751457 0.685092
vt 0.780037 0.680690
vt 0.891519 0.696510
vt 0.384177 0.712742
vt 0.412954 0.717767
vt 0.444763 0.719996
vt 0.477037 0.721515
vt 0.509745 0.722005
vt 0.542733 0.721274
vt 0.575740 0.719320
vt 0.608491 0.716272
vt 0.640848 0.712489
vt 0.672805 0.708515
vt 0.704414 0.704892
vt 0.735760 0.701958
vt 0.764369 0.697344
vt 0.153079 0.589143
vt 0.400376 0.728697
vt 0.429498 0.733040
vt 0.461545 0.734722
vt 0.493987 0.735561
vt 0.526729 0.735374
vt 0.559597 0.734082
vt 0.592362 0.731791
vt 0.624830 0.728698
vt 0.656919 0.725192
vt 0.688632 0.721762
vt 0.720052 0.718798
vt 0.757097 0.722018
vt 0.416828 0.744061
vt 0.446112 0.748008
vt 0.478321 0.749103
vt 0.510830 0.749339
vt 0.543525 0.748615
vt 0.576232 0.746964
vt 0.608747 0.744524
vt 0.640955 0.741538
vt 0.672807 0.738398
vt 0.704323 0.735486
vt 0.733011 0.730689
vt 0.425012 0.766530
vt 0.462748 0.762630
vt 0.495012 0.763191
vt 0.527549 0.762948
vt 0.560147 0.761798
vt 0.592657 0.759970
vt 0.624944 0.757509
vt 0.656924 0.754730
vt 0.688571 0.751981
vt 0.717335 0.747176
vt 0.449861 0.773959
vt 0.479303 0.777098
vt 0.511651 0.777111
vt 0.544135 0.776453
vt 0.576596 0.775090
vt 0.608911 0.773119
vt 0.640988 0.770756
vt 0.672768 0.768251
vt 0.701628 0.763518
vt 0.813277 0.775754
vt 0.969116 0.773728
vt 0.290154 0.737218
vt 0.466279 0.788664
vt 0.495823 0.791190
vt 0.528187 0.790928
vt 0.560579 0.789952
vt 0.592883 0.788473
vt 0.625018 0.786492
vt 0.656906 0.784286
vt 0.685905 0.779745
vt 0.482701 0.802919
vt 0.512289 0.805175
vt 0.544612 0.804595
vt 0.576876 0.803491
vt 0.609025 0.801919
vt 0.641013 0.800053
vt 0.670069 0.795781
vt 1.000000 0.742188
vt 1.000000 0.804688
vt 0.490597 0.824775
vt 0.528695 0.819109
vt 0.560914 0.818352
vt 0.593043 0.817154
vt 0.625055 0.815563
vt 0.662781 0.819285
vt 0.137692 0.760283
vt 0.515485 0.831121
vt 0.544991 0.833074
vt 0.577099 0.832200
vt 0.609121 0.830875
vt 0.638308 0.827082
vt 0.719525 0.871745
vt 0.531766 0.845211
vt 0.561168 0.847058
vt 0.593219 0.846046
vt 0.622446 0.842416
vt 0.000000 0.804688
vt 0.000000 0.742188
vt 0.547936 0.859392
vt 0.577322 0.861028
vt 0.606583 0.857658
vt 0.564147 0.873454
vt 0.590718 0.872712
vt 0.370027 0.816807
vt 0.046534 0.851339
vt 0.000000 0.898437
vt 0.577659 0.901110
vt 0.796996 0.946031
vt 0.890294 0.852561
vt 0.200579 0.824145
vt 0.641014 0.947756
vt 0.279821 0.902514
vt 0.108437 0.913929
vt 0.000000 1.000000
vt 0.023437 1.000000
vt 0.179687 1.000000
vt 0.303713 1.000000
vt 0.460937 1.000000
vt 0.514906 0.948747
vt 0.570312 1.000000
vt 0.695312 1.000000
vt 0.742188 1.000000
vt 0.851563 1.000000
vt 0.070312 0.000000
vt 1.000000 0.960937
vt 0.929687 1.000000
vt 0.820312 0.000000
vt 1.000000 1.000000
vt 0.445312 0.000000
vt 0.492187 0.000000
vt 0.320312 0.000000
vt 0.148437 0.000000
vt 0.342099 0.964142
vt 0.434017 0.876823
vt 0.304687 1.000000
vt 1.000000 0.000000
vt 0.538106 0.193528
vt 0.619625 0.267539
vt 0.837418 0.500066
vt 0.000000 0.000000
vt 0.382812 1.000000
s 1
f 4/1/4 39/2/26 14/3/12
f 15/4/13 17/5/15 9/6/9
f 18/7/16 15/4/13 11/8/10
f 8/9/8 27/10/23 20/11/18
f 8/9/8 9/6/9 17/5/15
f 21/12/19 24/13/21 16/14/14
f 13/15/11 26/16/1 19/17/17
f 31/18/1 40/19/1 19/17/17
f 18/7/16 34/20/25 22/21/20
f 27/10/23 33/22/1 26/16/1
f 28/23/1 29/24/1 32/25/1
f 31/18/1 32/25/1 36/26/1
f 32/25/1 33/22/1 37/27/1
f 22/21/20 23/28/1 15/4/13
f 53/29/1 69/30/1 25/31/22
f 35/32/1 36/26/1 41/33/1
f 36/26/1 37/27/1 42/34/1
f 37/27/1 38/35/1 43/36/1
f 68/37/28 14/3/12 39/2/26
f 23/28/1 27/10/23 17/5/15
f 35/32/1 47/38/1 40/19/1
f 41/33/1 42/34/1 48/39/1
f 42/34/1 43/36/1 49/40/1
f 38/35/1 50/41/1 43/36/1
f 46/42/1 47/38/1 54/43/1
f 41/33/1 55/44/1 47/38/1
f 42/34/1 56/45/1 48/39/1
f 43/36/1 57/46/1 49/40/1
f 50/41/1 51/47/1 58/48/1
f 53/29/1 54/43/1 61/49/1
f 47/38/1 62/50/1 54/43/1
f 48/39/1 63/51/1 55/44/1
f 49/40/1 64/52/1 56/45/1
f 50/41/1 65/53/1 57/46/1
f 58/48/1 59/54/1 66/55/1
f 53/29/1 70/56/29 60/57/1
f 54/43/1 71/58/29 61/49/1
f 55/44/1 72/59/1 62/50/1
f 56/45/1 73/60/1 63/51/1
f 57/46/1 74/61/1 64/52/1
f 58/48/1 75/62/1 65/53/1
f 66/55/1 67/63/1 76/64/1
f 34/20/25 45/65/27 22/21/20
f 52/66/1 59/54/1 51/47/1
f 60/57/1 79/67/31 69/30/1
f 61/49/1 80/68/32 70/56/29
f 71/58/29 72/59/1 81/69/33
f 72/59/1 73/60/1 82/70/34
f 73/60/1 74/61/1 83/71/35
f 74/61/1 75/62/1 84/72/36
f 75/62/1 76/64/1 85/73/29
f 76/64/1 77/74/1 86/75/1
f 114/76/59 24/13/21 21/12/19
f 78/77/30 79/67/31 91/78/40
f 70/56/29 92/79/41 79/67/31
f 71/58/29 93/80/42 80/68/32
f 81/69/33 82/70/34 94/81/43
f 82/70/34 83/71/35 95/82/44
f 83/71/35 84/72/36 96/83/45
f 84/72/36 85/73/29 97/84/46
f 85/73/29 86/75/1 98/85/47
f 77/74/1 99/86/29 86/75/1
f 45/65/27 52/66/1 23/28/1
f 90/87/39 115/88/60 39/2/26
f 78/77/30 103/89/49 90/87/39
f 79/67/31 104/90/50 91/78/40
f 80/68/32 105/91/51 92/79/41
f 81/69/33 106/92/52 93/80/42
f 82/70/34 107/93/53 94/81/43
f 83/71/35 108/94/54 95/82/44
f 84/72/36 109/95/55 96/83/45
f 85/73/29 110/96/56 97/84/46
f 98/85/47 99/86/29 111/97/57
f 99/86/29 100/98/1 112/99/58
f 90/87/39 116/100/61 102/101/48
f 91/78/40 117/102/62 103/89/49
f 92/79/41 118/103/63 104/90/50
f 93/80/42 119/104/64 105/91/51
f 94/81/43 120/105/65 106/92/52
f 95/82/44 121/106/66 107/93/53
f 96/83/45 122/107/67 108/94/54
f 97/84/46 123/108/68 109/95/55
f 98/85/47 124/109/69 110/96/56
f 99/86/29 125/110/70 111/97/57
f 100/98/1 126/111/71 112/99/58
f 34/20/25 142/112/87 88/113/37
f 143/114/88 176/115/120 68/37/28
f 102/101/48 129/116/74 115/88/60
f 103/89/49 130/117/75 116/100/61
f 104/90/50 131/118/76 117/102/62
f 105/91/51 132/119/77 118/103/63
f 106/92/52 133/120/78 119/104/64
f 107/93/53 134/121/79 120/105/65
f 108/94/54 135/122/80 121/106/66
f 109/95/55 136/123/81 122/107/67
f 110/96/56 137/124/82 123/108/68
f 111/97/57 138/125/83 124/109/69
f 112/99/58 139/126/84 125/110/70
f 113/127/1 140/128/85 126/111/71
f 114/76/59 89/129/38 30/130/24
f 128/131/73 129/116/74 144/132/89
f 116/100/61 145/133/90 129/116/74
f 117/102/62 146/134/91 130/117/75
f 118/103/63 147/135/92 131/118/76
f 119/104/64 148/136/93 132/119/77
f 120/105/65 149/137/94 133/120/78
f 121/106/66 150/138/95 134/121/79
f 122/107/67 151/139/96 135/122/80
f 123/108/68 152/140/97 136/123/81
f 124/109/69 153/141/98 137/124/82
f 125/110/70 154/142/99 138/125/83
f 126/111/71 155/143/100 139/126/84
f 127/144/72 156/145/101 140/128/85
f 88/113/37 101/146/1 45/65/27
f 101/146/1 113/127/1 100/98/1
f 128/131/73 159/147/103 143/114/88
f 129/116/74 160/148/104 144/132/89
f 130/117/75 161/149/105 145/133/90
f 131/118/76 162/150/106 146/134/91
f 132/119/77 163/151/107 147/135/92
f 133/120/78 164/152/108 148/136/93
f 134/121/79 165/153/109 149/137/94
f 135/122/80 166/154/110 150/138/95
f 136/123/81 167/155/111 151/139/96
f 137/124/82 168/156/112 152/140/97
f 138/125/83 169/157/113 153/141/98
f 139/126/84 170/158/114 154/142/99
f 140/128/85 171/159/115 155/143/100
f 141/160/86 172/161/116 156/145/101
f 158/162/102 159/147/103 177/163/121
f 144/132/89 178/164/122 159/147/103
f 145/133/90 179/165/123 160/148/104
f 146/134/91 180/166/124 161/149/105
f 147/135/92 181/167/125 162/150/106
f 148/136/93 182/168/126 163/151/107
f 149/137/94 183/169/127 164/152/108
f 150/138/95 184/170/128 165/153/109
f 151/139/96 185/171/129 166/154/110
f 152/140/97 186/172/130 167/155/111
f 153/141/98 187/173/131 168/156/112
f 154/142/99 188/174/132 169/157/113
f 155/143/100 189/175/133 170/158/114
f 156/145/101 190/176/134 171/159/115
f 172/161/116 173/177/117 191/178/135
f 212/179/156 253/180/197 114/76/59
f 158/162/102 194/181/138 176/115/120
f 177/163/121 178/164/122 195/182/139
f 178/164/122 179/165/123 196/183/140
f 179/165/123 180/166/124 197/184/141
f 162/150/106 198/185/142 180/166/124
f 163/151/107 199/186/143 181/167/125
f 164/152/108 200/187/144 182/168/126
f 165/153/109 201/188/145 183/169/127
f 166/154/110 202/189/146 184/170/128
f 167/155/111 203/190/147 185/171/129
f 168/156/112 204/191/148 186/172/130
f 169/157/113 205/192/149 187/173/131
f 170/158/114 206/193/150 188/174/132
f 171/159/115 207/194/151 189/175/133
f 172/161/116 208/195/152 190/176/134
f 173/177/117 209/196/153 191/178/135
f 88/113/37 251/197/195 174/198/118
f 193/199/137 194/181/138 213/200/157
f 194/181/138 195/182/139 214/201/158
f 195/182/139 196/183/140 215/202/159
f 196/183/140 197/184/141 216/203/160
f 197/184/141 198/185/142 217/204/161
f 198/185/142 199/186/143 218/205/162
f 199/186/143 200/187/144 219/206/163
f 183/169/127 220/207/164 200/187/144
f 184/170/128 221/208/165 201/188/145
f 185/171/129 222/209/166 202/189/146
f 186/172/130 223/210/167 203/190/147
f 187/173/131 224/211/168 204/191/148
f 188/174/132 225/212/169 205/192/149
f 189/175/133 226/213/170 206/193/150
f 190/176/134 227/214/171 207/194/151
f 191/178/135 228/215/172 208/195/152
f 192/216/136 229/217/173 209/196/153
f 212/179/156 213/200/157 232/218/176
f 213/200/157 214/201/158 233/219/177
f 214/201/158 215/202/159 234/220/178
f 215/202/159 216/203/160 235/221/179
f 216/203/160 217/204/161 236/222/180
f 217/204/161 218/205/162 237/223/181
f 218/205/162 219/206/163 238/224/182
f 219/206/163 220/207/164 239/225/183
f 220/207/164 221/208/165 240/226/184
f 202/189/146 241/227/185 221/208/165
f 203/190/147 242/228/186 222/209/166
f 204/191/148 243/229/187 223/210/167
f 205/192/149 244/230/188 224/211/168
f 206/193/150 245/231/189 225/212/169
f 207/194/151 246/232/190 226/213/170
f 208/195/152 247/233/191 227/214/171
f 209/196/153 248/234/192 228/215/172
f 210/235/154 249/236/193 229/217/173
f 231/237/175 232/218/176 254/238/198
f 232/218/176 233/219/177 255/239/199
f 233/219/177 234/220/178 256/240/200
f 234/220/178 235/221/179 257/241/201
f 235/221/179 236/222/180 258/242/202
f 236/222/180 237/223/181 259/243/203
f 237/223/181 238/224/182 260/244/204
f 238/224/182 239/225/183 261/245/205
f 239/225/183 240/226/184 262/246/206
f 240/226/184 241/227/185 263/247/207
f 241/227/185 242/228/186 264/248/208
f 223/210/167 265/249/209 242/228/186
f 224/211/168 266/250/210 243/229/187
f 225/212/169 267/251/211 244/230/188
f 226/213/170 268/252/212 245/231/189
f 227/214/171 269/253/213 246/232/190
f 228/215/172 270/254/214 247/233/191
f 229/217/173 271/255/215 248/234/192
f 230/256/174 272/257/216 249/236/193
f 211/258/155 175/259/119 252/260/196
f 230/256/174 192/216/136 157/261/58
f 231/237/175 275/262/219 253/180/197
f 254/238/198 255/239/199 276/263/220
f 255/239/199 256/240/200 277/264/221
f 256/240/200 257/241/201 278/265/222
f 257/241/201 258/242/202 279/266/223
f 258/242/202 259/243/203 280/267/224
f 259/243/203 260/244/204 281/268/225
f 260/244/204 261/245/205 282/269/226
f 261/245/205 262/246/206 283/270/227
f 262/246/206 263/247/207 284/271/228
f 263/247/207 264/248/208 285/272/229
f 264/248/208 265/249/209 286/273/230
f 265/249/209 266/250/210 287/274/231
f 266/250/210 267/251/211 288/275/232
f 245/231/189 289/276/233 267/251/211
f 246/232/190 290/277/234 268/252/212
f 247/233/191 291/278/235 269/253/213
f 248/234/192 292/279/236 270/254/214
f 249/236/193 293/280/237 271/255/215
f 272/257/216 273/281/217 294/282/238
f 274/283/218 251/197/195 142/112/87
f 211/258/155 252/260/196 296/284/240
f 275/262/219 276/263/220 297/285/241
f 276/263/220 277/264/221 298/286/242
f 277/264/221 278/265/222 299/287/243
f 278/265/222 279/266/223 300/288/244
f 279/266/223 280/267/224 301/289/245
f 280/267/224 281/268/225 302/290/246
f 281/268/225 282/269/226 303/291/247
f 282/269/226 283/270/227 304/292/248
f 283/270/227 284/271/228 305/293/249
f 284/271/228 285/272/229 306/294/250
f 285/272/229 286/273/230 307/295/251
f 286/273/230 287/274/231 308/296/252
f 287/274/231 288/275/232 309/297/253
f 288/275/232 289/276/233 310/298/254
f 289/276/233 290/277/234 311/299/255
f 269/253/213 312/300/256 290/277/234
f 270/254/214 313/301/257 291/278/235
f 271/255/215 314/302/258 292/279/236
f 293/280/237 294/282/238 315/303/259
f 294/282/238 295/304/239 316/305/260
f 251/197/195 295/304/239 250/306/194
f 297/285/241 298/286/242 318/307/262
f 298/286/242 299/287/243 319/308/263
f 299/287/243 300/288/244 320/309/264
f 300/288/244 301/289/245 321/310/265
f 301/289/245 302/290/246 322/311/266
f 302/290/246 303/291/247 323/312/267
f 303/291/247 304/292/248 324/313/268
f 304/292/248 305/293/249 325/314/269
f 305/293/249 306/294/250 326/315/270
f 306/294/250 307/295/251 327/316/271
f 307/295/251 308/296/252 328/317/272
f 308/296/252 309/297/253 329/318/273
f 309/297/253 310/298/254 330/319/274
f 310/298/254 311/299/255 331/320/275
f 311/299/255 312/300/256 332/321/276
f 312/300/256 313/301/257 333/322/277
f 313/301/257 314/302/258 334/323/278
f 314/302/258 315/303/259 335/324/279
f 315/303/259 316/305/260 336/325/280
f 316/305/260 317/326/261 337/327/281
f 318/307/262 319/308/263 341/328/285
f 319/308/263 320/309/264 342/329/286
f 320/309/264 321/310/265 343/330/287
f 321/310/265 322/311/266 344/331/288
f 322/311/266 323/312/267 345/332/289
f 323/312/267 324/313/268 346/333/290
f 324/313/268 325/314/269 347/334/291
f 325/314/269 326/315/270 348/335/292
f 326/315/270 327/316/271 349/336/293
f 327/316/271 328/317/272 350/337/294
f 328/317/272 329/318/273 351/338/295
f 329/318/273 330/319/274 352/339/296
f 330/319/274 331/320/275 353/340/297
f 331/320/275 332/321/276 354/341/298
f 332/321/276 333/322/277 355/342/299
f 333/322/277 334/323/278 356/343/300
f 334/323/278 335/324/279 357/344/301
f 335/324/279 336/325/280 358/345/302
f 336/325/280 337/327/281 359/346/303
f 317/326/261 360/347/304 337/327/281
f 253/180/197 252/260/196 175/259/119
f 319/308/263 362/348/306 341/328/285
f 342/329/286 343/330/287 363/349/307
f 343/330/287 344/331/288 364/350/308
f 344/331/288 345/332/289 365/351/309
f 345/332/289 346/333/290 366/352/310
f 346/333/290 347/334/291 367/353/311
f 347/334/291 348/335/292 368/354/312
f 348/335/292 349/336/293 369/355/313
f 349/336/293 350/337/294 370/356/314
f 350/337/294 351/338/295 371/357/315
f 351/338/295 352/339/296 372/358/316
f 352/339/296 353/340/297 373/359/317
f 353/340/297 354/341/298 374/360/318
f 354/341/298 355/342/299 375/361/319
f 355/342/299 356/343/300 376/362/320
f 356/343/300 357/344/301 377/363/321
f 357/344/301 358/345/302 378/364/322
f 358/345/302 359/346/303 379/365/323
f 359/346/303 360/347/304 380/366/324
f 360/347/304 361/367/305 381/368/325
f 297/285/241 341/328/285 340/369/284
f 362/348/306 363/349/307 383/370/327
f 363/349/307 364/350/308 384/371/328
f 364/350/308 365/351/309 385/372/329
f 365/351/309 366/352/310 386/373/330
f 366/352/310 367/353/311 387/374/331
f 367/353/311 368/354/312 388/375/332
f 368/354/312 369/355/313 389/376/333
f 369/355/313 370/356/314 390/377/334
f 370/356/314 371/357/315 391/378/335
f 371/357/315 372/358/316 392/379/336
f 372/358/316 373/359/317 393/380/337
f 373/359/317 374/360/318 394/381/338
f 374/360/318 375/361/319 395/382/339
f 375/361/319 376/362/320 396/383/340
f 376/362/320 377/363/321 397/384/341
f 377/363/321 378/364/322 398/385/342
f 378/364/322 379/365/323 399/386/343
f 379/365/323 380/366/324 400/387/344
f 380/366/324 381/368/325 401/388/345
f 381/368/325 382/389/326 402/390/346
f 383/370/327 384/371/328 405/391/349
f 384/371/328 385/372/329 406/392/350
f 385/372/329 386/373/330 407/393/351
f 386/373/330 387/374/331 408/394/352
f 387/374/331 388/375/332 409/395/353
f 388/375/332 389/376/333 410/396/354
f 389/376/333 390/377/334 411/397/355
f 390/377/334 391/378/335 412/398/356
f 391/378/335 392/379/336 413/399/357
f 392/379/336 393/380/337 414/400/358
f 393/380/337 394/381/338 415/401/359
f 394/381/338 395/382/339 416/402/360
f 395/382/339 396/383/340 417/403/361
f 396/383/340 397/384/341 418/404/362
f 397/384/341 398/385/342 419/405/363
f 398/385/342 399/386/343 420/406/364
f 399/386/343 400/387/344 421/407/365
f 400/387/344 401/388/345 422/408/366
f 401/388/345 402/390/346 423/409/367
f 402/390/346 403/410/347 424/411/368
f 339/412/283 274/283/218 404/413/348
f 339/412/283 403/410/347 361/367/305
f 405/391/349 406/392/350 427/414/371
f 406/392/350 407/393/351 428/415/372
f 407/393/351 408/394/352 429/416/373
f 408/394/352 409/395/353 430/417/374
f 409/395/353 410/396/354 431/418/375
f 410/396/354 411/397/355 432/419/376
f 411/397/355 412/398/356 433/420/377
f 412/398/356 413/399/357 434/421/378
f 413/399/357 414/400/358 435/422/379
f 414/400/358 415/401/359 436/423/380
f 415/401/359 416/402/360 437/424/381
f 416/402/360 417/403/361 438/425/382
f 417/403/361 418/404/362 439/426/383
f 418/404/362 419/405/363 440/427/384
f 419/405/363 420/406/364 441/428/385
f 420/406/364 421/407/365 442/429/386
f 421/407/365 422/408/366 443/430/387
f 422/408/366 423/409/367 444/431/388
f 423/409/367 424/411/368 445/432/389
f 403/410/347 446/433/390 424/411/368
f 427/414/371 428/415/372 448/434/392
f 407/393/351 449/435/393 428/415/372
f 408/394/352 450/436/394 429/416/373
f 409/395/353 451/437/395 430/417/374
f 410/396/354 452/438/396 431/418/375
f 432/419/376 433/420/377 453/439/397
f 433/420/377 434/421/378 454/440/398
f 434/421/378 435/422/379 455/441/399
f 435/422/379 436/423/380 456/442/400
f 436/423/380 437/424/381 457/443/401
f 437/424/381 438/425/382 458/444/402
f 438/425/382 439/426/383 459/445/403
f 439/426/383 440/427/384 460/446/404
f 440/427/384 441/428/385 461/447/405
f 441/428/385 442/429/386 462/448/406
f 442/429/386 443/430/387 463/449/407
f 443/430/387 444/431/388 464/450/408
f 444/431/388 445/432/389 465/451/409
f 445/432/389 446/433/390 466/452/410
f 404/413/348 503/453/447 425/454/369
f 428/415/372 467/455/411 448/434/392
f 429/416/373 468/456/412 449/435/393
f 430/417/374 469/457/413 450/436/394
f 431/418/375 470/458/414 451/437/395
f 432/419/376 471/459/415 452/438/396
f 433/420/377 472/460/416 453/439/397
f 434/421/378 473/461/417 454/440/398
f 435/422/379 474/462/418 455/441/399
f 456/442/400 457/443/401 475/463/419
f 457/443/401 458/444/402 476/464/420
f 458/444/402 459/445/403 477/465/421
f 459/445/403 460/446/404 478/466/422
f 460/446/404 461/447/405 479/467/423
f 461/447/405 462/448/406 480/468/424
f 462/448/406 463/449/407 481/469/425
f 463/449/407 464/450/408 482/470/426
f 464/450/408 465/451/409 483/471/427
f 465/451/409 466/452/410 484/472/428
f 340/369/284 537/473/481 485/474/429
f 340/369/284 296/284/240 252/260/196
f 449/435/393 486/475/430 467/455/411
f 450/436/394 487/476/431 468/456/412
f 451/437/395 488/477/432 469/457/413
f 452/438/396 489/478/433 470/458/414
f 453/439/397 490/479/434 471/459/415
f 454/440/398 491/480/435 472/460/416
f 455/441/399 492/481/436 473/461/417
f 456/442/400 493/482/437 474/462/418
f 457/443/401 494/483/438 475/463/419
f 458/444/402 495/484/439 476/464/420
f 459/445/403 496/485/440 477/465/421
f 460/446/404 497/486/441 478/466/422
f 461/447/405 498/487/442 479/467/423
f 462/448/406 499/488/443 480/468/424
f 481/469/425 482/470/426 500/489/444
f 482/470/426 483/471/427 501/490/445
f 483/471/427 484/472/428 502/491/446
f 468/456/412 505/492/449 486/475/430
f 469/457/413 506/493/450 487/476/431
f 470/458/414 507/494/451 488/477/432
f 471/459/415 508/495/452 489/478/433
f 472/460/416 509/496/453 490/479/434
f 473/461/417 510/497/454 491/480/435
f 474/462/418 511/498/455 492/481/436
f 475/463/419 512/499/456 493/482/437
f 476/464/420 513/500/457 494/483/438
f 477/465/421 514/501/458 495/484/439
f 478/466/422 515/502/459 496/485/440
f 479/467/423 516/503/460 497/486/441
f 480/468/424 517/504/461 498/487/442
f 481/469/425 518/505/462 499/488/443
f 500/489/444 501/490/445 519/506/463
f 483/471/427 520/507/464 501/490/445
f 405/391/349 521/508/465 341/328/285
f 505/492/449 506/493/450 522/509/466
f 488/477/432 523/510/467 506/493/450
f 489/478/433 524/511/468 507/494/451
f 490/479/434 525/512/469 508/495/452
f 491/480/435 526/513/470 509/496/453
f 492/481/436 527/514/471 510/497/454
f 493/482/437 528/515/472 511/498/455
f 494/483/438 529/516/473 512/499/456
f 495/484/439 530/517/474 513/500/457
f 496/485/440 531/518/475 514/501/458
f 497/486/441 532/519/476 515/502/459
f 498/487/442 533/520/477 516/503/460
f 499/488/443 534/521/478 517/504/461
f 500/489/444 535/522/479 518/505/462
f 519/506/463 520/507/464 536/523/480
f 503/453/447 447/524/391 552/525/496
f 537/473/481 504/526/448 485/474/429
f 506/493/450 538/527/482 522/509/466
f 507/494/451 539/528/483 523/510/467
f 508/495/452 540/529/484 524/511/468
f 509/496/453 541/530/485 525/512/469
f 510/497/454 542/531/486 526/513/470
f 511/498/455 543/532/487 527/514/471
f 512/499/456 544/533/488 528/515/472
f 513/500/457 545/534/489 529/516/473
f 514/501/458 546/535/490 530/517/474
f 515/502/459 547/536/491 531/518/475
f 516/503/460 548/537/492 532/519/476
f 517/504/461 549/538/493 533/520/477
f 518/505/462 550/539/494 534/521/478
f 519/506/463 551/540/495 535/522/479
f 566/541/510 484/472/428 446/433/390
f 523/510/467 553/542/497 538/527/482
f 524/511/468 554/543/498 539/528/483
f 525/512/469 555/544/499 540/529/484
f 526/513/470 556/545/500 541/530/485
f 527/514/471 557/546/501 542/531/486
f 528/515/472 558/547/502 543/532/487
f 529/516/473 559/548/503 544/533/488
f 530/517/474 560/549/504 545/534/489
f 531/518/475 561/550/505 546/535/490
f 532/519/476 562/551/506 547/536/491
f 533/520/477 563/552/507 548/537/492
f 534/521/478 564/553/508 549/538/493
f 535/522/479 565/554/509 550/539/494
f 521/508/465 537/473/481 426/555/370
f 539/528/483 567/556/511 553/542/497
f 540/529/484 568/557/512 554/543/498
f 541/530/485 569/558/513 555/544/499
f 542/531/486 570/559/514 556/545/500
f 543/532/487 571/560/515 557/546/501
f 544/533/488 572/561/516 558/547/502
f 545/534/489 573/562/517 559/548/503
f 546/535/490 574/563/518 560/549/504
f 547/536/491 575/564/519 561/550/505
f 548/537/492 576/565/520 562/551/506
f 549/538/493 577/566/521 563/552/507
f 564/553/508 565/554/509 578/567/522
f 486/475/430 522/509/466 521/508/465
f 554/543/498 580/568/524 567/556/511
f 555/544/499 581/569/525 568/557/512
f 556/545/500 582/570/526 569/558/513
f 557/546/501 583/571/527 570/559/514
f 558/547/502 584/572/528 571/560/515
f 559/548/503 585/573/529 572/561/516
f 560/549/504 586/574/530 573/562/517
f 561/550/505 587/575/531 574/563/518
f 562/551/506 588/576/532 575/564/519
f 563/552/507 589/577/533 576/565/520
f 564/553/508 590/578/534 577/566/521
f 580/568/524 581/569/525 592/579/1
f 569/558/513 593/580/524 581/569/525
f 570/559/514 594/581/536 582/570/526
f 571/560/515 595/582/537 583/571/527
f 572/561/516 596/583/538 584/572/528
f 573/562/517 597/584/539 585/573/529
f 574/563/518 598/585/540 586/574/530
f 575/564/519 599/586/541 587/575/531
f 576/565/520 600/587/542 588/576/532
f 577/566/521 601/588/543 589/577/533
f 581/569/525 604/589/1 592/579/1
f 582/570/526 605/590/1 593/580/524
f 583/571/527 606/591/523 594/581/536
f 584/572/528 607/592/546 595/582/537
f 585/573/529 608/593/523 596/583/538
f 586/574/530 609/594/523 597/584/539
f 587/575/531 610/595/524 598/585/540
f 588/576/532 611/596/547 599/586/541
f 589/577/533 612/597/548 600/587/542
f 621/598/550 536/523/480 520/507/464
f 622/599/551 503/453/447 552/525/496
f 592/579/1 579/600/523 538/527/482
f 604/589/1 605/590/1 613/601/1
f 605/590/1 606/591/523 614/602/1
f 595/582/537 615/603/1 606/591/523
f 607/592/546 608/593/523 616/604/1
f 597/584/539 617/605/1 608/593/523
f 598/585/540 618/606/1 609/594/523
f 610/595/524 611/596/547 619/607/1
f 611/596/547 612/597/548 620/608/549
f 613/601/1 614/602/1 623/609/1
f 614/602/1 615/603/1 624/610/1
f 615/603/1 616/604/1 625/611/1
f 616/604/1 617/605/1 626/612/1
f 617/605/1 618/606/1 627/613/1
f 618/606/1 619/607/1 628/614/1
f 619/607/1 620/608/549 629/615/1
f 602/616/544 638/617/553 622/599/551
f 623/609/1 624/610/1 632/618/1
f 615/603/1 633/619/1 624/610/1
f 616/604/1 634/620/1 625/611/1
f 617/605/1 635/621/1 626/612/1
f 618/606/1 636/622/1 627/613/1
f 628/614/1 629/615/1 637/623/1
f 579/600/523 603/624/545 521/508/465
f 622/599/551 621/598/550 566/541/510
f 624/610/1 640/625/1 632/618/1
f 625/611/1 641/626/1 633/619/1
f 626/612/1 642/627/1 634/620/1
f 627/613/1 643/628/1 635/621/1
f 628/614/1 644/629/1 636/622/1
f 657/630/523 620/608/549 590/578/534
f 640/625/1 641/626/1 645/631/1
f 641/626/1 642/627/1 646/632/1
f 635/621/1 647/633/1 642/627/1
f 643/628/1 644/629/1 648/634/1
f 603/624/545 630/635/552 591/636/535
f 645/631/1 646/632/1 650/637/1
f 642/627/1 651/638/1 646/632/1
f 647/633/1 648/634/1 652/639/1
f 650/637/1 651/638/1 655/640/1
f 651/638/1 652/639/1 656/641/1
f 613/601/1 632/618/1 631/642/1
f 630/635/552 649/643/554 659/644/557
f 655/640/1 656/641/1 658/645/556
f 664/646/562 621/598/550 653/647/555
f 631/642/1 639/648/1 579/600/523
f 663/649/561 652/639/1 644/629/1
f 639/648/1 649/643/554 603/624/545
f 638/617/553 653/647/555 622/599/551
f 640/625/1 650/637/1 658/645/556
f 660/650/558 661/651/559 639/648/1
f 666/652/564 649/643/554 661/651/559
f 667/653/565 661/651/559 668/654/566
f 660/650/558 679/655/573 668/654/566
f 671/656/568 662/657/560 672/658/569
f 672/658/569 658/645/556 663/649/561
f 672/658/569 663/649/561 673/659/570
f 663/649/561 664/646/562 674/660/570
f 674/660/570 664/646/562 675/661/570
f 2/662/2 21/12/19 16/14/14
f 664/646/562 665/663/563 676/664/571
f 10/665/3 11/8/10 15/4/13
f 676/664/571 665/663/563 677/666/1
f 6/667/6 7/668/7 13/15/11
f 6/667/6 19/17/17 5/669/5
f 7/668/7 20/11/18 13/15/11
f 5/669/5 25/31/22 4/1/4
f 2/662/2 3/670/3 14/3/12
f 678/671/572 662/657/560 671/656/568
f 678/671/572 631/642/1 654/672/1
f 678/671/572 669/673/567 679/655/573
f 14/3/12 3/670/3 4/1/4
f 4/1/4 25/31/22 39/2/26
f 9/6/9 10/665/3 15/4/13
f 15/4/13 23/28/1 17/5/15
f 11/8/10 12/674/1 18/7/16
f 18/7/16 22/21/20 15/4/13
f 8/9/8 17/5/15 27/10/23
f 13/15/11 20/11/18 26/16/1
f 26/16/1 28/23/1 31/18/1
f 31/18/1 35/32/1 40/19/1
f 40/19/1 25/31/22 19/17/17
f 19/17/17 26/16/1 31/18/1
f 26/16/1 20/11/18 27/10/23
f 27/10/23 44/675/1 38/35/1
f 33/22/1 29/24/1 26/16/1
f 27/10/23 38/35/1 33/22/1
f 28/23/1 26/16/1 29/24/1
f 31/18/1 28/23/1 32/25/1
f 32/25/1 29/24/1 33/22/1
f 22/21/20 45/65/27 23/28/1
f 40/19/1 46/42/1 53/29/1
f 53/29/1 60/57/1 69/30/1
f 69/30/1 39/2/26 25/31/22
f 25/31/22 40/19/1 53/29/1
f 35/32/1 31/18/1 36/26/1
f 36/26/1 32/25/1 37/27/1
f 37/27/1 33/22/1 38/35/1
f 68/37/28 21/12/19 14/3/12
f 23/28/1 52/66/1 27/10/23
f 35/32/1 41/33/1 47/38/1
f 41/33/1 36/26/1 42/34/1
f 42/34/1 37/27/1 43/36/1
f 38/35/1 44/675/1 50/41/1
f 46/42/1 40/19/1 47/38/1
f 41/33/1 48/39/1 55/44/1
f 42/34/1 49/40/1 56/45/1
f 43/36/1 50/41/1 57/46/1
f 50/41/1 44/675/1 51/47/1
f 53/29/1 46/42/1 54/43/1
f 47/38/1 55/44/1 62/50/1
f 48/39/1 56/45/1 63/51/1
f 49/40/1 57/46/1 64/52/1
f 50/41/1 58/48/1 65/53/1
f 58/48/1 51/47/1 59/54/1
f 53/29/1 61/49/1 70/56/29
f 54/43/1 62/50/1 71/58/29
f 55/44/1 63/51/1 72/59/1
f 56/45/1 64/52/1 73/60/1
f 57/46/1 65/53/1 74/61/1
f 58/48/1 66/55/1 75/62/1
f 66/55/1 59/54/1 67/63/1
f 34/20/25 88/113/37 45/65/27
f 44/675/1 27/10/23 52/66/1
f 52/66/1 87/676/1 77/74/1
f 52/66/1 77/74/1 67/63/1
f 51/47/1 44/675/1 52/66/1
f 52/66/1 67/63/1 59/54/1
f 60/57/1 70/56/29 79/67/31
f 61/49/1 71/58/29 80/68/32
f 71/58/29 62/50/1 72/59/1
f 72/59/1 63/51/1 73/60/1
f 73/60/1 64/52/1 74/61/1
f 74/61/1 65/53/1 75/62/1
f 75/62/1 66/55/1 76/64/1
f 76/64/1 67/63/1 77/74/1
f 21/12/19 68/37/28 114/76/59
f 114/76/59 30/130/24 24/13/21
f 78/77/30 69/30/1 79/67/31
f 70/56/29 80/68/32 92/79/41
f 71/58/29 81/69/33 93/80/42
f 81/69/33 72/59/1 82/70/34
f 82/70/34 73/60/1 83/71/35
f 83/71/35 74/61/1 84/72/36
f 84/72/36 75/62/1 85/73/29
f 85/73/29 76/64/1 86/75/1
f 77/74/1 87/676/1 99/86/29
f 45/65/27 101/146/1 52/66/1
f 69/30/1 78/77/30 90/87/39
f 90/87/39 102/101/48 115/88/60
f 115/88/60 68/37/28 39/2/26
f 39/2/26 69/30/1 90/87/39
f 78/77/30 91/78/40 103/89/49
f 79/67/31 92/79/41 104/90/50
f 80/68/32 93/80/42 105/91/51
f 81/69/33 94/81/43 106/92/52
f 82/70/34 95/82/44 107/93/53
f 83/71/35 96/83/45 108/94/54
f 84/72/36 97/84/46 109/95/55
f 85/73/29 98/85/47 110/96/56
f 98/85/47 86/75/1 99/86/29
f 99/86/29 87/676/1 100/98/1
f 90/87/39 103/89/49 116/100/61
f 91/78/40 104/90/50 117/102/62
f 92/79/41 105/91/51 118/103/63
f 93/80/42 106/92/52 119/104/64
f 94/81/43 107/93/53 120/105/65
f 95/82/44 108/94/54 121/106/66
f 96/83/45 109/95/55 122/107/67
f 97/84/46 110/96/56 123/108/68
f 98/85/47 111/97/57 124/109/69
f 99/86/29 112/99/58 125/110/70
f 100/98/1 113/127/1 126/111/71
f 115/88/60 128/131/73 143/114/88
f 143/114/88 158/162/102 176/115/120
f 176/115/120 114/76/59 68/37/28
f 68/37/28 115/88/60 143/114/88
f 102/101/48 116/100/61 129/116/74
f 103/89/49 117/102/62 130/117/75
f 104/90/50 118/103/63 131/118/76
f 105/91/51 119/104/64 132/119/77
f 106/92/52 120/105/65 133/120/78
f 107/93/53 121/106/66 134/121/79
f 108/94/54 122/107/67 135/122/80
f 109/95/55 123/108/68 136/123/81
f 110/96/56 124/109/69 137/124/82
f 111/97/57 125/110/70 138/125/83
f 112/99/58 126/111/71 139/126/84
f 113/127/1 127/144/72 140/128/85
f 114/76/59 175/259/119 89/129/38
f 128/131/73 115/88/60 129/116/74
f 116/100/61 130/117/75 145/133/90
f 117/102/62 131/118/76 146/134/91
f 118/103/63 132/119/77 147/135/92
f 119/104/64 133/120/78 148/136/93
f 120/105/65 134/121/79 149/137/94
f 121/106/66 135/122/80 150/138/95
f 122/107/67 136/123/81 151/139/96
f 123/108/68 137/124/82 152/140/97
f 124/109/69 138/125/83 153/141/98
f 125/110/70 139/126/84 154/142/99
f 126/111/71 140/128/85 155/143/100
f 127/144/72 141/160/86 156/145/101
f 88/113/37 174/198/118 101/146/1
f 87/676/1 52/66/1 101/146/1
f 101/146/1 157/261/58 141/160/86
f 101/146/1 141/160/86 127/144/72
f 100/98/1 87/676/1 101/146/1
f 101/146/1 127/144/72 113/127/1
f 128/131/73 144/132/89 159/147/103
f 129/116/74 145/133/90 160/148/104
f 130/117/75 146/134/91 161/149/105
f 131/118/76 147/135/92 162/150/106
f 132/119/77 148/136/93 163/151/107
f 133/120/78 149/137/94 164/152/108
f 134/121/79 150/138/95 165/153/109
f 135/122/80 151/139/96 166/154/110
f 136/123/81 152/140/97 167/155/111
f 137/124/82 153/141/98 168/156/112
f 138/125/83 154/142/99 169/157/113
f 139/126/84 155/143/100 170/158/114
f 140/128/85 156/145/101 171/159/115
f 141/160/86 157/261/58 172/161/116
f 158/162/102 143/114/88 159/147/103
f 144/132/89 160/148/104 178/164/122
f 145/133/90 161/149/105 179/165/123
f 146/134/91 162/150/106 180/166/124
f 147/135/92 163/151/107 181/167/125
f 148/136/93 164/152/108 182/168/126
f 149/137/94 165/153/109 183/169/127
f 150/138/95 166/154/110 184/170/128
f 151/139/96 167/155/111 185/171/129
f 152/140/97 168/156/112 186/172/130
f 153/141/98 169/157/113 187/173/131
f 154/142/99 170/158/114 188/174/132
f 155/143/100 171/159/115 189/175/133
f 156/145/101 172/161/116 190/176/134
f 172/161/116 157/261/58 173/177/117
f 176/115/120 193/199/137 212/179/156
f 212/179/156 231/237/175 253/180/197
f 253/180/197 175/259/119 114/76/59
f 114/76/59 176/115/120 212/179/156
f 158/162/102 177/163/121 194/181/138
f 177/163/121 159/147/103 178/164/122
f 178/164/122 160/148/104 179/165/123
f 179/165/123 161/149/105 180/166/124
f 162/150/106 181/167/125 198/185/142
f 163/151/107 182/168/126 199/186/143
f 164/152/108 183/169/127 200/187/144
f 165/153/109 184/170/128 201/188/145
f 166/154/110 185/171/129 202/189/146
f 167/155/111 186/172/130 203/190/147
f 168/156/112 187/173/131 204/191/148
f 169/157/113 188/174/132 205/192/149
f 170/158/114 189/175/133 206/193/150
f 171/159/115 190/176/134 207/194/151
f 172/161/116 191/178/135 208/195/152
f 173/177/117 192/216/136 209/196/153
f 88/113/37 142/112/87 251/197/195
f 193/199/137 176/115/120 194/181/138
f 194/181/138 177/163/121 195/182/139
f 195/182/139 178/164/122 196/183/140
f 196/183/140 179/165/123 197/184/141
f 197/184/141 180/166/124 198/185/142
f 198/185/142 181/167/125 199/186/143
f 199/186/143 182/168/126 200/187/144
f 183/169/127 201/188/145 220/207/164
f 184/170/128 202/189/146 221/208/165
f 185/171/129 203/190/147 222/209/166
f 186/172/130 204/191/148 223/210/167
f 187/173/131 205/192/149 224/211/168
f 188/174/132 206/193/150 225/212/169
f 189/175/133 207/194/151 226/213/170
f 190/176/134 208/195/152 227/214/171
f 191/178/135 209/196/153 228/215/172
f 192/216/136 210/235/154 229/217/173
f 212/179/156 193/199/137 213/200/157
f 213/200/157 194/181/138 214/201/158
f 214/201/158 195/182/139 215/202/159
f 215/202/159 196/183/140 216/203/160
f 216/203/160 197/184/141 217/204/161
f 217/204/161 198/185/142 218/205/162
f 218/205/162 199/186/143 219/206/163
f 219/206/163 200/187/144 220/207/164
f 220/207/164 201/188/145 221/208/165
f 202/189/146 222/209/166 241/227/185
f 203/190/147 223/210/167 242/228/186
f 204/191/148 224/211/168 243/229/187
f 205/192/149 225/212/169 244/230/188
f 206/193/150 226/213/170 245/231/189
f 207/194/151 227/214/171 246/232/190
f 208/195/152 228/215/172 247/233/191
f 209/196/153 229/217/173 248/234/192
f 210/235/154 230/256/174 249/236/193
f 231/237/175 212/179/156 232/218/176
f 232/218/176 213/200/157 233/219/177
f 233/219/177 214/201/158 234/220/178
f 234/220/178 215/202/159 235/221/179
f 235/221/179 216/203/160 236/222/180
f 236/222/180 217/204/161 237/223/181
f 237/223/181 218/205/162 238/224/182
f 238/224/182 219/206/163 239/225/183
f 239/225/183 220/207/164 240/226/184
f 240/226/184 221/208/165 241/227/185
f 241/227/185 222/209/166 242/228/186
f 223/210/167 243/229/187 265/249/209
f 224/211/168 244/230/188 266/250/210
f 225/212/169 245/231/189 267/251/211
f 226/213/170 246/232/190 268/252/212
f 227/214/171 247/233/191 269/253/213
f 228/215/172 248/234/192 270/254/214
f 229/217/173 249/236/193 271/255/215
f 230/256/174 250/306/194 272/257/216
f 211/258/155 89/129/38 175/259/119
f 157/261/58 101/146/1 174/198/118
f 174/198/118 250/306/194 230/256/174
f 230/256/174 210/235/154 192/216/136
f 192/216/136 173/177/117 157/261/58
f 157/261/58 174/198/118 230/256/174
f 231/237/175 254/238/198 275/262/219
f 254/238/198 232/218/176 255/239/199
f 255/239/199 233/219/177 256/240/200
f 256/240/200 234/220/178 257/241/201
f 257/241/201 235/221/179 258/242/202
f 258/242/202 236/222/180 259/243/203
f 259/243/203 237/223/181 260/244/204
f 260/244/204 238/224/182 261/245/205
f 261/245/205 239/225/183 262/246/206
f 262/246/206 240/226/184 263/247/207
f 263/247/207 241/227/185 264/248/208
f 264/248/208 242/228/186 265/249/209
f 265/249/209 243/229/187 266/250/210
f 266/250/210 244/230/188 267/251/211
f 245/231/189 268/252/212 289/276/233
f 246/232/190 269/253/213 290/277/234
f 247/233/191 270/254/214 291/278/235
f 248/234/192 271/255/215 292/279/236
f 249/236/193 272/257/216 293/280/237
f 272/257/216 250/306/194 273/281/217
f 274/283/218 339/412/283 251/197/195
f 275/262/219 254/238/198 276/263/220
f 276/263/220 255/239/199 277/264/221
f 277/264/221 256/240/200 278/265/222
f 278/265/222 257/241/201 279/266/223
f 279/266/223 258/242/202 280/267/224
f 280/267/224 259/243/203 281/268/225
f 281/268/225 260/244/204 282/269/226
f 282/269/226 261/245/205 283/270/227
f 283/270/227 262/246/206 284/271/228
f 284/271/228 263/247/207 285/272/229
f 285/272/229 264/248/208 286/273/230
f 286/273/230 265/249/209 287/274/231
f 287/274/231 266/250/210 288/275/232
f 288/275/232 267/251/211 289/276/233
f 289/276/233 268/252/212 290/277/234
f 269/253/213 291/278/235 312/300/256
f 270/254/214 292/279/236 313/301/257
f 271/255/215 293/280/237 314/302/258
f 293/280/237 272/257/216 294/282/238
f 294/282/238 273/281/217 295/304/239
f 250/306/194 174/198/118 251/197/195
f 251/197/195 338/677/282 317/326/261
f 295/304/239 273/281/217 250/306/194
f 251/197/195 317/326/261 295/304/239
f 297/285/241 276/263/220 298/286/242
f 298/286/242 277/264/221 299/287/243
f 299/287/243 278/265/222 300/288/244
f 300/288/244 279/266/223 301/289/245
f 301/289/245 280/267/224 302/290/246
f 302/290/246 281/268/225 303/291/247
f 303/291/247 282/269/226 304/292/248
f 304/292/248 283/270/227 305/293/249
f 305/293/249 284/271/228 306/294/250
f 306/294/250 285/272/229 307/295/251
f 307/295/251 286/273/230 308/296/252
f 308/296/252 287/274/231 309/297/253
f 309/297/253 288/275/232 310/298/254
f 310/298/254 289/276/233 311/299/255
f 311/299/255 290/277/234 312/300/256
f 312/300/256 291/278/235 313/301/257
f 313/301/257 292/279/236 314/302/258
f 314/302/258 293/280/237 315/303/259
f 315/303/259 294/282/238 316/305/260
f 316/305/260 295/304/239 317/326/261
f 318/307/262 298/286/242 319/308/263
f 319/308/263 299/287/243 320/309/264
f 320/309/264 300/288/244 321/310/265
f 321/310/265 301/289/245 322/311/266
f 322/311/266 302/290/246 323/312/267
f 323/312/267 303/291/247 324/313/268
f 324/313/268 304/292/248 325/314/269
f 325/314/269 305/293/249 326/315/270
f 326/315/270 306/294/250 327/316/271
f 327/316/271 307/295/251 328/317/272
f 328/317/272 308/296/252 329/318/273
f 329/318/273 309/297/253 330/319/274
f 330/319/274 310/298/254 331/320/275
f 331/320/275 311/299/255 332/321/276
f 332/321/276 312/300/256 333/322/277
f 333/322/277 313/301/257 334/323/278
f 334/323/278 314/302/258 335/324/279
f 335/324/279 315/303/259 336/325/280
f 336/325/280 316/305/260 337/327/281
f 317/326/261 338/677/282 360/347/304
f 253/180/197 340/369/284 252/260/196
f 319/308/263 342/329/286 362/348/306
f 342/329/286 320/309/264 343/330/287
f 343/330/287 321/310/265 344/331/288
f 344/331/288 322/311/266 345/332/289
f 345/332/289 323/312/267 346/333/290
f 346/333/290 324/313/268 347/334/291
f 347/334/291 325/314/269 348/335/292
f 348/335/292 326/315/270 349/336/293
f 349/336/293 327/316/271 350/337/294
f 350/337/294 328/317/272 351/338/295
f 351/338/295 329/318/273 352/339/296
f 352/339/296 330/319/274 353/340/297
f 353/340/297 331/320/275 354/341/298
f 354/341/298 332/321/276 355/342/299
f 355/342/299 333/322/277 356/343/300
f 356/343/300 334/323/278 357/344/301
f 357/344/301 335/324/279 358/345/302
f 358/345/302 336/325/280 359/346/303
f 359/346/303 337/327/281 360/347/304
f 360/347/304 338/677/282 361/367/305
f 253/180/197 275/262/219 297/285/241
f 297/285/241 318/307/262 341/328/285
f 341/328/285 426/555/370 340/369/284
f 340/369/284 253/180/197 297/285/241
f 362/348/306 342/329/286 363/349/307
f 363/349/307 343/330/287 364/350/308
f 364/350/308 344/331/288 365/351/309
f 365/351/309 345/332/289 366/352/310
f 366/352/310 346/333/290 367/353/311
f 367/353/311 347/334/291 368/354/312
f 368/354/312 348/335/292 369/355/313
f 369/355/313 349/336/293 370/356/314
f 370/356/314 350/337/294 371/357/315
f 371/357/315 351/338/295 372/358/316
f 372/358/316 352/339/296 373/359/317
f 373/359/317 353/340/297 374/360/318
f 374/360/318 354/341/298 375/361/319
f 375/361/319 355/342/299 376/362/320
f 376/362/320 356/343/300 377/363/321
f 377/363/321 357/344/301 378/364/322
f 378/364/322 358/345/302 379/365/323
f 379/365/323 359/346/303 380/366/324
f 380/366/324 360/347/304 381/368/325
f 381/368/325 361/367/305 382/389/326
f 383/370/327 363/349/307 384/371/328
f 384/371/328 364/350/308 385/372/329
f 385/372/329 365/351/309 386/373/330
f 386/373/330 366/352/310 387/374/331
f 387/374/331 367/353/311 388/375/332
f 388/375/332 368/354/312 389/376/333
f 389/376/333 369/355/313 390/377/334
f 390/377/334 370/356/314 391/378/335
f 391/378/335 371/357/315 392/379/336
f 392/379/336 372/358/316 393/380/337
f 393/380/337 373/359/317 394/381/338
f 394/381/338 374/360/318 395/382/339
f 395/382/339 375/361/319 396/383/340
f 396/383/340 376/362/320 397/384/341
f 397/384/341 377/363/321 398/385/342
f 398/385/342 378/364/322 399/386/343
f 399/386/343 379/365/323 400/387/344
f 400/387/344 380/366/324 401/388/345
f 401/388/345 381/368/325 402/390/346
f 402/390/346 382/389/326 403/410/347
f 338/677/282 251/197/195 339/412/283
f 339/412/283 425/454/369 403/410/347
f 403/410/347 382/389/326 361/367/305
f 361/367/305 338/677/282 339/412/283
f 405/391/349 384/371/328 406/392/350
f 406/392/350 385/372/329 407/393/351
f 407/393/351 386/373/330 408/394/352
f 408/394/352 387/374/331 409/395/353
f 409/395/353 388/375/332 410/396/354
f 410/396/354 389/376/333 411/397/355
f 411/397/355 390/377/334 412/398/356
f 412/398/356 391/378/335 413/399/357
f 413/399/357 392/379/336 414/400/358
f 414/400/358 393/380/337 415/401/359
f 415/401/359 394/381/338 416/402/360
f 416/402/360 395/382/339 417/403/361
f 417/403/361 396/383/340 418/404/362
f 418/404/362 397/384/341 419/405/363
f 419/405/363 398/385/342 420/406/364
f 420/406/364 399/386/343 421/407/365
f 421/407/365 400/387/344 422/408/366
f 422/408/366 401/388/345 423/409/367
f 423/409/367 402/390/346 424/411/368
f 403/410/347 425/454/369 446/433/390
f 427/414/371 406/392/350 428/415/372
f 407/393/351 429/416/373 449/435/393
f 408/394/352 430/417/374 450/436/394
f 409/395/353 431/418/375 451/437/395
f 410/396/354 432/419/376 452/438/396
f 432/419/376 411/397/355 433/420/377
f 433/420/377 412/398/356 434/421/378
f 434/421/378 413/399/357 435/422/379
f 435/422/379 414/400/358 436/423/380
f 436/423/380 415/401/359 437/424/381
f 437/424/381 416/402/360 438/425/382
f 438/425/382 417/403/361 439/426/383
f 439/426/383 418/404/362 440/427/384
f 440/427/384 419/405/363 441/428/385
f 441/428/385 420/406/364 442/429/386
f 442/429/386 421/407/365 443/430/387
f 443/430/387 422/408/366 444/431/388
f 444/431/388 423/409/367 445/432/389
f 445/432/389 424/411/368 446/433/390
f 425/454/369 339/412/283 404/413/348
f 404/413/348 447/524/391 503/453/447
f 428/415/372 449/435/393 467/455/411
f 429/416/373 450/436/394 468/456/412
f 430/417/374 451/437/395 469/457/413
f 431/418/375 452/438/396 470/458/414
f 432/419/376 453/439/397 471/459/415
f 433/420/377 454/440/398 472/460/416
f 434/421/378 455/441/399 473/461/417
f 435/422/379 456/442/400 474/462/418
f 456/442/400 436/423/380 457/443/401
f 457/443/401 437/424/381 458/444/402
f 458/444/402 438/425/382 459/445/403
f 459/445/403 439/426/383 460/446/404
f 460/446/404 440/427/384 461/447/405
f 461/447/405 441/428/385 462/448/406
f 462/448/406 442/429/386 463/449/407
f 463/449/407 443/430/387 464/450/408
f 464/450/408 444/431/388 465/451/409
f 465/451/409 445/432/389 466/452/410
f 340/369/284 426/555/370 537/473/481
f 340/369/284 485/474/429 296/284/240
f 449/435/393 468/456/412 486/475/430
f 450/436/394 469/457/413 487/476/431
f 451/437/395 470/458/414 488/477/432
f 452/438/396 471/459/415 489/478/433
f 453/439/397 472/460/416 490/479/434
f 454/440/398 473/461/417 491/480/435
f 455/441/399 474/462/418 492/481/436
f 456/442/400 475/463/419 493/482/437
f 457/443/401 476/464/420 494/483/438
f 458/444/402 477/465/421 495/484/439
f 459/445/403 478/466/422 496/485/440
f 460/446/404 479/467/423 497/486/441
f 461/447/405 480/468/424 498/487/442
f 462/448/406 481/469/425 499/488/443
f 481/469/425 463/449/407 482/470/426
f 482/470/426 464/450/408 483/471/427
f 483/471/427 465/451/409 484/472/428
f 468/456/412 487/476/431 505/492/449
f 469/457/413 488/477/432 506/493/450
f 470/458/414 489/478/433 507/494/451
f 471/459/415 490/479/434 508/495/452
f 472/460/416 491/480/435 509/496/453
f 473/461/417 492/481/436 510/497/454
f 474/462/418 493/482/437 511/498/455
f 475/463/419 494/483/438 512/499/456
f 476/464/420 495/484/439 513/500/457
f 477/465/421 496/485/440 514/501/458
f 478/466/422 497/486/441 515/502/459
f 479/467/423 498/487/442 516/503/460
f 480/468/424 499/488/443 517/504/461
f 481/469/425 500/489/444 518/505/462
f 500/489/444 482/470/426 501/490/445
f 483/471/427 502/491/446 520/507/464
f 341/328/285 362/348/306 383/370/327
f 405/391/349 427/414/371 448/434/392
f 341/328/285 383/370/327 405/391/349
f 521/508/465 426/555/370 341/328/285
f 405/391/349 448/434/392 521/508/465
f 505/492/449 487/476/431 506/493/450
f 488/477/432 507/494/451 523/510/467
f 489/478/433 508/495/452 524/511/468
f 490/479/434 509/496/453 525/512/469
f 491/480/435 510/497/454 526/513/470
f 492/481/436 511/498/455 527/514/471
f 493/482/437 512/499/456 528/515/472
f 494/483/438 513/500/457 529/516/473
f 495/484/439 514/501/458 530/517/474
f 496/485/440 515/502/459 531/518/475
f 497/486/441 516/503/460 532/519/476
f 498/487/442 517/504/461 533/520/477
f 499/488/443 518/505/462 534/521/478
f 500/489/444 519/506/463 535/522/479
f 519/506/463 501/490/445 520/507/464
f 537/473/481 591/636/535 504/526/448
f 506/493/450 523/510/467 538/527/482
f 507/494/451 524/511/468 539/528/483
f 508/495/452 525/512/469 540/529/484
f 509/496/453 526/513/470 541/530/485
f 510/497/454 527/514/471 542/531/486
f 511/498/455 528/515/472 543/532/487
f 512/499/456 529/516/473 544/533/488
f 513/500/457 530/517/474 545/534/489
f 514/501/458 531/518/475 546/535/490
f 515/502/459 532/519/476 547/536/491
f 516/503/460 533/520/477 548/537/492
f 517/504/461 534/521/478 549/538/493
f 518/505/462 535/522/479 550/539/494
f 519/506/463 536/523/480 551/540/495
f 425/454/369 503/453/447 566/541/510
f 566/541/510 502/491/446 484/472/428
f 484/472/428 466/452/410 446/433/390
f 446/433/390 425/454/369 566/541/510
f 523/510/467 539/528/483 553/542/497
f 524/511/468 540/529/484 554/543/498
f 525/512/469 541/530/485 555/544/499
f 526/513/470 542/531/486 556/545/500
f 527/514/471 543/532/487 557/546/501
f 528/515/472 544/533/488 558/547/502
f 529/516/473 545/534/489 559/548/503
f 530/517/474 546/535/490 560/549/504
f 531/518/475 547/536/491 561/550/505
f 532/519/476 548/537/492 562/551/506
f 533/520/477 549/538/493 563/552/507
f 534/521/478 550/539/494 564/553/508
f 535/522/479 551/540/495 565/554/509
f 521/508/465 603/624/545 537/473/481
f 539/528/483 554/543/498 567/556/511
f 540/529/484 555/544/499 568/557/512
f 541/530/485 556/545/500 569/558/513
f 542/531/486 557/546/501 570/559/514
f 543/532/487 558/547/502 571/560/515
f 544/533/488 559/548/503 572/561/516
f 545/534/489 560/549/504 573/562/517
f 546/535/490 561/550/505 574/563/518
f 547/536/491 562/551/506 575/564/519
f 548/537/492 563/552/507 576/565/520
f 549/538/493 564/553/508 577/566/521
f 564/553/508 550/539/494 565/554/509
f 448/434/392 467/455/411 486/475/430
f 486/475/430 505/492/449 522/509/466
f 522/509/466 579/600/523 521/508/465
f 521/508/465 448/434/392 486/475/430
f 554/543/498 568/557/512 580/568/524
f 555/544/499 569/558/513 581/569/525
f 556/545/500 570/559/514 582/570/526
f 557/546/501 571/560/515 583/571/527
f 558/547/502 572/561/516 584/572/528
f 559/548/503 573/562/517 585/573/529
f 560/549/504 574/563/518 586/574/530
f 561/550/505 575/564/519 587/575/531
f 562/551/506 576/565/520 588/576/532
f 563/552/507 577/566/521 589/577/533
f 564/553/508 578/567/522 590/578/534
f 580/568/524 568/557/512 581/569/525
f 569/558/513 582/570/526 593/580/524
f 570/559/514 583/571/527 594/581/536
f 571/560/515 584/572/528 595/582/537
f 572/561/516 585/573/529 596/583/538
f 573/562/517 586/574/530 597/584/539
f 574/563/518 587/575/531 598/585/540
f 575/564/519 588/576/532 599/586/541
f 576/565/520 589/577/533 600/587/542
f 577/566/521 590/578/534 601/588/543
f 581/569/525 593/580/524 604/589/1
f 582/570/526 594/581/536 605/590/1
f 583/571/527 595/582/537 606/591/523
f 584/572/528 596/583/538 607/592/546
f 585/573/529 597/584/539 608/593/523
f 586/574/530 598/585/540 609/594/523
f 587/575/531 599/586/541 610/595/524
f 588/576/532 600/587/542 611/596/547
f 589/577/533 601/588/543 612/597/548
f 502/491/446 566/541/510 621/598/550
f 621/598/550 578/567/522 565/554/509
f 621/598/550 565/554/509 551/540/495
f 520/507/464 502/491/446 621/598/550
f 621/598/550 551/540/495 536/523/480
f 552/525/496 602/616/544 622/599/551
f 622/599/551 566/541/510 503/453/447
f 538/527/482 553/542/497 567/556/511
f 567/556/511 580/568/524 592/579/1
f 592/579/1 631/642/1 579/600/523
f 579/600/523 522/509/466 538/527/482
f 538/527/482 567/556/511 592/579/1
f 604/589/1 593/580/524 605/590/1
f 605/590/1 594/581/536 606/591/523
f 595/582/537 607/592/546 615/603/1
f 607/592/546 596/583/538 608/593/523
f 597/584/539 609/594/523 617/605/1
f 598/585/540 610/595/524 618/606/1
f 610/595/524 599/586/541 611/596/547
f 611/596/547 600/587/542 612/597/548
f 613/601/1 605/590/1 614/602/1
f 614/602/1 606/591/523 615/603/1
f 615/603/1 607/592/546 616/604/1
f 616/604/1 608/593/523 617/605/1
f 617/605/1 609/594/523 618/606/1
f 618/606/1 610/595/524 619/607/1
f 619/607/1 611/596/547 620/608/549
f 623/609/1 614/602/1 624/610/1
f 615/603/1 625/611/1 633/619/1
f 616/604/1 626/612/1 634/620/1
f 617/605/1 627/613/1 635/621/1
f 618/606/1 628/614/1 636/622/1
f 628/614/1 619/607/1 629/615/1
f 579/600/523 639/648/1 603/624/545
f 622/599/551 653/647/555 621/598/550
f 624/610/1 633/619/1 640/625/1
f 625/611/1 634/620/1 641/626/1
f 626/612/1 635/621/1 642/627/1
f 627/613/1 636/622/1 643/628/1
f 628/614/1 637/623/1 644/629/1
f 578/567/522 621/598/550 657/630/523
f 657/630/523 637/623/1 629/615/1
f 620/608/549 612/597/548 601/588/543
f 657/630/523 629/615/1 620/608/549
f 590/578/534 578/567/522 657/630/523
f 620/608/549 601/588/543 590/578/534
f 640/625/1 633/619/1 641/626/1
f 641/626/1 634/620/1 642/627/1
f 635/621/1 643/628/1 647/633/1
f 643/628/1 636/622/1 644/629/1
f 591/636/535 537/473/481 603/624/545
f 603/624/545 649/643/554 630/635/552
f 645/631/1 641/626/1 646/632/1
f 642/627/1 647/633/1 651/638/1
f 647/633/1 643/628/1 648/634/1
f 650/637/1 646/632/1 651/638/1
f 651/638/1 647/633/1 652/639/1
f 592/579/1 604/589/1 613/601/1
f 613/601/1 623/609/1 632/618/1
f 632/618/1 654/672/1 631/642/1
f 631/642/1 592/579/1 613/601/1
f 655/640/1 651/638/1 656/641/1
f 664/646/562 657/630/523 621/598/550
f 631/642/1 660/650/558 639/648/1
f 637/623/1 657/630/523 663/649/561
f 663/649/561 658/645/556 656/641/1
f 652/639/1 648/634/1 644/629/1
f 663/649/561 656/641/1 652/639/1
f 644/629/1 637/623/1 663/649/561
f 639/648/1 661/651/559 649/643/554
f 638/617/553 665/663/563 653/647/555
f 658/645/556 662/657/560 654/672/1
f 654/672/1 632/618/1 640/625/1
f 640/625/1 645/631/1 650/637/1
f 650/637/1 655/640/1 658/645/556
f 658/645/556 654/672/1 640/625/1
f 660/650/558 668/654/566 661/651/559
f 661/651/559 667/653/565 666/652/564
f 666/652/564 659/644/557 649/643/554
f 660/650/558 678/671/572 679/655/573
f 672/658/569 662/657/560 658/645/556
f 674/660/570 673/659/570 663/649/561
f 663/649/561 657/630/523 664/646/562
f 16/14/14 1/678/1 2/662/2
f 2/662/2 14/3/12 21/12/19
f 676/664/571 675/661/570 664/646/562
f 664/646/562 653/647/555 665/663/563
f 6/667/6 13/15/11 19/17/17
f 7/668/7 8/9/8 20/11/18
f 5/669/5 19/17/17 25/31/22
f 671/656/568 670/679/567 678/671/572
f 678/671/572 654/672/1 662/657/560
f 678/671/572 660/650/558 631/642/1
f 678/671/572 670/679/567 669/673/567
