# Blender 4.5.3 LTS
# www.blender.org
o polyp_12
v -1.000000 0.000000 1.000000
v -0.671875 0.000000 1.000000
v -0.328125 0.000000 1.000000
v 0.015625 0.000000 1.000000
v 0.359375 0.000000 1.000000
v 0.671875 0.000000 1.000000
v 1.000000 0.000000 1.000000
v 0.062022 0.002987 0.876816
v 0.194211 0.002987 0.808823
v 0.543369 0.002988 0.813176
v -0.528076 0.002987 0.802979
v 0.365031 0.003011 0.685049
v -0.038092 0.003096 0.725643
v 0.060908 0.002988 0.716395
v -1.000000 0.000000 0.671875
v 1.000000 0.000000 0.671875
v -0.341707 0.003118 0.677118
v 0.022199 0.002998 0.645137
v 0.164997 0.002993 0.683475
v -0.022734 0.003042 0.629702
v 0.107398 0.003002 0.637539
v 0.208347 0.003025 0.603811
v -0.052634 0.003291 0.568989
v -0.218773 0.004790 0.561686
v 0.063195 0.003052 0.590154
v 0.154332 0.003068 0.575306
v -0.111735 0.003930 0.542074
v 0.239917 0.003091 0.559223
v 0.024758 0.003265 0.557822
v -0.118440 0.005568 0.503890
v 0.113398 0.003293 0.536017
v 0.199191 0.003221 0.524679
v 0.299708 0.003066 0.573533
v -0.006022 0.003943 0.521407
v 0.263884 0.003165 0.507187
v 0.810401 0.002937 0.541459
v -0.800230 0.003012 0.530617
v -0.167205 0.007278 0.493831
v 0.078370 0.004086 0.501154
v -0.364453 0.011133 0.376852
v -0.041528 0.005545 0.491401
v 0.162112 0.003881 0.485110
v 0.239735 0.003391 0.475422
v 0.298025 0.003130 0.487362
v -0.193668 0.010793 0.465987
v 0.046822 0.006037 0.468749
v 0.409000 0.003206 0.477254
v 0.478581 0.003082 0.491152
v -0.070013 0.008615 0.457426
v 0.128717 0.005986 0.450556
v 0.275638 0.003589 0.438071
v 0.329101 0.003176 0.430290
v -0.212836 0.017321 0.404799
v 0.014909 0.009678 0.437713
v 0.206399 0.004806 0.437844
v -0.106349 0.013175 0.428373
v 0.097461 0.010400 0.420003
v 0.305853 0.004140 0.400460
v 0.369260 0.003407 0.408959
v -0.267319 0.019107 0.376666
v -0.016715 0.015185 0.405874
v 0.174682 0.009039 0.405895
v 0.243267 0.006244 0.400221
v 0.461292 0.003558 0.417611
v -0.138822 0.019226 0.395720
v 0.066243 0.017318 0.390727
v 0.336850 0.005314 0.371033
v 0.388736 0.004107 0.364239
v -0.270852 0.024985 0.341331
v -0.049913 0.022210 0.374785
v 0.144302 0.017114 0.379204
v 0.212890 0.013358 0.372331
v 0.275069 0.008729 0.369292
v 0.494154 0.003868 0.351561
v -0.167786 0.026053 0.358842
v 0.034840 0.026081 0.361802
v 0.364559 0.007045 0.339440
v 0.429333 0.004605 0.349085
v 1.000000 0.000000 0.359375
v -0.314136 0.023151 0.327512
v -0.083565 0.029962 0.343528
v 0.113609 0.028611 0.354066
v 0.183837 0.025951 0.350430
v 0.246773 0.019467 0.346269
v 0.306124 0.012382 0.342051
v 0.551813 0.003383 0.318875
v 0.661727 0.003038 0.338165
v -1.000000 0.000000 0.328125
v -0.640621 0.003484 0.379602
v -0.201497 0.031302 0.330152
v 0.002866 0.035591 0.333557
v 0.396803 0.008923 0.312612
v 0.461981 0.005093 0.314708
v -0.328532 0.026563 0.281426
v -0.116717 0.037334 0.313000
v 0.082908 0.041873 0.329063
v 0.154219 0.042975 0.329380
v 0.219784 0.037213 0.328273
v 0.279932 0.027072 0.322264
v 0.336739 0.016665 0.315033
v 0.558699 0.003043 0.279604
v -0.226489 0.036038 0.299324
v -0.030337 0.044778 0.306212
v 0.428482 0.010398 0.282614
v 0.497661 0.004803 0.282959
v -0.365705 0.021760 0.272026
v -0.149205 0.043264 0.285499
v 0.052459 0.055064 0.304366
v 0.124664 0.061778 0.306993
v 0.192052 0.060305 0.309398
v 0.255496 0.049949 0.306025
v 0.312893 0.034922 0.297214
v 0.367983 0.020766 0.288031
v 0.600534 0.003008 0.263246
v -0.258972 0.037776 0.273217
v -0.064838 0.052793 0.280194
v 0.461262 0.010856 0.251833
v 0.526105 0.003472 0.247837
v -0.531116 0.007766 0.247824
v -0.394520 0.022577 0.207555
v -0.179658 0.047712 0.258891
v 0.021259 0.067001 0.280339
v 0.095947 0.079625 0.283450
v 0.164183 0.084926 0.287074
v 0.230159 0.078604 0.286804
v 0.290847 0.061928 0.280678
v 0.345067 0.041706 0.270538
v 0.399365 0.023996 0.259840
v 0.613113 0.002957 0.217323
v -0.288292 0.038769 0.237920
v -0.099786 0.059150 0.255900
v 0.493672 0.010016 0.220120
v 0.558484 0.003013 0.218011
v -0.452339 0.017180 0.186200
v -0.211498 0.050441 0.232104
v -0.012031 0.077146 0.257157
v 0.067169 0.094979 0.259632
v 0.137149 0.107121 0.261870
v 0.204243 0.107845 0.262154
v 0.267695 0.094381 0.259142
v 0.324267 0.071281 0.252617
v 0.376139 0.046786 0.242797
v 0.431391 0.025958 0.230911
v 0.645310 0.002954 0.214583
v -0.324631 0.036525 0.205403
v -0.134473 0.063810 0.232355
v 0.525794 0.008211 0.190049
v 0.584393 0.002956 0.185449
v -0.611779 0.006120 0.139838
v -0.245447 0.051545 0.200606
v -0.047822 0.085251 0.234776
v 0.036304 0.107471 0.236144
v 0.110183 0.124792 0.235604
v 0.178655 0.132523 0.233346
v 0.243420 0.125791 0.230669
v 0.302241 0.105274 0.228078
v 0.354930 0.077579 0.223628
v 0.406724 0.050251 0.214643
v 0.464067 0.026640 0.201647
v 0.671418 0.002942 0.161357
v -0.477009 0.015392 0.157264
v -0.356593 0.034354 0.163363
v -0.169717 0.066816 0.207233
v 0.555692 0.006350 0.161043
v 0.613129 0.002930 0.161699
v 0.833898 0.003040 0.191328
v -0.844217 0.003088 0.173168
v -0.283005 0.050485 0.165429
v -0.085551 0.091125 0.212502
v 0.001852 0.117220 0.213158
v 0.081151 0.137831 0.209826
v 0.152762 0.150356 0.203266
v 0.218769 0.150375 0.197297
v 0.278658 0.136327 0.195560
v 0.332519 0.111347 0.196594
v 0.383670 0.081658 0.194736
v 0.437831 0.052669 0.186054
v 0.497040 0.026491 0.172543
v 0.731583 0.002989 0.144981
v -0.482661 0.016376 0.105786
v -0.392266 0.031051 0.130735
v -0.206861 0.068075 0.177790
v 0.584667 0.005415 0.133998
v 0.639923 0.002936 0.132069
v -0.319744 0.048208 0.128045
v -0.124539 0.094623 0.188528
v -0.036099 0.124317 0.190291
v 0.048216 0.147153 0.185247
v 0.124698 0.162003 0.174620
v 0.193426 0.166436 0.163001
v 0.254162 0.158771 0.157840
v 0.308478 0.140415 0.160938
v 0.359705 0.114371 0.166044
v 0.412407 0.084884 0.165307
v 0.470091 0.054764 0.156417
v 0.529466 0.026245 0.143404
v -0.528373 0.012943 0.092497
v -0.246423 0.067457 0.143587
v 0.613020 0.005528 0.105492
v 0.675822 0.002979 0.107302
v 0.757542 0.003018 0.132928
v -0.420289 0.028674 0.098474
v -0.354041 0.045499 0.093363
v -0.164686 0.095810 0.160512
v -0.076210 0.128797 0.166156
v 0.011222 0.153815 0.161472
v 0.092711 0.169605 0.148739
v 0.166133 0.176032 0.131730
v 0.229039 0.172107 0.120006
v 0.283438 0.159817 0.120115
v 0.334574 0.140809 0.128461
v 0.386560 0.116453 0.135174
v 0.442755 0.088330 0.133730
v 0.503261 0.056886 0.124862
v 0.560688 0.026252 0.113508
v -0.545948 0.013164 0.052648
v -0.286351 0.065408 0.106649
v 0.646834 0.006053 0.071994
v -0.440501 0.027186 0.068319
v -0.206103 0.095000 0.127180
v -0.117207 0.130886 0.138461
v -0.028249 0.158619 0.136722
v 0.056434 0.175329 0.124775
v 0.135227 0.182813 0.105238
v 0.202931 0.180127 0.087001
v 0.258445 0.170440 0.080046
v 0.308833 0.157054 0.085912
v 0.360464 0.140024 0.096333
v 0.415302 0.118791 0.101505
v 0.475026 0.091802 0.098599
v 0.536279 0.058216 0.090613
v 0.590795 0.025674 0.080986
v 0.706331 0.003021 0.084529
v -0.620250 0.009605 0.029058
v -0.383016 0.042978 0.061328
v -0.323511 0.062396 0.069333
v -0.745034 0.004182 0.025617
v -0.468378 0.025258 0.047112
v -0.248115 0.092462 0.088904
v -0.158712 0.130942 0.105157
v -0.068258 0.162064 0.108231
v 0.017374 0.180440 0.099741
v 0.099581 0.189765 0.081604
v 0.174075 0.188033 0.060254
v 0.234158 0.177602 0.045836
v 0.284027 0.165199 0.044445
v 0.334319 0.152932 0.052859
v 0.388554 0.139015 0.061405
v 0.446268 0.120619 0.063354
v 0.508189 0.093146 0.059616
v 0.568267 0.056237 0.052838
v 0.623424 0.022679 0.041772
v 0.691720 0.005989 0.024460
v -0.404926 0.041176 0.034860
v 1.000000 0.000000 0.015625
v -0.665700 0.007287 -0.002285
v -0.496442 0.023897 0.017840
v -0.354634 0.058513 0.033239
v -0.288765 0.087413 0.046398
v -0.201209 0.128534 0.064934
v -0.108032 0.164105 0.073462
v -0.022028 0.184963 0.069941
v 0.059983 0.197484 0.056005
v 0.139729 0.199218 0.036014
v 0.208616 0.187642 0.017635
v 0.261622 0.171359 0.008361
v 0.309453 0.158208 0.010167
v 0.362137 0.147841 0.017385
v 0.418637 0.136559 0.021924
v 0.478249 0.119037 0.021113
v 0.541012 0.088348 0.017424
v 0.601388 0.047480 0.008599
v -1.000000 0.000000 -0.015625
v -0.426833 0.040179 0.010773
v 0.664791 0.016659 -0.008895
v -0.542347 0.021062 -0.015541
v -0.376377 0.055360 0.002801
v -0.245084 0.120760 0.016912
v -0.148983 0.163046 0.030445
v -0.060357 0.187768 0.032791
v 0.019505 0.203733 0.023877
v 0.099023 0.212241 0.007600
v 0.176972 0.203862 -0.010267
v 0.239702 0.182035 -0.023682
v 0.287549 0.161881 -0.028618
v 0.336389 0.149137 -0.026149
v 0.391425 0.140253 -0.022003
v 0.448968 0.129786 -0.021050
v 0.510239 0.109765 -0.023234
v 0.574591 0.072848 -0.028819
v -0.706494 0.004884 -0.040026
v -0.453910 0.039523 -0.019165
v -0.323881 0.078876 0.002211
v 0.643897 0.031765 -0.045808
v 0.748564 0.006039 -0.053615
v -0.394905 0.054282 -0.025795
v -0.194199 0.153475 -0.022262
v -0.099322 0.186023 -0.013100
v -0.018941 0.205161 -0.016406
v 0.055820 0.220519 -0.029141
v 0.135877 0.222015 -0.045112
v 0.211884 0.199960 -0.058193
v 0.267298 0.169524 -0.065387
v 0.312529 0.148375 -0.066909
v 0.363803 0.136469 -0.065064
v 0.419995 0.127789 -0.063632
v 0.478835 0.115367 -0.064669
v 0.544072 0.088327 -0.069491
v -0.592772 0.016214 -0.062293
v -0.493133 0.036697 -0.060054
v -0.346915 0.070272 -0.035628
v -0.286394 0.104657 -0.035280
v 0.612873 0.047699 -0.081081
v -1.000000 0.000000 -0.171875
v -0.752831 0.003405 -0.086910
v -0.418896 0.054458 -0.059776
v -0.143961 0.173232 -0.068406
v -0.056628 0.198346 -0.064324
v 0.015590 0.217828 -0.073107
v 0.089550 0.230430 -0.088284
v 0.172203 0.218908 -0.100970
v 0.242528 0.183278 -0.105721
v 0.290447 0.149821 -0.106129
v 0.336210 0.130307 -0.105403
v 0.389960 0.118726 -0.104305
v 0.447487 0.108672 -0.104407
v 0.510994 0.090385 -0.108084
v 0.709652 0.011427 -0.058995
v -0.363154 0.065515 -0.069535
v -0.314364 0.085849 -0.079222
v -0.241563 0.129839 -0.079764
v 0.584207 0.056022 -0.122242
v -0.642065 0.009724 -0.114429
v -0.542112 0.028626 -0.114296
v -0.455380 0.051481 -0.105960
v -0.099743 0.177894 -0.118849
v -0.021827 0.201701 -0.121062
v 0.046347 0.220844 -0.134580
v 0.123958 0.224187 -0.149186
v 0.205643 0.197257 -0.153237
v 0.266149 0.155354 -0.147701
v 0.309833 0.125154 -0.143284
v 0.358683 0.107809 -0.141656
v 0.415115 0.095985 -0.141090
v 0.478091 0.082140 -0.144326
v 0.706577 0.016828 -0.097480
v -0.383390 0.063962 -0.107072
v -0.331387 0.072642 -0.115719
v -0.277097 0.099346 -0.126017
v -0.194665 0.143038 -0.127112
v 0.550112 0.057277 -0.153924
v -0.063253 0.170196 -0.170573
v 0.007817 0.193851 -0.178910
v 0.077364 0.207351 -0.194171
v 0.157666 0.197503 -0.202178
v 0.232073 0.161293 -0.194199
v 0.283608 0.122740 -0.181434
v 0.327989 0.098198 -0.175557
v 0.381449 0.082717 -0.174164
v 0.443939 0.069659 -0.176616
v 0.650964 0.027655 -0.127635
v -0.853019 0.003008 -0.182657
v -0.695315 0.004825 -0.169527
v -0.590316 0.016619 -0.170327
v -0.502927 0.039892 -0.163845
v -0.417151 0.059233 -0.155450
v -0.349378 0.065571 -0.153245
v -0.298743 0.075424 -0.160944
v -0.236852 0.104055 -0.171631
v -0.150752 0.140305 -0.173576
v 0.519537 0.050618 -0.189434
v -0.032694 0.152587 -0.219188
v 0.036186 0.172521 -0.231130
v 0.108679 0.176658 -0.242564
v 0.186509 0.157131 -0.239688
v 0.251341 0.121491 -0.222712
v 0.298903 0.091235 -0.208414
v 0.348018 0.071937 -0.203805
v 0.409837 0.057466 -0.206669
v 0.624934 0.027446 -0.190886
v -0.380584 0.057123 -0.199616
v -0.317676 0.060906 -0.194574
v -0.264835 0.072518 -0.202030
v -0.196381 0.097395 -0.212401
v -0.112382 0.125320 -0.216302
v 0.483258 0.042573 -0.217310
v 0.799143 0.006175 -0.119384
v -0.641015 0.007063 -0.227661
v -0.548776 0.022287 -0.218866
v -0.464105 0.044292 -0.212529
v -0.004725 0.127463 -0.260213
v 0.064558 0.140499 -0.271260
v 0.137519 0.136917 -0.274734
v 0.209399 0.114838 -0.262820
v 0.267222 0.086065 -0.243630
v 0.316617 0.064247 -0.232610
v 0.375434 0.048262 -0.234005
v 0.587677 0.032419 -0.196850
v -0.347711 0.048231 -0.235765
v -0.287491 0.052643 -0.229960
v -0.229847 0.064312 -0.236931
v -0.157894 0.082964 -0.246654
v -0.079212 0.104413 -0.252906
v 0.453366 0.033792 -0.248284
v -0.778797 0.003208 -0.229993
v -0.426885 0.040049 -0.252413
v 0.022698 0.098950 -0.291211
v 0.091975 0.105694 -0.297701
v 0.162982 0.098382 -0.293904
v 0.228976 0.078928 -0.278830
v 0.284862 0.058418 -0.263784
v 0.343442 0.041890 -0.262202
v 0.573458 0.024824 -0.243748
v -0.597147 0.008497 -0.271998
v -0.509899 0.023352 -0.262886
v -0.318249 0.037399 -0.265401
v -0.257415 0.043516 -0.259874
v -0.194382 0.053711 -0.265934
v -0.122401 0.066712 -0.274797
v -0.049021 0.082431 -0.282728
v 0.416510 0.027774 -0.275183
v -0.392978 0.030789 -0.283126
v 0.049757 0.072547 -0.313622
v 0.118356 0.075195 -0.315193
v 0.186792 0.066963 -0.308191
v 0.249769 0.052115 -0.296259
v 0.311432 0.037046 -0.292047
v 0.525916 0.024035 -0.256960
v -0.702472 0.003490 -0.298270
v -0.474376 0.019556 -0.297755
v -0.290283 0.028242 -0.291570
v -0.226202 0.035626 -0.286755
v -0.159357 0.043792 -0.291673
v -0.089418 0.052159 -0.299394
v -0.019835 0.062150 -0.307240
v 0.386287 0.023096 -0.308338
v -0.879205 0.002980 -0.255509
v -0.558090 0.008015 -0.311090
v -0.362490 0.021219 -0.308541
v 0.076779 0.051564 -0.332529
v 0.145070 0.051454 -0.331352
v 0.212092 0.043748 -0.325963
v 0.278920 0.032146 -0.324159
v 0.520944 0.016654 -0.293527
v -1.000000 0.000000 -0.328125
v -0.441664 0.013603 -0.325827
v -0.261387 0.022070 -0.318194
v -0.193493 0.029516 -0.314258
v -0.125325 0.035365 -0.317845
v -0.057850 0.039846 -0.323701
v 0.008819 0.045394 -0.329476
v 0.353102 0.019961 -0.335410
v 1.000000 0.000000 -0.328125
v -0.661223 0.003421 -0.334184
v -0.523711 0.006134 -0.344955
v -0.333808 0.014294 -0.333208
v 0.105014 0.035758 -0.353677
v 0.174143 0.033733 -0.352771
v 0.244449 0.026510 -0.354669
v 0.460213 0.015082 -0.318893
v -0.411129 0.008308 -0.351548
v -0.230089 0.018069 -0.348504
v -0.159860 0.024186 -0.345108
v -0.092374 0.027642 -0.346863
v -0.027278 0.029542 -0.350080
v 0.037173 0.032591 -0.353131
v 0.324226 0.016733 -0.369943
v -0.493901 0.004051 -0.374158
v -0.304419 0.010542 -0.361084
v 0.136064 0.023606 -0.380789
v 0.210000 0.020271 -0.384976
v 0.433825 0.010673 -0.374937
v -0.626809 0.002983 -0.365923
v -0.381530 0.005166 -0.378749
v -0.196781 0.014623 -0.383029
v -0.126435 0.018626 -0.379249
v -0.060598 0.020304 -0.378832
v 0.002487 0.021137 -0.379676
v 0.066312 0.022770 -0.380941
v 0.289266 0.013694 -0.398639
v 0.643811 0.009653 -0.315288
v -0.722705 0.002849 -0.385181
v -0.464872 0.003046 -0.403589
v -0.272728 0.008711 -0.393834
v 0.173329 0.014159 -0.416799
v 0.396107 0.010288 -0.382165
v -0.579472 0.003046 -0.411623
v -0.351089 0.004104 -0.409863
v -0.163211 0.010955 -0.419382
v -0.094095 0.013087 -0.414570
v -0.029857 0.013933 -0.412636
v 0.032341 0.014427 -0.412550
v 0.097963 0.014955 -0.413784
v 0.257840 0.010418 -0.434254
v -0.434178 0.003035 -0.436198
v -0.239260 0.007281 -0.429844
v 0.382998 0.007695 -0.426020
v -0.555325 0.003044 -0.439119
v -0.318913 0.004016 -0.444809
v -0.130678 0.007544 -0.454769
v -0.062799 0.008569 -0.449289
v 0.000613 0.009087 -0.447260
v 0.064026 0.009266 -0.448177
v 0.135859 0.009000 -0.453429
v 0.220862 0.007523 -0.464485
v 0.457576 0.005229 -0.463594
v -0.403918 0.003042 -0.469463
v -0.205815 0.005722 -0.465822
v 0.332877 0.007162 -0.445637
v -0.531401 0.003045 -0.467201
v -0.285767 0.003903 -0.481007
v -0.099118 0.005121 -0.488303
v -0.031830 0.005602 -0.483040
v 0.032455 0.005848 -0.482626
v 0.101290 0.005751 -0.488283
v -0.816454 0.002966 -0.540819
v -0.372547 0.002910 -0.504079
v -0.173437 0.004366 -0.499820
v 0.185911 0.005160 -0.504788
v 0.306058 0.005239 -0.508001
v 0.800723 0.003513 -0.525929
v -0.594154 0.003049 -0.476992
v -0.490281 0.003048 -0.512597
v -0.253003 0.003568 -0.515784
v -0.067848 0.003803 -0.520654
v 0.000258 0.003989 -0.516875
v 0.069932 0.004032 -0.522106
v -0.338838 0.003087 -0.540282
v -0.141873 0.003530 -0.532108
v 0.148807 0.003835 -0.537091
v 0.264972 0.004550 -0.512936
v -0.464848 0.002837 -0.540434
v -0.221092 0.003247 -0.548557
v -0.035717 0.003234 -0.553247
v 0.037232 0.003277 -0.555582
v -0.307416 0.003067 -0.572968
v -0.110560 0.003155 -0.563623
v 0.117876 0.003244 -0.576149
v -0.438388 0.002955 -0.568205
v -0.189656 0.003072 -0.580187
v 0.001268 0.003041 -0.590183
v 0.247191 0.003541 -0.566775
v 0.337658 0.003348 -0.643628
v -0.276412 0.003018 -0.604357
v -0.078744 0.003026 -0.595138
v 0.082266 0.003041 -0.611352
v -0.390980 0.002996 -0.617598
v -0.158066 0.003008 -0.611182
v 0.192715 0.003198 -0.587104
v -0.245445 0.002995 -0.635078
v -0.043152 0.002993 -0.630551
v 0.051520 0.002994 -0.639971
v -0.494592 0.002954 -0.581417
v -0.364487 0.002995 -0.644365
v -0.125599 0.002990 -0.641719
v 0.159057 0.003026 -0.661509
v -0.213718 0.002988 -0.664890
v -1.000000 0.000000 -0.671875
v -0.382200 0.002988 -0.714751
v -0.340039 0.002989 -0.668879
v -0.094494 0.002987 -0.675826
v 0.002328 0.002987 -0.682875
v 0.112084 0.002991 -0.696267
v 1.000000 0.000000 -0.671875
v -0.178979 0.002987 -0.695744
v -0.315605 0.002987 -0.693290
v -0.155080 0.002987 -0.720835
v -0.075124 0.002987 -0.727091
v -0.288246 0.002987 -0.720131
v 0.056822 0.002987 -0.769572
v -0.234085 0.002987 -0.774450
v -0.203939 0.002987 -0.803060
v -0.540649 0.002987 -0.815795
v -0.247803 0.002987 -0.869059
v 0.165012 0.002999 -0.802584
v 0.527598 0.003008 -0.800776
v -0.155680 0.002987 -0.834717
v -0.076660 0.002987 -0.905762
v -1.000000 0.000000 -1.000000
v -0.671875 0.000000 -1.000000
v -0.328125 0.000000 -1.000000
v -0.171875 0.000000 -1.000000
v -0.015625 0.000000 -1.000000
v 0.328125 0.000000 -1.000000
v 0.671875 0.000000 -1.000000
v 1.000000 0.000000 -1.000000
vn -0.0000 1.0000 -0.0000
vn -0.0039 1.0000 0.0085
vn 0.0014 0.9999 0.0110
vn -0.0043 0.9998 0.0168
vn 0.0008 0.9999 0.0132
vn 0.0042 1.0000 0.0090
vn -0.0070 0.9999 0.0129
vn 0.0032 1.0000 0.0054
vn 0.0013 1.0000 0.0082
vn -0.0013 1.0000 0.0083
vn 0.0001 1.0000 0.0032
vn -0.0000 1.0000 0.0056
vn 0.0004 1.0000 -0.0000
vn -0.0085 1.0000 0.0039
vn 0.0088 1.0000 0.0041
vn -0.0012 1.0000 0.0078
vn 0.0007 1.0000 0.0009
vn -0.0002 1.0000 0.0002
vn 0.0032 1.0000 0.0014
vn -0.0000 1.0000 0.0006
vn -0.0000 1.0000 0.0011
vn 0.0058 0.9999 0.0116
vn -0.0013 0.9995 0.0321
vn 0.0011 1.0000 0.0048
vn 0.0004 1.0000 0.0028
vn 0.0099 0.9997 0.0238
vn 0.0006 1.0000 0.0018
vn 0.0006 0.9999 0.0104
vn 0.0189 0.9977 0.0656
vn 0.0045 0.9999 0.0110
vn 0.0028 1.0000 0.0063
vn -0.0002 1.0000 0.0010
vn 0.0077 0.9993 0.0371
vn 0.0020 1.0000 0.0029
vn 0.0082 1.0000 0.0012
vn -0.0084 1.0000 0.0032
vn 0.0275 0.9965 0.0785
vn 0.0074 0.9992 0.0399
vn -0.1092 0.9872 0.1162
vn 0.0046 0.9982 0.0604
vn 0.0106 0.9996 0.0272
vn 0.0079 0.9999 0.0138
vn 0.0009 1.0000 0.0028
vn 0.0444 0.9944 0.0956
vn 0.0110 0.9961 0.0874
vn 0.0001 1.0000 0.0042
vn 0.0018 1.0000 0.0025
vn 0.0187 0.9931 0.1155
vn 0.0310 0.9953 0.0914
vn 0.0156 0.9996 0.0250
vn 0.0017 0.9999 0.0137
vn -0.0134 0.9918 0.1270
vn 0.0047 0.9905 0.1376
vn 0.0254 0.9973 0.0694
vn 0.0166 0.9887 0.1490
vn 0.0287 0.9852 0.1687
vn 0.0233 0.9973 0.0701
vn 0.0038 0.9999 0.0167
vn -0.0659 0.9884 0.1368
vn 0.0054 0.9799 0.1996
vn 0.0526 0.9822 0.1801
vn 0.0590 0.9898 0.1297
vn 0.0070 0.9999 0.0084
vn 0.0014 0.9855 0.1697
vn 0.0152 0.9671 0.2539
vn 0.0567 0.9928 0.1051
vn 0.0139 0.9985 0.0521
vn -0.0823 0.9815 0.1728
vn -0.0026 0.9719 0.2354
vn 0.0563 0.9491 0.3099
vn 0.0880 0.9493 0.3017
vn 0.0843 0.9712 0.2229
vn 0.0149 0.9998 0.0141
vn -0.0109 0.9798 0.1999
vn -0.0152 0.9455 0.3252
vn 0.0908 0.9821 0.1650
vn 0.0203 0.9989 0.0424
vn 0.0129 0.9999 0.0006
vn -0.1151 0.9839 0.1370
vn -0.0260 0.9651 0.2607
vn 0.0199 0.9034 0.4283
vn 0.0871 0.8706 0.4841
vn 0.1399 0.8880 0.4381
vn 0.1313 0.9450 0.2995
vn 0.0105 0.9999 0.0022
vn 0.0031 1.0000 0.0003
vn -0.0175 0.9998 0.0012
vn -0.0082 0.9999 0.0094
vn -0.0443 0.9792 0.1979
vn -0.0511 0.9253 0.3759
vn 0.1068 0.9776 0.1813
vn 0.0428 0.9976 0.0546
vn -0.1537 0.9804 0.1229
vn -0.0475 0.9589 0.2797
vn -0.0405 0.8621 0.5051
vn 0.0293 0.7985 0.6013
vn 0.1394 0.7731 0.6188
vn 0.2134 0.8190 0.5327
vn 0.1989 0.9095 0.3649
vn 0.0107 0.9999 -0.0060
vn -0.0753 0.9788 0.1905
vn -0.0869 0.9090 0.4076
vn 0.1460 0.9701 0.1941
vn 0.0613 0.9973 0.0408
vn -0.1782 0.9782 0.1065
vn -0.0747 0.9591 0.2732
vn -0.0990 0.8322 0.5456
vn -0.0509 0.7597 0.6483
vn 0.0752 0.7182 0.6917
vn 0.2241 0.7087 0.6690
vn 0.2973 0.7648 0.5716
vn 0.2478 0.8837 0.3971
vn 0.0010 1.0000 -0.0020
vn -0.1175 0.9798 0.1616
vn -0.1210 0.8961 0.4270
vn 0.1826 0.9642 0.1922
vn 0.0743 0.9966 0.0367
vn -0.0445 0.9985 0.0310
vn -0.1570 0.9829 0.0968
vn -0.1110 0.9590 0.2606
vn -0.1429 0.8127 0.5650
vn -0.1184 0.7506 0.6501
vn -0.0025 0.7169 0.6971
vn 0.1652 0.6931 0.7016
vn 0.3104 0.6812 0.6630
vn 0.3637 0.7366 0.5702
vn 0.2975 0.8651 0.4038
vn 0.0004 1.0000 -0.0008
vn -0.1609 0.9768 0.1414
vn -0.1552 0.8874 0.4340
vn 0.2263 0.9531 0.2012
vn 0.0455 0.9985 0.0315
vn -0.1165 0.9909 0.0671
vn -0.1509 0.9597 0.2369
vn -0.1740 0.8001 0.5741
vn -0.1602 0.7579 0.6325
vn -0.0794 0.7510 0.6555
vn 0.0881 0.7426 0.6639
vn 0.2701 0.7080 0.6525
vn 0.3919 0.6800 0.6197
vn 0.4080 0.7262 0.5534
vn 0.3355 0.8490 0.4081
vn -0.0003 1.0000 -0.0006
vn -0.1904 0.9747 0.1170
vn -0.1973 0.8840 0.4238
vn 0.2398 0.9477 0.2108
vn 0.0348 0.9990 0.0270
vn -0.0329 0.9994 0.0124
vn -0.1979 0.9567 0.2135
vn -0.2029 0.7933 0.5740
vn -0.1807 0.7707 0.6110
vn -0.1265 0.7983 0.5888
vn 0.0182 0.8198 0.5724
vn 0.2019 0.8004 0.5645
vn 0.3569 0.7423 0.5671
vn 0.4369 0.6959 0.5699
vn 0.4326 0.7269 0.5334
vn 0.3701 0.8297 0.4179
vn -0.0006 1.0000 -0.0001
vn -0.1250 0.9913 0.0410
vn -0.2045 0.9715 0.1201
vn -0.2461 0.8842 0.3970
vn 0.2450 0.9441 0.2205
vn 0.0207 0.9996 0.0213
vn 0.0088 1.0000 -0.0002
vn -0.0157 0.9999 0.0008
vn -0.2400 0.9504 0.1976
vn -0.2423 0.7940 0.5575
vn -0.1951 0.7845 0.5887
vn -0.1366 0.8340 0.5345
vn -0.0419 0.8825 0.4685
vn 0.1295 0.8910 0.4351
vn 0.2928 0.8466 0.4445
vn 0.4051 0.7752 0.4847
vn 0.4534 0.7181 0.5279
vn 0.4390 0.7288 0.5255
vn 0.3978 0.8085 0.4337
vn -0.0007 1.0000 0.0003
vn -0.1336 0.9887 0.0676
vn -0.1929 0.9748 0.1120
vn -0.2958 0.8835 0.3632
vn 0.2268 0.9478 0.2239
vn 0.0226 0.9994 0.0277
vn -0.2679 0.9429 0.1981
vn -0.2958 0.8008 0.5208
vn -0.2197 0.7993 0.5593
vn -0.1444 0.8574 0.4940
vn -0.0654 0.9182 0.3908
vn 0.0710 0.9485 0.3087
vn 0.2187 0.9311 0.2919
vn 0.3404 0.8774 0.3382
vn 0.4106 0.8068 0.4248
vn 0.4437 0.7399 0.5056
vn 0.4472 0.7285 0.5189
vn 0.4262 0.7891 0.4424
vn -0.0927 0.9942 0.0540
vn -0.3340 0.8816 0.3335
vn 0.2161 0.9515 0.2190
vn 0.0187 0.9994 0.0277
vn 0.0035 1.0000 -0.0041
vn -0.2068 0.9738 0.0947
vn -0.2759 0.9441 0.1804
vn -0.3526 0.8078 0.4723
vn -0.2633 0.8147 0.5166
vn -0.1583 0.8725 0.4622
vn -0.0666 0.9327 0.3546
vn 0.0367 0.9720 0.2320
vn 0.1603 0.9724 0.1694
vn 0.2675 0.9467 0.1793
vn 0.3391 0.9023 0.2661
vn 0.3861 0.8376 0.3866
vn 0.4327 0.7628 0.4805
vn 0.4635 0.7297 0.5026
vn 0.4427 0.7858 0.4319
vn -0.1012 0.9922 0.0733
vn -0.3618 0.8827 0.2999
vn 0.1864 0.9679 0.1687
vn -0.2012 0.9718 0.1233
vn -0.3977 0.8149 0.4216
vn -0.3189 0.8273 0.4626
vn -0.1897 0.8844 0.4263
vn -0.0806 0.9347 0.3463
vn 0.0361 0.9692 0.2436
vn 0.1400 0.9820 0.1271
vn 0.2216 0.9722 0.0756
vn 0.2694 0.9569 0.1085
vn 0.3030 0.9275 0.2191
vn 0.3567 0.8680 0.3455
vn 0.4308 0.7911 0.4343
vn 0.4965 0.7445 0.4462
vn 0.4518 0.8114 0.3708
vn 0.0211 0.9996 0.0209
vn -0.0698 0.9966 0.0431
vn -0.2755 0.9467 0.1668
vn -0.3740 0.8944 0.2451
vn -0.0234 0.9997 -0.0005
vn -0.1716 0.9762 0.1327
vn -0.4306 0.8292 0.3563
vn -0.3725 0.8373 0.4002
vn -0.2366 0.8951 0.3779
vn -0.1134 0.9361 0.3331
vn 0.0127 0.9601 0.2794
vn 0.1623 0.9681 0.1908
vn 0.2319 0.9700 0.0726
vn 0.2463 0.9690 0.0184
vn 0.2373 0.9697 0.0582
vn 0.2620 0.9512 0.1631
vn 0.3442 0.8985 0.2723
vn 0.4592 0.8212 0.3388
vn 0.5359 0.7737 0.3381
vn 0.4181 0.8696 0.2628
vn 0.1423 0.9860 0.0864
vn -0.2619 0.9508 0.1655
vn 0.0193 0.9998 0.0027
vn -0.0642 0.9979 0.0037
vn -0.1753 0.9760 0.1293
vn -0.3528 0.9154 0.1939
vn -0.4544 0.8535 0.2550
vn -0.4209 0.8502 0.3162
vn -0.2892 0.9052 0.3114
vn -0.1633 0.9411 0.2960
vn -0.0427 0.9575 0.2853
vn 0.1290 0.9618 0.2414
vn 0.2894 0.9456 0.1489
vn 0.2997 0.9536 0.0276
vn 0.2383 0.9705 -0.0372
vn 0.1991 0.9799 -0.0088
vn 0.2388 0.9686 0.0696
vn 0.3608 0.9203 0.1511
vn 0.5091 0.8376 0.1981
vn 0.5295 0.8212 0.2128
vn -0.0170 0.9999 -0.0007
vn -0.2249 0.9595 0.1694
vn 0.3328 0.9317 0.1458
vn -0.1516 0.9839 0.0941
vn -0.3213 0.9366 0.1397
vn -0.4668 0.8634 0.1916
vn -0.3456 0.9139 0.2128
vn -0.2224 0.9493 0.2224
vn -0.1176 0.9630 0.2424
vn 0.0485 0.9661 0.2534
vn 0.2625 0.9445 0.1974
vn 0.3864 0.9184 0.0849
vn 0.3315 0.9419 -0.0531
vn 0.2138 0.9692 -0.1222
vn 0.1752 0.9781 -0.1127
vn 0.2439 0.9675 -0.0667
vn 0.4055 0.9140 -0.0107
vn 0.5237 0.8505 0.0492
vn -0.0466 0.9989 0.0019
vn -0.2208 0.9622 0.1596
vn -0.4379 0.8865 0.1496
vn 0.4100 0.9091 0.0732
vn 0.0761 0.9949 0.0661
vn -0.2440 0.9607 0.1324
vn -0.4068 0.9107 0.0712
vn -0.2832 0.9538 0.1004
vn -0.2039 0.9704 0.1292
vn -0.0867 0.9811 0.1730
vn 0.1576 0.9734 0.1661
vn 0.4005 0.9124 0.0839
vn 0.4642 0.8845 -0.0463
vn 0.3236 0.9293 -0.1778
vn 0.1902 0.9520 -0.2398
vn 0.1737 0.9531 -0.2477
vn 0.2770 0.9342 -0.2247
vn 0.4309 0.8891 -0.1542
vn -0.1460 0.9884 0.0407
vn -0.2325 0.9658 0.1150
vn -0.3965 0.9169 0.0454
vn -0.4840 0.8734 0.0535
vn 0.4631 0.8839 -0.0646
vn -0.0204 0.9998 0.0023
vn -0.0208 0.9998 -0.0029
vn -0.2001 0.9727 0.1172
vn -0.3393 0.9382 -0.0688
vn -0.2647 0.9635 -0.0403
vn -0.2208 0.9753 0.0029
vn -0.0196 0.9997 0.0150
vn 0.2978 0.9542 -0.0269
vn 0.5185 0.8489 -0.1026
vn 0.4820 0.8493 -0.2153
vn 0.2869 0.9022 -0.3220
vn 0.1775 0.9117 -0.3704
vn 0.1906 0.9049 -0.3806
vn 0.2984 0.8921 -0.3392
vn 0.2043 0.9716 0.1197
vn -0.2697 0.9625 0.0306
vn -0.4629 0.8825 -0.0833
vn -0.4522 0.8878 -0.0854
vn 0.3697 0.9041 -0.2143
vn -0.1156 0.9933 0.0022
vn -0.2264 0.9734 0.0351
vn -0.2190 0.9743 0.0528
vn -0.2924 0.9247 -0.2437
vn -0.2982 0.9330 -0.2016
vn -0.1997 0.9606 -0.1934
vn 0.1037 0.9690 -0.2243
vn 0.4379 0.8619 -0.2556
vn 0.5737 0.7650 -0.2927
vn 0.4378 0.8149 -0.3798
vn 0.2424 0.8599 -0.4492
vn 0.1677 0.8655 -0.4720
vn 0.1959 0.8737 -0.4452
vn 0.1774 0.9807 0.0820
vn -0.1561 0.9876 0.0143
vn -0.3156 0.9421 -0.1133
vn -0.4684 0.8515 -0.2359
vn -0.3810 0.8884 -0.2559
vn 0.2751 0.8982 -0.3429
vn -0.3018 0.8612 -0.4090
vn -0.3032 0.8664 -0.3968
vn -0.1074 0.8922 -0.4386
vn 0.2481 0.8485 -0.4675
vn 0.5274 0.7238 -0.4449
vn 0.5487 0.7072 -0.4459
vn 0.3534 0.7932 -0.4959
vn 0.1926 0.8369 -0.5124
vn 0.1419 0.8609 -0.4886
vn 0.2729 0.9592 -0.0739
vn -0.0115 0.9999 0.0025
vn -0.0563 0.9983 -0.0138
vn -0.1792 0.9831 -0.0366
vn -0.2414 0.9694 -0.0447
vn -0.1505 0.9865 -0.0640
vn -0.1377 0.9829 -0.1226
vn -0.3422 0.8972 -0.2791
vn -0.4038 0.8217 -0.4023
vn -0.3057 0.8451 -0.4387
vn 0.1705 0.9107 -0.3762
vn -0.3047 0.7657 -0.5665
vn -0.2401 0.7612 -0.6024
vn 0.0262 0.7544 -0.6558
vn 0.3599 0.6833 -0.6353
vn 0.5411 0.6269 -0.5606
vn 0.4574 0.7145 -0.5294
vn 0.2517 0.8180 -0.5173
vn 0.1345 0.8763 -0.4627
vn 0.2180 0.9626 -0.1611
vn -0.0739 0.9775 -0.1974
vn -0.1411 0.9521 -0.2711
vn -0.3198 0.8433 -0.4319
vn -0.3167 0.7734 -0.5491
vn -0.2700 0.7687 -0.5798
vn 0.1069 0.9122 -0.3955
vn 0.0649 0.9979 0.0011
vn -0.0908 0.9949 -0.0431
vn -0.1999 0.9740 -0.1071
vn -0.1828 0.9690 -0.1662
vn -0.2631 0.6579 -0.7057
vn -0.1305 0.6315 -0.7643
vn 0.1472 0.6046 -0.7828
vn 0.4117 0.5834 -0.7001
vn 0.4769 0.6503 -0.5914
vn 0.3206 0.8035 -0.5015
vn 0.1469 0.8924 -0.4267
vn 0.1980 0.9468 -0.2537
vn -0.0290 0.9511 -0.3075
vn -0.1434 0.9113 -0.3860
vn -0.2647 0.8054 -0.5304
vn -0.2488 0.7306 -0.6359
vn -0.2523 0.6895 -0.6789
vn 0.0977 0.9402 -0.3264
vn -0.0072 1.0000 -0.0031
vn -0.0933 0.9566 -0.2761
vn -0.1845 0.5883 -0.7873
vn -0.0181 0.5557 -0.8312
vn 0.2170 0.5646 -0.7963
vn 0.3985 0.6327 -0.6640
vn 0.3395 0.7918 -0.5077
vn 0.1827 0.9128 -0.3653
vn 0.0957 0.9727 -0.2115
vn -0.0985 0.9917 -0.0826
vn -0.1608 0.9682 -0.1916
vn -0.0260 0.9358 -0.3516
vn -0.1460 0.8940 -0.4236
vn -0.2081 0.8100 -0.5483
vn -0.1989 0.7301 -0.6537
vn -0.2182 0.6524 -0.7258
vn 0.0875 0.9533 -0.2889
vn -0.0197 0.9447 -0.3273
vn -0.1047 0.6123 -0.7837
vn 0.0627 0.6014 -0.7965
vn 0.2423 0.6621 -0.7092
vn 0.2971 0.8040 -0.5150
vn 0.1830 0.9214 -0.3429
vn 0.0744 0.9594 -0.2721
vn -0.0165 0.9998 -0.0125
vn -0.0928 0.9661 -0.2411
vn -0.0516 0.9458 -0.3207
vn -0.1338 0.9109 -0.3904
vn -0.1580 0.8496 -0.5032
vn -0.1620 0.7785 -0.6063
vn -0.1695 0.6857 -0.7079
vn 0.0958 0.9721 -0.2143
vn -0.0135 0.9999 0.0001
vn -0.0811 0.9906 -0.1099
vn -0.0037 0.9537 -0.3009
vn -0.0399 0.7186 -0.6943
vn 0.0937 0.7393 -0.6668
vn 0.1846 0.8363 -0.5163
vn 0.1629 0.9346 -0.3162
vn 0.0518 0.9818 -0.1826
vn -0.0214 0.9998 -0.0022
vn -0.0367 0.9705 -0.2383
vn -0.0754 0.9622 -0.2618
vn -0.1066 0.9410 -0.3211
vn -0.1099 0.9026 -0.4162
vn -0.1163 0.8443 -0.5231
vn -0.1159 0.7701 -0.6273
vn 0.0901 0.9748 -0.2043
vn 0.0176 0.9998 -0.0000
vn -0.0178 0.9996 -0.0238
vn -0.0484 0.9919 -0.1172
vn -0.0280 0.9736 -0.2266
vn -0.0010 0.8522 -0.5232
vn 0.0790 0.8877 -0.4536
vn 0.1037 0.9431 -0.3161
vn 0.0535 0.9866 -0.1542
vn -0.0180 0.9812 -0.1922
vn -0.0834 0.9764 -0.1994
vn -0.0719 0.9639 -0.2564
vn -0.0604 0.9427 -0.3281
vn -0.0690 0.9060 -0.4176
vn -0.0687 0.8702 -0.4879
vn 0.0786 0.9831 -0.1653
vn -0.0312 0.9953 -0.0919
vn -0.0443 0.9870 -0.1548
vn 0.0153 0.9420 -0.3352
vn 0.0579 0.9645 -0.2575
vn 0.0106 0.9956 -0.0929
vn -0.0187 0.9995 -0.0244
vn -0.0323 0.9933 -0.1113
vn -0.0535 0.9858 -0.1591
vn -0.0365 0.9781 -0.2048
vn -0.0230 0.9692 -0.2454
vn -0.0477 0.9546 -0.2941
vn -0.0315 0.9381 -0.3449
vn 0.0443 0.9854 -0.1642
vn 0.0466 0.9968 -0.0649
vn -0.0012 1.0000 -0.0023
vn -0.0107 0.9988 -0.0472
vn -0.0525 0.9938 -0.0985
vn 0.0160 0.9798 -0.1992
vn 0.0339 0.9934 -0.1100
vn -0.0072 0.9998 -0.0161
vn -0.0278 0.9981 -0.0557
vn -0.0278 0.9918 -0.1244
vn -0.0142 0.9879 -0.1547
vn -0.0087 0.9853 -0.1704
vn -0.0141 0.9791 -0.2028
vn -0.0218 0.9752 -0.2201
vn 0.0307 0.9933 -0.1117
vn -0.0066 0.9999 -0.0091
vn -0.0351 0.9965 -0.0765
vn 0.0235 0.9972 -0.0708
vn -0.0013 1.0000 -0.0035
vn -0.0243 0.9993 -0.0290
vn -0.0099 0.9955 -0.0939
vn -0.0049 0.9936 -0.1125
vn -0.0049 0.9928 -0.1198
vn -0.0067 0.9924 -0.1232
vn -0.0020 0.9925 -0.1222
vn 0.0029 0.9951 -0.0984
vn 0.0072 0.9994 -0.0345
vn -0.0043 1.0000 -0.0061
vn -0.0164 0.9981 -0.0596
vn 0.0214 0.9974 -0.0694
vn -0.0000 1.0000 0.0001
vn -0.0152 0.9996 -0.0231
vn -0.0024 0.9982 -0.0594
vn -0.0026 0.9975 -0.0701
vn -0.0041 0.9973 -0.0727
vn -0.0102 0.9977 -0.0674
vn -0.0079 1.0000 -0.0028
vn -0.0050 1.0000 -0.0042
vn -0.0052 0.9992 -0.0397
vn 0.0049 0.9989 -0.0476
vn -0.0094 0.9994 -0.0327
vn 0.0130 0.9999 -0.0084
vn -0.0035 1.0000 -0.0036
vn 0.0012 1.0000 -0.0016
vn -0.0061 0.9998 -0.0177
vn -0.0006 0.9996 -0.0289
vn -0.0022 0.9994 -0.0354
vn -0.0035 0.9994 -0.0335
vn -0.0039 1.0000 -0.0027
vn -0.0009 0.9998 -0.0199
vn -0.0046 0.9995 -0.0323
vn -0.0070 0.9991 -0.0420
vn 0.0019 1.0000 -0.0007
vn -0.0016 0.9999 -0.0101
vn 0.0009 0.9999 -0.0116
vn -0.0019 0.9999 -0.0130
vn -0.0012 1.0000 -0.0029
vn -0.0005 1.0000 -0.0082
vn -0.0012 1.0000 -0.0093
vn -0.0010 1.0000 0.0016
vn -0.0008 1.0000 -0.0045
vn -0.0000 1.0000 -0.0035
vn -0.0038 0.9999 -0.0152
vn -0.0009 1.0000 -0.0090
vn -0.0006 1.0000 -0.0017
vn -0.0002 1.0000 -0.0041
vn -0.0010 1.0000 -0.0029
vn -0.0006 1.0000 -0.0003
vn -0.0002 1.0000 -0.0025
vn -0.0019 0.9999 -0.0105
vn -0.0002 1.0000 -0.0010
vn -0.0001 1.0000 -0.0011
vn -0.0002 1.0000 -0.0007
vn 0.0001 1.0000 0.0001
vn -0.0001 1.0000 -0.0003
vn -0.0001 1.0000 -0.0007
vn -0.0021 1.0000 -0.0010
vn -0.0000 1.0000 -0.0003
vn -0.0091 0.9999 -0.0042
vn -0.0001 1.0000 -0.0000
vn -0.0000 1.0000 -0.0002
vn -0.0000 1.0000 -0.0001
vn -0.0003 1.0000 -0.0003
vn 0.0094 0.9999 -0.0047
vn 0.0005 1.0000 -0.0044
vn -0.0030 1.0000 -0.0081
vn 0.0008 0.9999 -0.0120
vn 0.0008 1.0000 -0.0082
vn 0.0011 1.0000 -0.0087
vn -0.0010 1.0000 -0.0058
vn 0.0020 0.9999 -0.0163
vn -0.0042 0.9999 -0.0091
vn -0.0017 0.9998 -0.0203
vn -0.0019 0.9997 -0.0228
vn 0.0049 0.9998 -0.0210
vn 0.0001 0.9999 -0.0124
vn 0.0039 1.0000 -0.0085
vt 0.527872 0.062706
vt 0.679687 0.000000
vt 0.593653 0.096818
vt 0.677656 0.157320
vt 0.835937 0.000000
vt 0.768256 0.094734
vt 0.476210 0.138805
vt 0.505178 0.178662
vt 0.482417 0.186745
vt 0.507812 0.000000
vt 0.383328 0.224478
vt 0.466624 0.217362
vt 0.436665 0.231812
vt 0.577446 0.158882
vt 0.525331 0.142855
vt 1.000000 0.164062
vt 0.902433 0.231709
vt 0.699314 0.261038
vt 0.734507 0.254684
vt 0.164062 0.000000
vt 0.096393 0.242381
vt 0.000000 0.164062
vt 0.598291 0.198370
vt 0.407900 0.257046
vt 0.547870 0.181929
vt 0.644366 0.213189
vt 0.613962 0.220308
vt 0.570817 0.212561
vt 0.505326 0.221907
vt 0.771915 0.340561
vt 0.725823 0.290999
vt 0.383102 0.302239
vt 0.355326 0.317510
vt 0.525080 0.205632
vt 0.593131 0.237357
vt 0.679135 0.294510
vt 0.643142 0.255661
vt 0.489345 0.240190
vt 0.531682 0.249263
vt 0.471000 0.255489
vt 0.393992 0.271476
vt 0.549784 0.232042
vt 0.625872 0.245925
vt 0.613422 0.261467
vt 0.234187 0.104635
vt 0.171576 0.320892
vt 0.515257 0.265385
vt 0.432580 0.250834
vt 0.456033 0.272717
vt 0.331084 0.343240
vt 0.306855 0.319258
vt 0.574003 0.256794
vt 0.556661 0.273725
vt 0.709771 0.324498
vt 0.498565 0.280895
vt 0.437122 0.287872
vt 0.540291 0.288751
vt 0.596198 0.279771
vt 0.579677 0.295339
vt 0.631538 0.279779
vt 0.658701 0.283800
vt 0.420052 0.304895
vt 0.481913 0.297022
vt 0.662634 0.312847
vt 0.222471 0.386397
vt 0.523808 0.303370
vt 0.563652 0.308576
vt 0.598978 0.311740
vt 0.614841 0.298120
vt 0.796681 0.368872
vt 0.827792 0.332352
vt 0.304268 0.371880
vt 0.404711 0.323991
vt 0.464419 0.313007
vt 0.646830 0.298259
vt 0.689074 0.316637
vt 1.000000 0.320312
vt 0.507142 0.318106
vt 0.547280 0.321573
vt 0.583449 0.323240
vt 0.646837 0.326920
vt 0.387263 0.339292
vt 0.000000 0.335938
vt 0.446699 0.329327
vt 0.616096 0.324947
vt 0.631006 0.313323
vt 0.693325 0.342093
vt 0.742666 0.323891
vt 0.071465 0.420756
vt 0.490203 0.332778
vt 0.530877 0.334980
vt 0.567422 0.335434
vt 0.632721 0.337729
vt 0.662440 0.340624
vt 0.676832 0.328547
vt 0.819476 0.393555
vt 0.288834 0.404610
vt 0.259978 0.416204
vt 0.352886 0.335356
vt 0.374213 0.355414
vt 0.429365 0.345461
vt 0.601265 0.335842
vt 0.726466 0.341737
vt 0.744646 0.357769
vt 0.472753 0.347208
vt 0.514758 0.348474
vt 0.551561 0.348874
vt 0.618598 0.349335
vt 0.649099 0.351313
vt 0.678307 0.354496
vt 0.357540 0.369317
vt 0.412505 0.360161
vt 0.585863 0.348810
vt 0.726277 0.372799
vt 0.775538 0.360147
vt 0.454825 0.361129
vt 0.498505 0.361675
vt 0.536446 0.362771
vt 0.603874 0.363765
vt 0.635513 0.364089
vt 0.665003 0.365645
vt 0.694210 0.368943
vt 0.709529 0.357231
vt 0.862498 0.428852
vt 0.243613 0.456500
vt 0.220941 0.463416
vt 0.322975 0.366546
vt 0.342274 0.387605
vt 0.396767 0.374377
vt 0.570742 0.363578
vt 0.742819 0.388847
vt 0.759189 0.375465
vt 0.775599 0.390668
vt 0.436848 0.374299
vt 0.481455 0.374438
vt 0.521629 0.376337
vt 0.651511 0.379432
vt 0.680364 0.380183
vt 0.710361 0.383756
vt 0.323588 0.404597
vt 0.380393 0.388697
vt 0.556517 0.378829
vt 0.759153 0.404102
vt 0.803186 0.391764
vt 0.419124 0.387131
vt 0.463374 0.386799
vt 0.506054 0.389288
vt 0.589410 0.380378
vt 0.621277 0.380254
vt 0.695406 0.394752
vt 0.726720 0.398756
vt 0.247183 0.430983
vt 0.362916 0.405340
vt 0.542710 0.393366
vt 0.774260 0.418819
vt 0.788674 0.407153
vt 0.803054 0.419371
vt 0.914432 0.405441
vt 0.401162 0.400728
vt 0.444474 0.399061
vt 0.488929 0.401687
vt 0.575845 0.397186
vt 0.607283 0.398459
vt 0.637367 0.396897
vt 0.666257 0.394591
vt 0.710501 0.409574
vt 0.743099 0.413744
vt 0.343652 0.423855
vt 0.306953 0.426202
vt 0.528191 0.406771
vt 0.788658 0.432691
vt 0.832359 0.420233
vt 0.180339 0.440676
vt 0.211900 0.483180
vt 0.174846 0.494874
vt 0.324987 0.443399
vt 0.288859 0.443121
vt 0.382230 0.416436
vt 0.424982 0.411999
vt 0.470245 0.413843
vt 0.548744 0.426622
vt 0.562684 0.412838
vt 0.594142 0.416685
vt 0.623544 0.416341
vt 0.651737 0.412702
vt 0.680087 0.409327
vt 0.693799 0.424270
vt 0.725948 0.425049
vt 0.759050 0.428878
vt 0.511966 0.419069
vt 0.816312 0.434507
vt 0.834052 0.447369
vt 0.362148 0.434551
vt 0.404856 0.426751
vt 0.450584 0.426434
vt 0.533108 0.438647
vt 0.581373 0.433505
vt 0.610567 0.435846
vt 0.637747 0.432902
vt 0.664827 0.427617
vt 0.707994 0.440448
vt 0.741627 0.441619
vt 0.774307 0.444464
vt 0.875608 0.435127
vt 0.493911 0.430825
vt 0.112538 0.496952
vt 0.064418 0.592455
vt 0.000000 0.585937
vt 0.819042 0.464899
vt 0.274605 0.459593
vt 0.264326 0.474795
vt 0.342117 0.454090
vt 0.307723 0.461496
vt 0.384087 0.444118
vt 0.430481 0.440573
vt 0.515502 0.449784
vt 0.552981 0.459932
vt 0.567995 0.447986
vt 0.598093 0.453867
vt 0.624685 0.453387
vt 0.650477 0.448138
vt 0.677667 0.442684
vt 0.722940 0.458399
vt 0.757379 0.459336
vt 0.802554 0.447427
vt 0.474772 0.443083
vt 0.849162 0.459104
vt 0.323632 0.473695
vt 0.410108 0.457387
vt 0.496659 0.461678
vt 0.535678 0.470630
vt 0.585413 0.469011
vt 0.612436 0.472360
vt 0.637264 0.469217
vt 0.663062 0.463293
vt 0.691155 0.459250
vt 0.789173 0.461211
vt 0.363156 0.464048
vt 0.152217 0.509865
vt 0.455469 0.457172
vt 0.841051 0.489443
vt 0.250480 0.485587
vt 0.293252 0.477958
vt 0.282354 0.491438
vt 0.389248 0.477618
vt 0.477784 0.476043
vt 0.516553 0.482590
vt 0.554326 0.492047
vt 0.571326 0.481055
vt 0.600658 0.488140
vt 0.625244 0.488955
vt 0.649872 0.484698
vt 0.676539 0.479923
vt 0.705588 0.477907
vt 0.738448 0.477863
vt 0.773171 0.478240
vt 0.805596 0.481139
vt 0.000000 0.507812
vt 0.308079 0.492257
vt 0.342860 0.485959
vt 0.436362 0.474280
vt 0.271619 0.503688
vt 1.000000 0.492187
vt 0.236583 0.500165
vt 0.367355 0.501533
vt 0.459503 0.493897
vt 0.497162 0.497679
vt 0.534422 0.505078
vt 0.571470 0.513483
vt 0.587846 0.500920
vt 0.614392 0.505786
vt 0.638003 0.505236
vt 0.663524 0.501513
vt 0.690998 0.498668
vt 0.720829 0.498085
vt 0.754764 0.498124
vt 0.790852 0.499783
vt 0.213881 0.516618
vt 0.297157 0.507729
vt 0.324819 0.508282
vt 0.416702 0.495312
vt 0.869250 0.528646
vt 0.826391 0.506846
vt 0.813869 0.526607
vt 0.440920 0.515894
vt 0.602977 0.520409
vt 0.627546 0.523668
vt 0.651496 0.522811
vt 0.678029 0.520271
vt 0.706023 0.518853
vt 0.737145 0.518786
vt 0.773487 0.519950
vt 0.132406 0.527567
vt 0.258467 0.518729
vt 0.288154 0.522227
vt 0.312533 0.527367
vt 0.345652 0.527355
vt 0.394486 0.520879
vt 0.189052 0.539020
vt 0.419149 0.542515
vt 0.478777 0.516662
vt 0.513721 0.521941
vt 0.550702 0.529064
vt 0.587521 0.535762
vt 0.616960 0.540726
vt 0.640410 0.542798
vt 0.665436 0.541941
vt 0.692695 0.540217
vt 0.721791 0.539391
vt 0.756337 0.540666
vt 0.848992 0.531929
vt 0.110523 0.549130
vt 0.239339 0.538811
vt 0.304408 0.544509
vt 0.795915 0.545357
vt 0.276778 0.539302
vt 0.369750 0.549061
vt 0.780201 0.566780
vt 0.460633 0.539459
vt 0.494576 0.542179
vt 0.528618 0.548027
vt 0.566599 0.554044
vt 0.602570 0.558617
vt 0.629478 0.561710
vt 0.652893 0.562702
vt 0.679258 0.561674
vt 0.707632 0.560257
vt 0.740125 0.560680
vt 0.846400 0.551877
vt 0.165059 0.563461
vt 0.259332 0.561871
vt 0.329769 0.549595
vt 0.392937 0.571778
vt 0.894135 0.561301
vt 0.100162 0.615573
vt 0.215276 0.564796
vt 0.762847 0.584079
vt 0.476438 0.565328
vt 0.439448 0.566304
vt 0.508552 0.569184
vt 0.543622 0.574594
vt 0.582311 0.578674
vt 0.615857 0.580850
vt 0.640506 0.582212
vt 0.665156 0.582197
vt 0.693144 0.580898
vt 0.724940 0.580754
vt 0.817026 0.568284
vt 0.320468 0.568360
vt 0.294965 0.563279
vt 0.349471 0.573079
vt 0.812577 0.663237
vt 0.050990 0.625354
vt 0.279032 0.586754
vt 0.747949 0.603811
vt 0.490075 0.592020
vt 0.455845 0.591511
vt 0.522574 0.595951
vt 0.559140 0.599866
vt 0.596871 0.601328
vt 0.627020 0.601177
vt 0.650993 0.601086
vt 0.677805 0.600309
vt 0.709127 0.599871
vt 0.803071 0.600917
vt 0.312000 0.587190
vt 0.369702 0.596112
vt 0.336938 0.592036
vt 0.413392 0.595095
vt 0.730136 0.620443
vt 0.503315 0.617793
vt 0.469775 0.616557
vt 0.537154 0.620769
vt 0.574268 0.622307
vt 0.609518 0.620935
vt 0.636861 0.618860
vt 0.662188 0.617763
vt 0.693076 0.617874
vt 0.783703 0.605467
vt 0.139836 0.588800
vt 0.139904 0.649804
vt 0.236216 0.589476
vt 0.191913 0.591178
vt 0.353846 0.614062
vt 0.327631 0.609399
vt 0.388968 0.618126
vt 0.430739 0.618476
vt 0.776365 0.629891
vt 0.297244 0.609638
vt 0.256428 0.613972
vt 0.715467 0.637964
vt 0.516800 0.641061
vt 0.482888 0.639766
vt 0.551727 0.642189
vt 0.588139 0.641050
vt 0.620416 0.637105
vt 0.646988 0.634020
vt 0.676458 0.633929
vt 0.342406 0.629186
vt 0.313391 0.629481
vt 0.370932 0.633794
vt 0.387998 0.651277
vt 0.406926 0.638563
vt 0.445858 0.640318
vt 0.168147 0.617734
vt 0.161404 0.668309
vt 0.213850 0.615608
vt 0.697098 0.653384
vt 0.530385 0.660463
vt 0.496026 0.659951
vt 0.565762 0.659378
vt 0.579349 0.672652
vt 0.600600 0.655636
vt 0.630811 0.650685
vt 0.660615 0.649586
vt 0.752272 0.639121
vt 0.275111 0.634925
vt 0.234174 0.638188
vt 0.357126 0.646439
vt 0.327847 0.646571
vt 0.372426 0.661998
vt 0.405037 0.666749
vt 0.423602 0.656513
vt 0.439489 0.672041
vt 0.460063 0.659296
vt 0.749766 0.657775
vt 0.291956 0.652190
vt 0.681699 0.670960
vt 0.523231 0.689068
vt 0.544108 0.675334
vt 0.558300 0.687259
vt 0.593011 0.684042
vt 0.612525 0.667862
vt 0.644241 0.665408
vt 0.191070 0.640340
vt 0.355946 0.676603
vt 0.388648 0.677403
vt 0.421920 0.681566
vt 0.455219 0.686084
vt 0.474237 0.675341
vt 0.488631 0.689001
vt 0.509395 0.676145
vt 0.179357 0.684884
vt 0.132793 0.690812
vt 0.229313 0.678482
vt 0.252403 0.656769
vt 0.268947 0.672307
vt 0.321362 0.680956
vt 0.341634 0.661729
vt 0.664682 0.685491
vt 0.537924 0.700642
vt 0.573439 0.698798
vt 0.609399 0.698087
vt 0.627299 0.682136
vt 0.718901 0.672994
vt 0.284376 0.686547
vt 0.307107 0.666993
vt 0.371628 0.693004
vt 0.405579 0.694013
vt 0.438584 0.697058
vt 0.470830 0.699972
vt 0.503270 0.701533
vt 0.716267 0.743619
vt 0.892315 0.764894
vt 0.336101 0.696099
vt 0.649614 0.703131
vt 0.553919 0.713637
vt 0.591573 0.713849
vt 0.704987 0.701331
vt 0.204143 0.708850
vt 0.211451 0.660639
vt 0.244705 0.694002
vt 0.299338 0.701303
vt 0.388514 0.711296
vt 0.422574 0.711898
vt 0.454854 0.713445
vt 0.486208 0.714656
vt 0.518406 0.714917
vt 0.092360 0.765359
vt 0.259681 0.709653
vt 0.631642 0.718115
vt 0.572794 0.730060
vt 0.685860 0.706476
vt 0.314855 0.717916
vt 0.501646 0.730332
vt 0.534656 0.730203
vt 0.678698 0.728072
vt 0.216887 0.723217
vt 0.352164 0.713533
vt 0.615453 0.736077
vt 0.275545 0.726964
vt 0.229464 0.737922
vt 0.439136 0.729904
vt 0.405652 0.730221
vt 0.470681 0.730128
vt 0.553824 0.748353
vt 0.369258 0.732496
vt 0.596610 0.751521
vt 0.291241 0.744576
vt 0.250952 0.761748
vt 0.331392 0.736410
vt 0.653357 0.739247
vt 0.455140 0.747197
vt 0.422258 0.748367
vt 0.486298 0.746785
vt 0.517836 0.746940
vt 0.655495 0.834061
vt 0.199315 0.740250
vt 0.386353 0.751297
vt 0.307514 0.762900
vt 0.264253 0.776418
vt 0.348445 0.755500
vt 0.470873 0.763657
vt 0.438282 0.765296
vt 0.502469 0.763471
vt 0.536668 0.765370
vt 0.639576 0.769889
vt 0.000000 0.664063
vt 0.000000 0.835938
vt 0.402830 0.768930
vt 0.618798 0.773382
vt 0.324930 0.782088
vt 0.277992 0.791181
vt 0.365237 0.773805
vt 0.560488 0.787591
vt 0.487064 0.779836
vt 0.454046 0.781359
vt 0.521346 0.781812
vt 0.609758 0.799317
vt 0.418777 0.785512
vt 0.341086 0.799402
vt 0.302518 0.817476
vt 0.381475 0.791027
vt 0.545439 0.806678
vt 0.505640 0.798029
vt 0.470178 0.797184
vt 0.578940 0.771475
vt 0.450356 0.817066
vt 0.251262 0.795019
vt 0.356905 0.816056
vt 0.316192 0.831722
vt 0.413087 0.823528
vt 0.434493 0.801408
vt 0.528335 0.823885
vt 0.582477 0.810264
vt 0.372550 0.832367
vt 0.397318 0.807503
vt 0.468052 0.834223
vt 0.488680 0.814762
vt 0.572409 0.910113
vt 0.341190 0.857864
vt 0.429131 0.839060
vt 0.513805 0.837822
vt 0.388386 0.848135
vt 0.566706 0.846007
vt 0.354978 0.872256
vt 0.444512 0.855963
vt 0.405489 0.864222
vt 0.490589 0.859051
vt 0.543992 0.863109
vt 1.000000 0.664063
vt 1.000000 0.835938
vt 0.382035 0.900892
vt 0.310116 0.865445
vt 0.417345 0.876967
vt 0.328750 0.844788
vt 0.164062 1.000000
vt 0.234950 0.907945
vt 0.518029 0.898857
vt 0.378418 0.946600
vt 0.420324 0.931226
vt 0.396963 0.915504
vt 0.755056 0.903990
vt 0.458985 0.962376
vt 0.454719 0.880712
vt 0.335937 0.000000
vt 0.000000 1.000000
vt 0.335937 1.000000
vt 0.492187 1.000000
vt 0.414062 1.000000
vt 0.664062 1.000000
vt 0.324019 0.168065
vt 0.835937 1.000000
vt 0.000000 0.000000
vt 1.000000 1.000000
vt 1.000000 0.000000
s 1
f 8/1/7 5/2/5 9/3/8
f 5/2/5 12/4/11 9/3/8
f 5/2/5 6/5/6 10/6/9
f 13/7/12 18/8/17 20/9/19
f 4/10/4 13/7/12 24/11/23
f 13/7/12 23/12/22 27/13/26
f 19/14/18 14/15/13 9/3/8
f 6/5/6 16/16/15 36/17/35
f 47/18/46 12/4/11 48/19/47
f 2/20/2 37/21/36 15/22/14
f 22/23/21 9/3/8 12/4/11
f 27/13/26 38/24/37 24/11/23
f 21/25/20 18/8/17 14/15/13
f 14/15/13 8/1/7 9/3/8
f 33/26/32 28/27/27 22/23/21
f 21/25/20 22/23/21 26/28/25
f 18/8/17 29/29/28 20/9/19
f 86/30/85 64/31/63 48/19/47
f 24/11/23 53/32/52 60/33/59
f 26/28/25 25/34/24 21/25/20
f 22/23/21 32/35/31 26/28/25
f 59/36/58 44/37/43 33/26/32
f 23/12/22 29/29/28 34/38/33
f 25/34/24 39/39/38 29/29/28
f 23/12/22 41/40/40 27/13/26
f 24/11/23 38/24/37 45/41/44
f 32/35/31 31/42/30 26/28/25
f 32/35/31 35/43/34 43/44/42
f 11/45/10 89/46/88 37/21/36
f 34/38/33 39/39/38 46/47/45
f 44/37/43 43/44/42 35/43/34
f 30/48/29 41/40/40 49/49/48
f 60/33/59 80/50/79 40/51/39
f 39/39/38 42/52/41 50/53/49
f 43/44/42 42/52/41 32/35/31
f 78/54/77 59/36/58 47/18/46
f 34/38/33 54/55/53 41/40/40
f 30/48/29 56/56/55 38/24/37
f 39/39/38 57/57/56 46/47/45
f 50/53/49 55/58/54 62/59/61
f 51/60/50 55/58/54 43/44/42
f 52/61/51 51/60/50 44/37/43
f 45/41/44 56/56/55 65/62/64
f 49/49/48 54/55/53 61/63/60
f 67/64/66 52/61/51 59/36/58
f 24/11/23 119/65/118 89/46/88
f 46/47/45 66/66/65 54/55/53
f 50/53/49 71/67/70 57/57/56
f 72/68/71 55/58/54 63/69/62
f 114/70/113 86/30/85 87/71/86
f 80/50/79 106/72/105 40/51/39
f 53/32/52 65/62/64 75/73/74
f 49/49/48 70/74/69 56/56/55
f 58/75/57 63/69/62 51/60/50
f 68/76/67 67/64/66 59/36/58
f 16/16/15 79/77/78 36/17/35
f 54/55/53 76/78/75 61/63/60
f 57/57/56 82/79/81 66/66/65
f 83/80/82 62/59/61 72/68/71
f 85/81/84 58/75/57 67/64/66
f 53/32/52 90/82/89 60/33/59
f 88/83/87 15/22/14 37/21/36
f 56/56/55 81/84/80 65/62/64
f 84/85/83 63/69/62 73/86/72
f 92/87/91 68/76/67 78/54/77
f 74/88/73 78/54/77 64/31/63
f 37/21/36 167/89/166 88/83/87
f 61/63/60 91/90/90 70/74/69
f 66/66/65 96/91/95 76/78/75
f 97/92/96 71/67/70 83/80/82
f 99/93/98 73/86/72 85/81/84
f 100/94/99 67/64/66 77/95/76
f 144/96/143 114/70/113 87/71/86
f 40/51/39 120/97/119 134/98/133
f 69/99/68 90/82/89 102/100/101
f 75/73/74 81/84/80 95/101/94
f 98/102/97 72/68/71 84/85/83
f 93/103/92 92/87/91 78/54/77
f 105/104/104 74/88/73 86/30/85
f 70/74/69 103/105/102 81/84/80
f 76/78/75 108/106/107 91/90/90
f 109/107/108 82/79/81 97/92/96
f 111/108/110 84/85/83 99/93/98
f 112/109/111 85/81/84 100/94/99
f 113/110/112 77/95/76 92/87/91
f 69/99/68 115/111/114 80/50/79
f 75/73/74 107/112/106 90/82/89
f 110/113/109 83/80/82 98/102/97
f 117/114/116 93/103/92 105/104/104
f 101/115/100 105/104/104 86/30/85
f 81/84/80 116/116/115 95/101/94
f 91/90/90 122/117/121 103/105/102
f 123/118/122 96/91/95 109/107/108
f 125/119/124 98/102/97 111/108/110
f 126/120/125 99/93/98 112/109/111
f 127/121/126 100/94/99 113/110/112
f 128/122/127 92/87/91 104/123/103
f 179/124/178 144/96/143 87/71/86
f 119/65/118 180/125/179 197/126/196
f 94/127/93 115/111/114 130/128/129
f 90/82/89 121/129/120 102/100/101
f 124/130/123 97/92/96 110/113/109
f 132/131/131 105/104/104 118/132/117
f 133/133/132 101/115/100 114/70/113
f 95/101/94 131/134/130 107/112/106
f 103/105/102 136/135/135 116/116/115
f 137/136/136 108/106/107 123/118/122
f 125/119/124 124/130/123 110/113/109
f 126/120/125 125/119/124 111/108/110
f 141/137/140 112/109/111 127/121/126
f 142/138/141 113/110/112 128/122/127
f 143/139/142 104/123/103 117/114/116
f 94/127/93 145/140/144 106/72/105
f 102/100/101 135/141/134 115/111/114
f 138/142/137 109/107/108 124/130/123
f 147/143/146 118/132/117 133/133/132
f 129/144/128 133/133/132 114/70/113
f 107/112/106 146/145/145 121/129/120
f 116/116/115 151/146/150 131/134/130
f 152/147/151 122/117/121 137/136/136
f 139/148/138 138/142/137 124/130/123
f 140/149/139 139/148/138 125/119/124
f 141/137/140 140/149/139 126/120/125
f 142/138/141 141/137/140 127/121/126
f 158/150/157 128/122/127 143/139/142
f 159/151/158 117/114/116 132/131/131
f 33/26/32 35/43/34 28/27/27
f 119/65/118 134/98/133 161/152/160
f 115/111/114 150/153/149 130/128/129
f 153/154/152 123/118/122 138/142/137
f 164/155/163 133/133/132 148/156/147
f 165/157/164 129/144/128 144/96/143
f 87/71/86 79/77/78 166/158/165
f 121/129/120 163/159/162 135/141/134
f 131/134/130 169/160/168 146/145/145
f 170/161/169 136/135/135 152/147/151
f 154/162/153 153/154/152 138/142/137
f 155/163/154 154/162/153 139/148/138
f 156/164/155 155/163/154 140/149/139
f 157/165/156 156/164/155 141/137/140
f 158/150/157 157/165/156 142/138/141
f 177/166/176 143/139/142 159/151/158
f 178/167/177 132/131/131 147/143/146
f 130/128/129 168/168/167 145/140/144
f 120/97/119 145/140/144 162/169/161
f 171/170/170 137/136/136 153/154/152
f 183/171/182 148/156/147 165/157/164
f 160/172/159 165/157/164 144/96/143
f 149/173/148 216/174/215 234/175/233
f 162/169/161 168/168/167 185/176/184
f 120/97/119 181/177/180 134/98/133
f 135/141/134 182/178/181 150/153/149
f 146/145/145 186/179/185 163/159/162
f 187/180/186 151/146/150 170/161/169
f 189/181/188 153/154/152 172/182/171
f 173/183/172 172/182/171 154/162/153
f 174/184/173 173/183/172 155/163/154
f 175/185/174 174/184/173 156/164/155
f 176/186/175 175/185/174 157/165/156
f 194/187/193 158/150/157 177/166/176
f 195/188/194 159/151/158 178/167/177
f 196/189/195 147/143/146 164/155/163
f 188/190/187 152/147/151 171/170/170
f 184/191/183 183/171/182 165/157/164
f 200/192/199 160/172/159 179/124/178
f 150/153/149 198/193/197 168/168/167
f 163/159/162 204/194/203 182/178/181
f 205/195/204 169/160/168 187/180/186
f 207/196/206 171/170/170 189/181/188
f 190/197/189 189/181/188 172/182/171
f 191/198/190 190/197/189 173/183/172
f 192/199/191 191/198/190 174/184/173
f 193/200/192 192/199/191 175/185/174
f 194/187/193 193/200/192 176/186/175
f 213/201/212 177/166/176 195/188/194
f 214/202/213 178/167/177 196/189/195
f 215/203/214 164/155/163 183/171/182
f 166/158/165 201/204/200 179/124/178
f 181/177/180 161/152/160 134/98/133
f 206/205/205 170/161/169 188/190/187
f 237/206/236 362/207/361 314/208/313
f 218/209/217 184/191/183 200/192/199
f 180/125/179 202/210/201 219/211/218
f 168/168/167 217/212/216 185/176/184
f 162/169/161 203/213/202 181/177/180
f 182/178/181 220/214/219 198/193/197
f 221/215/220 186/179/185 205/195/204
f 223/216/222 188/190/187 207/196/206
f 224/217/223 189/181/188 208/218/207
f 209/219/208 208/218/207 190/197/189
f 210/220/209 209/219/208 191/198/190
f 211/221/210 210/220/209 192/199/191
f 212/222/211 211/221/210 193/200/192
f 213/201/212 212/222/211 194/187/193
f 230/223/229 195/188/194 214/202/213
f 231/224/230 196/189/195 215/203/214
f 199/225/198 215/203/214 183/171/182
f 222/226/221 187/180/186 206/205/205
f 179/124/178 233/227/232 200/192/199
f 203/213/202 202/210/201 181/177/180
f 185/176/184 236/228/235 203/213/202
f 240/229/239 204/194/203 221/215/220
f 242/230/241 206/205/205 223/216/222
f 243/231/242 207/196/206 224/217/223
f 225/232/224 224/217/223 208/218/207
f 226/233/225 225/232/224 209/219/208
f 227/234/226 226/233/225 210/220/209
f 228/235/227 227/234/226 211/221/210
f 229/236/228 228/235/227 212/222/211
f 230/223/229 229/236/228 213/201/212
f 231/224/230 230/223/229 214/202/213
f 232/237/231 231/224/230 215/203/214
f 218/209/217 232/237/231 199/225/198
f 119/65/118 237/206/236 167/89/166
f 198/193/197 239/238/238 217/212/216
f 237/206/236 234/175/233 256/239/255
f 241/240/240 205/195/204 222/226/221
f 218/209/217 233/227/232 253/241/252
f 180/125/179 238/242/237 197/126/196
f 219/211/218 235/243/234 254/244/253
f 260/245/259 220/214/219 240/229/239
f 262/246/261 222/226/221 242/230/241
f 263/247/262 223/216/222 243/231/242
f 264/248/263 224/217/223 244/249/243
f 245/250/244 244/249/243 225/232/224
f 246/251/245 245/250/244 226/233/225
f 247/252/246 246/251/245 227/234/226
f 248/253/247 247/252/246 228/235/227
f 249/254/248 248/253/247 229/236/228
f 250/255/249 249/254/248 230/223/229
f 251/256/250 250/255/249 231/224/230
f 252/257/251 251/256/250 232/237/231
f 273/258/272 88/83/87 167/89/166
f 203/213/202 258/259/257 235/243/234
f 253/241/252 252/257/251 218/209/217
f 217/212/216 259/260/258 236/228/235
f 261/261/260 221/215/220 241/240/240
f 219/211/218 274/262/273 238/242/237
f 79/77/78 255/263/254 166/158/165
f 237/206/236 273/258/272 167/89/166
f 216/174/215 238/242/237 257/264/256
f 278/265/277 239/238/238 260/245/259
f 280/266/279 241/240/240 262/246/261
f 281/267/280 242/230/241 263/247/262
f 282/268/281 243/231/242 264/248/263
f 283/269/282 244/249/243 265/270/264
f 266/271/265 265/270/264 245/250/244
f 267/272/266 266/271/265 246/251/245
f 268/273/267 267/272/266 247/252/246
f 269/274/268 268/273/267 248/253/247
f 270/275/269 269/274/268 249/254/248
f 271/276/270 270/275/269 250/255/249
f 272/277/271 271/276/270 251/256/250
f 216/174/215 276/278/275 234/175/233
f 254/244/253 258/259/257 277/279/276
f 236/228/235 293/280/292 258/259/257
f 279/281/278 240/229/239 261/261/260
f 255/263/254 295/282/294 233/227/232
f 272/277/271 275/283/274 294/284/293
f 298/285/297 261/261/260 280/266/279
f 281/267/280 280/266/279 262/246/261
f 282/268/281 281/267/280 263/247/262
f 283/269/282 282/268/281 264/248/263
f 284/286/283 283/269/282 265/270/264
f 285/287/284 284/286/283 266/271/265
f 286/288/285 285/287/284 267/272/266
f 287/289/286 286/288/285 268/273/267
f 288/290/287 287/289/286 269/274/268
f 289/291/288 288/290/287 270/275/269
f 290/292/289 289/291/288 271/276/270
f 237/206/236 256/239/255 291/293/290
f 238/242/237 292/294/291 257/264/256
f 274/262/273 277/279/276 296/295/295
f 277/279/276 293/280/292 311/296/310
f 312/297/311 259/260/258 278/265/277
f 297/298/296 260/245/259 279/281/278
f 234/175/233 309/299/308 256/239/255
f 317/300/316 279/281/278 298/285/297
f 299/301/298 298/285/297 280/266/279
f 300/302/299 299/301/298 281/267/280
f 301/303/300 300/302/299 282/268/281
f 302/304/301 301/303/300 283/269/282
f 303/305/302 302/304/301 284/286/283
f 304/306/303 303/305/302 285/287/284
f 305/307/304 304/306/303 286/288/285
f 306/308/305 305/307/304 287/289/286
f 307/309/306 306/308/305 288/290/287
f 308/310/307 307/309/306 289/291/288
f 253/241/252 328/311/327 275/283/274
f 237/206/236 291/293/290 315/312/314
f 257/264/256 310/313/309 276/278/275
f 296/295/295 311/296/310 329/314/328
f 312/297/311 311/296/310 293/280/292
f 290/292/289 294/284/293 313/315/312
f 292/294/291 296/295/295 316/316/315
f 331/317/330 278/265/277 297/298/296
f 308/310/307 313/315/312 332/318/331
f 318/319/317 317/300/316 298/285/297
f 319/320/318 318/319/317 299/301/298
f 320/321/319 319/320/318 300/302/299
f 321/322/320 320/321/319 301/303/300
f 322/323/321 321/322/320 302/304/301
f 323/324/322 322/323/321 303/305/302
f 324/325/323 323/324/322 304/306/303
f 325/326/324 324/325/323 305/307/304
f 326/327/325 325/326/324 306/308/305
f 327/328/326 326/327/325 307/309/306
f 294/284/293 328/311/327 346/329/345
f 256/239/255 333/330/332 291/293/290
f 310/313/309 316/316/315 335/331/334
f 330/332/329 329/314/328 311/296/310
f 350/333/349 297/298/296 317/300/316
f 346/329/345 295/282/294 387/334/386
f 315/312/314 405/335/404 362/207/361
f 276/278/275 334/336/333 309/299/308
f 331/317/330 330/332/329 312/297/311
f 327/328/326 332/318/331 351/337/350
f 337/338/336 336/339/335 318/319/317
f 338/340/337 337/338/336 319/320/318
f 339/341/338 338/340/337 320/321/319
f 340/342/339 339/341/338 321/322/320
f 341/343/340 340/342/339 322/323/321
f 342/344/341 341/343/340 323/324/322
f 343/345/342 342/344/341 324/325/323
f 344/346/343 343/345/342 325/326/324
f 345/347/344 344/346/343 326/327/325
f 294/284/293 361/348/360 313/315/312
f 348/349/347 347/350/346 329/314/328
f 350/333/349 349/351/348 331/317/330
f 336/339/335 350/333/349 317/300/316
f 361/348/360 387/334/386 481/352/480
f 314/208/313 362/207/361 437/353/436
f 333/330/332 315/312/314 291/293/290
f 316/316/315 329/314/328 347/350/346
f 335/331/334 334/336/333 310/313/309
f 335/331/334 347/350/346 366/354/365
f 349/351/348 348/349/347 330/332/329
f 345/347/344 351/337/350 371/355/370
f 353/356/352 352/357/351 337/338/336
f 354/358/353 353/356/352 338/340/337
f 355/359/354 354/358/353 339/341/338
f 356/360/355 355/359/354 340/342/339
f 357/361/356 356/360/355 341/343/340
f 358/362/357 357/361/356 342/344/341
f 359/363/358 358/362/357 343/345/342
f 360/364/359 359/363/358 344/346/343
f 332/318/331 361/348/360 380/365/379
f 334/336/333 333/330/332 309/299/308
f 367/366/366 366/354/365 347/350/346
f 369/367/368 368/368/367 349/351/348
f 370/369/369 369/367/368 350/333/349
f 352/357/351 370/369/369 336/339/335
f 368/368/367 367/366/366 348/349/347
f 360/364/359 371/355/370 386/370/385
f 373/371/372 372/372/371 353/356/352
f 374/373/373 373/371/372 354/358/353
f 375/374/374 374/373/373 355/359/354
f 376/375/375 375/374/374 356/360/355
f 377/376/376 376/375/375 357/361/356
f 378/377/377 377/376/376 358/362/357
f 379/378/378 378/377/377 359/363/358
f 332/318/331 398/379/397 351/337/350
f 363/380/362 429/381/428 405/335/404
f 365/382/364 364/383/363 334/336/333
f 366/354/365 365/382/364 335/331/334
f 383/384/382 382/385/381 368/368/367
f 384/386/383 383/384/382 369/367/368
f 385/387/384 384/386/383 370/369/369
f 372/372/371 385/387/384 352/357/351
f 413/388/412 380/365/379 481/352/480
f 364/383/363 363/380/362 333/330/332
f 381/389/380 390/390/389 366/354/365
f 382/385/381 381/389/380 367/366/366
f 379/378/378 386/370/385 404/391/403
f 392/392/391 391/393/390 373/371/372
f 393/394/392 392/392/391 374/373/373
f 394/395/393 393/394/392 375/374/374
f 395/396/394 394/395/393 376/375/375
f 396/397/395 395/396/394 377/376/376
f 397/398/396 396/397/395 378/377/377
f 371/355/370 398/379/397 413/388/412
f 400/399/399 399/400/398 382/385/381
f 401/401/400 400/399/399 383/384/382
f 418/402/417 384/386/383 402/403/401
f 403/404/402 402/403/401 385/387/384
f 391/393/390 403/404/402 372/372/371
f 388/405/387 454/406/453 429/381/428
f 389/407/388 388/405/387 364/383/363
f 390/390/389 389/407/388 365/382/364
f 379/378/378 421/408/420 397/398/396
f 408/409/407 407/410/406 392/392/391
f 409/411/408 408/409/407 393/394/392
f 425/412/424 394/395/393 410/413/409
f 411/414/410 410/413/409 395/396/394
f 412/415/411 411/414/410 396/397/395
f 371/355/370 428/416/427 386/370/385
f 406/417/405 415/418/414 390/390/389
f 399/400/398 406/417/405 381/389/380
f 417/419/416 416/420/415 400/399/399
f 432/421/431 401/401/400 418/402/417
f 433/422/432 402/403/401 419/423/418
f 434/424/433 403/404/402 420/425/419
f 407/410/406 420/425/419 391/393/390
f 444/426/443 413/388/412 481/352/480
f 416/420/415 422/427/421 399/400/398
f 412/415/411 421/408/420 436/428/435
f 440/429/439 408/409/407 424/430/423
f 441/431/440 409/411/408 425/412/424
f 442/432/441 410/413/409 426/433/425
f 427/434/426 426/433/425 411/414/410
f 404/391/403 428/416/427 444/426/443
f 362/207/361 405/335/404 437/353/436
f 415/418/414 414/435/413 389/407/388
f 447/436/446 417/419/416 432/421/431
f 448/437/447 418/402/417 433/422/432
f 449/438/448 419/423/418 434/424/433
f 450/439/449 420/425/419 435/440/434
f 451/441/450 407/410/406 423/442/422
f 414/435/413 473/443/472 454/406/453
f 405/335/404 482/444/481 437/353/436
f 455/445/454 415/418/414 430/446/429
f 446/447/445 406/417/405 422/427/421
f 456/448/455 416/420/415 431/449/430
f 412/415/411 452/450/451 427/434/426
f 457/451/456 424/430/423 441/431/440
f 458/452/457 425/412/424 442/432/441
f 459/453/458 426/433/425 443/454/442
f 404/391/403 460/455/459 421/408/420
f 461/456/460 422/427/421 439/457/438
f 462/458/461 432/421/431 448/437/447
f 463/459/462 433/422/432 449/438/448
f 464/460/463 434/424/433 450/439/449
f 465/461/464 435/440/434 451/441/450
f 466/462/465 423/442/422 440/429/439
f 460/455/459 481/352/480 506/463/505
f 255/263/254 521/464/520 481/352/480
f 469/465/468 431/449/430 447/436/446
f 443/454/442 452/450/451 467/466/466
f 470/467/469 441/431/440 458/452/457
f 471/468/470 442/432/441 459/453/458
f 436/428/435 460/455/459 472/469/471
f 487/470/486 438/471/437 455/445/454
f 468/472/467 487/470/486 455/445/454
f 468/472/467 430/446/429 446/447/445
f 474/473/473 439/457/438 456/448/455
f 475/474/474 448/437/447 463/459/462
f 476/475/475 449/438/448 464/460/463
f 477/476/476 450/439/449 465/461/464
f 478/477/477 451/441/450 466/462/465
f 479/478/478 440/429/439 457/451/456
f 516/479/515 437/353/436 482/444/481
f 483/480/482 446/447/445 461/456/460
f 462/458/461 469/465/468 447/436/446
f 443/454/442 480/481/479 459/453/458
f 485/482/484 458/452/457 471/468/470
f 436/428/435 486/483/485 452/450/451
f 429/381/428 454/406/453 482/444/481
f 488/484/487 456/448/455 469/465/468
f 476/475/475 475/474/474 463/459/462
f 477/476/476 476/475/475 464/460/463
f 478/477/477 477/476/476 465/461/464
f 492/485/491 466/462/465 479/478/478
f 493/486/492 457/451/456 470/467/469
f 497/487/496 472/469/471 506/463/505
f 483/480/482 498/488/497 468/472/467
f 474/473/473 483/480/482 461/456/460
f 475/474/474 484/489/483 462/458/461
f 471/468/470 480/481/479 494/490/493
f 467/466/466 486/483/485 497/487/496
f 495/491/494 510/492/509 483/480/482
f 484/489/483 488/484/487 469/465/468
f 490/493/489 489/494/488 476/475/475
f 491/495/490 490/493/489 477/476/476
f 492/485/491 491/495/490 478/477/477
f 493/486/492 492/485/491 479/478/478
f 504/496/503 470/467/469 485/482/484
f 454/406/453 473/443/472 482/444/481
f 488/484/487 495/491/494 474/473/473
f 489/494/488 496/497/495 475/474/474
f 471/468/470 505/498/504 485/482/484
f 507/499/506 523/500/522 495/491/494
f 496/497/495 499/501/498 484/489/483
f 467/466/466 509/502/508 480/481/479
f 501/503/500 500/504/499 490/493/489
f 502/505/501 501/503/500 491/495/490
f 503/506/502 502/505/501 492/485/491
f 504/496/503 503/506/502 493/486/492
f 509/502/508 506/463/505 543/507/542
f 522/508/521 473/443/472 487/470/486
f 499/501/498 507/499/506 488/484/487
f 500/504/499 508/509/507 489/494/488
f 517/510/516 532/511/531 507/499/506
f 508/509/507 511/512/510 496/497/495
f 505/498/504 504/496/503 485/482/484
f 513/513/512 512/514/511 501/503/500
f 514/515/513 513/513/512 502/505/501
f 515/516/514 514/515/513 503/506/502
f 494/490/493 509/502/508 520/517/519
f 498/488/497 522/508/521 487/470/486
f 445/518/444 516/479/515 558/519/557
f 511/512/510 517/510/516 499/501/498
f 512/514/511 518/520/517 500/504/499
f 494/490/493 531/521/530 505/498/504
f 528/522/527 539/523/538 517/510/516
f 518/520/517 524/524/523 508/509/507
f 504/496/503 530/525/529 515/516/514
f 526/526/525 525/527/524 513/513/512
f 527/528/526 526/526/525 514/515/513
f 542/529/541 520/517/519 543/507/542
f 510/492/509 522/508/521 498/488/497
f 524/524/523 528/522/527 511/512/510
f 525/527/524 529/530/528 512/514/511
f 536/531/535 547/532/546 528/522/527
f 529/530/528 533/533/532 518/520/517
f 527/528/526 530/525/529 538/534/537
f 535/535/534 534/536/533 526/526/525
f 531/521/530 519/537/518 505/498/504
f 523/500/522 522/508/521 510/492/509
f 533/533/532 536/531/535 524/524/523
f 545/538/544 525/527/524 534/536/533
f 532/511/531 553/539/552 523/500/522
f 544/540/543 554/541/553 536/531/535
f 548/542/547 529/530/528 537/543/536
f 535/535/534 538/534/537 546/544/545
f 519/537/518 549/545/548 530/525/529
f 550/546/549 533/533/532 540/547/539
f 551/548/550 534/536/533 541/549/540
f 539/523/538 553/539/552 532/511/531
f 549/545/548 543/507/542 575/550/566
f 566/551/560 544/540/543 550/546/549
f 555/552/554 537/543/536 545/538/544
f 541/549/540 546/544/545 552/553/551
f 557/554/556 540/547/539 548/542/547
f 538/534/537 549/545/548 556/555/555
f 569/556/1 550/546/549 557/554/556
f 561/557/560 545/538/544 551/548/550
f 565/558/560 548/542/547 555/552/554
f 541/549/540 562/559/559 551/548/550
f 546/544/545 556/555/555 563/560/561
f 547/532/546 553/539/552 539/523/538
f 453/561/452 564/562/562 521/464/520
f 571/563/1 557/554/556 565/558/560
f 552/553/551 546/544/545 563/560/561
f 554/541/553 559/564/558 547/532/546
f 521/464/520 543/507/542 506/463/505
f 567/565/1 555/552/554 561/557/560
f 562/559/559 561/557/560 551/548/550
f 560/566/559 559/564/558 554/541/553
f 580/567/570 516/479/515 573/568/564
f 563/560/561 556/555/555 575/550/566
f 562/559/559 563/560/561 570/569/563
f 566/551/560 559/564/558 560/566/559
f 567/565/1 571/563/1 565/558/560
f 569/556/1 559/564/558 566/551/560
f 574/570/565 569/556/1 571/563/1
f 577/571/568 567/565/1 561/557/560
f 563/560/561 575/550/566 570/569/563
f 572/572/1 574/570/565 571/563/1
f 564/562/562 576/573/567 521/464/520
f 578/574/569 568/575/1 562/559/559
f 572/572/1 577/571/568 574/570/565
f 11/45/10 2/20/2 3/576/3
f 558/519/557 580/567/570 579/577/1
f 573/568/564 574/570/565 581/578/571
f 583/579/573 570/569/563 575/550/566
f 577/571/568 582/580/572 574/570/565
f 48/19/47 64/31/63 47/18/46
f 543/507/542 584/581/574 575/550/566
f 314/208/313 437/353/436 445/518/444
f 580/567/570 573/568/564 581/578/571
f 581/578/571 574/570/565 582/580/572
f 582/580/572 578/574/569 583/579/573
f 3/576/3 17/582/16 11/45/10
f 583/579/573 575/550/566 584/581/574
f 584/581/574 576/573/567 585/583/575
f 15/22/14 1/584/1 2/20/2
f 564/562/562 586/585/1 585/583/575
f 12/4/11 36/17/35 87/71/86
f 482/444/481 553/539/552 573/568/564
f 8/1/7 4/10/4 5/2/5
f 5/2/5 10/6/9 12/4/11
f 13/7/12 14/15/13 18/8/17
f 24/11/23 17/582/16 4/10/4
f 4/10/4 8/1/7 13/7/12
f 27/13/26 24/11/23 13/7/12
f 13/7/12 20/9/19 23/12/22
f 19/14/18 21/25/20 14/15/13
f 36/17/35 10/6/9 6/5/6
f 6/5/6 7/586/1 16/16/15
f 47/18/46 33/26/32 12/4/11
f 2/20/2 11/45/10 37/21/36
f 12/4/11 33/26/32 22/23/21
f 22/23/21 19/14/18 9/3/8
f 27/13/26 30/48/29 38/24/37
f 21/25/20 25/34/24 18/8/17
f 14/15/13 13/7/12 8/1/7
f 21/25/20 19/14/18 22/23/21
f 18/8/17 25/34/24 29/29/28
f 48/19/47 87/71/86 86/30/85
f 86/30/85 74/88/73 64/31/63
f 60/33/59 40/51/39 24/11/23
f 24/11/23 45/41/44 53/32/52
f 26/28/25 31/42/30 25/34/24
f 22/23/21 28/27/27 32/35/31
f 33/26/32 47/18/46 59/36/58
f 59/36/58 52/61/51 44/37/43
f 23/12/22 20/9/19 29/29/28
f 25/34/24 31/42/30 39/39/38
f 23/12/22 34/38/33 41/40/40
f 32/35/31 42/52/41 31/42/30
f 32/35/31 28/27/27 35/43/34
f 11/45/10 17/582/16 89/46/88
f 34/38/33 29/29/28 39/39/38
f 44/37/43 51/60/50 43/44/42
f 30/48/29 27/13/26 41/40/40
f 60/33/59 69/99/68 80/50/79
f 39/39/38 31/42/30 42/52/41
f 43/44/42 55/58/54 42/52/41
f 47/18/46 64/31/63 78/54/77
f 78/54/77 68/76/67 59/36/58
f 34/38/33 46/47/45 54/55/53
f 30/48/29 49/49/48 56/56/55
f 39/39/38 50/53/49 57/57/56
f 50/53/49 42/52/41 55/58/54
f 51/60/50 63/69/62 55/58/54
f 52/61/51 58/75/57 51/60/50
f 45/41/44 38/24/37 56/56/55
f 49/49/48 41/40/40 54/55/53
f 67/64/66 58/75/57 52/61/51
f 89/46/88 17/582/16 24/11/23
f 24/11/23 40/51/39 119/65/118
f 46/47/45 57/57/56 66/66/65
f 50/53/49 62/59/61 71/67/70
f 72/68/71 62/59/61 55/58/54
f 114/70/113 101/115/100 86/30/85
f 80/50/79 94/127/93 106/72/105
f 53/32/52 45/41/44 65/62/64
f 49/49/48 61/63/60 70/74/69
f 58/75/57 73/86/72 63/69/62
f 68/76/67 77/95/76 67/64/66
f 54/55/53 66/66/65 76/78/75
f 57/57/56 71/67/70 82/79/81
f 83/80/82 71/67/70 62/59/61
f 85/81/84 73/86/72 58/75/57
f 53/32/52 75/73/74 90/82/89
f 56/56/55 70/74/69 81/84/80
f 84/85/83 72/68/71 63/69/62
f 92/87/91 77/95/76 68/76/67
f 74/88/73 93/103/92 78/54/77
f 37/21/36 89/46/88 167/89/166
f 61/63/60 76/78/75 91/90/90
f 66/66/65 82/79/81 96/91/95
f 97/92/96 82/79/81 71/67/70
f 99/93/98 84/85/83 73/86/72
f 100/94/99 85/81/84 67/64/66
f 144/96/143 129/144/128 114/70/113
f 134/98/133 119/65/118 40/51/39
f 40/51/39 106/72/105 120/97/119
f 69/99/68 60/33/59 90/82/89
f 75/73/74 65/62/64 81/84/80
f 98/102/97 83/80/82 72/68/71
f 93/103/92 104/123/103 92/87/91
f 105/104/104 93/103/92 74/88/73
f 70/74/69 91/90/90 103/105/102
f 76/78/75 96/91/95 108/106/107
f 109/107/108 96/91/95 82/79/81
f 111/108/110 98/102/97 84/85/83
f 112/109/111 99/93/98 85/81/84
f 113/110/112 100/94/99 77/95/76
f 69/99/68 102/100/101 115/111/114
f 75/73/74 95/101/94 107/112/106
f 110/113/109 97/92/96 83/80/82
f 117/114/116 104/123/103 93/103/92
f 101/115/100 118/132/117 105/104/104
f 81/84/80 103/105/102 116/116/115
f 91/90/90 108/106/107 122/117/121
f 123/118/122 108/106/107 96/91/95
f 125/119/124 110/113/109 98/102/97
f 126/120/125 111/108/110 99/93/98
f 127/121/126 112/109/111 100/94/99
f 128/122/127 113/110/112 92/87/91
f 87/71/86 166/158/165 179/124/178
f 179/124/178 160/172/159 144/96/143
f 197/126/196 149/173/148 119/65/118
f 119/65/118 161/152/160 180/125/179
f 94/127/93 80/50/79 115/111/114
f 90/82/89 107/112/106 121/129/120
f 124/130/123 109/107/108 97/92/96
f 132/131/131 117/114/116 105/104/104
f 133/133/132 118/132/117 101/115/100
f 95/101/94 116/116/115 131/134/130
f 103/105/102 122/117/121 136/135/135
f 137/136/136 122/117/121 108/106/107
f 125/119/124 139/148/138 124/130/123
f 126/120/125 140/149/139 125/119/124
f 141/137/140 126/120/125 112/109/111
f 142/138/141 127/121/126 113/110/112
f 143/139/142 128/122/127 104/123/103
f 94/127/93 130/128/129 145/140/144
f 102/100/101 121/129/120 135/141/134
f 138/142/137 123/118/122 109/107/108
f 147/143/146 132/131/131 118/132/117
f 129/144/128 148/156/147 133/133/132
f 107/112/106 131/134/130 146/145/145
f 116/116/115 136/135/135 151/146/150
f 152/147/151 136/135/135 122/117/121
f 139/148/138 154/162/153 138/142/137
f 140/149/139 155/163/154 139/148/138
f 141/137/140 156/164/155 140/149/139
f 142/138/141 157/165/156 141/137/140
f 158/150/157 142/138/141 128/122/127
f 159/151/158 143/139/142 117/114/116
f 33/26/32 44/37/43 35/43/34
f 115/111/114 135/141/134 150/153/149
f 153/154/152 137/136/136 123/118/122
f 164/155/163 147/143/146 133/133/132
f 165/157/164 148/156/147 129/144/128
f 87/71/86 36/17/35 79/77/78
f 121/129/120 146/145/145 163/159/162
f 131/134/130 151/146/150 169/160/168
f 170/161/169 151/146/150 136/135/135
f 154/162/153 172/182/171 153/154/152
f 155/163/154 173/183/172 154/162/153
f 156/164/155 174/184/173 155/163/154
f 157/165/156 175/185/174 156/164/155
f 158/150/157 176/186/175 157/165/156
f 177/166/176 158/150/157 143/139/142
f 178/167/177 159/151/158 132/131/131
f 130/128/129 150/153/149 168/168/167
f 120/97/119 106/72/105 145/140/144
f 171/170/170 152/147/151 137/136/136
f 183/171/182 164/155/163 148/156/147
f 160/172/159 184/191/183 165/157/164
f 234/175/233 237/206/236 149/173/148
f 149/173/148 197/126/196 216/174/215
f 162/169/161 145/140/144 168/168/167
f 120/97/119 162/169/161 181/177/180
f 135/141/134 163/159/162 182/178/181
f 146/145/145 169/160/168 186/179/185
f 187/180/186 169/160/168 151/146/150
f 189/181/188 171/170/170 153/154/152
f 173/183/172 190/197/189 172/182/171
f 174/184/173 191/198/190 173/183/172
f 175/185/174 192/199/191 174/184/173
f 176/186/175 193/200/192 175/185/174
f 194/187/193 176/186/175 158/150/157
f 195/188/194 177/166/176 159/151/158
f 196/189/195 178/167/177 147/143/146
f 188/190/187 170/161/169 152/147/151
f 184/191/183 199/225/198 183/171/182
f 200/192/199 184/191/183 160/172/159
f 150/153/149 182/178/181 198/193/197
f 163/159/162 186/179/185 204/194/203
f 205/195/204 186/179/185 169/160/168
f 207/196/206 188/190/187 171/170/170
f 190/197/189 208/218/207 189/181/188
f 191/198/190 209/219/208 190/197/189
f 192/199/191 210/220/209 191/198/190
f 193/200/192 211/221/210 192/199/191
f 194/187/193 212/222/211 193/200/192
f 213/201/212 194/187/193 177/166/176
f 214/202/213 195/188/194 178/167/177
f 215/203/214 196/189/195 164/155/163
f 181/177/180 202/210/201 161/152/160
f 206/205/205 187/180/186 170/161/169
f 237/206/236 315/312/314 362/207/361
f 218/209/217 199/225/198 184/191/183
f 180/125/179 161/152/160 202/210/201
f 168/168/167 198/193/197 217/212/216
f 162/169/161 185/176/184 203/213/202
f 182/178/181 204/194/203 220/214/219
f 221/215/220 204/194/203 186/179/185
f 223/216/222 206/205/205 188/190/187
f 224/217/223 207/196/206 189/181/188
f 209/219/208 225/232/224 208/218/207
f 210/220/209 226/233/225 209/219/208
f 211/221/210 227/234/226 210/220/209
f 212/222/211 228/235/227 211/221/210
f 213/201/212 229/236/228 212/222/211
f 230/223/229 213/201/212 195/188/194
f 231/224/230 214/202/213 196/189/195
f 199/225/198 232/237/231 215/203/214
f 222/226/221 205/195/204 187/180/186
f 179/124/178 201/204/200 233/227/232
f 203/213/202 235/243/234 202/210/201
f 185/176/184 217/212/216 236/228/235
f 240/229/239 220/214/219 204/194/203
f 242/230/241 222/226/221 206/205/205
f 243/231/242 223/216/222 207/196/206
f 225/232/224 244/249/243 224/217/223
f 226/233/225 245/250/244 225/232/224
f 227/234/226 246/251/245 226/233/225
f 228/235/227 247/252/246 227/234/226
f 229/236/228 248/253/247 228/235/227
f 230/223/229 249/254/248 229/236/228
f 231/224/230 250/255/249 230/223/229
f 232/237/231 251/256/250 231/224/230
f 218/209/217 252/257/251 232/237/231
f 167/89/166 89/46/88 119/65/118
f 119/65/118 149/173/148 237/206/236
f 198/193/197 220/214/219 239/238/238
f 241/240/240 221/215/220 205/195/204
f 218/209/217 200/192/199 233/227/232
f 180/125/179 219/211/218 238/242/237
f 219/211/218 202/210/201 235/243/234
f 260/245/259 239/238/238 220/214/219
f 262/246/261 241/240/240 222/226/221
f 263/247/262 242/230/241 223/216/222
f 264/248/263 243/231/242 224/217/223
f 245/250/244 265/270/264 244/249/243
f 246/251/245 266/271/265 245/250/244
f 247/252/246 267/272/266 246/251/245
f 248/253/247 268/273/267 247/252/246
f 249/254/248 269/274/268 248/253/247
f 250/255/249 270/275/269 249/254/248
f 251/256/250 271/276/270 250/255/249
f 252/257/251 272/277/271 251/256/250
f 203/213/202 236/228/235 258/259/257
f 253/241/252 275/283/274 252/257/251
f 217/212/216 239/238/238 259/260/258
f 261/261/260 240/229/239 221/215/220
f 219/211/218 254/244/253 274/262/273
f 237/206/236 314/208/313 273/258/272
f 216/174/215 197/126/196 238/242/237
f 278/265/277 259/260/258 239/238/238
f 280/266/279 261/261/260 241/240/240
f 281/267/280 262/246/261 242/230/241
f 282/268/281 263/247/262 243/231/242
f 283/269/282 264/248/263 244/249/243
f 266/271/265 284/286/283 265/270/264
f 267/272/266 285/287/284 266/271/265
f 268/273/267 286/288/285 267/272/266
f 269/274/268 287/289/286 268/273/267
f 270/275/269 288/290/287 269/274/268
f 271/276/270 289/291/288 270/275/269
f 272/277/271 290/292/289 271/276/270
f 216/174/215 257/264/256 276/278/275
f 254/244/253 235/243/234 258/259/257
f 236/228/235 259/260/258 293/280/292
f 279/281/278 260/245/259 240/229/239
f 201/204/200 166/158/165 255/263/254
f 255/263/254 387/334/386 295/282/294
f 295/282/294 253/241/252 233/227/232
f 233/227/232 201/204/200 255/263/254
f 272/277/271 252/257/251 275/283/274
f 298/285/297 279/281/278 261/261/260
f 281/267/280 299/301/298 280/266/279
f 282/268/281 300/302/299 281/267/280
f 283/269/282 301/303/300 282/268/281
f 284/286/283 302/304/301 283/269/282
f 285/287/284 303/305/302 284/286/283
f 286/288/285 304/306/303 285/287/284
f 287/289/286 305/307/304 286/288/285
f 288/290/287 306/308/305 287/289/286
f 289/291/288 307/309/306 288/290/287
f 290/292/289 308/310/307 289/291/288
f 238/242/237 274/262/273 292/294/291
f 274/262/273 254/244/253 277/279/276
f 277/279/276 258/259/257 293/280/292
f 312/297/311 293/280/292 259/260/258
f 297/298/296 278/265/277 260/245/259
f 234/175/233 276/278/275 309/299/308
f 317/300/316 297/298/296 279/281/278
f 299/301/298 318/319/317 298/285/297
f 300/302/299 319/320/318 299/301/298
f 301/303/300 320/321/319 300/302/299
f 302/304/301 321/322/320 301/303/300
f 303/305/302 322/323/321 302/304/301
f 304/306/303 323/324/322 303/305/302
f 305/307/304 324/325/323 304/306/303
f 306/308/305 325/326/324 305/307/304
f 307/309/306 326/327/325 306/308/305
f 308/310/307 327/328/326 307/309/306
f 253/241/252 295/282/294 328/311/327
f 257/264/256 292/294/291 310/313/309
f 296/295/295 277/279/276 311/296/310
f 312/297/311 330/332/329 311/296/310
f 290/292/289 272/277/271 294/284/293
f 292/294/291 274/262/273 296/295/295
f 331/317/330 312/297/311 278/265/277
f 308/310/307 290/292/289 313/315/312
f 318/319/317 336/339/335 317/300/316
f 319/320/318 337/338/336 318/319/317
f 320/321/319 338/340/337 319/320/318
f 321/322/320 339/341/338 320/321/319
f 322/323/321 340/342/339 321/322/320
f 323/324/322 341/343/340 322/323/321
f 324/325/323 342/344/341 323/324/322
f 325/326/324 343/345/342 324/325/323
f 326/327/325 344/346/343 325/326/324
f 327/328/326 345/347/344 326/327/325
f 294/284/293 275/283/274 328/311/327
f 256/239/255 309/299/308 333/330/332
f 310/313/309 292/294/291 316/316/315
f 330/332/329 348/349/347 329/314/328
f 350/333/349 331/317/330 297/298/296
f 346/329/345 328/311/327 295/282/294
f 315/312/314 363/380/362 405/335/404
f 276/278/275 310/313/309 334/336/333
f 331/317/330 349/351/348 330/332/329
f 327/328/326 308/310/307 332/318/331
f 337/338/336 352/357/351 336/339/335
f 338/340/337 353/356/352 337/338/336
f 339/341/338 354/358/353 338/340/337
f 340/342/339 355/359/354 339/341/338
f 341/343/340 356/360/355 340/342/339
f 342/344/341 357/361/356 341/343/340
f 343/345/342 358/362/357 342/344/341
f 344/346/343 359/363/358 343/345/342
f 345/347/344 360/364/359 344/346/343
f 294/284/293 346/329/345 361/348/360
f 348/349/347 367/366/366 347/350/346
f 350/333/349 369/367/368 349/351/348
f 336/339/335 370/369/369 350/333/349
f 481/352/480 380/365/379 361/348/360
f 361/348/360 346/329/345 387/334/386
f 333/330/332 363/380/362 315/312/314
f 316/316/315 296/295/295 329/314/328
f 335/331/334 365/382/364 334/336/333
f 335/331/334 316/316/315 347/350/346
f 349/351/348 368/368/367 348/349/347
f 345/347/344 327/328/326 351/337/350
f 353/356/352 372/372/371 352/357/351
f 354/358/353 373/371/372 353/356/352
f 355/359/354 374/373/373 354/358/353
f 356/360/355 375/374/374 355/359/354
f 357/361/356 376/375/375 356/360/355
f 358/362/357 377/376/376 357/361/356
f 359/363/358 378/377/377 358/362/357
f 360/364/359 379/378/378 359/363/358
f 332/318/331 313/315/312 361/348/360
f 334/336/333 364/383/363 333/330/332
f 367/366/366 381/389/380 366/354/365
f 369/367/368 383/384/382 368/368/367
f 370/369/369 384/386/383 369/367/368
f 352/357/351 385/387/384 370/369/369
f 368/368/367 382/385/381 367/366/366
f 360/364/359 345/347/344 371/355/370
f 373/371/372 391/393/390 372/372/371
f 374/373/373 392/392/391 373/371/372
f 375/374/374 393/394/392 374/373/373
f 376/375/375 394/395/393 375/374/374
f 377/376/376 395/396/394 376/375/375
f 378/377/377 396/397/395 377/376/376
f 379/378/378 397/398/396 378/377/377
f 332/318/331 380/365/379 398/379/397
f 363/380/362 388/405/387 429/381/428
f 365/382/364 389/407/388 364/383/363
f 366/354/365 390/390/389 365/382/364
f 383/384/382 400/399/399 382/385/381
f 384/386/383 401/401/400 383/384/382
f 385/387/384 402/403/401 384/386/383
f 372/372/371 403/404/402 385/387/384
f 413/388/412 398/379/397 380/365/379
f 364/383/363 388/405/387 363/380/362
f 381/389/380 406/417/405 390/390/389
f 382/385/381 399/400/398 381/389/380
f 379/378/378 360/364/359 386/370/385
f 392/392/391 407/410/406 391/393/390
f 393/394/392 408/409/407 392/392/391
f 394/395/393 409/411/408 393/394/392
f 395/396/394 410/413/409 394/395/393
f 396/397/395 411/414/410 395/396/394
f 397/398/396 412/415/411 396/397/395
f 371/355/370 351/337/350 398/379/397
f 400/399/399 416/420/415 399/400/398
f 401/401/400 417/419/416 400/399/399
f 418/402/417 401/401/400 384/386/383
f 403/404/402 419/423/418 402/403/401
f 391/393/390 420/425/419 403/404/402
f 388/405/387 414/435/413 454/406/453
f 389/407/388 414/435/413 388/405/387
f 390/390/389 415/418/414 389/407/388
f 379/378/378 404/391/403 421/408/420
f 408/409/407 423/442/422 407/410/406
f 409/411/408 424/430/423 408/409/407
f 425/412/424 409/411/408 394/395/393
f 411/414/410 426/433/425 410/413/409
f 412/415/411 427/434/426 411/414/410
f 371/355/370 413/388/412 428/416/427
f 406/417/405 430/446/429 415/418/414
f 399/400/398 422/427/421 406/417/405
f 417/419/416 431/449/430 416/420/415
f 432/421/431 417/419/416 401/401/400
f 433/422/432 418/402/417 402/403/401
f 434/424/433 419/423/418 403/404/402
f 407/410/406 435/440/434 420/425/419
f 444/426/443 428/416/427 413/388/412
f 416/420/415 439/457/438 422/427/421
f 412/415/411 397/398/396 421/408/420
f 440/429/439 423/442/422 408/409/407
f 441/431/440 424/430/423 409/411/408
f 442/432/441 425/412/424 410/413/409
f 427/434/426 443/454/442 426/433/425
f 404/391/403 386/370/385 428/416/427
f 415/418/414 438/471/437 414/435/413
f 447/436/446 431/449/430 417/419/416
f 448/437/447 432/421/431 418/402/417
f 449/438/448 433/422/432 419/423/418
f 450/439/449 434/424/433 420/425/419
f 451/441/450 435/440/434 407/410/406
f 414/435/413 438/471/437 473/443/472
f 405/335/404 429/381/428 482/444/481
f 455/445/454 438/471/437 415/418/414
f 446/447/445 430/446/429 406/417/405
f 456/448/455 439/457/438 416/420/415
f 412/415/411 436/428/435 452/450/451
f 457/451/456 440/429/439 424/430/423
f 458/452/457 441/431/440 425/412/424
f 459/453/458 442/432/441 426/433/425
f 404/391/403 444/426/443 460/455/459
f 461/456/460 446/447/445 422/427/421
f 462/458/461 447/436/446 432/421/431
f 463/459/462 448/437/447 433/422/432
f 464/460/463 449/438/448 434/424/433
f 465/461/464 450/439/449 435/440/434
f 466/462/465 451/441/450 423/442/422
f 506/463/505 472/469/471 460/455/459
f 460/455/459 444/426/443 481/352/480
f 481/352/480 387/334/386 255/263/254
f 255/263/254 453/561/452 521/464/520
f 469/465/468 456/448/455 431/449/430
f 443/454/442 427/434/426 452/450/451
f 470/467/469 457/451/456 441/431/440
f 471/468/470 458/452/457 442/432/441
f 436/428/435 421/408/420 460/455/459
f 487/470/486 473/443/472 438/471/437
f 468/472/467 498/488/497 487/470/486
f 468/472/467 455/445/454 430/446/429
f 474/473/473 461/456/460 439/457/438
f 475/474/474 462/458/461 448/437/447
f 476/475/475 463/459/462 449/438/448
f 477/476/476 464/460/463 450/439/449
f 478/477/477 465/461/464 451/441/450
f 479/478/478 466/462/465 440/429/439
f 516/479/515 445/518/444 437/353/436
f 483/480/482 468/472/467 446/447/445
f 462/458/461 484/489/483 469/465/468
f 443/454/442 467/466/466 480/481/479
f 485/482/484 470/467/469 458/452/457
f 436/428/435 472/469/471 486/483/485
f 488/484/487 474/473/473 456/448/455
f 476/475/475 489/494/488 475/474/474
f 477/476/476 490/493/489 476/475/475
f 478/477/477 491/495/490 477/476/476
f 492/485/491 478/477/477 466/462/465
f 493/486/492 479/478/478 457/451/456
f 497/487/496 486/483/485 472/469/471
f 483/480/482 510/492/509 498/488/497
f 474/473/473 495/491/494 483/480/482
f 475/474/474 496/497/495 484/489/483
f 471/468/470 459/453/458 480/481/479
f 467/466/466 452/450/451 486/483/485
f 495/491/494 523/500/522 510/492/509
f 484/489/483 499/501/498 488/484/487
f 490/493/489 500/504/499 489/494/488
f 491/495/490 501/503/500 490/493/489
f 492/485/491 502/505/501 491/495/490
f 493/486/492 503/506/502 492/485/491
f 504/496/503 493/486/492 470/467/469
f 488/484/487 507/499/506 495/491/494
f 489/494/488 508/509/507 496/497/495
f 471/468/470 494/490/493 505/498/504
f 507/499/506 532/511/531 523/500/522
f 496/497/495 511/512/510 499/501/498
f 467/466/466 497/487/496 509/502/508
f 501/503/500 512/514/511 500/504/499
f 502/505/501 513/513/512 501/503/500
f 503/506/502 514/515/513 502/505/501
f 504/496/503 515/516/514 503/506/502
f 543/507/542 520/517/519 509/502/508
f 509/502/508 497/487/496 506/463/505
f 522/508/521 482/444/481 473/443/472
f 499/501/498 517/510/516 507/499/506
f 500/504/499 518/520/517 508/509/507
f 517/510/516 539/523/538 532/511/531
f 508/509/507 524/524/523 511/512/510
f 505/498/504 519/537/518 504/496/503
f 513/513/512 525/527/524 512/514/511
f 514/515/513 526/526/525 513/513/512
f 515/516/514 527/528/526 514/515/513
f 494/490/493 480/481/479 509/502/508
f 511/512/510 528/522/527 517/510/516
f 512/514/511 529/530/528 518/520/517
f 494/490/493 520/517/519 531/521/530
f 528/522/527 547/532/546 539/523/538
f 518/520/517 533/533/532 524/524/523
f 504/496/503 519/537/518 530/525/529
f 526/526/525 534/536/533 525/527/524
f 527/528/526 535/535/534 526/526/525
f 542/529/541 531/521/530 520/517/519
f 524/524/523 536/531/535 528/522/527
f 525/527/524 537/543/536 529/530/528
f 536/531/535 554/541/553 547/532/546
f 529/530/528 540/547/539 533/533/532
f 527/528/526 515/516/514 530/525/529
f 535/535/534 541/549/540 534/536/533
f 531/521/530 542/529/541 519/537/518
f 523/500/522 553/539/552 522/508/521
f 533/533/532 544/540/543 536/531/535
f 545/538/544 537/543/536 525/527/524
f 544/540/543 560/566/559 554/541/553
f 548/542/547 540/547/539 529/530/528
f 535/535/534 527/528/526 538/534/537
f 519/537/518 542/529/541 549/545/548
f 550/546/549 544/540/543 533/533/532
f 551/548/550 545/538/544 534/536/533
f 575/550/566 556/555/555 549/545/548
f 549/545/548 542/529/541 543/507/542
f 566/551/560 560/566/559 544/540/543
f 555/552/554 548/542/547 537/543/536
f 541/549/540 535/535/534 546/544/545
f 557/554/556 550/546/549 540/547/539
f 538/534/537 530/525/529 549/545/548
f 569/556/1 566/551/560 550/546/549
f 561/557/560 555/552/554 545/538/544
f 565/558/560 557/554/556 548/542/547
f 541/549/540 552/553/551 562/559/559
f 546/544/545 538/534/537 556/555/555
f 547/532/546 559/564/558 553/539/552
f 571/563/1 569/556/1 557/554/556
f 506/463/505 481/352/480 521/464/520
f 521/464/520 576/573/567 543/507/542
f 567/565/1 565/558/560 555/552/554
f 562/559/559 568/575/1 561/557/560
f 580/567/570 558/519/557 516/479/515
f 562/559/559 552/553/551 563/560/561
f 567/565/1 572/572/1 571/563/1
f 574/570/565 559/564/558 569/556/1
f 561/557/560 568/575/1 577/571/568
f 577/571/568 572/572/1 567/565/1
f 564/562/562 585/583/575 576/573/567
f 562/559/559 570/569/563 578/574/569
f 578/574/569 577/571/568 568/575/1
f 573/568/564 559/564/558 574/570/565
f 583/579/573 578/574/569 570/569/563
f 577/571/568 578/574/569 582/580/572
f 543/507/542 576/573/567 584/581/574
f 3/576/3 4/10/4 17/582/16
f 87/71/86 48/19/47 12/4/11
f 12/4/11 10/6/9 36/17/35
f 573/568/564 516/479/515 482/444/481
f 482/444/481 522/508/521 553/539/552
f 553/539/552 559/564/558 573/568/564
