# Blender 4.5.3 LTS
# www.blender.org
o polyp_5
v -1.000000 0.000000 1.000000
v -0.671875 0.000000 1.000000
v -0.359375 0.000000 1.000000
v -0.203125 0.000000 1.000000
v 0.078125 0.000000 1.000000
v 0.171875 0.000000 1.000000
v 0.484375 0.000000 1.000000
v 0.765625 0.000000 1.000000
v 0.796875 0.000000 1.000000
v 1.000000 0.000000 1.000000
v 0.781250 0.003021 0.984375
v 0.125000 0.003021 0.953125
v -0.281250 0.003021 0.921875
v 1.000000 0.000000 0.890625
v 0.937500 0.003021 0.828125
v -0.031250 0.003021 0.796875
v 0.281250 0.003021 0.796875
v -0.437500 0.003021 0.765625
v -0.062500 0.003021 0.765625
v 0.000000 0.003037 0.765625
v 1.000000 0.000000 0.765625
v -0.093750 0.003023 0.734375
v -0.031250 0.003305 0.734376
v 0.031250 0.003764 0.734379
v -1.000000 0.000000 0.703125
v -0.125000 0.003040 0.703125
v -0.062504 0.003886 0.703138
v -0.000006 0.005292 0.703186
v 0.062510 0.006211 0.703232
v -0.156250 0.003063 0.671875
v -0.093769 0.004641 0.671921
v -0.031291 0.007454 0.672099
v 0.031259 0.009899 0.672309
v 0.093855 0.010397 0.672321
v -0.187500 0.003069 0.640625
v -0.125049 0.005349 0.640727
v -0.062632 0.009888 0.641146
v -0.000081 0.014673 0.641788
v 0.062704 0.017281 0.642133
v 0.125503 0.016702 0.641993
v 0.437500 0.003021 0.640625
v -0.593750 0.003021 0.609375
v -0.218750 0.003066 0.609375
v -0.156334 0.005893 0.609546
v -0.094048 0.012345 0.610335
v -0.031692 0.020560 0.611947
v 0.031285 0.026765 0.613286
v 0.094680 0.027914 0.613091
v 0.157758 0.023954 0.612038
v -0.250000 0.003111 0.578126
v -0.187622 0.006434 0.578367
v -0.125528 0.014679 0.579595
v -0.063613 0.026389 0.582506
v -0.000765 0.037655 0.585778
v 0.063503 0.041872 0.586005
v 0.127733 0.038620 0.583939
v 0.190798 0.030305 0.581792
v 1.000000 0.000000 0.578125
v -0.281252 0.003283 0.546879
v -0.218936 0.007348 0.547216
v -0.157097 0.017127 0.548917
v -0.095737 0.031561 0.553125
v -0.033430 0.047475 0.558516
v 0.031566 0.056575 0.559996
v 0.097410 0.054982 0.556712
v 0.162051 0.047679 0.553486
v 0.223766 0.031965 0.549888
v -0.312505 0.003543 0.515633
v -0.250304 0.008755 0.516130
v -0.188859 0.020098 0.518398
v -0.128107 0.036615 0.523915
v -0.066615 0.055888 0.531365
v -0.001272 0.069995 0.534110
v 0.066351 0.071950 0.529912
v 0.133294 0.066017 0.524937
v 0.196627 0.050152 0.520089
v 0.254258 0.025220 0.516690
v -0.343758 0.003689 0.484387
v -0.281733 0.010364 0.485096
v -0.220874 0.023747 0.488168
v -0.160979 0.042179 0.495120
v -0.100453 0.063659 0.504647
v -0.035225 0.082371 0.508908
v 0.034182 0.088919 0.503415
v 0.104410 0.085071 0.496231
v 0.170061 0.069050 0.489470
v 0.227229 0.040221 0.485270
v 0.283019 0.014609 0.484439
v 0.593750 0.003021 0.484375
v -0.750000 0.003021 0.453125
v -0.375007 0.003680 0.453134
v -0.313166 0.011464 0.453991
v -0.253152 0.027570 0.458130
v -0.194450 0.048220 0.466724
v -0.135225 0.071305 0.478457
v -0.070685 0.093928 0.484644
v 0.000585 0.106078 0.478069
v 0.074623 0.105581 0.467428
v 0.144853 0.089066 0.458615
v 0.201325 0.055989 0.452938
v 0.254172 0.024228 0.452718
v 0.312810 0.006760 0.453098
v -0.406255 0.003545 0.421881
v -0.344481 0.011494 0.422691
v -0.285537 0.030461 0.427665
v -0.228273 0.054254 0.438280
v -0.171090 0.078678 0.452342
v -0.107875 0.104486 0.460860
v -0.035498 0.122955 0.453756
v 0.043546 0.126924 0.438847
v 0.120701 0.111717 0.427234
v 0.177717 0.073135 0.419906
v 0.226447 0.035027 0.420259
v 0.282258 0.011309 0.421669
v 0.343759 0.003450 0.421874
v -1.000000 0.000000 0.390625
v -0.437503 0.003339 0.390628
v -0.375571 0.010305 0.391197
v -0.317562 0.031108 0.396419
v -0.262147 0.058854 0.408725
v -0.207382 0.085363 0.425184
v -0.147029 0.113409 0.436661
v -0.074278 0.138374 0.429666
v 0.008979 0.148021 0.409804
v 0.096401 0.136519 0.395044
v 0.157210 0.092901 0.385733
v 0.200982 0.047594 0.386683
v 0.252289 0.017028 0.389887
v 0.312567 0.004582 0.390608
v 0.375000 0.003022 0.390625
v 1.000000 0.000000 0.390625
v -0.468751 0.003149 0.359375
v -0.406582 0.008601 0.359714
v -0.348754 0.029224 0.364069
v -0.295583 0.060432 0.376825
v -0.243065 0.090539 0.395801
v -0.187149 0.120045 0.410394
v -0.115291 0.151063 0.405110
v -0.029853 0.166951 0.380247
v 0.068516 0.162355 0.360501
v 0.138864 0.115336 0.349995
v 0.179289 0.062739 0.351514
v 0.223740 0.024688 0.357323
v 0.281498 0.006437 0.359285
v 0.343750 0.003066 0.359375
v 0.406250 0.003021 0.359375
v -0.500000 0.003040 0.328125
v -0.437667 0.006919 0.328285
v -0.378927 0.025124 0.331384
v -0.327479 0.057559 0.343077
v -0.277337 0.092726 0.362551
v -0.225442 0.124575 0.380641
v -0.159232 0.159401 0.378782
v -0.070634 0.182492 0.351518
v 0.034100 0.184745 0.323753
v 0.119138 0.139539 0.311737
v 0.161390 0.080098 0.314376
v 0.198226 0.035423 0.323357
v 0.250840 0.009603 0.327738
v 0.312502 0.003254 0.328125
v 0.375000 0.003021 0.328125
v 0.437500 0.003021 0.328125
v 0.750000 0.003021 0.328125
v -0.906250 0.003021 0.296875
v -0.531250 0.003021 0.296875
v -0.468815 0.005361 0.296935
v -0.408622 0.019947 0.298770
v -0.357448 0.051652 0.307771
v -0.308785 0.090906 0.325428
v -0.260551 0.126055 0.346256
v -0.201750 0.162548 0.349605
v -0.115573 0.193643 0.322197
v -0.005964 0.199601 0.287742
v 0.093575 0.162300 0.271668
v 0.144774 0.098512 0.275315
v 0.176627 0.048641 0.287618
v 0.221562 0.015619 0.295575
v 0.281274 0.003707 0.296863
v 0.343750 0.003021 0.296875
v 0.406250 0.003021 0.296875
v -0.562500 0.003021 0.265625
v -0.500025 0.004258 0.265645
v -0.438657 0.014969 0.266540
v -0.385815 0.043709 0.273124
v -0.338595 0.083887 0.287774
v -0.292300 0.122720 0.307169
v -0.240386 0.160956 0.315619
v -0.160437 0.198058 0.293923
v -0.050703 0.209328 0.253741
v 0.060256 0.179757 0.232297
v 0.125727 0.116545 0.235379
v 0.157947 0.062824 0.250320
v 0.194957 0.025045 0.262362
v 0.250227 0.005500 0.265529
v 0.312500 0.003022 0.265625
v 0.375000 0.003021 0.265625
v -0.593750 0.003021 0.234375
v -0.531254 0.003439 0.234378
v -0.469272 0.010648 0.234798
v -0.413195 0.034745 0.238941
v -0.367346 0.074120 0.250302
v -0.320580 0.115973 0.267123
v -0.271347 0.155901 0.279984
v -0.203407 0.196471 0.264095
v -0.097462 0.215642 0.224211
v 0.020554 0.191896 0.196277
v 0.101651 0.133068 0.196073
v 0.140075 0.076683 0.212112
v 0.171488 0.036656 0.227883
v 0.219953 0.009936 0.233976
v 0.281251 0.003100 0.234375
v 0.343750 0.003021 0.234375
v 0.406250 0.003021 0.234375
v 0.843750 0.003021 0.234375
v -1.000000 0.000000 0.203125
v -0.625000 0.003021 0.203125
v -0.562500 0.003050 0.203125
v -0.500216 0.007461 0.203287
v -0.441210 0.025884 0.205548
v -0.393930 0.062051 0.214448
v -0.348055 0.106962 0.228087
v -0.300197 0.148366 0.240790
v -0.241791 0.189275 0.234904
v -0.144859 0.217976 0.198400
v -0.023502 0.201288 0.165194
v 0.072446 0.148811 0.159343
v 0.121073 0.090316 0.174181
v 0.150591 0.048935 0.192473
v 0.191344 0.017584 0.202036
v 0.250036 0.004087 0.203125
v 0.312500 0.003021 0.203125
v 0.375000 0.003021 0.203125
v 0.437500 0.003021 0.203125
v -0.656250 0.003021 0.171875
v -0.593750 0.003021 0.171875
v -0.531323 0.005184 0.171919
v -0.470528 0.018275 0.173117
v -0.419188 0.049718 0.179089
v -0.374979 0.094519 0.189794
v -0.328305 0.138563 0.201987
v -0.275975 0.179029 0.203686
v -0.190639 0.214718 0.174806
v -0.071929 0.208548 0.137984
v 0.039175 0.166661 0.126063
v 0.099950 0.105450 0.137785
v 0.131358 0.061437 0.157062
v 0.165057 0.028019 0.169679
v 0.219096 0.006954 0.171862
v 0.281250 0.003022 0.171875
v 0.343750 0.003021 0.171875
v 0.406250 0.003021 0.171875
v 0.468750 0.003021 0.171875
v 0.593750 0.003021 0.171875
v -0.687500 0.003021 0.140625
v -0.625000 0.003021 0.140625
v -0.562509 0.003611 0.140630
v -0.500759 0.012181 0.141138
v -0.444989 0.037396 0.144765
v -0.400559 0.078708 0.154065
v -0.354312 0.125845 0.164419
v -0.304954 0.167740 0.168314
v -0.233327 0.206290 0.152370
v -0.122494 0.215569 0.115236
v 0.000917 0.188873 0.097145
v 0.077730 0.125453 0.103188
v 0.112693 0.075197 0.122400
v 0.141585 0.040308 0.137042
v 0.189040 0.012367 0.140512
v 0.250004 0.003318 0.140625
v 0.312500 0.003021 0.140625
v 0.375000 0.003021 0.140625
v 0.437500 0.003021 0.140625
v 0.500000 0.003021 0.140625
v -0.718750 0.003021 0.109375
v -0.656250 0.003021 0.109375
v -0.593750 0.003030 0.109375
v -0.531532 0.007859 0.109538
v -0.472521 0.026516 0.111579
v -0.424752 0.062983 0.118114
v -0.378834 0.111419 0.126631
v -0.330310 0.155356 0.133192
v -0.272049 0.193525 0.127338
v -0.172443 0.219502 0.097959
v -0.045880 0.211163 0.073916
v 0.057392 0.156401 0.072744
v 0.094940 0.093007 0.088269
v 0.121185 0.053778 0.104355
v 0.160766 0.020864 0.109058
v 0.218825 0.004851 0.109371
v 0.281250 0.003021 0.109375
v 0.343750 0.003021 0.109375
v 0.406250 0.003021 0.109375
v 0.468750 0.003021 0.109375
v 0.531250 0.003021 0.109375
v -1.000000 0.000000 0.078125
v -0.687500 0.003021 0.078125
v -0.625000 0.003021 0.078125
v -0.562564 0.004860 0.078154
v -0.501718 0.017656 0.079106
v -0.448846 0.047850 0.083227
v -0.405074 0.092288 0.091005
v -0.356048 0.139748 0.097929
v -0.305396 0.178313 0.097700
v -0.223104 0.215956 0.079641
v -0.099983 0.228898 0.053504
v 0.029650 0.196708 0.054099
v 0.084540 0.120839 0.056589
v 0.104162 0.070301 0.071890
v 0.135185 0.032821 0.077414
v 0.188046 0.008120 0.078086
v 0.250000 0.003021 0.078125
v 0.312500 0.003021 0.078125
v 0.375000 0.003021 0.078125
v 0.437500 0.003021 0.078125
v 0.562500 0.003021 0.078125
v 0.687500 0.003021 0.078125
v 1.000000 0.000000 0.078125
v -0.656250 0.003021 0.046875
v -0.593752 0.003257 0.046876
v -0.531872 0.010866 0.047199
v -0.474683 0.034005 0.049696
v -0.428762 0.073490 0.055496
v -0.380718 0.122899 0.060971
v -0.331736 0.164000 0.065786
v -0.269853 0.203932 0.057758
v -0.159246 0.238676 0.037129
v -0.016869 0.234017 0.038430
v 0.079297 0.162087 0.037118
v 0.096274 0.094914 0.040120
v 0.115541 0.047754 0.044988
v 0.158706 0.014819 0.046755
v 0.218755 0.003438 0.046874
v 0.281250 0.003021 0.046875
v 0.343750 0.003021 0.046875
v 0.406250 0.003021 0.046875
v -0.625000 0.003021 0.015625
v -0.562664 0.006368 0.015693
v -0.502734 0.022371 0.016886
v -0.451606 0.055532 0.020632
v -0.406833 0.101854 0.026005
v -0.356882 0.148072 0.030682
v -0.307948 0.186661 0.031271
v -0.219588 0.234888 0.019824
v -0.080171 0.259502 0.014499
v 0.057302 0.211569 0.029912
v 0.101318 0.129439 0.016726
v 0.107457 0.067961 0.012624
v 0.132570 0.027178 0.015058
v 0.187641 0.005190 0.015621
v 0.250000 0.003021 0.015625
v 0.312500 0.003021 0.015625
v 0.375000 0.003021 0.015625
v 0.625000 0.003021 0.015625
v 1.000000 0.000000 0.015625
v -0.656250 0.003021 -0.015625
v -0.593763 0.003749 -0.015621
v -0.532230 0.013379 -0.015211
v -0.476123 0.039020 -0.013076
v -0.430566 0.079827 -0.008857
v -0.381503 0.129119 -0.005761
v -0.336708 0.169052 -0.001158
v -0.273110 0.218828 -0.003810
v -0.152393 0.270032 -0.010131
v 0.009265 0.266211 0.011065
v 0.103341 0.173262 0.009275
v 0.113983 0.092979 -0.014650
v 0.117986 0.046148 -0.017344
v 0.157789 0.011539 -0.015710
v 0.218750 0.003024 -0.015625
v 0.281250 0.003021 -0.015625
v 0.343750 0.003021 -0.015625
v -0.875000 0.003021 -0.046875
v -0.687500 0.003021 -0.046875
v -0.625000 0.003027 -0.046875
v -0.562762 0.007551 -0.046791
v -0.503303 0.025159 -0.045805
v -0.452811 0.058994 -0.043194
v -0.406527 0.105778 -0.041087
v -0.359469 0.151547 -0.037633
v -0.315308 0.195053 -0.034676
v -0.225091 0.262153 -0.037740
v -0.065219 0.303215 -0.024576
v 0.087647 0.239848 -0.006512
v 0.126928 0.125965 -0.029047
v 0.119312 0.065340 -0.046062
v 0.133526 0.026791 -0.047586
v 0.187547 0.003971 -0.046882
v 0.250000 0.003021 -0.046875
v 0.312500 0.003021 -0.046875
v 0.375000 0.003021 -0.046875
v -0.656250 0.003021 -0.078125
v -0.593773 0.004153 -0.078121
v -0.532346 0.014573 -0.077818
v -0.476502 0.040437 -0.076357
v -0.429844 0.080425 -0.074970
v -0.382010 0.129014 -0.074225
v -0.343379 0.170643 -0.070324
v -0.283475 0.235276 -0.072371
v -0.153583 0.311881 -0.069631
v 0.037576 0.310984 -0.049769
v 0.138717 0.186500 -0.050347
v 0.130277 0.087127 -0.072063
v 0.125290 0.045445 -0.078223
v 0.158005 0.011772 -0.078308
v 0.218750 0.003068 -0.078125
v 0.281250 0.003021 -0.078125
v 0.343750 0.003021 -0.078125
v 0.406250 0.003021 -0.078125
v -0.625000 0.003036 -0.109375
v -0.562773 0.007891 -0.109323
v -0.503267 0.025040 -0.108697
v -0.451497 0.057185 -0.107904
v -0.404470 0.101992 -0.108701
v -0.362081 0.147381 -0.108078
v -0.322152 0.199736 -0.109658
v -0.235758 0.287785 -0.116834
v -0.050186 0.356407 -0.110444
v 0.116758 0.259618 -0.107855
v 0.148292 0.122849 -0.103716
v 0.129161 0.062192 -0.107725
v 0.136432 0.027846 -0.109882
v 0.187599 0.004891 -0.109370
v 0.250000 0.003021 -0.109375
v 0.312500 0.003021 -0.109375
v 0.375000 0.003021 -0.109375
v 0.875000 0.003021 -0.109375
v -0.781250 0.003021 -0.140625
v -0.593776 0.004132 -0.140622
v -0.532243 0.013717 -0.140458
v -0.475244 0.037361 -0.139972
v -0.426254 0.074198 -0.141089
v -0.379460 0.120191 -0.143888
v -0.343811 0.166045 -0.145928
v -0.292164 0.240889 -0.158486
v -0.155449 0.337582 -0.179490
v 0.053087 0.314564 -0.183622
v 0.149865 0.182389 -0.163677
v 0.137705 0.083981 -0.145069
v 0.130631 0.043556 -0.141455
v 0.158432 0.012721 -0.140789
v 0.218752 0.003280 -0.140625
v 0.281250 0.003021 -0.140625
v 0.343750 0.003021 -0.140625
v 0.468750 0.003021 -0.140625
v -1.000000 0.000000 -0.171875
v -0.562700 0.007012 -0.171864
v -0.502376 0.021639 -0.171719
v -0.447911 0.050023 -0.172272
v -0.399087 0.089879 -0.175371
v -0.357807 0.134148 -0.180322
v -0.321605 0.191818 -0.192770
v -0.241557 0.284946 -0.225401
v -0.048135 0.333954 -0.262856
v 0.111834 0.232624 -0.242390
v 0.142871 0.116906 -0.200579
v 0.131591 0.059316 -0.178477
v 0.137484 0.027796 -0.172984
v 0.187650 0.005899 -0.171883
v 0.250000 0.003021 -0.171875
v 0.312500 0.003021 -0.171875
v 0.812500 0.003021 -0.171875
v -0.531863 0.011277 -0.203130
v -0.473081 0.030382 -0.203293
v -0.420523 0.061426 -0.205330
v -0.372043 0.101967 -0.210936
v -0.336100 0.149792 -0.222125
v -0.291190 0.222685 -0.252941
v -0.160270 0.304471 -0.312961
v 0.037807 0.264889 -0.326132
v 0.126930 0.151723 -0.276238
v 0.129187 0.077233 -0.227981
v 0.129905 0.041323 -0.207861
v 0.158140 0.012565 -0.203367
v 0.218753 0.003327 -0.203126
v 0.281250 0.003021 -0.203125
v 0.343750 0.003021 -0.203125
v -0.562583 0.005356 -0.234384
v -0.501335 0.016154 -0.234466
v -0.443839 0.038228 -0.235281
v -0.391709 0.071132 -0.239016
v -0.347608 0.112687 -0.248593
v -0.313890 0.168807 -0.273280
v -0.240081 0.244469 -0.330217
v -0.066527 0.267900 -0.386799
v 0.084778 0.176505 -0.353851
v 0.116547 0.097027 -0.293626
v 0.122316 0.054807 -0.252000
v 0.135163 0.024534 -0.236005
v 0.187623 0.005377 -0.234408
v 0.250000 0.003021 -0.234375
v 0.312500 0.003021 -0.234375
v 0.375000 0.003021 -0.234375
v 1.000000 0.000000 -0.234375
v -0.593750 0.003114 -0.265625
v -0.531495 0.007807 -0.265673
v -0.470913 0.021034 -0.265987
v -0.414451 0.044598 -0.267667
v -0.363447 0.079357 -0.273957
v -0.324828 0.124884 -0.291594
v -0.282366 0.186396 -0.335852
v -0.163174 0.232285 -0.400751
v 0.006701 0.192579 -0.414404
v 0.089838 0.109460 -0.356248
v 0.107609 0.066607 -0.304380
v 0.119406 0.037878 -0.273306
v 0.157227 0.010035 -0.265793
v 0.218750 0.003095 -0.265625
v 0.281250 0.003021 -0.265625
v 0.343750 0.003021 -0.265625
v -1.000000 0.000000 -0.296875
v -0.625000 0.003021 -0.296875
v -0.562510 0.003688 -0.296878
v -0.500506 0.010368 -0.297006
v -0.440471 0.025060 -0.297654
v -0.385381 0.051145 -0.300860
v -0.337409 0.088550 -0.311131
v -0.301771 0.137563 -0.341017
v -0.226960 0.188790 -0.397540
v -0.084312 0.187499 -0.436416
v 0.039733 0.124924 -0.408343
v 0.082927 0.075963 -0.355634
v 0.101955 0.049282 -0.315646
v 0.129518 0.018538 -0.298050
v 0.187535 0.003932 -0.296882
v 0.250000 0.003021 -0.296875
v 0.312500 0.003021 -0.296875
v -0.968750 0.003021 -0.328125
v -0.593750 0.003021 -0.328125
v -0.531285 0.004591 -0.328139
v -0.469510 0.012436 -0.328380
v -0.410259 0.029038 -0.329673
v -0.357149 0.058252 -0.335334
v -0.313210 0.099155 -0.351670
v -0.265843 0.147420 -0.394082
v -0.157576 0.169225 -0.438415
v -0.028655 0.136299 -0.439871
v 0.047111 0.086159 -0.399214
v 0.078143 0.057163 -0.358597
v 0.104506 0.029217 -0.332282
v 0.156516 0.006831 -0.328160
v 0.218750 0.003021 -0.328125
v 0.281250 0.003021 -0.328125
v 0.656250 0.003021 -0.328125
v -1.000000 0.000000 -0.359375
v -0.562500 0.003022 -0.359375
v -0.500082 0.005466 -0.359413
v -0.438591 0.014359 -0.359853
v -0.381048 0.034869 -0.362529
v -0.330141 0.066771 -0.370722
v -0.287009 0.110779 -0.395408
v -0.211274 0.146094 -0.437519
v -0.095764 0.138037 -0.453567
v -0.000045 0.099009 -0.432090
v 0.048750 0.065117 -0.395945
v 0.078781 0.038610 -0.367932
v 0.125987 0.011634 -0.359498
v 0.187500 0.003217 -0.359375
v 0.250000 0.003021 -0.359375
v 1.000000 0.000000 -0.359375
v -0.531250 0.003063 -0.390625
v -0.468863 0.005995 -0.390690
v -0.408114 0.017860 -0.391726
v -0.352481 0.042278 -0.396018
v -0.303511 0.077673 -0.407815
v -0.248119 0.119576 -0.438392
v -0.152678 0.131665 -0.460949
v -0.052963 0.108534 -0.453814
v 0.013013 0.074726 -0.427251
v 0.051462 0.046181 -0.401359
v 0.095985 0.017723 -0.391206
v 0.156284 0.004594 -0.390624
v 0.218750 0.003021 -0.390625
v -0.500000 0.003112 -0.421875
v -0.437772 0.007393 -0.422081
v -0.378317 0.023431 -0.424088
v -0.324132 0.050792 -0.429688
v -0.273029 0.089320 -0.446339
v -0.198452 0.117458 -0.469153
v -0.104714 0.110121 -0.469915
v -0.027712 0.083244 -0.453239
v 0.021218 0.052930 -0.432626
v 0.066717 0.023558 -0.422931
v 0.125176 0.007186 -0.421882
v 0.187500 0.003125 -0.421875
v -0.468752 0.003259 -0.453127
v -0.406890 0.010030 -0.453665
v -0.348902 0.029843 -0.456901
v -0.294463 0.059914 -0.464495
v -0.234014 0.094336 -0.481546
v -0.151371 0.102907 -0.487438
v -0.070990 0.085200 -0.477717
v -0.011776 0.057229 -0.463663
v 0.037176 0.028842 -0.454889
v 0.094191 0.010086 -0.453160
v 0.156259 0.003727 -0.453126
v -0.812500 0.003021 -0.484375
v -0.437522 0.004242 -0.484391
v -0.376223 0.013767 -0.485412
v -0.318750 0.035543 -0.489783
v -0.261457 0.065447 -0.499601
v -0.191938 0.086359 -0.508942
v -0.113391 0.080105 -0.503950
v -0.046911 0.058028 -0.494781
v 0.006762 0.032769 -0.486985
v 0.063542 0.013502 -0.484547
v 0.125038 0.004923 -0.484383
v 0.500000 0.003021 -0.484375
v -0.406335 0.006169 -0.515672
v -0.345575 0.017444 -0.517264
v -0.286954 0.038649 -0.522521
v -0.224968 0.061818 -0.531194
v -0.153528 0.067988 -0.532398
v -0.083289 0.054859 -0.526018
v -0.024716 0.034489 -0.519248
v 0.032867 0.016452 -0.516148
v 0.093869 0.006221 -0.515655
v -0.375171 0.008217 -0.547014
v -0.314400 0.019816 -0.548960
v -0.253606 0.037222 -0.553901
v -0.188921 0.049702 -0.558555
v -0.120271 0.047014 -0.556608
v -0.057285 0.033169 -0.551257
v 0.001798 0.018089 -0.547850
v 0.062721 0.007467 -0.546960
v -0.343946 0.009395 -0.578370
v -0.282565 0.019481 -0.580270
v -0.220024 0.030753 -0.583507
v -0.155269 0.034645 -0.585054
v -0.090856 0.028452 -0.582433
v -0.029828 0.017547 -0.579360
v 0.031505 0.008052 -0.578278
v -0.312664 0.009351 -0.609666
v -0.250559 0.016405 -0.610988
v -0.187525 0.021831 -0.612362
v -0.124057 0.020941 -0.612044
v -0.061708 0.014726 -0.610424
v 0.000219 0.007742 -0.609560
v -0.656250 0.003021 -0.640625
v -0.281319 0.008070 -0.640822
v -0.218854 0.011829 -0.641384
v -0.093456 0.010869 -0.641241
v -0.031132 0.006688 -0.640769
v 0.343750 0.003021 -0.640625
v -1.000000 0.000000 -0.671875
v -0.250013 0.005941 -0.671978
v -0.062468 0.005038 -0.671931
v 1.000000 0.000000 -0.671875
v -1.000000 0.000000 -0.734375
v -0.156250 0.003021 -0.765625
v -0.500000 0.003021 -0.796875
v 0.187500 0.003021 -0.796875
v -0.875000 0.003021 -0.859375
v -0.343750 0.003021 -0.953125
v 0.031250 0.003021 -0.953125
v -1.000000 0.000000 -1.000000
v -0.734375 0.000000 -1.000000
v -0.703125 0.000000 -1.000000
v -0.390625 0.000000 -1.000000
v -0.296875 0.000000 -1.000000
v -0.015625 0.000000 -1.000000
v 0.078125 0.000000 -1.000000
v 0.390625 0.000000 -1.000000
v 0.703125 0.000000 -1.000000
v 1.000000 0.000000 -1.000000
vn -0.0038 1.0000 0.0038
vn -0.0012 1.0000 0.0088
vn -0.0068 0.9997 0.0216
vn 0.0046 0.9997 0.0225
vn -0.0000 0.9979 0.0643
vn 0.0131 0.9993 0.0343
vn -0.0000 0.9999 0.0149
vn -0.0459 0.9942 0.0970
vn -0.0000 0.9818 0.1898
vn 0.0202 0.9996 0.0182
vn -0.0223 0.9952 0.0950
vn 0.0058 0.9992 0.0402
vn -0.0000 0.9998 0.0193
vn 0.0483 0.9988 -0.0000
vn 0.0238 0.9997 -0.0037
vn -0.0042 1.0000 0.0042
vn 0.0243 0.9993 0.0283
vn -0.0032 1.0000 0.0059
vn 0.4873 0.7278 -0.4825
vn -0.0127 0.9998 0.0138
vn 0.0254 0.9996 -0.0101
vn -0.0071 0.9999 0.0127
vn -0.0114 0.9994 0.0313
vn -0.4980 0.7420 -0.4487
vn -0.0084 1.0000 0.0011
vn 0.4846 0.7312 -0.4802
vn -0.0248 0.9984 0.0507
vn -0.0233 0.9958 0.0881
vn -0.0481 0.9954 0.0826
vn -0.5097 0.6907 0.5130
vn -0.0432 0.9965 0.0709
vn -0.0498 0.9900 0.1320
vn -0.0283 0.9840 0.1761
vn -0.4445 0.8489 -0.2862
vn -0.0225 0.9994 0.0250
vn -0.0646 0.9939 0.0895
vn -0.0893 0.9802 0.1766
vn -0.0697 0.9642 0.2557
vn -0.0121 0.9582 0.2857
vn 0.0346 0.9770 0.2102
vn 0.0305 0.9992 0.0244
vn -0.0033 1.0000 0.0034
vn 0.4810 0.7366 -0.4754
vn -0.0850 0.9905 0.1084
vn -0.1326 0.9672 0.2169
vn -0.1303 0.9352 0.3293
vn -0.0511 0.9207 0.3869
vn 0.0347 0.9287 0.3692
vn 0.0858 0.9433 0.3207
vn -0.0322 0.9986 0.0409
vn -0.1022 0.9859 0.1324
vn -0.1716 0.9514 0.2557
vn -0.1964 0.9019 0.3848
vn -0.1153 0.8798 0.4611
vn 0.0153 0.8932 0.4495
vn 0.0941 0.9141 0.3943
vn 0.1357 0.9499 0.2815
vn 0.0121 0.9999 -0.0000
vn 0.4677 0.7583 -0.4542
vn -0.1196 0.9792 0.1636
vn -0.2050 0.9314 0.3006
vn -0.2536 0.8645 0.4339
vn -0.1900 0.8387 0.5104
vn -0.0264 0.8674 0.4969
vn 0.0914 0.8919 0.4429
vn 0.1909 0.9112 0.3652
vn 0.2194 0.9626 0.1587
vn -0.0522 0.9967 0.0622
vn -0.1434 0.9697 0.1976
vn -0.2360 0.9058 0.3520
vn -0.2970 0.8207 0.4880
vn -0.2563 0.7884 0.5592
vn -0.0836 0.8411 0.5344
vn 0.0753 0.8800 0.4689
vn 0.1865 0.8991 0.3959
vn 0.3417 0.9086 0.2401
vn 0.2982 0.9545 0.0078
vn -0.0628 0.9959 0.0648
vn -0.1767 0.9585 0.2237
vn -0.2710 0.8751 0.4010
vn -0.3330 0.7705 0.5435
vn -0.3079 0.7277 0.6129
vn -0.1400 0.8008 0.5824
vn 0.0508 0.8638 0.5013
vn 0.1814 0.8885 0.4215
vn 0.3725 0.8965 0.2398
vn 0.4475 0.8930 0.0481
vn 0.2278 0.9727 -0.0446
vn 0.0098 1.0000 -0.0003
vn -0.0052 1.0000 0.0029
vn -0.0660 0.9958 0.0634
vn -0.2136 0.9492 0.2312
vn -0.3178 0.8436 0.4329
vn -0.3703 0.7199 0.5871
vn -0.3495 0.6644 0.6607
vn -0.1935 0.7509 0.6315
vn 0.0204 0.8394 0.5431
vn 0.1687 0.8727 0.4582
vn 0.4047 0.8755 0.2642
vn 0.5255 0.8506 0.0185
vn 0.4035 0.9126 -0.0654
vn -0.3187 0.8141 -0.4855
vn -0.0614 0.9967 0.0531
vn -0.2345 0.9478 0.2162
vn -0.3756 0.8188 0.4342
vn -0.4180 0.6784 0.6042
vn -0.3935 0.6101 0.6876
vn -0.2454 0.7033 0.6672
vn -0.0230 0.8238 0.5664
vn 0.1446 0.8601 0.4892
vn 0.4235 0.8539 0.3024
vn 0.6072 0.7942 0.0237
vn 0.5098 0.8530 -0.1115
vn 0.2533 0.9644 -0.0766
vn -0.4211 0.7681 -0.4824
vn -0.0184 0.9998 0.0053
vn 0.4496 0.7636 -0.4634
vn -0.2316 0.9540 0.1907
vn -0.4280 0.8095 0.4018
vn -0.4816 0.6544 0.5830
vn -0.4476 0.5771 0.6831
vn -0.3059 0.6669 0.6794
vn -0.0702 0.8171 0.5722
vn 0.0928 0.8737 0.4776
vn 0.4174 0.8498 0.3218
vn 0.6756 0.7355 0.0516
vn 0.6268 0.7689 -0.1263
vn 0.3559 0.9265 -0.1224
vn 0.1025 0.9938 -0.0425
vn -0.4887 0.7149 -0.5000
vn 0.0135 0.9999 0.0017
vn 0.4633 0.7477 -0.4757
vn -0.2126 0.9651 0.1526
vn -0.4454 0.8250 0.3478
vn -0.5494 0.6516 0.5231
vn -0.5175 0.5692 0.6389
vn -0.3840 0.6476 0.6582
vn -0.1369 0.8172 0.5598
vn 0.0531 0.8950 0.4430
vn 0.3532 0.8857 0.3013
vn 0.7041 0.7069 0.0673
vn 0.7367 0.6661 -0.1160
vn 0.4851 0.8615 -0.1503
vn 0.1668 0.9834 -0.0713
vn 0.0211 0.9997 -0.0106
vn 0.0030 0.9997 -0.0231
vn 0.4773 0.7313 -0.4872
vn -0.1730 0.9786 0.1109
vn -0.4303 0.8554 0.2884
vn -0.5958 0.6688 0.4448
vn -0.5937 0.5778 0.5600
vn -0.4709 0.6432 0.6038
vn -0.2348 0.8159 0.5284
vn 0.0123 0.9197 0.3925
vn 0.2474 0.9402 0.2340
vn 0.6861 0.7262 0.0427
vn 0.8087 0.5772 -0.1130
vn 0.6277 0.7612 -0.1630
vn 0.2656 0.9592 -0.0968
vn 0.0429 0.9988 -0.0223
vn 0.0011 1.0000 -0.0002
vn -0.0000 1.0000 -0.0000
vn 0.0040 1.0000 0.0025
vn -0.0162 0.9999 0.0037
vn -0.0145 0.9999 0.0089
vn -0.1280 0.9889 0.0749
vn -0.3964 0.8899 0.2257
vn -0.6014 0.7052 0.3756
vn -0.6538 0.5977 0.4640
vn -0.5648 0.6475 0.5116
vn -0.3483 0.8117 0.4688
vn -0.0581 0.9390 0.3389
vn 0.1625 0.9739 0.1586
vn 0.5995 0.7996 -0.0349
vn 0.8329 0.5346 -0.1432
vn 0.7455 0.6419 -0.1792
vn 0.4030 0.9072 -0.1204
vn 0.0879 0.9955 -0.0351
vn 0.0037 1.0000 -0.0019
vn -0.0066 1.0000 0.0033
vn -0.0866 0.9952 0.0459
vn -0.3283 0.9295 0.1680
vn -0.5862 0.7482 0.3106
vn -0.6794 0.6239 0.3863
vn -0.6387 0.6522 0.4083
vn -0.4614 0.7972 0.3893
vn -0.1680 0.9407 0.2946
vn 0.1080 0.9884 0.1070
vn 0.4759 0.8731 -0.1059
vn 0.8071 0.5561 -0.1982
vn 0.8137 0.5416 -0.2111
vn 0.5511 0.8206 -0.1516
vn 0.1730 0.9835 -0.0527
vn 0.0130 0.9999 -0.0049
vn -0.0018 1.0000 0.0002
vn -0.0533 0.9982 0.0259
vn -0.2492 0.9615 0.1159
vn -0.5475 0.7998 0.2460
vn -0.6807 0.6521 0.3338
vn -0.6742 0.6524 0.3461
vn -0.5536 0.7665 0.3257
vn -0.2883 0.9210 0.2620
vn 0.0485 0.9957 0.0784
vn 0.3610 0.9243 -0.1241
vn 0.7373 0.6296 -0.2448
vn 0.8388 0.4854 -0.2466
vn 0.6739 0.7133 -0.1926
vn 0.2962 0.9518 -0.0800
vn 0.0423 0.9990 -0.0114
vn 0.0003 1.0000 -0.0000
vn 0.0097 1.0000 -0.0000
vn -0.0294 0.9996 -0.0016
vn -0.0027 1.0000 -0.0000
vn -0.0281 0.9995 0.0140
vn -0.1754 0.9816 0.0761
vn -0.4675 0.8633 0.1900
vn -0.6772 0.6851 0.2685
vn -0.6935 0.6498 0.3112
vn -0.6111 0.7351 0.2934
vn -0.4057 0.8830 0.2362
vn -0.0414 0.9965 0.0722
vn 0.2578 0.9630 -0.0781
vn 0.6545 0.7216 -0.2258
vn 0.8313 0.4860 -0.2697
vn 0.7547 0.6141 -0.2308
vn 0.4357 0.8924 -0.1172
vn 0.1046 0.9942 -0.0253
vn 0.0046 1.0000 -0.0006
vn -0.0111 0.9999 0.0045
vn -0.1139 0.9926 0.0426
vn -0.3680 0.9200 0.1350
vn -0.6347 0.7386 0.2270
vn -0.7172 0.6463 0.2604
vn -0.6523 0.7137 0.2553
vn -0.5015 0.8382 0.2145
vn -0.1636 0.9827 0.0866
vn 0.1648 0.9862 0.0127
vn 0.5661 0.8208 -0.0760
vn 0.8117 0.5325 -0.2397
vn 0.8019 0.5427 -0.2498
vn 0.5679 0.8077 -0.1585
vn 0.2023 0.9780 -0.0519
vn 0.0213 0.9998 -0.0062
vn 0.0026 1.0000 -0.0000
vn -0.0024 1.0000 -0.0000
vn -0.0649 0.9977 0.0215
vn -0.2689 0.9590 0.0895
vn -0.5666 0.8048 0.1771
vn -0.7132 0.6648 0.2222
vn -0.6854 0.6972 0.2101
vn -0.5731 0.8016 0.1703
vn -0.2984 0.9481 0.1097
vn 0.0751 0.9912 0.1093
vn 0.4081 0.8955 0.1775
vn 0.8052 0.5901 -0.0583
vn 0.8346 0.5010 -0.2290
vn 0.6778 0.7104 -0.1894
vn 0.3272 0.9411 -0.0851
vn 0.0611 0.9980 -0.0169
vn 0.0012 1.0000 -0.0000
vn -0.0292 0.9995 0.0100
vn -0.1820 0.9818 0.0546
vn -0.4624 0.8769 0.1315
vn -0.6858 0.7046 0.1821
vn -0.7070 0.6839 0.1803
vn -0.6139 0.7755 0.1472
vn -0.4370 0.8912 0.1219
vn -0.0547 0.9837 0.1715
vn 0.2139 0.8964 0.3881
vn 0.7069 0.6364 0.3086
vn 0.8868 0.4551 -0.0810
vn 0.7691 0.6127 -0.1819
vn 0.4682 0.8759 -0.1164
vn 0.1319 0.9906 -0.0373
vn 0.0085 1.0000 -0.0024
vn -0.0242 0.9997 -0.0000
vn -0.0083 1.0000 0.0018
vn -0.1091 0.9937 0.0260
vn -0.3492 0.9331 0.0860
vn -0.6246 0.7679 0.1425
vn -0.7171 0.6796 0.1546
vn -0.6549 0.7446 0.1295
vn -0.5418 0.8302 0.1312
vn -0.2362 0.9524 0.1927
vn 0.0665 0.8866 0.4578
vn 0.4370 0.6491 0.6226
vn 0.8889 0.3791 0.2570
vn 0.8771 0.4758 -0.0651
vn 0.6225 0.7732 -0.1207
vn 0.2423 0.9682 -0.0625
vn 0.0295 0.9995 -0.0113
vn 0.0024 1.0000 -0.0000
vn 0.0148 0.9999 0.0006
vn -0.0009 1.0000 -0.0000
vn -0.0523 0.9986 0.0121
vn -0.2423 0.9689 0.0506
vn -0.5240 0.8458 0.1000
vn -0.7042 0.6999 0.1199
vn -0.6851 0.7202 0.1099
vn -0.6121 0.7826 0.1139
vn -0.4223 0.8878 0.1831
vn -0.0860 0.8982 0.4310
vn 0.1553 0.6729 0.7233
vn 0.7100 0.3536 0.6090
vn 0.9482 0.2565 0.1874
vn 0.8042 0.5934 -0.0339
vn 0.4036 0.9120 -0.0729
vn 0.0777 0.9967 -0.0237
vn 0.0017 1.0000 -0.0000
vn -0.0173 0.9998 0.0039
vn -0.1478 0.9887 0.0242
vn -0.4026 0.9134 0.0607
vn -0.6502 0.7551 0.0843
vn -0.7092 0.7003 0.0807
vn -0.6509 0.7535 0.0924
vn -0.5724 0.8058 0.1518
vn -0.2933 0.8849 0.3617
vn -0.0366 0.7354 0.6766
vn 0.4516 0.4586 0.7653
vn 0.8824 0.0931 0.4613
vn 0.9457 0.2865 0.1536
vn 0.6438 0.7649 -0.0205
vn 0.1850 0.9823 -0.0305
vn 0.0104 0.9999 -0.0033
vn 0.0242 0.9997 -0.0000
vn -0.0029 1.0000 -0.0000
vn -0.0733 0.9973 0.0095
vn -0.2801 0.9594 0.0320
vn -0.5511 0.8330 0.0490
vn -0.7028 0.7099 0.0457
vn -0.6888 0.7232 0.0499
vn -0.6581 0.7445 0.1122
vn -0.5101 0.8187 0.2637
vn -0.1958 0.8082 0.5554
vn 0.1845 0.6563 0.7316
vn 0.7644 0.1974 0.6138
vn 0.9486 -0.0460 0.3132
vn 0.8939 0.4379 0.0962
vn 0.3999 0.9165 -0.0089
vn 0.0472 0.9988 -0.0098
vn -0.0121 0.9999 -0.0032
vn -0.0256 0.9997 0.0032
vn -0.1703 0.9853 0.0127
vn -0.4224 0.9062 0.0205
vn -0.6481 0.7615 0.0105
vn -0.7076 0.7065 -0.0051
vn -0.7006 0.7120 0.0469
vn -0.6679 0.7286 0.1519
vn -0.4205 0.8204 0.3874
vn -0.0626 0.7837 0.6180
vn 0.6238 0.5303 0.5742
vn 0.9143 -0.1087 0.3903
vn 0.9790 0.0578 0.1954
vn 0.7178 0.6946 0.0484
vn 0.1740 0.9847 0.0025
vn 0.0040 1.0000 0.0002
vn -0.0050 1.0000 0.0050
vn -0.0841 0.9965 0.0028
vn -0.2887 0.9574 0.0017
vn -0.5415 0.8405 -0.0186
vn -0.6855 0.7266 -0.0473
vn -0.7223 0.6906 -0.0366
vn -0.7399 0.6712 0.0456
vn -0.6454 0.7367 0.2016
vn -0.3058 0.8648 0.3983
vn 0.3970 0.8265 0.3991
vn 0.9230 0.2115 0.3215
vn 0.9499 -0.2123 0.2294
vn 0.9512 0.2906 0.1035
vn 0.4321 0.9015 0.0255
vn 0.0472 0.9989 0.0074
vn 0.4699 0.7289 0.4979
vn -0.1695 0.9855 -0.0071
vn -0.4036 0.9144 -0.0329
vn -0.6170 0.7830 -0.0788
vn -0.7061 0.7005 -0.1033
vn -0.7616 0.6442 -0.0700
vn -0.7745 0.6317 0.0321
vn -0.5439 0.8220 0.1688
vn 0.0509 0.9814 0.1850
vn 0.7951 0.5993 0.0928
vn 0.9838 -0.1371 0.1154
vn 0.9919 -0.0793 0.0989
vn 0.7766 0.6289 0.0378
vn 0.1875 0.9822 0.0098
vn 0.0087 1.0000 0.0019
vn 0.0119 0.9999 -0.0009
vn -0.0051 1.0000 -0.0004
vn -0.0725 0.9973 -0.0126
vn -0.2632 0.9641 -0.0349
vn -0.4943 0.8647 -0.0894
vn -0.6528 0.7420 -0.1528
vn -0.7349 0.6562 -0.1713
vn -0.8091 0.5778 -0.1070
vn -0.7495 0.6619 -0.0108
vn -0.3139 0.9490 -0.0301
vn 0.5371 0.8325 -0.1359
vn 0.9759 0.2029 -0.0807
vn 0.9756 -0.2196 0.0027
vn 0.9674 0.2519 0.0256
vn 0.4501 0.8929 0.0109
vn 0.0589 0.9982 0.0081
vn 0.0010 1.0000 -0.0000
vn -0.0039 1.0000 -0.0000
vn -0.0160 0.9999 -0.0025
vn 0.3594 0.8060 0.4702
vn -0.3481 0.9343 -0.0769
vn -0.5498 0.8197 -0.1610
vn -0.6712 0.7035 -0.2335
vn -0.7905 0.5711 -0.2214
vn -0.8423 0.5192 -0.1451
vn -0.5990 0.7860 -0.1530
vn 0.1422 0.9391 -0.3130
vn 0.8136 0.5058 -0.2868
vn 0.9813 -0.1220 -0.1487
vn 0.9977 -0.0438 -0.0523
vn 0.7855 0.6187 -0.0150
vn 0.1914 0.9815 -0.0011
vn 0.0138 0.9999 0.0004
vn 0.0053 1.0000 -0.0041
vn -0.2042 0.9773 -0.0560
vn -0.4092 0.9015 -0.1408
vn -0.5750 0.7823 -0.2395
vn -0.7142 0.6372 -0.2897
vn -0.8463 0.4724 -0.2461
vn -0.7892 0.5704 -0.2277
vn -0.2885 0.8629 -0.4149
vn 0.5311 0.6906 -0.4910
vn 0.9403 0.1018 -0.3246
vn 0.9748 -0.1229 -0.1860
vn 0.9415 0.3220 -0.0994
vn 0.4266 0.9037 -0.0360
vn 0.0600 0.9982 -0.0042
vn 0.3971 0.7648 -0.5074
vn -0.2635 0.9591 -0.1035
vn -0.4447 0.8703 -0.2119
vn -0.6046 0.7369 -0.3023
vn -0.7881 0.5325 -0.3088
vn -0.8646 0.4183 -0.2783
vn -0.5916 0.6686 -0.4506
vn 0.1061 0.7208 -0.6850
vn 0.7638 0.3041 -0.5693
vn 0.9394 -0.1042 -0.3265
vn 0.9715 0.0689 -0.2267
vn 0.7071 0.6995 -0.1036
vn 0.1632 0.9863 -0.0230
vn 0.0110 0.9999 -0.0022
vn 0.0175 0.9998 -0.0018
vn -0.0334 0.9994 -0.0121
vn -0.1424 0.9880 -0.0600
vn -0.2981 0.9422 -0.1531
vn -0.4765 0.8396 -0.2608
vn -0.6682 0.6689 -0.3257
vn -0.8429 0.4174 -0.3397
vn -0.7672 0.4802 -0.4252
vn -0.2742 0.6189 -0.7361
vn 0.4259 0.3983 -0.8124
vn 0.8277 -0.0435 -0.5594
vn 0.9222 -0.0799 -0.3783
vn 0.8617 0.4487 -0.2369
vn 0.3398 0.9376 -0.0732
vn 0.0418 0.9991 -0.0116
vn -0.0499 0.9985 0.0216
vn -0.0031 1.0000 -0.0007
vn -0.0546 0.9982 -0.0265
vn -0.1710 0.9807 -0.0951
vn -0.3303 0.9236 -0.1943
vn -0.5278 0.8010 -0.2825
vn -0.7334 0.5898 -0.3380
vn -0.8453 0.3747 -0.3809
vn -0.5001 0.5464 -0.6718
vn 0.0603 0.4162 -0.9073
vn 0.5989 0.0750 -0.7973
vn 0.8210 -0.1381 -0.5540
vn 0.8866 0.2248 -0.4043
vn 0.5404 0.8253 -0.1638
vn 0.1088 0.9937 -0.0267
vn 0.0039 1.0000 -0.0003
vn -0.0482 0.9988 -0.0000
vn 0.4057 0.8167 0.4104
vn -0.0744 0.9962 -0.0447
vn -0.1944 0.9729 -0.1255
vn -0.3821 0.8988 -0.2150
vn -0.5943 0.7497 -0.2910
vn -0.7947 0.4930 -0.3540
vn -0.6713 0.4904 -0.5557
vn -0.1638 0.4927 -0.8547
vn 0.3179 0.2063 -0.9254
vn 0.6805 -0.0479 -0.7312
vn 0.8278 0.1039 -0.5512
vn 0.6669 0.6835 -0.2968
vn 0.2138 0.9746 -0.0669
vn 0.0197 0.9998 -0.0065
vn 0.0032 1.0000 -0.0022
vn -0.0503 0.9985 -0.0211
vn 0.4866 0.7220 0.4919
vn -0.0889 0.9940 -0.0640
vn -0.2367 0.9612 -0.1415
vn -0.4456 0.8685 -0.2170
vn -0.6487 0.6913 -0.3182
vn -0.7561 0.4913 -0.4323
vn -0.3444 0.5975 -0.7241
vn 0.1246 0.3895 -0.9126
vn 0.4980 0.1403 -0.8557
vn 0.7444 0.1281 -0.6553
vn 0.7006 0.5761 -0.4210
vn 0.3229 0.9367 -0.1351
vn 0.0571 0.9982 -0.0180
vn 0.0001 1.0000 0.0002
vn 0.0105 0.9999 -0.0018
vn -0.0219 0.9996 -0.0185
vn -0.1131 0.9908 -0.0749
vn -0.3012 0.9418 -0.1489
vn -0.4925 0.8400 -0.2277
vn -0.7011 0.6287 -0.3363
vn -0.5243 0.6330 -0.5696
vn -0.0175 0.6002 -0.7997
vn 0.3339 0.3720 -0.8661
vn 0.6221 0.2874 -0.7282
vn 0.6801 0.5371 -0.4990
vn 0.3996 0.8932 -0.2059
vn 0.1100 0.9932 -0.0369
vn -0.4922 0.7113 0.5017
vn 0.4695 0.7416 0.4791
vn -0.1588 0.9836 -0.0854
vn -0.3651 0.9161 -0.1659
vn -0.5433 0.7973 -0.2630
vn -0.6188 0.6554 -0.4329
vn -0.1888 0.7277 -0.6594
vn 0.2061 0.5896 -0.7809
vn 0.4789 0.4882 -0.7296
vn 0.6155 0.5762 -0.5378
vn 0.4344 0.8616 -0.2625
vn 0.1632 0.9841 -0.0700
vn 0.0253 0.9997 -0.0070
vn -0.0500 0.9984 -0.0265
vn -0.2144 0.9711 -0.1050
vn -0.3980 0.8934 -0.2083
vn -0.5631 0.7527 -0.3412
vn -0.3778 0.7465 -0.5478
vn 0.0752 0.7386 -0.6699
vn 0.3446 0.6589 -0.6687
vn 0.5208 0.6626 -0.5383
vn 0.4325 0.8507 -0.2986
vn 0.2070 0.9729 -0.1031
vn 0.0500 0.9986 -0.0186
vn -0.0071 1.0000 -0.0035
vn 0.4258 0.7719 0.4722
vn -0.2581 0.9565 -0.1359
vn -0.4155 0.8679 -0.2724
vn -0.4577 0.7639 -0.4549
vn -0.1040 0.7912 -0.6026
vn 0.2222 0.7660 -0.6032
vn 0.4102 0.7492 -0.5200
vn 0.3970 0.8589 -0.3235
vn 0.2360 0.9621 -0.1367
vn 0.0790 0.9964 -0.0308
vn 0.0020 1.0000 -0.0019
vn 0.3834 0.8105 0.4428
vn -0.2696 0.9452 -0.1842
vn -0.3862 0.8518 -0.3540
vn -0.2561 0.8039 -0.5367
vn 0.0765 0.8159 -0.5730
vn 0.2948 0.8182 -0.4937
vn 0.3351 0.8777 -0.3424
vn 0.2415 0.9548 -0.1732
vn 0.3965 0.8476 -0.3527
vn -0.5576 0.6452 -0.5223
vn -0.2592 0.9395 -0.2240
vn -0.2793 0.8660 -0.4147
vn -0.0733 0.8458 -0.5284
vn 0.1557 0.8596 -0.4867
vn 0.2672 0.8934 -0.3612
vn 0.2207 0.9524 -0.2104
vn 0.1015 0.9926 -0.0662
vn -0.1081 0.9909 -0.0807
vn -0.2018 0.9450 -0.2575
vn -0.1453 0.9003 -0.4104
vn 0.0313 0.8835 -0.4673
vn 0.1744 0.9140 -0.3663
vn 0.1757 0.9553 -0.2376
vn 0.0903 0.9922 -0.0861
vn -0.0804 0.9917 -0.1005
vn -0.1232 0.9593 -0.2542
vn -0.0187 0.9377 -0.3470
vn 0.0466 0.9438 -0.3272
vn 0.1327 0.9655 -0.2240
vn 0.0677 0.9933 -0.0932
vn -0.0028 1.0000 -0.0024
vn -0.5155 0.6455 -0.5635
vn -0.4894 0.8313 0.2637
vn 0.5242 0.7955 0.3040
vn 0.0427 0.9955 -0.0842
vn 0.0030 1.0000 -0.0033
vn -0.0105 0.9999 -0.0018
vn -0.0067 0.9965 -0.0839
vn 0.0108 0.9970 -0.0766
vn 0.0065 1.0000 -0.0006
vn -0.0137 0.9999 0.0040
vn 0.0024 0.9998 -0.0179
vn -0.0119 0.9999 -0.0109
vn 0.0099 0.9999 -0.0103
vn -0.0066 1.0000 -0.0048
vn -0.0000 0.9993 -0.0365
vn -0.0000 0.9994 -0.0354
vn -0.0112 0.9999 -0.0115
vn 0.0034 0.9999 -0.0124
vn -0.0016 1.0000 -0.0098
vn -0.0131 0.9993 -0.0343
vn 0.0136 0.9993 -0.0339
vn -0.0136 0.9993 -0.0339
vn 0.0131 0.9993 -0.0343
vn 0.0016 1.0000 -0.0098
vn 0.0005 1.0000 -0.0063
vn 0.0030 1.0000 -0.0030
vt 0.320312 0.000000
vt 0.280685 0.115998
vt 0.164062 0.000000
vt 0.882812 0.000000
vt 0.723146 0.179251
vt 0.642179 0.101325
vt 0.804705 0.254582
vt 0.890758 0.006160
vt 0.968569 0.084953
vt 0.944222 0.553124
vt 0.828972 0.489992
vt 0.857344 0.459362
vt 0.201306 0.196858
vt 0.000000 0.148437
vt 0.007812 0.000000
vt 0.485588 0.098672
vt 0.453155 0.128437
vt 0.398437 0.000000
vt 1.000000 0.000000
vt 1.000000 0.054688
vt 1.000000 0.117188
vt 0.469457 0.113581
vt 0.501254 0.113940
vt 0.485152 0.128885
vt 0.468830 0.143670
vt 0.500895 0.144280
vt 0.404005 0.173068
vt 0.452335 0.158374
vt 0.436747 0.143237
vt 0.484530 0.158998
vt 0.517003 0.129359
vt 0.516745 0.159809
vt 0.435708 0.173056
vt 0.420325 0.158062
vt 0.467916 0.173538
vt 0.500366 0.174348
vt 0.532833 0.144952
vt 0.532833 0.175439
vt 0.562981 0.021481
vt 0.418995 0.187847
vt 0.451082 0.187963
vt 0.483651 0.188554
vt 0.516538 0.189617
vt 0.548779 0.160873
vt 0.549360 0.191166
vt 0.402102 0.202870
vt 0.387261 0.188528
vt 0.434086 0.202407
vt 0.466625 0.202548
vt 0.499829 0.203439
vt 0.533224 0.205217
vt 0.565136 0.176692
vt 0.566433 0.207211
vt 0.385114 0.218098
vt 0.370417 0.203990
vt 0.416960 0.217007
vt 0.449371 0.216488
vt 0.482729 0.217011
vt 0.516676 0.218944
vt 0.550617 0.221655
vt 0.581975 0.192513
vt 0.584106 0.223793
vt 0.320416 0.251184
vt 0.303652 0.267472
vt 0.368140 0.233528
vt 0.353603 0.219543
vt 0.399760 0.231847
vt 0.431988 0.230516
vt 0.465288 0.230388
vt 0.499700 0.232366
vt 0.534406 0.235890
vt 0.568844 0.239146
vt 0.616769 0.224954
vt 0.602210 0.241054
vt 0.351236 0.249207
vt 0.336916 0.235257
vt 0.382567 0.246967
vt 0.414522 0.244773
vt 0.447587 0.243715
vt 0.482227 0.245473
vt 0.517686 0.249886
vt 0.553489 0.254443
vt 0.587901 0.257417
vt 0.634081 0.241548
vt 0.620285 0.257945
vt 0.599311 0.208521
vt 0.334386 0.265176
vt 0.365397 0.262421
vt 0.397018 0.259390
vt 0.429663 0.257208
vt 0.464211 0.258431
vt 0.500380 0.263446
vt 0.537588 0.269785
vt 0.574053 0.273797
vt 0.607008 0.274765
vt 0.651048 0.257503
vt 0.637721 0.273789
vt 0.317450 0.281427
vt 0.348188 0.278343
vt 0.379598 0.274532
vt 0.411499 0.271123
vt 0.445680 0.271475
vt 0.482124 0.277099
vt 0.521049 0.284999
vt 0.560218 0.290484
vt 0.594492 0.291832
vt 0.624979 0.290535
vt 0.668068 0.272658
vt 0.654751 0.288800
vt 0.286835 0.283747
vt 0.300459 0.297801
vt 0.330888 0.294617
vt 0.362150 0.290327
vt 0.393357 0.285778
vt 0.426511 0.284833
vt 0.463116 0.290842
vt 0.503155 0.300473
vt 0.545990 0.307501
vt 0.582577 0.309334
vt 0.613077 0.307754
vt 0.641951 0.305266
vt 0.685132 0.287526
vt 0.671753 0.303587
vt 0.121107 0.275817
vt 0.000000 0.304687
vt 0.220561 0.348528
vt 0.270033 0.299982
vt 0.283547 0.314145
vt 0.313579 0.311250
vt 0.344462 0.306900
vt 0.375502 0.301335
vt 0.407005 0.298933
vt 0.443535 0.304601
vt 0.483958 0.316224
vt 0.530380 0.325119
vt 0.570690 0.327381
vt 0.602101 0.325514
vt 0.629876 0.322120
vt 0.658756 0.319805
vt 0.701905 0.302664
vt 0.688579 0.318551
vt 0.253333 0.316156
vt 0.266767 0.330463
vt 0.296502 0.327893
vt 0.326598 0.323692
vt 0.357757 0.318125
vt 0.388253 0.313992
vt 0.422750 0.318512
vt 0.464502 0.331399
vt 0.512793 0.343332
vt 0.557769 0.346215
vt 0.591643 0.343898
vt 0.618700 0.339436
vt 0.646193 0.336202
vt 0.675500 0.334561
vt 0.705217 0.333565
vt 0.043140 0.351579
vt 0.000000 0.398437
vt 0.882130 0.333626
vt 0.718552 0.317824
vt 0.236864 0.332284
vt 0.250175 0.346780
vt 0.279743 0.344500
vt 0.308973 0.340970
vt 0.340204 0.335908
vt 0.370267 0.330394
vt 0.402303 0.332821
vt 0.443380 0.346272
vt 0.493809 0.360610
vt 0.543184 0.365344
vt 0.580865 0.362799
vt 0.608362 0.357266
vt 0.634188 0.352807
vt 0.662631 0.350680
vt 0.691983 0.349487
vt 0.735070 0.332953
vt 0.721488 0.348767
vt 0.233782 0.363156
vt 0.263200 0.361100
vt 0.291996 0.357998
vt 0.322338 0.353498
vt 0.352456 0.348197
vt 0.382779 0.348178
vt 0.422071 0.359777
vt 0.472846 0.376623
vt 0.526800 0.384019
vt 0.569277 0.381696
vt 0.598443 0.375447
vt 0.622849 0.369655
vt 0.649973 0.366837
vt 0.678963 0.365474
vt 0.708128 0.364634
vt 0.204402 0.364833
vt 0.217568 0.379566
vt 0.246772 0.377652
vt 0.275547 0.374946
vt 0.304588 0.371207
vt 0.335360 0.366302
vt 0.365745 0.363799
vt 0.400907 0.373315
vt 0.450427 0.390210
vt 0.508132 0.401079
vt 0.556220 0.400308
vt 0.588488 0.393676
vt 0.612159 0.386744
vt 0.637602 0.382983
vt 0.666099 0.381434
vt 0.695045 0.380463
vt 0.156668 0.413292
vt 0.188374 0.381126
vt 0.201527 0.395947
vt 0.230546 0.394218
vt 0.259365 0.391864
vt 0.287549 0.388323
vt 0.318366 0.384246
vt 0.348696 0.381080
vt 0.380985 0.386053
vt 0.427092 0.401891
vt 0.486547 0.415287
vt 0.541153 0.417764
vt 0.577982 0.411504
vt 0.601988 0.403850
vt 0.625616 0.399061
vt 0.653312 0.397327
vt 0.682015 0.396332
vt 0.723888 0.380053
vt 0.710757 0.395774
vt 0.172467 0.397333
vt 0.185676 0.412235
vt 0.214525 0.410740
vt 0.243278 0.408655
vt 0.271375 0.405586
vt 0.301034 0.402117
vt 0.331567 0.398535
vt 0.362114 0.399632
vt 0.403951 0.412569
vt 0.461501 0.426946
vt 0.522915 0.433017
vt 0.566179 0.428461
vt 0.592095 0.420530
vt 0.614042 0.414945
vt 0.640659 0.413078
vt 0.669117 0.412114
vt 0.697662 0.411487
vt 0.739479 0.395587
vt 0.726183 0.411267
vt 1.000000 0.304687
vt 1.000000 0.210938
vt 0.169964 0.428390
vt 0.198732 0.427168
vt 0.227336 0.425433
vt 0.255510 0.422773
vt 0.283799 0.419054
vt 0.314804 0.415721
vt 0.344767 0.415279
vt 0.381710 0.422745
vt 0.434630 0.436757
vt 0.499739 0.444966
vt 0.552180 0.444183
vt 0.581891 0.436505
vt 0.603042 0.430477
vt 0.628298 0.428614
vt 0.656306 0.427784
vt 0.684597 0.427216
vt 0.712989 0.426909
vt 0.741470 0.426876
vt 0.812617 0.411516
vt 0.141261 0.428841
vt 0.154694 0.444259
vt 0.183223 0.443462
vt 0.211660 0.442106
vt 0.239875 0.439862
vt 0.267509 0.436607
vt 0.298281 0.433461
vt 0.328652 0.431216
vt 0.360463 0.434098
vt 0.408466 0.445156
vt 0.471707 0.453868
vt 0.534279 0.457378
vt 0.570738 0.451870
vt 0.592837 0.445566
vt 0.616422 0.443812
vt 0.643631 0.443289
vt 0.671670 0.442854
vt 0.699772 0.442571
vt 0.727983 0.442524
vt 0.770076 0.426997
vt 0.756497 0.442618
vt 0.139676 0.460156
vt 0.126070 0.444411
vt 0.926649 0.381624
vt 0.167969 0.459659
vt 0.196280 0.458636
vt 0.224384 0.456909
vt 0.251976 0.454153
vt 0.280428 0.450648
vt 0.311756 0.447675
vt 0.340792 0.447734
vt 0.382226 0.454502
vt 0.441561 0.462753
vt 0.509990 0.465839
vt 0.557919 0.465893
vt 0.582999 0.460121
vt 0.605139 0.458610
vt 0.631272 0.458577
vt 0.658807 0.458395
vt 0.686544 0.458235
vt 0.714565 0.458138
vt 0.742878 0.458225
vt 0.153159 0.475785
vt 0.181229 0.475042
vt 0.209189 0.473800
vt 0.236842 0.471512
vt 0.264128 0.468296
vt 0.295093 0.465537
vt 0.324244 0.462807
vt 0.357430 0.465531
vt 0.410997 0.471891
vt 0.480055 0.473153
vt 0.540605 0.476041
vt 0.572704 0.474264
vt 0.595561 0.473339
vt 0.619484 0.473534
vt 0.646185 0.473800
vt 0.673540 0.473856
vt 0.701138 0.473807
vt 0.729054 0.473821
vt 0.800172 0.458511
vt 1.000000 0.460938
vt 0.166553 0.491386
vt 0.194320 0.490498
vt 0.221884 0.488847
vt 0.248955 0.486168
vt 0.277541 0.483021
vt 0.307974 0.479933
vt 0.335821 0.478685
vt 0.380975 0.481861
vt 0.446232 0.483316
vt 0.516253 0.481816
vt 0.560576 0.486543
vt 0.587813 0.488047
vt 0.608347 0.488249
vt 0.633740 0.488997
vt 0.660602 0.489433
vt 0.687653 0.489546
vt 0.715086 0.489549
vt 0.055540 0.523745
vt 0.179750 0.507054
vt 0.207242 0.505947
vt 0.234383 0.503909
vt 0.261262 0.500940
vt 0.291624 0.498313
vt 0.318145 0.494851
vt 0.353484 0.494498
vt 0.411442 0.495631
vt 0.484440 0.492349
vt 0.543718 0.493186
vt 0.580293 0.501852
vt 0.599692 0.503321
vt 0.621717 0.503975
vt 0.647624 0.504886
vt 0.674346 0.505295
vt 0.701373 0.505357
vt 0.152149 0.507742
vt 0.165400 0.523504
vt 0.192878 0.522766
vt 0.220042 0.521402
vt 0.246493 0.519100
vt 0.274760 0.516777
vt 0.303156 0.513440
vt 0.329767 0.510471
vt 0.377625 0.510240
vt 0.447962 0.507014
vt 0.518020 0.504417
vt 0.568525 0.511051
vt 0.593801 0.517634
vt 0.610638 0.519147
vt 0.634829 0.520253
vt 0.661057 0.521030
vt 0.687654 0.521243
vt 0.785162 0.442746
vt 0.714729 0.521154
vt 0.137828 0.523970
vt 0.151214 0.539814
vt 0.178720 0.539347
vt 0.205979 0.538541
vt 0.232664 0.536940
vt 0.259069 0.534956
vt 0.287995 0.532703
vt 0.312042 0.528958
vt 0.348287 0.527786
vt 0.409600 0.526109
vt 0.485842 0.523592
vt 0.547509 0.524081
vt 0.586622 0.531507
vt 0.603389 0.534448
vt 0.622337 0.535666
vt 0.647581 0.536734
vt 0.673974 0.537166
vt 0.700943 0.537193
vt 0.754843 0.568245
vt 0.728149 0.536818
vt 0.164705 0.555739
vt 0.192105 0.555279
vt 0.218994 0.554384
vt 0.245081 0.552985
vt 0.272415 0.551588
vt 0.298333 0.549056
vt 0.325070 0.547232
vt 0.374073 0.547588
vt 0.448845 0.546435
vt 0.520148 0.548070
vt 0.573415 0.547978
vt 0.597551 0.549911
vt 0.611376 0.551555
vt 0.634101 0.552499
vt 0.660117 0.553164
vt 0.686660 0.553217
vt 0.713969 0.553027
vt 0.178392 0.571716
vt 0.205561 0.571334
vt 0.232029 0.570555
vt 0.257900 0.569802
vt 0.285191 0.568919
vt 0.309083 0.567079
vt 0.344888 0.568646
vt 0.408772 0.573080
vt 0.488017 0.576032
vt 0.549778 0.573550
vt 0.587632 0.568937
vt 0.604090 0.568017
vt 0.620823 0.568582
vt 0.645910 0.569258
vt 0.672295 0.569383
vt 0.699240 0.569141
vt 0.192362 0.587832
vt 0.219060 0.587673
vt 0.245098 0.587340
vt 0.271422 0.587172
vt 0.296279 0.586898
vt 0.323663 0.588391
vt 0.372337 0.595710
vt 0.449010 0.605517
vt 0.521963 0.603778
vt 0.571460 0.594301
vt 0.595878 0.587134
vt 0.608981 0.585424
vt 0.631379 0.585587
vt 0.657594 0.585679
vt 0.684440 0.585384
vt 0.000000 0.585938
vt 0.000000 0.460938
vt 0.206216 0.604207
vt 0.232592 0.604360
vt 0.258296 0.604585
vt 0.284549 0.605377
vt 0.309372 0.606919
vt 0.344644 0.613944
vt 0.407869 0.629198
vt 0.487009 0.634979
vt 0.548232 0.625614
vt 0.583462 0.611798
vt 0.600035 0.603840
vt 0.616825 0.602380
vt 0.642490 0.602191
vt 0.669345 0.601760
vt 0.696778 0.601146
vt 0.220072 0.620902
vt 0.246285 0.621398
vt 0.272172 0.622270
vt 0.297463 0.624282
vt 0.325500 0.629945
vt 0.373024 0.645247
vt 0.446364 0.660755
vt 0.520221 0.656378
vt 0.563643 0.642084
vt 0.587903 0.626693
vt 0.603364 0.619989
vt 0.626921 0.619043
vt 0.653777 0.618324
vt 0.681163 0.617516
vt 1.000000 0.492187
vt 1.000000 0.617188
vt 0.095248 0.572237
vt 0.000000 0.648437
vt 0.180068 0.635906
vt 0.193213 0.620206
vt 0.207453 0.636922
vt 0.234246 0.637812
vt 0.260294 0.638727
vt 0.286360 0.640495
vt 0.312274 0.644903
vt 0.347815 0.656805
vt 0.407874 0.676410
vt 0.483863 0.682422
vt 0.542162 0.670045
vt 0.571764 0.653060
vt 0.590162 0.639843
vt 0.610963 0.636298
vt 0.637767 0.635140
vt 0.665324 0.634075
vt 0.693299 0.633016
vt 0.194732 0.652611
vt 0.222076 0.653727
vt 0.248839 0.654840
vt 0.274998 0.656207
vt 0.301342 0.659096
vt 0.330083 0.667278
vt 0.377150 0.684708
vt 0.445191 0.699601
vt 0.512743 0.693871
vt 0.552280 0.678340
vt 0.574751 0.662072
vt 0.595029 0.654166
vt 0.621337 0.652244
vt 0.649052 0.650832
vt 0.677070 0.649541
vt 0.836557 0.659584
vt 0.914534 0.584425
vt 0.166888 0.651668
vt 0.182027 0.668222
vt 0.209749 0.669339
vt 0.237130 0.670554
vt 0.264013 0.671848
vt 0.290532 0.673873
vt 0.317765 0.678317
vt 0.354048 0.690836
vt 0.411241 0.707875
vt 0.477968 0.711784
vt 0.528604 0.699905
vt 0.556930 0.684553
vt 0.578662 0.672914
vt 0.604396 0.669584
vt 0.632374 0.667771
vt 0.660607 0.666232
vt 0.197317 0.684838
vt 0.225133 0.686013
vt 0.252752 0.687236
vt 0.279949 0.688760
vt 0.307093 0.691297
vt 0.337855 0.697801
vt 0.383936 0.712122
vt 0.444286 0.721988
vt 0.500212 0.716463
vt 0.536579 0.703781
vt 0.560906 0.692095
vt 0.586927 0.686994
vt 0.615350 0.684825
vt 0.643846 0.683046
vt 0.212918 0.701394
vt 0.241053 0.702438
vt 0.269094 0.703740
vt 0.296918 0.705439
vt 0.325764 0.708440
vt 0.363294 0.716748
vt 0.415024 0.727103
vt 0.470402 0.728065
vt 0.513200 0.719409
vt 0.542042 0.709566
vt 0.568743 0.704378
vt 0.597836 0.701828
vt 0.626826 0.699926
vt 0.012739 0.664869
vt 0.000000 0.679687
vt 0.228993 0.717592
vt 0.257601 0.718682
vt 0.286210 0.720031
vt 0.315072 0.721654
vt 0.347704 0.725171
vt 0.391137 0.732252
vt 0.442162 0.736242
vt 0.488168 0.732080
vt 0.521595 0.725287
vt 0.550074 0.721234
vt 0.579742 0.718681
vt 0.609541 0.716531
vt 0.245516 0.733648
vt 0.274723 0.734739
vt 0.304088 0.736143
vt 0.335074 0.737618
vt 0.372053 0.740951
vt 0.417128 0.744426
vt 0.463060 0.744013
vt 0.500237 0.740389
vt 0.530748 0.737536
vt 0.561130 0.735268
vt 0.591727 0.733016
vt 0.754524 0.738565
vt 0.709339 0.616711
vt 0.262500 0.749510
vt 0.292363 0.750610
vt 0.322943 0.752033
vt 0.356540 0.753543
vt 0.395728 0.755578
vt 0.439240 0.756352
vt 0.478584 0.755222
vt 0.511112 0.753320
vt 0.542325 0.751500
vt 0.573511 0.749373
vt 0.279846 0.765214
vt 0.310407 0.766329
vt 0.342556 0.767664
vt 0.378029 0.769153
vt 0.417341 0.770101
vt 0.457155 0.770019
vt 0.491461 0.768721
vt 0.523589 0.767423
vt 0.555200 0.765615
vt 0.297358 0.780857
vt 0.328908 0.781738
vt 0.362410 0.783015
vt 0.398354 0.784228
vt 0.436339 0.784629
vt 0.472006 0.783838
vt 0.504989 0.782842
vt 0.537156 0.781804
vt 0.164159 0.824477
vt 0.315094 0.796185
vt 0.347588 0.797016
vt 0.381738 0.798093
vt 0.417250 0.798879
vt 0.452776 0.798898
vt 0.486501 0.797991
vt 0.519527 0.797165
vt 0.332945 0.811430
vt 0.365999 0.812218
vt 0.400113 0.812860
vt 0.434390 0.813206
vt 0.468379 0.813019
vt 0.501775 0.812344
vt 0.672616 0.820206
vt 0.087868 0.743766
vt 1.000000 0.679687
vt 0.350652 0.826694
vt 0.383880 0.827344
vt 0.450754 0.827911
vt 0.484226 0.827497
vt 0.367963 0.842089
vt 0.467107 0.842760
vt 0.245026 0.901501
vt 0.000000 0.867187
vt 0.000000 0.835938
vt 0.592838 0.901183
vt 0.060924 0.929642
vt 0.000000 0.992188
vt 0.327207 0.978628
vt 0.515542 0.978969
vt 1.000000 0.835938
vt 0.585938 0.000000
vt 0.132812 1.000000
vt 0.148437 1.000000
vt 0.304688 1.000000
vt 0.351562 1.000000
vt 0.418449 0.887087
vt 0.492188 1.000000
vt 0.539062 1.000000
vt 0.695312 1.000000
vt 0.898438 0.000000
vt 0.851563 1.000000
vt 0.539062 0.000000
vt 0.359299 0.037203
vt 0.742188 0.000000
vt 0.754844 0.411280
vt 1.000000 0.992188
vt 1.000000 1.000000
s 1
f 3/1/3 18/2/18 2/3/2
f 8/4/8 41/5/41 17/6/17
f 89/7/89 11/8/11 15/9/15
f 426/10/387 353/11/162 316/12/292
f 42/13/42 25/14/25 1/15/1
f 16/16/16 22/17/22 4/18/4
f 10/19/10 15/9/15 11/8/11
f 14/20/14 21/21/21 15/9/15
f 19/22/19 20/23/20 23/24/23
f 19/22/19 27/25/27 22/17/22
f 20/23/20 28/26/28 23/24/23
f 35/27/35 18/2/18 22/17/22
f 22/17/22 31/28/31 26/29/26
f 23/24/23 32/30/32 27/25/27
f 24/31/24 33/32/33 28/26/28
f 26/29/26 36/33/36 30/34/30
f 27/25/27 37/35/37 31/28/31
f 28/26/28 38/36/38 32/30/32
f 29/37/29 39/38/39 33/32/33
f 29/37/29 20/23/20 12/39/12
f 30/34/30 44/40/44 35/27/35
f 31/28/31 45/41/45 36/33/36
f 32/30/32 46/42/46 37/35/37
f 33/32/33 47/43/47 38/36/38
f 34/44/34 48/45/48 39/38/39
f 35/27/35 51/46/51 43/47/43
f 36/33/36 52/48/52 44/40/44
f 37/35/37 53/49/53 45/41/45
f 38/36/38 54/50/54 46/42/46
f 39/38/39 55/51/55 47/43/47
f 40/52/40 56/53/56 48/45/48
f 43/47/43 60/54/60 50/55/50
f 44/40/44 61/56/61 51/46/51
f 45/41/45 62/57/62 52/48/52
f 46/42/46 63/58/63 53/49/53
f 47/43/47 64/59/64 54/50/54
f 48/45/48 65/60/65 55/51/55
f 49/61/49 66/62/66 56/53/56
f 78/63/78 91/64/91 18/2/18
f 50/55/50 69/65/69 59/66/59
f 51/46/51 70/67/70 60/54/60
f 52/48/52 71/68/71 61/56/61
f 53/49/53 72/69/72 62/57/62
f 54/50/54 73/70/73 63/58/63
f 55/51/55 74/71/74 64/59/64
f 65/60/65 66/62/66 75/72/75
f 66/62/66 67/73/67 76/74/76
f 59/66/59 79/75/79 68/76/68
f 60/54/60 80/77/80 69/65/69
f 61/56/61 81/78/81 70/67/70
f 62/57/62 82/79/82 71/68/71
f 63/58/63 83/80/83 72/69/72
f 64/59/64 84/81/84 73/70/73
f 74/71/74 75/72/75 85/82/85
f 75/72/75 76/74/76 86/83/86
f 76/74/76 77/84/77 87/85/87
f 41/5/41 57/86/57 49/61/49
f 68/76/68 92/87/92 78/63/78
f 69/65/69 93/88/93 79/75/79
f 70/67/70 94/89/94 80/77/80
f 71/68/71 95/90/95 81/78/81
f 72/69/72 96/91/96 82/79/82
f 73/70/73 97/92/97 83/80/83
f 84/81/84 85/82/85 98/93/98
f 85/82/85 86/83/86 99/94/99
f 86/83/86 87/85/87 100/95/100
f 87/85/87 88/96/88 101/97/101
f 78/63/78 104/98/104 91/64/91
f 79/75/79 105/99/105 92/87/92
f 80/77/80 106/100/106 93/88/93
f 81/78/81 107/101/107 94/89/94
f 82/79/82 108/102/108 95/90/95
f 83/80/83 109/103/109 96/91/96
f 97/92/97 98/93/98 110/104/110
f 98/93/98 99/94/99 111/105/111
f 99/94/99 100/95/100 112/106/112
f 100/95/100 101/97/101 113/107/113
f 101/97/101 102/108/102 114/109/114
f 103/110/103 104/98/104 118/111/118
f 92/87/92 119/112/119 104/98/104
f 93/88/93 120/113/120 105/99/105
f 94/89/94 121/114/121 106/100/106
f 95/90/95 122/115/122 107/101/107
f 96/91/96 123/116/123 108/102/108
f 97/92/97 124/117/124 109/103/109
f 110/104/110 111/105/111 125/118/125
f 111/105/111 112/106/112 126/119/126
f 112/106/112 113/107/113 127/120/127
f 113/107/113 114/109/114 128/121/128
f 114/109/114 115/122/115 129/123/129
f 90/124/90 116/125/116 25/14/25
f 165/126/165 90/124/90 103/110/103
f 117/127/117 118/111/118 133/128/133
f 104/98/104 134/129/134 118/111/118
f 105/99/105 135/130/135 119/112/119
f 106/100/106 136/131/136 120/113/120
f 107/101/107 137/132/137 121/114/121
f 108/102/108 138/133/138 122/115/122
f 109/103/109 139/134/139 123/116/123
f 110/104/110 140/135/140 124/117/124
f 125/118/125 126/119/126 141/136/141
f 126/119/126 127/120/127 142/137/142
f 127/120/127 128/121/128 143/138/143
f 128/121/128 129/123/129 144/139/144
f 129/123/129 130/140/130 145/141/145
f 132/142/132 133/128/133 148/143/148
f 133/128/133 134/129/134 149/144/149
f 119/112/119 150/145/150 134/129/134
f 120/113/120 151/146/151 135/130/135
f 121/114/121 152/147/152 136/131/136
f 122/115/122 153/148/153 137/132/137
f 123/116/123 154/149/154 138/133/138
f 124/117/124 155/150/155 139/134/139
f 140/135/140 141/136/141 156/151/156
f 141/136/141 142/137/142 157/152/157
f 142/137/142 143/138/143 158/153/158
f 143/138/143 144/139/144 159/154/159
f 144/139/144 145/141/145 160/155/160
f 130/140/130 161/156/161 145/141/145
f 116/125/116 164/157/164 215/158/212
f 21/21/21 163/159/163 89/7/89
f 146/160/146 115/122/115 88/96/88
f 147/161/147 148/143/148 166/162/166
f 148/143/148 149/144/149 167/163/167
f 134/129/134 168/164/168 149/144/149
f 135/130/135 169/165/169 150/145/150
f 136/131/136 170/166/170 151/146/151
f 152/147/152 153/148/153 171/167/171
f 138/133/138 172/168/172 153/148/153
f 139/134/139 173/169/173 154/149/154
f 140/135/140 174/170/174 155/150/155
f 156/151/156 157/152/157 175/171/175
f 157/152/157 158/153/158 176/172/176
f 158/153/158 159/154/159 177/173/177
f 159/154/159 160/155/160 178/174/178
f 160/155/160 161/156/161 179/175/179
f 161/156/161 162/176/162 180/177/162
f 165/126/165 166/162/166 182/178/181
f 166/162/166 167/163/167 183/179/182
f 167/163/167 168/164/168 184/180/183
f 150/145/150 185/181/184 168/164/168
f 169/165/169 170/166/170 186/182/185
f 170/166/170 171/167/171 187/183/186
f 153/148/153 188/184/187 171/167/171
f 154/149/154 189/185/188 172/168/172
f 155/150/155 190/186/189 173/169/173
f 156/151/156 191/187/190 174/170/174
f 175/171/175 176/172/176 192/188/191
f 176/172/176 177/173/177 193/189/192
f 177/173/177 178/174/178 194/190/193
f 178/174/178 179/175/179 195/191/194
f 161/156/161 196/192/162 179/175/179
f 181/193/180 182/178/181 198/194/196
f 182/178/181 183/179/182 199/195/197
f 183/179/182 184/180/183 200/196/198
f 168/164/168 201/197/199 184/180/183
f 185/181/184 186/182/185 202/198/200
f 186/182/185 187/183/186 203/199/201
f 187/183/186 188/184/187 204/200/202
f 172/168/172 205/201/203 188/184/187
f 173/169/173 206/202/204 189/185/188
f 174/170/174 207/203/205 190/186/189
f 191/187/190 192/188/191 208/204/206
f 192/188/191 193/189/192 209/205/207
f 193/189/192 194/190/193 210/206/208
f 194/190/193 195/191/194 211/207/209
f 179/175/179 212/208/210 195/191/194
f 234/209/162 164/157/164 181/193/180
f 197/210/195 198/194/196 217/211/214
f 198/194/196 199/195/197 218/212/215
f 199/195/197 200/196/198 219/213/216
f 200/196/198 201/197/199 220/214/217
f 185/181/184 221/215/218 201/197/199
f 202/198/200 203/199/201 222/216/219
f 203/199/201 204/200/202 223/217/220
f 188/184/187 224/218/221 204/200/202
f 189/185/188 225/219/222 205/201/203
f 190/186/189 226/220/223 206/202/204
f 191/187/190 227/221/224 207/203/205
f 208/204/206 209/205/207 228/222/225
f 209/205/207 210/206/208 229/223/226
f 210/206/208 211/207/209 230/224/227
f 211/207/209 212/208/210 231/225/228
f 212/208/210 213/226/162 232/227/162
f 216/228/213 217/211/214 235/229/229
f 217/211/214 218/212/215 236/230/230
f 218/212/215 219/213/216 237/231/231
f 219/213/216 220/214/217 238/232/232
f 201/197/199 239/233/233 220/214/217
f 221/215/218 222/216/219 240/234/234
f 222/216/219 223/217/220 241/235/235
f 204/200/202 242/236/236 223/217/220
f 205/201/203 243/237/237 224/218/221
f 206/202/204 244/238/238 225/219/222
f 207/203/205 245/239/239 226/220/223
f 227/221/224 228/222/225 246/240/240
f 228/222/225 229/223/226 247/241/241
f 229/223/226 230/224/227 248/242/242
f 230/224/227 231/225/228 249/243/243
f 212/208/210 250/244/162 231/225/228
f 232/227/162 233/245/162 251/246/162
f 131/247/131 163/159/163 58/248/58
f 216/228/213 255/249/245 234/209/162
f 235/229/229 236/230/230 256/250/246
f 236/230/230 237/231/231 257/251/247
f 237/231/231 238/232/232 258/252/248
f 220/214/217 259/253/249 238/232/232
f 239/233/233 240/234/234 260/254/250
f 240/234/234 241/235/235 261/255/251
f 223/217/220 262/256/252 241/235/235
f 224/218/221 263/257/253 242/236/236
f 225/219/222 264/258/254 243/237/237
f 226/220/223 265/259/255 244/238/238
f 227/221/224 266/260/256 245/239/239
f 246/240/240 247/241/241 267/261/257
f 247/241/241 248/242/242 268/262/258
f 248/242/242 249/243/243 269/263/259
f 249/243/243 250/244/162 270/264/260
f 232/227/162 271/265/162 250/244/162
f 233/245/162 272/266/162 251/246/162
f 253/267/162 233/245/162 213/226/162
f 163/159/163 162/176/162 89/7/89
f 254/268/244 255/249/245 275/269/162
f 255/249/245 256/250/246 276/270/261
f 256/250/246 257/251/247 277/271/262
f 257/251/247 258/252/248 278/272/263
f 258/252/248 259/253/249 279/273/264
f 239/233/233 280/274/265 259/253/249
f 260/254/250 261/255/251 281/275/266
f 241/235/235 282/276/267 261/255/251
f 242/236/236 283/277/268 262/256/252
f 243/237/237 284/278/269 263/257/253
f 244/238/238 285/279/270 264/258/254
f 245/239/239 286/280/271 265/259/255
f 266/260/256 267/261/257 287/281/272
f 267/261/257 268/262/258 288/282/273
f 268/262/258 269/263/259 289/283/274
f 269/263/259 270/264/260 290/284/275
f 250/244/162 291/285/162 270/264/260
f 271/265/162 272/266/162 292/286/162
f 272/266/162 273/287/162 293/288/162
f 254/268/244 296/289/162 274/290/162
f 214/291/211 253/267/162 163/159/163
f 255/249/245 297/292/277 275/269/162
f 276/270/261 277/271/262 298/293/278
f 277/271/262 278/272/263 299/294/279
f 278/272/263 279/273/264 300/295/280
f 259/253/249 301/296/281 279/273/264
f 280/274/265 281/275/266 302/297/282
f 281/275/266 282/276/267 303/298/283
f 262/256/252 304/299/284 282/276/267
f 263/257/253 305/300/285 283/277/268
f 264/258/254 306/301/286 284/278/269
f 265/259/255 307/302/287 285/279/270
f 286/280/271 287/281/272 308/303/288
f 287/281/272 288/282/273 309/304/289
f 288/282/273 289/283/274 310/305/290
f 289/283/274 290/284/275 311/306/291
f 290/284/275 291/285/162 312/307/162
f 271/265/162 313/308/162 291/285/162
f 272/266/162 314/309/162 292/286/162
f 296/289/162 297/292/277 318/310/294
f 297/292/277 298/293/278 319/311/295
f 298/293/278 299/294/279 320/312/296
f 299/294/279 300/295/280 321/313/297
f 300/295/280 301/296/281 322/314/298
f 280/274/265 323/315/299 301/296/281
f 302/297/282 303/298/283 324/316/300
f 282/276/267 325/317/301 303/298/283
f 283/277/268 326/318/302 304/299/284
f 284/278/269 327/319/303 305/300/285
f 285/279/270 328/320/304 306/301/286
f 286/280/271 329/321/305 307/302/287
f 308/303/288 309/304/289 330/322/306
f 309/304/289 310/305/290 331/323/307
f 310/305/290 311/306/291 332/324/308
f 290/284/275 333/325/309 311/306/291
f 291/285/162 334/326/162 312/307/162
f 313/308/162 314/309/162 335/327/162
f 253/267/162 353/11/162 315/328/162
f 131/247/131 317/329/293 214/291/211
f 318/310/294 319/311/295 336/330/310
f 319/311/295 320/312/296 337/331/311
f 320/312/296 321/313/297 338/332/312
f 321/313/297 322/314/298 339/333/313
f 301/296/281 340/334/314 322/314/298
f 323/315/299 324/316/300 341/335/315
f 303/298/283 342/336/316 324/316/300
f 304/299/284 343/337/317 325/317/301
f 305/300/285 344/338/318 326/318/302
f 306/301/286 345/339/319 327/319/303
f 307/302/287 346/340/320 328/320/304
f 329/321/305 330/322/306 347/341/321
f 330/322/306 331/323/307 348/342/322
f 331/323/307 332/324/308 349/343/323
f 332/324/308 333/325/309 350/344/324
f 333/325/309 334/326/162 351/345/162
f 334/326/162 335/327/162 352/346/162
f 372/347/341 215/158/212 164/157/164
f 336/330/310 337/331/311 356/348/327
f 337/331/311 338/332/312 357/349/328
f 338/332/312 339/333/313 358/350/329
f 339/333/313 340/334/314 359/351/330
f 323/315/299 360/352/331 340/334/314
f 341/335/315 342/336/316 361/353/332
f 325/317/301 362/354/333 342/336/316
f 326/318/302 363/355/334 343/337/317
f 327/319/303 364/356/335 344/338/318
f 328/320/304 365/357/336 345/339/319
f 329/321/305 366/358/337 346/340/320
f 347/341/321 348/342/322 367/359/338
f 348/342/322 349/343/323 368/360/339
f 349/343/323 350/344/324 369/361/340
f 350/344/324 351/345/162 370/362/162
f 334/326/162 371/363/162 351/345/162
f 355/364/326 356/348/327 374/365/342
f 356/348/327 357/349/328 375/366/343
f 357/349/328 358/350/329 376/367/344
f 358/350/329 359/351/330 377/368/345
f 340/334/314 378/369/346 359/351/330
f 360/352/331 361/353/332 379/370/347
f 342/336/316 380/371/348 361/353/332
f 343/337/317 381/372/349 362/354/333
f 344/338/318 382/373/350 363/355/334
f 345/339/319 383/374/351 364/356/335
f 346/340/320 384/375/352 365/357/336
f 366/358/337 367/359/338 385/376/353
f 367/359/338 368/360/339 386/377/354
f 368/360/339 369/361/340 387/378/355
f 350/344/324 388/379/356 369/361/340
f 370/362/162 371/363/162 389/380/162
f 294/381/162 390/382/162 335/327/162
f 373/383/162 374/365/342 391/384/357
f 374/365/342 375/366/343 392/385/358
f 375/366/343 376/367/344 393/386/359
f 376/367/344 377/368/345 394/387/360
f 377/368/345 378/369/346 395/388/361
f 378/369/346 379/370/347 396/389/362
f 379/370/347 380/371/348 397/390/363
f 362/354/333 398/391/364 380/371/348
f 363/355/334 399/392/365 381/372/349
f 364/356/335 400/393/366 382/373/350
f 365/357/336 401/394/367 383/374/351
f 366/358/337 402/395/368 384/375/352
f 385/376/353 386/377/354 403/396/369
f 386/377/354 387/378/355 404/397/370
f 387/378/355 388/379/356 405/398/371
f 370/362/162 406/399/162 388/379/356
f 371/363/162 407/400/162 389/380/162
f 317/329/293 426/10/387 316/12/292
f 315/328/162 444/401/162 408/402/162
f 391/384/357 392/385/358 409/403/372
f 392/385/358 393/386/359 410/404/373
f 393/386/359 394/387/360 411/405/374
f 394/387/360 395/388/361 412/406/375
f 378/369/346 413/407/376 395/388/361
f 396/389/362 397/390/363 414/408/377
f 380/371/348 415/409/378 397/390/363
f 381/372/349 416/410/379 398/391/364
f 382/373/350 417/411/380 399/392/365
f 383/374/351 418/412/381 400/393/366
f 384/375/352 419/413/382 401/394/367
f 402/395/368 403/396/369 420/414/383
f 403/396/369 404/397/370 421/415/384
f 404/397/370 405/398/371 422/416/385
f 388/379/356 423/417/386 405/398/371
f 406/399/162 407/400/162 424/418/162
f 390/382/162 425/419/162 407/400/162
f 318/310/294 373/383/162 372/347/341
f 409/403/372 410/404/373 428/420/389
f 410/404/373 411/405/374 429/421/390
f 411/405/374 412/406/375 430/422/391
f 412/406/375 413/407/376 431/423/392
f 413/407/376 414/408/377 432/424/393
f 414/408/377 415/409/378 433/425/394
f 398/391/364 434/426/395 415/409/378
f 399/392/365 435/427/396 416/410/379
f 400/393/366 436/428/397 417/411/380
f 401/394/367 437/429/398 418/412/381
f 419/413/382 420/414/383 438/430/399
f 420/414/383 421/415/384 439/431/400
f 421/415/384 422/416/385 440/432/401
f 422/416/385 423/417/386 441/433/402
f 423/417/386 424/418/162 442/434/403
f 407/400/162 443/435/404 424/418/162
f 428/420/389 429/421/390 446/436/406
f 429/421/390 430/422/391 447/437/407
f 430/422/391 431/423/392 448/438/408
f 431/423/392 432/424/393 449/439/409
f 432/424/393 433/425/394 450/440/410
f 415/409/378 451/441/411 433/425/394
f 416/410/379 452/442/412 434/426/395
f 417/411/380 453/443/413 435/427/396
f 418/412/381 454/444/414 436/428/397
f 419/413/382 455/445/415 437/429/398
f 438/430/399 439/431/400 456/446/416
f 439/431/400 440/432/401 457/447/417
f 440/432/401 441/433/402 458/448/418
f 441/433/402 442/434/403 459/449/419
f 442/434/403 443/435/404 460/450/162
f 372/347/341 445/451/405 295/452/276
f 446/436/406 447/437/407 462/453/421
f 447/437/407 448/438/408 463/454/422
f 448/438/408 449/439/409 464/455/423
f 449/439/409 450/440/410 465/456/424
f 450/440/410 451/441/411 466/457/425
f 434/426/395 467/458/426 451/441/411
f 435/427/396 468/459/427 452/442/412
f 436/428/397 469/460/428 453/443/413
f 437/429/398 470/461/429 454/444/414
f 455/445/415 456/446/416 471/462/430
f 456/446/416 457/447/417 472/463/431
f 457/447/417 458/448/418 473/464/432
f 458/448/418 459/449/419 474/465/433
f 459/449/419 460/450/162 475/466/260
f 425/419/162 444/401/162 476/467/162
f 462/453/421 463/454/422 478/468/435
f 463/454/422 464/455/423 479/469/436
f 464/455/423 465/456/424 480/470/437
f 465/456/424 466/457/425 481/471/438
f 451/441/411 482/472/439 466/457/425
f 452/442/412 483/473/440 467/458/426
f 453/443/413 484/474/441 468/459/427
f 454/444/414 485/475/442 469/460/428
f 470/461/429 471/462/430 486/476/443
f 471/462/430 472/463/431 487/477/444
f 472/463/431 473/464/432 488/478/445
f 473/464/432 474/465/433 489/479/446
f 474/465/433 475/466/260 490/480/447
f 475/466/260 476/467/162 491/481/162
f 354/482/325 493/483/448 426/10/387
f 427/484/388 510/485/463 445/451/405
f 428/420/389 494/486/449 427/484/388
f 477/487/434 478/468/435 495/488/450
f 478/468/435 479/469/436 496/489/451
f 479/469/436 480/470/437 497/490/452
f 480/470/437 481/471/438 498/491/453
f 481/471/438 482/472/439 499/492/454
f 467/458/426 500/493/455 482/472/439
f 468/459/427 501/494/456 483/473/440
f 469/460/428 502/495/457 484/474/441
f 470/461/429 503/496/458 485/475/442
f 486/476/443 487/477/444 504/497/459
f 487/477/444 488/478/445 505/498/460
f 488/478/445 489/479/446 506/499/461
f 489/479/446 490/480/447 507/500/462
f 475/466/260 508/501/162 490/480/447
f 476/467/162 509/502/162 491/481/162
f 494/486/449 495/488/450 512/503/465
f 495/488/450 496/489/451 513/504/466
f 496/489/451 497/490/452 514/505/467
f 497/490/452 498/491/453 515/506/468
f 498/491/453 499/492/454 516/507/469
f 482/472/439 517/508/470 499/492/454
f 483/473/440 518/509/471 500/493/455
f 484/474/441 519/510/472 501/494/456
f 485/475/442 520/511/473 502/495/457
f 503/496/458 504/497/459 521/512/474
f 504/497/459 505/498/460 522/513/475
f 505/498/460 506/499/461 523/514/476
f 506/499/461 507/500/462 524/515/477
f 490/480/447 525/516/478 507/500/462
f 508/501/162 509/502/162 526/517/162
f 543/518/494 353/11/162 461/519/420
f 511/520/464 512/503/465 528/521/480
f 512/503/465 513/504/466 529/522/481
f 513/504/466 514/505/467 530/523/482
f 514/505/467 515/506/468 531/524/483
f 515/506/468 516/507/469 532/525/484
f 499/492/454 533/526/485 516/507/469
f 500/493/455 534/527/486 517/508/470
f 501/494/456 535/528/487 518/509/471
f 502/495/457 536/529/488 519/510/472
f 503/496/458 537/530/489 520/511/473
f 521/512/474 522/513/475 538/531/490
f 522/513/475 523/514/476 539/532/491
f 523/514/476 524/515/477 540/533/492
f 524/515/477 525/516/478 541/534/493
f 508/501/162 542/535/162 525/516/478
f 528/521/480 529/522/481 545/536/496
f 529/522/481 530/523/482 546/537/497
f 530/523/482 531/524/483 547/538/498
f 531/524/483 532/525/484 548/539/499
f 532/525/484 533/526/485 549/540/500
f 517/508/470 550/541/501 533/526/485
f 518/509/471 551/542/502 534/527/486
f 519/510/472 552/543/503 535/528/487
f 520/511/473 553/544/504 536/529/488
f 521/512/474 554/545/505 537/530/489
f 538/531/490 539/532/491 555/546/506
f 539/532/491 540/533/492 556/547/507
f 540/533/492 541/534/493 557/548/508
f 525/516/478 558/549/509 541/534/493
f 493/483/448 461/519/420 426/10/387
f 545/536/496 546/537/497 560/550/511
f 546/537/497 547/538/498 561/551/512
f 547/538/498 548/539/499 562/552/513
f 548/539/499 549/540/500 563/553/514
f 533/526/485 564/554/515 549/540/500
f 534/527/486 565/555/516 550/541/501
f 535/528/487 566/556/517 551/542/502
f 536/529/488 567/557/518 552/543/503
f 537/530/489 568/558/519 553/544/504
f 554/545/505 555/546/506 569/559/520
f 555/546/506 556/547/507 570/560/521
f 556/547/507 557/548/508 571/561/522
f 541/534/493 572/562/523 557/548/508
f 511/520/464 527/563/479 427/484/388
f 544/564/495 510/485/463 527/563/479
f 560/550/511 561/551/512 573/565/524
f 561/551/512 562/552/513 574/566/525
f 562/552/513 563/553/514 575/567/526
f 549/540/500 576/568/527 563/553/514
f 550/541/501 577/569/528 564/554/515
f 551/542/502 578/570/529 565/555/516
f 552/543/503 579/571/530 566/556/517
f 553/544/504 580/572/531 567/557/518
f 554/545/505 581/573/532 568/558/519
f 569/559/520 570/560/521 582/574/533
f 570/560/521 571/561/522 583/575/534
f 571/561/522 572/562/523 584/576/535
f 573/565/524 574/566/525 585/577/536
f 574/566/525 575/567/526 586/578/537
f 575/567/526 576/568/527 587/579/538
f 564/554/515 588/580/539 576/568/527
f 565/555/516 589/581/540 577/569/528
f 566/556/517 590/582/541 578/570/529
f 567/557/518 591/583/542 579/571/530
f 568/558/519 592/584/543 580/572/531
f 581/573/532 582/574/533 593/585/544
f 582/574/533 583/575/534 594/586/545
f 583/575/534 584/576/535 595/587/546
f 607/588/558 509/502/162 492/589/162
f 585/577/536 586/578/537 597/590/548
f 586/578/537 587/579/538 598/591/549
f 576/568/527 599/592/550 587/579/538
f 577/569/528 600/593/551 588/580/539
f 578/570/529 601/594/552 589/581/540
f 579/571/530 602/595/553 590/582/541
f 580/572/531 603/596/554 591/583/542
f 592/584/543 593/585/544 604/597/555
f 593/585/544 594/586/545 605/598/556
f 594/586/545 595/587/546 606/599/557
f 597/590/548 598/591/549 608/600/559
f 598/591/549 599/592/550 609/601/560
f 588/580/539 610/602/561 599/592/550
f 589/581/540 611/603/562 600/593/551
f 590/582/541 612/604/563 601/594/552
f 591/583/542 613/605/564 602/595/553
f 603/596/554 604/597/555 614/606/565
f 604/597/555 605/598/556 615/607/566
f 605/598/556 606/599/557 616/608/567
f 608/600/559 609/601/560 617/609/568
f 599/592/550 618/610/569 609/601/560
f 600/593/551 619/611/570 610/602/561
f 601/594/552 620/612/571 611/603/562
f 602/595/553 621/613/572 612/604/563
f 613/605/564 614/606/565 622/614/573
f 614/606/565 615/607/566 623/615/574
f 615/607/566 616/608/567 624/616/575
f 560/550/511 638/617/589 511/520/464
f 609/601/560 625/618/576 617/609/568
f 610/602/561 626/619/577 618/610/569
f 611/603/562 627/620/578 619/611/570
f 612/604/563 628/621/579 620/612/571
f 613/605/564 629/622/580 621/613/572
f 622/614/573 623/615/574 630/623/581
f 623/615/574 624/616/575 631/624/582
f 618/610/569 632/625/583 625/618/576
f 619/611/570 633/626/584 626/619/577
f 620/612/571 634/627/585 627/620/578
f 621/613/572 635/628/586 628/621/579
f 629/622/580 630/623/581 636/629/587
f 630/623/581 631/624/582 637/630/588
f 643/631/594 558/549/509 526/517/162
f 596/632/547 544/564/495 527/563/479
f 559/633/510 543/518/494 461/519/420
f 626/619/577 639/634/590 632/625/583
f 627/620/578 640/635/591 633/626/584
f 629/622/580 641/636/592 635/628/586
f 636/629/587 637/630/588 642/637/593
f 633/626/584 645/638/596 639/634/590
f 636/629/587 646/639/597 641/636/592
f 635/628/586 646/639/597 645/638/596
f 625/618/576 650/640/601 585/577/536
f 638/617/589 648/641/599 644/642/595
f 651/643/602 624/616/575 606/599/557
f 648/641/599 652/644/603 655/645/606
f 645/638/596 653/646/604 632/625/583
f 654/647/605 646/639/597 642/637/593
f 647/648/598 607/588/558 543/518/494
f 6/649/6 17/6/17 12/39/12
f 2/3/2 42/13/42 1/15/1
f 655/645/606 652/644/603 656/650/607
f 638/617/589 657/651/608 656/650/607
f 650/640/601 658/652/609 657/651/608
f 658/652/609 653/646/604 659/653/610
f 649/654/600 660/655/611 659/653/610
f 660/655/611 654/647/605 661/656/612
f 651/643/602 661/656/612 654/647/605
f 643/631/594 662/657/613 651/643/602
f 8/4/8 9/658/9 11/8/11
f 607/588/558 663/659/614 643/631/594
f 5/660/5 6/649/6 12/39/12
f 3/1/3 4/18/4 13/661/13
f 3/1/3 13/661/13 18/2/18
f 17/6/17 7/662/7 8/4/8
f 8/4/8 11/8/11 41/5/41
f 89/7/89 41/5/41 11/8/11
f 426/10/387 461/519/420 353/11/162
f 42/13/42 90/124/90 25/14/25
f 4/18/4 5/660/5 12/39/12
f 16/16/16 19/22/19 22/17/22
f 4/18/4 12/39/12 16/16/16
f 22/17/22 13/661/13 4/18/4
f 11/8/11 9/658/9 10/19/10
f 10/19/10 14/20/14 15/9/15
f 19/22/19 16/16/16 20/23/20
f 19/22/19 23/24/23 27/25/27
f 20/23/20 24/31/24 28/26/28
f 22/17/22 26/29/26 30/34/30
f 35/27/35 43/47/43 50/55/50
f 22/17/22 30/34/30 35/27/35
f 18/2/18 13/661/13 22/17/22
f 35/27/35 50/55/50 18/2/18
f 22/17/22 27/25/27 31/28/31
f 23/24/23 28/26/28 32/30/32
f 24/31/24 29/37/29 33/32/33
f 26/29/26 31/28/31 36/33/36
f 27/25/27 32/30/32 37/35/37
f 28/26/28 33/32/33 38/36/38
f 29/37/29 34/44/34 39/38/39
f 12/39/12 17/6/17 40/52/40
f 40/52/40 34/44/34 29/37/29
f 29/37/29 24/31/24 20/23/20
f 20/23/20 16/16/16 12/39/12
f 12/39/12 40/52/40 29/37/29
f 30/34/30 36/33/36 44/40/44
f 31/28/31 37/35/37 45/41/45
f 32/30/32 38/36/38 46/42/46
f 33/32/33 39/38/39 47/43/47
f 34/44/34 40/52/40 48/45/48
f 35/27/35 44/40/44 51/46/51
f 36/33/36 45/41/45 52/48/52
f 37/35/37 46/42/46 53/49/53
f 38/36/38 47/43/47 54/50/54
f 39/38/39 48/45/48 55/51/55
f 40/52/40 49/61/49 56/53/56
f 43/47/43 51/46/51 60/54/60
f 44/40/44 52/48/52 61/56/61
f 45/41/45 53/49/53 62/57/62
f 46/42/46 54/50/54 63/58/63
f 47/43/47 55/51/55 64/59/64
f 48/45/48 56/53/56 65/60/65
f 49/61/49 57/86/57 66/62/66
f 50/55/50 59/66/59 68/76/68
f 18/2/18 50/55/50 68/76/68
f 103/110/103 42/13/42 18/2/18
f 91/64/91 103/110/103 18/2/18
f 18/2/18 68/76/68 78/63/78
f 50/55/50 60/54/60 69/65/69
f 51/46/51 61/56/61 70/67/70
f 52/48/52 62/57/62 71/68/71
f 53/49/53 63/58/63 72/69/72
f 54/50/54 64/59/64 73/70/73
f 55/51/55 65/60/65 74/71/74
f 65/60/65 56/53/56 66/62/66
f 66/62/66 57/86/57 67/73/67
f 59/66/59 69/65/69 79/75/79
f 60/54/60 70/67/70 80/77/80
f 61/56/61 71/68/71 81/78/81
f 62/57/62 72/69/72 82/79/82
f 63/58/63 73/70/73 83/80/83
f 64/59/64 74/71/74 84/81/84
f 74/71/74 65/60/65 75/72/75
f 75/72/75 66/62/66 76/74/76
f 76/74/76 67/73/67 77/84/77
f 40/52/40 17/6/17 41/5/41
f 41/5/41 88/96/88 77/84/77
f 41/5/41 77/84/77 67/73/67
f 49/61/49 40/52/40 41/5/41
f 41/5/41 67/73/67 57/86/57
f 68/76/68 79/75/79 92/87/92
f 69/65/69 80/77/80 93/88/93
f 70/67/70 81/78/81 94/89/94
f 71/68/71 82/79/82 95/90/95
f 72/69/72 83/80/83 96/91/96
f 73/70/73 84/81/84 97/92/97
f 84/81/84 74/71/74 85/82/85
f 85/82/85 75/72/75 86/83/86
f 86/83/86 76/74/76 87/85/87
f 87/85/87 77/84/77 88/96/88
f 78/63/78 92/87/92 104/98/104
f 79/75/79 93/88/93 105/99/105
f 80/77/80 94/89/94 106/100/106
f 81/78/81 95/90/95 107/101/107
f 82/79/82 96/91/96 108/102/108
f 83/80/83 97/92/97 109/103/109
f 97/92/97 84/81/84 98/93/98
f 98/93/98 85/82/85 99/94/99
f 99/94/99 86/83/86 100/95/100
f 100/95/100 87/85/87 101/97/101
f 101/97/101 88/96/88 102/108/102
f 103/110/103 91/64/91 104/98/104
f 92/87/92 105/99/105 119/112/119
f 93/88/93 106/100/106 120/113/120
f 94/89/94 107/101/107 121/114/121
f 95/90/95 108/102/108 122/115/122
f 96/91/96 109/103/109 123/116/123
f 97/92/97 110/104/110 124/117/124
f 110/104/110 98/93/98 111/105/111
f 111/105/111 99/94/99 112/106/112
f 112/106/112 100/95/100 113/107/113
f 113/107/113 101/97/101 114/109/114
f 114/109/114 102/108/102 115/122/115
f 90/124/90 164/157/164 116/125/116
f 103/110/103 117/127/117 132/142/132
f 132/142/132 147/161/147 165/126/165
f 165/126/165 181/193/180 90/124/90
f 90/124/90 42/13/42 103/110/103
f 103/110/103 132/142/132 165/126/165
f 117/127/117 103/110/103 118/111/118
f 104/98/104 119/112/119 134/129/134
f 105/99/105 120/113/120 135/130/135
f 106/100/106 121/114/121 136/131/136
f 107/101/107 122/115/122 137/132/137
f 108/102/108 123/116/123 138/133/138
f 109/103/109 124/117/124 139/134/139
f 110/104/110 125/118/125 140/135/140
f 125/118/125 111/105/111 126/119/126
f 126/119/126 112/106/112 127/120/127
f 127/120/127 113/107/113 128/121/128
f 128/121/128 114/109/114 129/123/129
f 129/123/129 115/122/115 130/140/130
f 132/142/132 117/127/117 133/128/133
f 133/128/133 118/111/118 134/129/134
f 119/112/119 135/130/135 150/145/150
f 120/113/120 136/131/136 151/146/151
f 121/114/121 137/132/137 152/147/152
f 122/115/122 138/133/138 153/148/153
f 123/116/123 139/134/139 154/149/154
f 124/117/124 140/135/140 155/150/155
f 140/135/140 125/118/125 141/136/141
f 141/136/141 126/119/126 142/137/142
f 142/137/142 127/120/127 143/138/143
f 143/138/143 128/121/128 144/139/144
f 144/139/144 129/123/129 145/141/145
f 130/140/130 146/160/146 161/156/161
f 89/7/89 15/9/15 21/21/21
f 21/21/21 58/248/58 163/159/163
f 88/96/88 41/5/41 89/7/89
f 89/7/89 162/176/162 146/160/146
f 146/160/146 130/140/130 115/122/115
f 115/122/115 102/108/102 88/96/88
f 88/96/88 89/7/89 146/160/146
f 147/161/147 132/142/132 148/143/148
f 148/143/148 133/128/133 149/144/149
f 134/129/134 150/145/150 168/164/168
f 135/130/135 151/146/151 169/165/169
f 136/131/136 152/147/152 170/166/170
f 152/147/152 137/132/137 153/148/153
f 138/133/138 154/149/154 172/168/172
f 139/134/139 155/150/155 173/169/173
f 140/135/140 156/151/156 174/170/174
f 156/151/156 141/136/141 157/152/157
f 157/152/157 142/137/142 158/153/158
f 158/153/158 143/138/143 159/154/159
f 159/154/159 144/139/144 160/155/160
f 160/155/160 145/141/145 161/156/161
f 161/156/161 146/160/146 162/176/162
f 165/126/165 147/161/147 166/162/166
f 166/162/166 148/143/148 167/163/167
f 167/163/167 149/144/149 168/164/168
f 150/145/150 169/165/169 185/181/184
f 169/165/169 151/146/151 170/166/170
f 170/166/170 152/147/152 171/167/171
f 153/148/153 172/168/172 188/184/187
f 154/149/154 173/169/173 189/185/188
f 155/150/155 174/170/174 190/186/189
f 156/151/156 175/171/175 191/187/190
f 175/171/175 157/152/157 176/172/176
f 176/172/176 158/153/158 177/173/177
f 177/173/177 159/154/159 178/174/178
f 178/174/178 160/155/160 179/175/179
f 161/156/161 180/177/162 196/192/162
f 181/193/180 165/126/165 182/178/181
f 182/178/181 166/162/166 183/179/182
f 183/179/182 167/163/167 184/180/183
f 168/164/168 185/181/184 201/197/199
f 185/181/184 169/165/169 186/182/185
f 186/182/185 170/166/170 187/183/186
f 187/183/186 171/167/171 188/184/187
f 172/168/172 189/185/188 205/201/203
f 173/169/173 190/186/189 206/202/204
f 174/170/174 191/187/190 207/203/205
f 191/187/190 175/171/175 192/188/191
f 192/188/191 176/172/176 193/189/192
f 193/189/192 177/173/177 194/190/193
f 194/190/193 178/174/178 195/191/194
f 179/175/179 196/192/162 212/208/210
f 181/193/180 197/210/195 216/228/213
f 234/209/162 254/268/244 274/290/162
f 181/193/180 216/228/213 234/209/162
f 164/157/164 90/124/90 181/193/180
f 234/209/162 274/290/162 164/157/164
f 197/210/195 181/193/180 198/194/196
f 198/194/196 182/178/181 199/195/197
f 199/195/197 183/179/182 200/196/198
f 200/196/198 184/180/183 201/197/199
f 185/181/184 202/198/200 221/215/218
f 202/198/200 186/182/185 203/199/201
f 203/199/201 187/183/186 204/200/202
f 188/184/187 205/201/203 224/218/221
f 189/185/188 206/202/204 225/219/222
f 190/186/189 207/203/205 226/220/223
f 191/187/190 208/204/206 227/221/224
f 208/204/206 192/188/191 209/205/207
f 209/205/207 193/189/192 210/206/208
f 210/206/208 194/190/193 211/207/209
f 211/207/209 195/191/194 212/208/210
f 212/208/210 196/192/162 213/226/162
f 216/228/213 197/210/195 217/211/214
f 217/211/214 198/194/196 218/212/215
f 218/212/215 199/195/197 219/213/216
f 219/213/216 200/196/198 220/214/217
f 201/197/199 221/215/218 239/233/233
f 221/215/218 202/198/200 222/216/219
f 222/216/219 203/199/201 223/217/220
f 204/200/202 224/218/221 242/236/236
f 205/201/203 225/219/222 243/237/237
f 206/202/204 226/220/223 244/238/238
f 207/203/205 227/221/224 245/239/239
f 227/221/224 208/204/206 228/222/225
f 228/222/225 209/205/207 229/223/226
f 229/223/226 210/206/208 230/224/227
f 230/224/227 211/207/209 231/225/228
f 212/208/210 232/227/162 250/244/162
f 232/227/162 213/226/162 233/245/162
f 131/247/131 214/291/211 163/159/163
f 216/228/213 235/229/229 255/249/245
f 235/229/229 217/211/214 236/230/230
f 236/230/230 218/212/215 237/231/231
f 237/231/231 219/213/216 238/232/232
f 220/214/217 239/233/233 259/253/249
f 239/233/233 221/215/218 240/234/234
f 240/234/234 222/216/219 241/235/235
f 223/217/220 242/236/236 262/256/252
f 224/218/221 243/237/237 263/257/253
f 225/219/222 244/238/238 264/258/254
f 226/220/223 245/239/239 265/259/255
f 227/221/224 246/240/240 266/260/256
f 246/240/240 228/222/225 247/241/241
f 247/241/241 229/223/226 248/242/242
f 248/242/242 230/224/227 249/243/243
f 249/243/243 231/225/228 250/244/162
f 232/227/162 251/246/162 271/265/162
f 233/245/162 252/663/162 272/266/162
f 213/226/162 196/192/162 180/177/162
f 180/177/162 162/176/162 253/267/162
f 253/267/162 294/381/162 273/287/162
f 253/267/162 273/287/162 252/663/162
f 213/226/162 180/177/162 253/267/162
f 253/267/162 252/663/162 233/245/162
f 163/159/163 253/267/162 162/176/162
f 254/268/244 234/209/162 255/249/245
f 255/249/245 235/229/229 256/250/246
f 256/250/246 236/230/230 257/251/247
f 257/251/247 237/231/231 258/252/248
f 258/252/248 238/232/232 259/253/249
f 239/233/233 260/254/250 280/274/265
f 260/254/250 240/234/234 261/255/251
f 241/235/235 262/256/252 282/276/267
f 242/236/236 263/257/253 283/277/268
f 243/237/237 264/258/254 284/278/269
f 244/238/238 265/259/255 285/279/270
f 245/239/239 266/260/256 286/280/271
f 266/260/256 246/240/240 267/261/257
f 267/261/257 247/241/241 268/262/258
f 268/262/258 248/242/242 269/263/259
f 269/263/259 249/243/243 270/264/260
f 250/244/162 271/265/162 291/285/162
f 271/265/162 251/246/162 272/266/162
f 272/266/162 252/663/162 273/287/162
f 254/268/244 275/269/162 296/289/162
f 214/291/211 316/12/292 253/267/162
f 255/249/245 276/270/261 297/292/277
f 276/270/261 256/250/246 277/271/262
f 277/271/262 257/251/247 278/272/263
f 278/272/263 258/252/248 279/273/264
f 259/253/249 280/274/265 301/296/281
f 280/274/265 260/254/250 281/275/266
f 281/275/266 261/255/251 282/276/267
f 262/256/252 283/277/268 304/299/284
f 263/257/253 284/278/269 305/300/285
f 264/258/254 285/279/270 306/301/286
f 265/259/255 286/280/271 307/302/287
f 286/280/271 266/260/256 287/281/272
f 287/281/272 267/261/257 288/282/273
f 288/282/273 268/262/258 289/283/274
f 289/283/274 269/263/259 290/284/275
f 290/284/275 270/264/260 291/285/162
f 271/265/162 292/286/162 313/308/162
f 272/266/162 293/288/162 314/309/162
f 296/289/162 275/269/162 297/292/277
f 297/292/277 276/270/261 298/293/278
f 298/293/278 277/271/262 299/294/279
f 299/294/279 278/272/263 300/295/280
f 300/295/280 279/273/264 301/296/281
f 280/274/265 302/297/282 323/315/299
f 302/297/282 281/275/266 303/298/283
f 282/276/267 304/299/284 325/317/301
f 283/277/268 305/300/285 326/318/302
f 284/278/269 306/301/286 327/319/303
f 285/279/270 307/302/287 328/320/304
f 286/280/271 308/303/288 329/321/305
f 308/303/288 287/281/272 309/304/289
f 309/304/289 288/282/273 310/305/290
f 310/305/290 289/283/274 311/306/291
f 290/284/275 312/307/162 333/325/309
f 291/285/162 313/308/162 334/326/162
f 313/308/162 292/286/162 314/309/162
f 315/328/162 294/381/162 253/267/162
f 253/267/162 316/12/292 353/11/162
f 318/310/294 297/292/277 319/311/295
f 319/311/295 298/293/278 320/312/296
f 320/312/296 299/294/279 321/313/297
f 321/313/297 300/295/280 322/314/298
f 301/296/281 323/315/299 340/334/314
f 323/315/299 302/297/282 324/316/300
f 303/298/283 325/317/301 342/336/316
f 304/299/284 326/318/302 343/337/317
f 305/300/285 327/319/303 344/338/318
f 306/301/286 328/320/304 345/339/319
f 307/302/287 329/321/305 346/340/320
f 329/321/305 308/303/288 330/322/306
f 330/322/306 309/304/289 331/323/307
f 331/323/307 310/305/290 332/324/308
f 332/324/308 311/306/291 333/325/309
f 333/325/309 312/307/162 334/326/162
f 334/326/162 313/308/162 335/327/162
f 164/157/164 274/290/162 372/347/341
f 372/347/341 295/452/276 215/158/212
f 336/330/310 319/311/295 337/331/311
f 337/331/311 320/312/296 338/332/312
f 338/332/312 321/313/297 339/333/313
f 339/333/313 322/314/298 340/334/314
f 323/315/299 341/335/315 360/352/331
f 341/335/315 324/316/300 342/336/316
f 325/317/301 343/337/317 362/354/333
f 326/318/302 344/338/318 363/355/334
f 327/319/303 345/339/319 364/356/335
f 328/320/304 346/340/320 365/357/336
f 329/321/305 347/341/321 366/358/337
f 347/341/321 330/322/306 348/342/322
f 348/342/322 331/323/307 349/343/323
f 349/343/323 332/324/308 350/344/324
f 350/344/324 333/325/309 351/345/162
f 334/326/162 352/346/162 371/363/162
f 355/364/326 336/330/310 356/348/327
f 356/348/327 337/331/311 357/349/328
f 357/349/328 338/332/312 358/350/329
f 358/350/329 339/333/313 359/351/330
f 340/334/314 360/352/331 378/369/346
f 360/352/331 341/335/315 361/353/332
f 342/336/316 362/354/333 380/371/348
f 343/337/317 363/355/334 381/372/349
f 344/338/318 364/356/335 382/373/350
f 345/339/319 365/357/336 383/374/351
f 346/340/320 366/358/337 384/375/352
f 366/358/337 347/341/321 367/359/338
f 367/359/338 348/342/322 368/360/339
f 368/360/339 349/343/323 369/361/340
f 350/344/324 370/362/162 388/379/356
f 370/362/162 351/345/162 371/363/162
f 335/327/162 314/309/162 293/288/162
f 293/288/162 273/287/162 294/381/162
f 294/381/162 315/328/162 408/402/162
f 390/382/162 371/363/162 352/346/162
f 294/381/162 408/402/162 390/382/162
f 335/327/162 293/288/162 294/381/162
f 390/382/162 352/346/162 335/327/162
f 373/383/162 355/364/326 374/365/342
f 374/365/342 356/348/327 375/366/343
f 375/366/343 357/349/328 376/367/344
f 376/367/344 358/350/329 377/368/345
f 377/368/345 359/351/330 378/369/346
f 378/369/346 360/352/331 379/370/347
f 379/370/347 361/353/332 380/371/348
f 362/354/333 381/372/349 398/391/364
f 363/355/334 382/373/350 399/392/365
f 364/356/335 383/374/351 400/393/366
f 365/357/336 384/375/352 401/394/367
f 366/358/337 385/376/353 402/395/368
f 385/376/353 367/359/338 386/377/354
f 386/377/354 368/360/339 387/378/355
f 387/378/355 369/361/340 388/379/356
f 370/362/162 389/380/162 406/399/162
f 371/363/162 390/382/162 407/400/162
f 316/12/292 214/291/211 317/329/293
f 317/329/293 354/482/325 426/10/387
f 315/328/162 353/11/162 444/401/162
f 391/384/357 374/365/342 392/385/358
f 392/385/358 375/366/343 393/386/359
f 393/386/359 376/367/344 394/387/360
f 394/387/360 377/368/345 395/388/361
f 378/369/346 396/389/362 413/407/376
f 396/389/362 379/370/347 397/390/363
f 380/371/348 398/391/364 415/409/378
f 381/372/349 399/392/365 416/410/379
f 382/373/350 400/393/366 417/411/380
f 383/374/351 401/394/367 418/412/381
f 384/375/352 402/395/368 419/413/382
f 402/395/368 385/376/353 403/396/369
f 403/396/369 386/377/354 404/397/370
f 404/397/370 387/378/355 405/398/371
f 388/379/356 406/399/162 423/417/386
f 406/399/162 389/380/162 407/400/162
f 390/382/162 408/402/162 425/419/162
f 372/347/341 274/290/162 296/289/162
f 318/310/294 336/330/310 355/364/326
f 372/347/341 296/289/162 318/310/294
f 373/383/162 427/484/388 372/347/341
f 318/310/294 355/364/326 373/383/162
f 409/403/372 392/385/358 410/404/373
f 410/404/373 393/386/359 411/405/374
f 411/405/374 394/387/360 412/406/375
f 412/406/375 395/388/361 413/407/376
f 413/407/376 396/389/362 414/408/377
f 414/408/377 397/390/363 415/409/378
f 398/391/364 416/410/379 434/426/395
f 399/392/365 417/411/380 435/427/396
f 400/393/366 418/412/381 436/428/397
f 401/394/367 419/413/382 437/429/398
f 419/413/382 402/395/368 420/414/383
f 420/414/383 403/396/369 421/415/384
f 421/415/384 404/397/370 422/416/385
f 422/416/385 405/398/371 423/417/386
f 423/417/386 406/399/162 424/418/162
f 407/400/162 425/419/162 443/435/404
f 428/420/389 410/404/373 429/421/390
f 429/421/390 411/405/374 430/422/391
f 430/422/391 412/406/375 431/423/392
f 431/423/392 413/407/376 432/424/393
f 432/424/393 414/408/377 433/425/394
f 415/409/378 434/426/395 451/441/411
f 416/410/379 435/427/396 452/442/412
f 417/411/380 436/428/397 453/443/413
f 418/412/381 437/429/398 454/444/414
f 419/413/382 438/430/399 455/445/415
f 438/430/399 420/414/383 439/431/400
f 439/431/400 421/415/384 440/432/401
f 440/432/401 422/416/385 441/433/402
f 441/433/402 423/417/386 442/434/403
f 442/434/403 424/418/162 443/435/404
f 446/436/406 429/421/390 447/437/407
f 447/437/407 430/422/391 448/438/408
f 448/438/408 431/423/392 449/439/409
f 449/439/409 432/424/393 450/440/410
f 450/440/410 433/425/394 451/441/411
f 434/426/395 452/442/412 467/458/426
f 435/427/396 453/443/413 468/459/427
f 436/428/397 454/444/414 469/460/428
f 437/429/398 455/445/415 470/461/429
f 455/445/415 438/430/399 456/446/416
f 456/446/416 439/431/400 457/447/417
f 457/447/417 440/432/401 458/448/418
f 458/448/418 441/433/402 459/449/419
f 459/449/419 442/434/403 460/450/162
f 460/450/162 443/435/404 425/419/162
f 425/419/162 408/402/162 444/401/162
f 444/401/162 492/589/162 476/467/162
f 476/467/162 460/450/162 425/419/162
f 462/453/421 447/437/407 463/454/422
f 463/454/422 448/438/408 464/455/423
f 464/455/423 449/439/409 465/456/424
f 465/456/424 450/440/410 466/457/425
f 451/441/411 467/458/426 482/472/439
f 452/442/412 468/459/427 483/473/440
f 453/443/413 469/460/428 484/474/441
f 454/444/414 470/461/429 485/475/442
f 470/461/429 455/445/415 471/462/430
f 471/462/430 456/446/416 472/463/431
f 472/463/431 457/447/417 473/464/432
f 473/464/432 458/448/418 474/465/433
f 474/465/433 459/449/419 475/466/260
f 475/466/260 460/450/162 476/467/162
f 445/451/405 372/347/341 427/484/388
f 427/484/388 527/563/479 510/485/463
f 427/484/388 373/383/162 391/384/357
f 391/384/357 409/403/372 428/420/389
f 428/420/389 446/436/406 462/453/421
f 462/453/421 477/487/434 494/486/449
f 494/486/449 511/520/464 427/484/388
f 427/484/388 391/384/357 428/420/389
f 428/420/389 462/453/421 494/486/449
f 477/487/434 462/453/421 478/468/435
f 478/468/435 463/454/422 479/469/436
f 479/469/436 464/455/423 480/470/437
f 480/470/437 465/456/424 481/471/438
f 481/471/438 466/457/425 482/472/439
f 467/458/426 483/473/440 500/493/455
f 468/459/427 484/474/441 501/494/456
f 469/460/428 485/475/442 502/495/457
f 470/461/429 486/476/443 503/496/458
f 486/476/443 471/462/430 487/477/444
f 487/477/444 472/463/431 488/478/445
f 488/478/445 473/464/432 489/479/446
f 489/479/446 474/465/433 490/480/447
f 475/466/260 491/481/162 508/501/162
f 476/467/162 492/589/162 509/502/162
f 494/486/449 477/487/434 495/488/450
f 495/488/450 478/468/435 496/489/451
f 496/489/451 479/469/436 497/490/452
f 497/490/452 480/470/437 498/491/453
f 498/491/453 481/471/438 499/492/454
f 482/472/439 500/493/455 517/508/470
f 483/473/440 501/494/456 518/509/471
f 484/474/441 502/495/457 519/510/472
f 485/475/442 503/496/458 520/511/473
f 503/496/458 486/476/443 504/497/459
f 504/497/459 487/477/444 505/498/460
f 505/498/460 488/478/445 506/499/461
f 506/499/461 489/479/446 507/500/462
f 490/480/447 508/501/162 525/516/478
f 508/501/162 491/481/162 509/502/162
f 543/518/494 444/401/162 353/11/162
f 511/520/464 494/486/449 512/503/465
f 512/503/465 495/488/450 513/504/466
f 513/504/466 496/489/451 514/505/467
f 514/505/467 497/490/452 515/506/468
f 515/506/468 498/491/453 516/507/469
f 499/492/454 517/508/470 533/526/485
f 500/493/455 518/509/471 534/527/486
f 501/494/456 519/510/472 535/528/487
f 502/495/457 520/511/473 536/529/488
f 503/496/458 521/512/474 537/530/489
f 521/512/474 504/497/459 522/513/475
f 522/513/475 505/498/460 523/514/476
f 523/514/476 506/499/461 524/515/477
f 524/515/477 507/500/462 525/516/478
f 508/501/162 526/517/162 542/535/162
f 528/521/480 512/503/465 529/522/481
f 529/522/481 513/504/466 530/523/482
f 530/523/482 514/505/467 531/524/483
f 531/524/483 515/506/468 532/525/484
f 532/525/484 516/507/469 533/526/485
f 517/508/470 534/527/486 550/541/501
f 518/509/471 535/528/487 551/542/502
f 519/510/472 536/529/488 552/543/503
f 520/511/473 537/530/489 553/544/504
f 521/512/474 538/531/490 554/545/505
f 538/531/490 522/513/475 539/532/491
f 539/532/491 523/514/476 540/533/492
f 540/533/492 524/515/477 541/534/493
f 525/516/478 542/535/162 558/549/509
f 493/483/448 559/633/510 461/519/420
f 545/536/496 529/522/481 546/537/497
f 546/537/497 530/523/482 547/538/498
f 547/538/498 531/524/483 548/539/499
f 548/539/499 532/525/484 549/540/500
f 533/526/485 550/541/501 564/554/515
f 534/527/486 551/542/502 565/555/516
f 535/528/487 552/543/503 566/556/517
f 536/529/488 553/544/504 567/557/518
f 537/530/489 554/545/505 568/558/519
f 554/545/505 538/531/490 555/546/506
f 555/546/506 539/532/491 556/547/507
f 556/547/507 540/533/492 557/548/508
f 541/534/493 558/549/509 572/562/523
f 511/520/464 596/632/547 527/563/479
f 560/550/511 546/537/497 561/551/512
f 561/551/512 547/538/498 562/552/513
f 562/552/513 548/539/499 563/553/514
f 549/540/500 564/554/515 576/568/527
f 550/541/501 565/555/516 577/569/528
f 551/542/502 566/556/517 578/570/529
f 552/543/503 567/557/518 579/571/530
f 553/544/504 568/558/519 580/572/531
f 554/545/505 569/559/520 581/573/532
f 569/559/520 555/546/506 570/560/521
f 570/560/521 556/547/507 571/561/522
f 571/561/522 557/548/508 572/562/523
f 573/565/524 561/551/512 574/566/525
f 574/566/525 562/552/513 575/567/526
f 575/567/526 563/553/514 576/568/527
f 564/554/515 577/569/528 588/580/539
f 565/555/516 578/570/529 589/581/540
f 566/556/517 579/571/530 590/582/541
f 567/557/518 580/572/531 591/583/542
f 568/558/519 581/573/532 592/584/543
f 581/573/532 569/559/520 582/574/533
f 582/574/533 570/560/521 583/575/534
f 583/575/534 571/561/522 584/576/535
f 444/401/162 543/518/494 607/588/558
f 607/588/558 526/517/162 509/502/162
f 492/589/162 444/401/162 607/588/558
f 585/577/536 574/566/525 586/578/537
f 586/578/537 575/567/526 587/579/538
f 576/568/527 588/580/539 599/592/550
f 577/569/528 589/581/540 600/593/551
f 578/570/529 590/582/541 601/594/552
f 579/571/530 591/583/542 602/595/553
f 580/572/531 592/584/543 603/596/554
f 592/584/543 581/573/532 593/585/544
f 593/585/544 582/574/533 594/586/545
f 594/586/545 583/575/534 595/587/546
f 597/590/548 586/578/537 598/591/549
f 598/591/549 587/579/538 599/592/550
f 588/580/539 600/593/551 610/602/561
f 589/581/540 601/594/552 611/603/562
f 590/582/541 602/595/553 612/604/563
f 591/583/542 603/596/554 613/605/564
f 603/596/554 592/584/543 604/597/555
f 604/597/555 593/585/544 605/598/556
f 605/598/556 594/586/545 606/599/557
f 608/600/559 598/591/549 609/601/560
f 599/592/550 610/602/561 618/610/569
f 600/593/551 611/603/562 619/611/570
f 601/594/552 612/604/563 620/612/571
f 602/595/553 613/605/564 621/613/572
f 613/605/564 603/596/554 614/606/565
f 614/606/565 604/597/555 615/607/566
f 615/607/566 605/598/556 616/608/567
f 511/520/464 528/521/480 545/536/496
f 560/550/511 573/565/524 585/577/536
f 511/520/464 545/536/496 560/550/511
f 638/617/589 596/632/547 511/520/464
f 560/550/511 585/577/536 638/617/589
f 609/601/560 618/610/569 625/618/576
f 610/602/561 619/611/570 626/619/577
f 611/603/562 620/612/571 627/620/578
f 612/604/563 621/613/572 628/621/579
f 613/605/564 622/614/573 629/622/580
f 622/614/573 614/606/565 623/615/574
f 623/615/574 615/607/566 624/616/575
f 618/610/569 626/619/577 632/625/583
f 619/611/570 627/620/578 633/626/584
f 620/612/571 628/621/579 634/627/585
f 621/613/572 629/622/580 635/628/586
f 629/622/580 622/614/573 630/623/581
f 630/623/581 623/615/574 631/624/582
f 526/517/162 607/588/558 643/631/594
f 643/631/594 595/587/546 584/576/535
f 584/576/535 572/562/523 558/549/509
f 558/549/509 542/535/162 526/517/162
f 643/631/594 584/576/535 558/549/509
f 596/632/547 644/642/595 544/564/495
f 559/633/510 647/648/598 543/518/494
f 626/619/577 633/626/584 639/634/590
f 627/620/578 634/627/585 640/635/591
f 629/622/580 636/629/587 641/636/592
f 636/629/587 630/623/581 637/630/588
f 633/626/584 640/635/591 645/638/596
f 636/629/587 642/637/593 646/639/597
f 645/638/596 640/635/591 634/627/585
f 634/627/585 628/621/579 635/628/586
f 635/628/586 641/636/592 646/639/597
f 646/639/597 649/654/600 645/638/596
f 645/638/596 634/627/585 635/628/586
f 585/577/536 597/590/548 608/600/559
f 585/577/536 608/600/559 617/609/568
f 650/640/601 638/617/589 585/577/536
f 625/618/576 632/625/583 650/640/601
f 585/577/536 617/609/568 625/618/576
f 644/642/595 596/632/547 638/617/589
f 638/617/589 652/644/603 648/641/599
f 595/587/546 643/631/594 651/643/602
f 651/643/602 637/630/588 631/624/582
f 624/616/575 616/608/567 606/599/557
f 651/643/602 631/624/582 624/616/575
f 606/599/557 595/587/546 651/643/602
f 632/625/583 639/634/590 645/638/596
f 645/638/596 649/654/600 653/646/604
f 653/646/604 650/640/601 632/625/583
f 637/630/588 651/643/602 654/647/605
f 654/647/605 649/654/600 646/639/597
f 642/637/593 637/630/588 654/647/605
f 647/648/598 664/664/615 607/588/558
f 6/649/6 7/662/7 17/6/17
f 2/3/2 18/2/18 42/13/42
f 656/650/607 652/644/603 638/617/589
f 638/617/589 650/640/601 657/651/608
f 650/640/601 653/646/604 658/652/609
f 659/653/610 653/646/604 649/654/600
f 649/654/600 654/647/605 660/655/611
f 651/643/602 662/657/613 661/656/612
f 643/631/594 663/659/614 662/657/613
f 607/588/558 664/665/615 663/659/614
